<svg width="716" height="773" viewBox="0 0 316 373" fill="none" xmlns="http://www.w3.org/2000/svg">
<path d="M120.311 307.433C67.1158 307.433 23.2313 265.788 20.4476 212.666L17.4083 154.666C17.0983 148.75 17.3146 142.819 18.0546 136.941L22.0958 104.845C29.2656 47.8997 82.791 8.6619 139.254 18.9595L169.048 24.3932C193.798 28.9071 215.937 42.584 231.051 62.6966L233.374 65.7878C246.391 83.1107 253.429 104.193 253.429 125.862L253.429 207.433C253.429 262.661 208.658 307.433 153.429 307.433H120.311Z" fill="#109756" fill-opacity="0.1"/>
<g clip-path="url(#clip0_87_1252)">
<path d="M50.5759 222.104C49.5476 222.104 48.5172 222.153 47.5109 222.254L47.3644 222.268C40.6898 222.96 35.8076 226.974 36.0084 231.605L36.0472 232.442C36.0728 232.971 36.1001 233.54 36.1226 234.172C36.1347 234.483 36.4971 234.722 36.948 234.722H201.128C212.703 234.64 224.237 234.536 235.406 234.414C237.501 234.419 239.594 234.292 241.677 234.033C244.781 233.602 246.936 232.748 248.264 231.423C249.916 229.779 249.969 227.708 249.869 225.369C249.665 220.647 249.463 215.685 249.262 210.739C249.084 206.379 248.907 202.032 248.73 197.869C248.62 195.399 248.377 193.219 246.501 191.552C244.467 189.75 240.759 188.837 235.478 188.837C235.414 188.837 235.35 188.837 235.286 188.837C218.736 188.906 202.337 195.578 194.48 205.44C193.576 206.576 192.732 207.792 191.917 208.968C190.712 210.705 189.467 212.501 187.981 214.107C187.176 214.989 186.306 215.784 185.38 216.484C185.316 216.536 185.243 216.591 185.166 216.644C184.989 216.779 184.805 216.909 184.625 217.025C183.571 217.738 182.46 218.33 181.309 218.792L181.192 218.838C181.105 218.875 181.01 218.912 180.915 218.945C180.25 219.195 179.559 219.412 178.867 219.587C175.872 220.361 172.466 220.546 168.745 220.138C165.328 219.753 161.955 218.947 158.682 217.733C155.236 216.456 152.011 214.864 148.891 213.325C147.521 212.648 146.104 211.949 144.689 211.287C144.423 211.162 144.161 211.04 143.896 210.918C142.167 210.128 140.6 209.476 139.105 208.924C135.401 207.551 131.567 206.718 127.689 206.445C123.572 206.18 119.945 206.679 116.91 207.922C116.073 208.264 115.258 208.676 114.472 209.154C110.877 211.343 108.661 214.573 106.518 217.698C103.852 221.584 101.095 225.602 95.6516 227.686C89.3704 230.092 80.2019 229.092 73.7153 227.354C71.6759 226.807 69.639 226.178 67.669 225.57C66.8734 225.324 66.0772 225.08 65.2805 224.838C63.7149 224.364 62.4335 224.001 61.2481 223.694L60.8731 223.596C60.6646 223.543 60.4558 223.49 60.2433 223.44C58.8352 223.093 57.5241 222.82 56.2329 222.606L55.9274 222.553C55.3149 222.459 54.7424 222.38 54.1805 222.314L53.9562 222.288C52.8557 222.165 51.7168 222.104 50.5759 222.104Z" fill="#F2F2F2"/>
<path d="M215.137 227.412C220.528 222.556 228.547 220.114 235.274 222.837C228.374 226.666 223.051 232.811 220.248 240.186C219.177 243.034 218.282 246.312 215.648 247.837C214.01 248.786 211.971 248.832 210.133 248.374C208.295 247.916 206.611 246.998 204.95 246.089L204.477 246.079C206.599 239.141 209.745 232.268 215.137 227.412Z" fill="#E6E6E6"/>
<path d="M235.236 222.984C229.278 223.754 223.715 226.38 219.336 230.49C218.377 231.358 217.562 232.372 216.919 233.494C216.328 234.607 216.046 235.858 216.103 237.117C216.132 238.291 216.298 239.49 216.041 240.651C215.901 241.244 215.636 241.8 215.266 242.283C214.895 242.766 214.427 243.166 213.891 243.456C212.574 244.212 211.065 244.45 209.58 244.632C207.932 244.834 206.216 245.018 204.79 245.942C204.617 246.054 204.453 245.779 204.626 245.667C207.108 244.06 210.249 244.645 212.919 243.572C214.164 243.071 215.266 242.192 215.656 240.863C215.998 239.701 215.828 238.465 215.788 237.276C215.715 236.049 215.943 234.822 216.454 233.704C217.037 232.553 217.812 231.51 218.746 230.618C220.816 228.579 223.194 226.877 225.792 225.576C228.75 224.075 231.943 223.09 235.233 222.665C235.437 222.638 235.438 222.958 235.236 222.984Z" fill="white"/>
<path d="M220.668 229.084C220.078 228.256 219.802 227.245 219.888 226.232C219.975 225.219 220.419 224.27 221.141 223.554C221.287 223.41 221.519 223.631 221.372 223.775C220.698 224.441 220.285 225.325 220.206 226.268C220.127 227.212 220.389 228.152 220.943 228.92C221.063 229.087 220.788 229.25 220.668 229.084Z" fill="white"/>
<path d="M216.01 236.523C218.057 236.886 220.166 236.464 221.916 235.341C222.089 235.23 222.253 235.504 222.08 235.616C220.257 236.78 218.061 237.215 215.932 236.833C215.729 236.796 215.808 236.487 216.01 236.523Z" fill="white"/>
<path d="M228.776 224.498C228.938 224.866 229.188 225.188 229.505 225.435C229.822 225.682 230.195 225.847 230.592 225.914C230.795 225.948 230.715 226.258 230.513 226.224C230.076 226.148 229.664 225.965 229.313 225.693C228.962 225.421 228.684 225.066 228.502 224.662C228.481 224.625 228.476 224.582 228.486 224.541C228.496 224.5 228.522 224.465 228.557 224.442C228.593 224.421 228.637 224.415 228.678 224.425C228.719 224.435 228.754 224.461 228.776 224.498Z" fill="white"/>
<path d="M242.681 246.256C242.553 246.238 242.426 246.221 242.296 246.205C240.58 245.977 238.848 245.889 237.118 245.942C236.984 245.944 236.848 245.948 236.715 245.954C232.547 246.125 228.448 247.068 224.625 248.735C223.104 249.4 221.636 250.18 220.233 251.067C218.297 252.293 216.295 253.776 214.13 254.276C213.904 254.33 213.676 254.371 213.446 254.398L204.501 246.656C204.489 246.628 204.476 246.602 204.464 246.574L204.093 246.281C204.162 246.231 204.235 246.179 204.304 246.129C204.344 246.099 204.386 246.071 204.426 246.041C204.453 246.022 204.48 246.003 204.504 245.984C204.513 245.978 204.522 245.971 204.529 245.967C204.553 245.948 204.577 245.933 204.599 245.916C205.005 245.629 205.413 245.344 205.825 245.061C205.827 245.059 205.827 245.059 205.831 245.059C208.946 242.874 212.309 241.067 215.851 239.675C215.957 239.635 216.065 239.592 216.175 239.556C217.77 238.963 219.41 238.502 221.08 238.176C221.995 238.001 222.919 237.872 223.847 237.79C226.245 237.583 228.661 237.754 231.006 238.297C235.681 239.38 239.958 241.946 242.49 245.948C242.555 246.05 242.618 246.151 242.681 246.256Z" fill="#E6E6E6"/>
<path d="M242.562 246.352C237.342 243.381 231.318 242.13 225.346 242.776C224.058 242.892 222.796 243.211 221.607 243.72C220.465 244.253 219.486 245.082 218.773 246.121C218.089 247.077 217.5 248.133 216.595 248.906C216.126 249.295 215.58 249.58 214.993 249.743C214.406 249.906 213.791 249.943 213.189 249.851C211.682 249.663 210.333 248.945 209.038 248.197C207.601 247.366 206.12 246.48 204.424 246.359C204.219 246.345 204.254 246.027 204.459 246.042C207.409 246.252 209.565 248.609 212.343 249.359C213.639 249.709 215.048 249.67 216.16 248.844C217.133 248.121 217.741 247.032 218.426 246.059C219.106 245.035 220.028 244.193 221.109 243.607C222.268 243.04 223.515 242.673 224.798 242.523C227.679 242.141 230.602 242.213 233.461 242.738C236.727 243.319 239.87 244.454 242.752 246.095C242.931 246.196 242.74 246.453 242.562 246.352Z" fill="white"/>
<path d="M227.257 242.455C227.284 241.438 227.673 240.465 228.352 239.708C229.031 238.952 229.957 238.461 230.965 238.324C231.169 238.297 231.221 238.613 231.016 238.64C230.078 238.765 229.215 239.223 228.584 239.929C227.953 240.634 227.595 241.543 227.575 242.489C227.57 242.695 227.252 242.659 227.257 242.455Z" fill="white"/>
<path d="M219.057 245.591C220.473 247.113 222.411 248.045 224.484 248.202C224.689 248.217 224.655 248.535 224.45 248.519C222.292 248.352 220.278 247.378 218.807 245.792C218.667 245.64 218.917 245.441 219.057 245.591Z" fill="white"/>
<path d="M236.493 243.673C236.4 244.064 236.406 244.471 236.51 244.86C236.614 245.248 236.813 245.604 237.089 245.896C237.231 246.046 236.981 246.245 236.84 246.097C236.537 245.772 236.318 245.379 236.202 244.95C236.086 244.522 236.077 244.071 236.175 243.638C236.181 243.597 236.202 243.559 236.235 243.532C236.268 243.506 236.309 243.493 236.351 243.496C236.393 243.501 236.432 243.522 236.458 243.555C236.485 243.588 236.497 243.63 236.493 243.673Z" fill="white"/>
<path d="M74.0024 232.241C78.417 225.548 86.3142 220.707 94.2664 221.749C87.9523 227.763 83.97 235.816 83.024 244.482C82.6713 247.826 82.6273 251.582 80.2345 253.945C78.7458 255.415 76.5779 256.032 74.4851 256.053C72.3922 256.074 70.3352 255.561 68.3054 255.05L67.7969 255.17C68.1357 247.161 69.5877 238.935 74.0024 232.241Z" fill="#E6E6E6"/>
<path d="M94.2672 221.917C88.1097 224.397 82.8903 228.753 79.3505 234.366C78.567 235.561 77.9768 236.872 77.6017 238.251C77.2797 239.606 77.3266 241.022 77.7374 242.352C78.0955 243.601 78.6064 244.836 78.6547 246.15C78.6694 246.823 78.5417 247.491 78.2799 248.111C78.0181 248.731 77.6282 249.288 77.1357 249.747C75.9382 250.922 74.3898 251.597 72.8526 252.204C71.1459 252.879 69.3624 253.552 68.0936 254.937C67.9398 255.105 67.6883 254.857 67.8418 254.689C70.0494 252.279 73.5719 252.032 76.1281 250.142C77.3209 249.26 78.255 248.013 78.3024 246.483C78.3438 245.146 77.818 243.871 77.4445 242.61C77.0247 241.318 76.9279 239.943 77.1624 238.605C77.466 237.212 78.0047 235.88 78.7553 234.667C80.4015 231.91 82.4712 229.429 84.8885 227.315C87.6339 224.887 90.7748 222.946 94.175 221.576C94.3855 221.491 94.4763 221.833 94.2672 221.917Z" fill="white"/>
<path d="M80.3836 232.492C79.522 231.77 78.945 230.766 78.7557 229.659C78.5664 228.551 78.7771 227.412 79.3501 226.446C79.4668 226.251 79.7757 226.423 79.6589 226.618C79.1236 227.517 78.9274 228.578 79.1058 229.609C79.2842 230.64 79.8254 231.573 80.6317 232.24C80.8068 232.385 80.5577 232.636 80.3836 232.492Z" fill="white"/>
<path d="M77.4724 241.743C79.7629 241.562 81.9008 240.524 83.4599 238.837C83.6142 238.67 83.8658 238.918 83.7116 239.085C82.086 240.838 79.859 241.913 77.475 242.097C77.2477 242.114 77.2464 241.761 77.4724 241.743Z" fill="white"/>
<path d="M87.7794 225.332C88.0546 225.68 88.4121 225.955 88.8198 226.132C89.2275 226.308 89.6726 226.38 90.1153 226.342C90.3422 226.322 90.3433 226.676 90.1179 226.696C89.6287 226.736 89.1371 226.655 88.6863 226.461C88.2354 226.267 87.8388 225.966 87.5313 225.584C87.4993 225.55 87.4813 225.505 87.481 225.459C87.4806 225.413 87.498 225.368 87.5295 225.334C87.5625 225.301 87.6073 225.282 87.6541 225.281C87.7009 225.281 87.7459 225.299 87.7794 225.332Z" fill="white"/>
<path d="M108.706 244.736C108.565 244.753 108.424 244.769 108.281 244.789C106.382 245.022 104.505 245.41 102.669 245.948C102.527 245.987 102.383 246.029 102.241 246.072C97.8317 247.414 93.7096 249.563 90.0847 252.409C88.6433 253.543 87.2903 254.785 86.0373 256.124C84.3071 257.974 82.5784 260.117 80.402 261.253C80.1763 261.374 79.9433 261.482 79.7043 261.574L67.9826 255.781C67.9626 255.755 67.9411 255.731 67.921 255.704L67.4424 255.494C67.5022 255.421 67.5658 255.346 67.6256 255.272C67.6601 255.229 67.6972 255.188 67.7317 255.145C67.7555 255.117 67.7795 255.089 67.7994 255.062C67.8073 255.052 67.8153 255.043 67.8219 255.036C67.8418 255.01 67.8631 254.987 67.8817 254.963C68.236 254.542 68.5939 254.124 68.9554 253.707C68.9567 253.704 68.9567 253.704 68.9606 253.703C71.723 250.534 74.7743 247.568 78.179 245.158C78.2814 245.086 78.3851 245.011 78.4929 244.941C80.0336 243.864 81.6598 242.914 83.3553 242.101C84.2852 241.659 85.2368 241.265 86.2066 240.919C88.714 240.03 91.3457 239.541 94.0051 239.47C99.3066 239.329 104.594 240.884 108.417 244.46C108.515 244.552 108.61 244.642 108.706 244.736Z" fill="#E6E6E6"/>
<path d="M108.606 244.872C102.196 243.146 95.405 243.483 89.1975 245.835C87.8521 246.317 86.5913 247.009 85.4614 247.884C84.3883 248.772 83.5726 249.931 83.0992 251.241C82.6332 252.453 82.297 253.747 81.5443 254.825C81.1508 255.371 80.6463 255.827 80.0639 256.165C79.4815 256.502 78.8342 256.713 78.1646 256.783C76.5008 257 74.858 256.607 73.2648 256.167C71.4959 255.678 69.6663 255.143 67.8188 255.485C67.595 255.527 67.5437 255.177 67.7672 255.136C70.9814 254.54 73.9432 256.462 77.1226 256.491C78.6061 256.505 80.1028 256.072 81.062 254.879C81.9009 253.836 82.2487 252.502 82.7099 251.27C83.153 249.986 83.904 248.83 84.8973 247.902C85.979 246.973 87.2111 246.234 88.5408 245.717C91.5158 244.507 94.6628 243.771 97.8665 243.538C101.521 243.251 105.198 243.591 108.738 244.544C108.957 244.603 108.824 244.93 108.606 244.872Z" fill="white"/>
<path d="M91.1518 244.96C90.8984 243.865 91.0425 242.716 91.5584 241.718C92.0743 240.72 92.9284 239.938 93.9682 239.511C94.1788 239.425 94.3219 239.748 94.1109 239.834C93.142 240.23 92.3465 240.959 91.868 241.889C91.3895 242.82 91.2595 243.891 91.5015 244.908C91.5538 245.13 91.2038 245.18 91.1518 244.96Z" fill="white"/>
<path d="M83.2546 250.595C85.1928 251.828 87.5249 252.286 89.7859 251.878C90.0099 251.837 90.0612 252.186 89.8375 252.227C87.4839 252.648 85.0579 252.167 83.0438 250.879C82.8519 250.756 83.0637 250.473 83.2546 250.595Z" fill="white"/>
<path d="M101.369 243.694C101.379 244.138 101.499 244.573 101.718 244.959C101.938 245.345 102.25 245.671 102.626 245.907C102.819 246.027 102.607 246.31 102.415 246.19C102.001 245.928 101.657 245.568 101.413 245.141C101.17 244.715 101.035 244.236 101.02 243.746C101.014 243.7 101.027 243.653 101.055 243.616C101.082 243.579 101.123 243.553 101.169 243.545C101.215 243.539 101.262 243.551 101.3 243.578C101.337 243.606 101.362 243.648 101.369 243.694Z" fill="white"/>
<path d="M105.421 182.062C105.714 181.77 105.939 181.418 106.082 181.031C106.224 180.643 106.279 180.229 106.244 179.817C106.208 179.405 106.083 179.007 105.877 178.649C105.671 178.291 105.388 177.983 105.05 177.745L109.664 155.426L104.686 156.996L100.974 178.588C100.613 179.183 100.483 179.889 100.609 180.573C100.734 181.257 101.106 181.871 101.654 182.299C102.202 182.727 102.888 182.94 103.583 182.896C104.277 182.852 104.931 182.555 105.421 182.062Z" fill="#FFB6B6"/>
<path d="M116.086 122.401L113.002 120.074C113.002 120.074 110.282 119.882 109.8 124.785C109.319 129.688 106.302 148.506 106.302 148.506L101.584 170.35L108.115 171.783L113.169 148.21L118.228 131.947L116.086 122.401Z" fill="#EAAD02"/>
<path d="M113.737 162.819L98.9459 151.324C98.7156 151.144 98.5658 150.881 98.5295 150.591C98.4933 150.302 98.5734 150.009 98.7525 149.779L108.816 136.842C108.996 136.611 109.259 136.462 109.549 136.426C109.839 136.389 110.131 136.469 110.362 136.648L125.153 148.144C125.383 148.323 125.533 148.587 125.569 148.877C125.605 149.166 125.525 149.459 125.346 149.689L115.283 162.626C115.103 162.856 114.839 163.006 114.55 163.042C114.26 163.079 113.967 162.998 113.737 162.819Z" fill="#3F3D56"/>
<path d="M113.656 161.63L100.119 151.11C99.9149 150.95 99.782 150.716 99.7498 150.459C99.7176 150.202 99.7888 149.942 99.9477 149.737L109.071 138.01C109.23 137.805 109.464 137.672 109.722 137.64C109.979 137.608 110.238 137.679 110.443 137.838L123.979 148.358C124.184 148.518 124.317 148.752 124.349 149.009C124.381 149.266 124.31 149.526 124.151 149.73L115.028 161.458C114.869 161.663 114.635 161.796 114.377 161.828C114.12 161.86 113.86 161.789 113.656 161.63Z" fill="white"/>
<path d="M101.894 150.811C101.843 150.771 101.81 150.713 101.802 150.649C101.794 150.584 101.811 150.519 101.851 150.468L106.453 144.552C106.493 144.501 106.552 144.467 106.616 144.459C106.648 144.455 106.68 144.458 106.711 144.466C106.742 144.475 106.771 144.489 106.797 144.509C106.822 144.529 106.843 144.553 106.859 144.581C106.875 144.609 106.885 144.64 106.889 144.672C106.893 144.703 106.891 144.736 106.882 144.767C106.874 144.798 106.859 144.827 106.84 144.852L102.237 150.768C102.197 150.819 102.139 150.853 102.075 150.861C102.01 150.869 101.945 150.851 101.894 150.811Z" fill="#E4E4E4"/>
<path d="M102.657 151.404C102.606 151.364 102.572 151.306 102.564 151.241C102.556 151.177 102.574 151.112 102.614 151.061L107.216 145.145C107.256 145.093 107.314 145.06 107.379 145.052C107.443 145.044 107.508 145.062 107.559 145.102C107.611 145.142 107.644 145.2 107.652 145.264C107.66 145.329 107.642 145.394 107.602 145.445L103 151.361C102.96 151.412 102.902 151.445 102.837 151.453C102.773 151.462 102.708 151.444 102.657 151.404Z" fill="#E4E4E4"/>
<path d="M106.027 148.645C105.976 148.605 105.943 148.547 105.935 148.482C105.926 148.418 105.944 148.353 105.984 148.302L107.979 145.738C107.999 145.712 108.023 145.691 108.051 145.675C108.079 145.659 108.11 145.649 108.142 145.645C108.174 145.641 108.206 145.643 108.237 145.652C108.268 145.66 108.297 145.675 108.322 145.694C108.348 145.714 108.369 145.739 108.385 145.766C108.401 145.794 108.411 145.825 108.415 145.857C108.419 145.889 108.417 145.921 108.408 145.952C108.399 145.983 108.385 146.012 108.365 146.038L106.37 148.602C106.33 148.653 106.272 148.687 106.207 148.695C106.143 148.703 106.078 148.685 106.027 148.645Z" fill="#E4E4E4"/>
<path d="M107.055 153.678C107.004 153.638 106.971 153.58 106.963 153.515C106.955 153.451 106.973 153.386 107.012 153.335L114.278 143.995C114.298 143.969 114.322 143.948 114.35 143.932C114.378 143.916 114.409 143.906 114.441 143.902C114.472 143.898 114.505 143.901 114.536 143.909C114.567 143.918 114.596 143.932 114.621 143.952C114.646 143.972 114.668 143.996 114.683 144.024C114.699 144.052 114.71 144.083 114.714 144.114C114.718 144.146 114.715 144.179 114.707 144.21C114.698 144.24 114.684 144.269 114.664 144.295L107.398 153.635C107.359 153.686 107.3 153.719 107.236 153.727C107.171 153.735 107.106 153.718 107.055 153.678Z" fill="#E4E4E4"/>
<path d="M107.818 154.271C107.767 154.231 107.734 154.172 107.726 154.108C107.717 154.044 107.735 153.979 107.775 153.928L115.041 144.588C115.06 144.562 115.085 144.541 115.113 144.525C115.141 144.509 115.171 144.499 115.203 144.495C115.235 144.491 115.267 144.493 115.298 144.502C115.329 144.51 115.358 144.525 115.384 144.545C115.409 144.564 115.43 144.589 115.446 144.617C115.462 144.645 115.472 144.675 115.476 144.707C115.48 144.739 115.478 144.771 115.469 144.802C115.461 144.833 115.446 144.862 115.427 144.888L108.161 154.228C108.121 154.279 108.063 154.312 107.998 154.32C107.934 154.328 107.869 154.31 107.818 154.271Z" fill="#E4E4E4"/>
<path d="M109.549 155.616C109.498 155.577 109.465 155.518 109.457 155.454C109.449 155.39 109.467 155.325 109.506 155.273L116.772 145.933C116.792 145.908 116.816 145.887 116.844 145.871C116.872 145.855 116.903 145.845 116.935 145.841C116.967 145.837 116.999 145.839 117.03 145.848C117.061 145.856 117.09 145.871 117.115 145.89C117.141 145.91 117.162 145.935 117.178 145.963C117.193 145.99 117.204 146.021 117.208 146.053C117.212 146.085 117.209 146.117 117.201 146.148C117.192 146.179 117.178 146.208 117.158 146.233L109.893 155.574C109.853 155.625 109.794 155.658 109.73 155.666C109.666 155.674 109.601 155.656 109.549 155.616Z" fill="#E4E4E4"/>
<path d="M110.312 156.209C110.261 156.169 110.228 156.111 110.22 156.047C110.212 155.982 110.229 155.917 110.269 155.866L117.535 146.526C117.554 146.501 117.579 146.48 117.607 146.464C117.635 146.448 117.666 146.438 117.697 146.434C117.729 146.43 117.762 146.432 117.793 146.441C117.824 146.449 117.853 146.464 117.878 146.483C117.903 146.503 117.924 146.527 117.94 146.555C117.956 146.583 117.966 146.614 117.97 146.646C117.974 146.678 117.972 146.71 117.964 146.741C117.955 146.772 117.941 146.801 117.921 146.826L110.655 156.166C110.615 156.217 110.557 156.251 110.493 156.259C110.428 156.267 110.363 156.249 110.312 156.209Z" fill="#E4E4E4"/>
<path d="M112.044 157.555C111.992 157.515 111.959 157.457 111.951 157.392C111.943 157.328 111.961 157.263 112.001 157.212L119.266 147.872C119.286 147.847 119.31 147.825 119.338 147.809C119.366 147.794 119.397 147.783 119.429 147.779C119.461 147.775 119.493 147.778 119.524 147.786C119.555 147.795 119.584 147.809 119.609 147.829C119.635 147.849 119.656 147.873 119.672 147.901C119.688 147.929 119.698 147.96 119.702 147.992C119.706 148.023 119.704 148.056 119.695 148.087C119.686 148.118 119.672 148.147 119.652 148.172L112.387 157.512C112.347 157.563 112.288 157.596 112.224 157.604C112.16 157.613 112.095 157.595 112.044 157.555Z" fill="#E4E4E4"/>
<path d="M112.807 158.148C112.756 158.108 112.722 158.05 112.714 157.985C112.706 157.921 112.724 157.856 112.764 157.805L120.029 148.465C120.069 148.414 120.128 148.381 120.192 148.373C120.256 148.365 120.321 148.383 120.372 148.422C120.423 148.462 120.456 148.52 120.465 148.585C120.473 148.649 120.455 148.714 120.415 148.765L113.15 158.105C113.11 158.156 113.052 158.189 112.987 158.197C112.923 158.205 112.858 158.188 112.807 158.148Z" fill="#E4E4E4"/>
<path d="M100.663 168.995C100.719 168.995 100.764 168.95 100.764 168.895C100.764 168.839 100.719 168.794 100.663 168.794C100.608 168.794 100.563 168.839 100.563 168.895C100.563 168.95 100.608 168.995 100.663 168.995Z" fill="white"/>
<path d="M115.293 99.8451C114.94 101.742 114.361 103.589 113.568 105.348C109.029 114.945 121.955 111.817 126.574 111.817C131.625 111.817 136.457 114.472 135.719 102.676C135.404 97.6381 131.625 93.5359 126.574 93.5359C122.26 93.5359 116.195 95.4525 115.293 99.8451Z" fill="#2F2E41"/>
<path d="M131.282 240.607H126.979L124.931 224.017H131.282V240.607Z" fill="#FFB6B6"/>
<path d="M133.553 248.06H130.467L129.916 245.147L128.506 248.06H120.321C119.929 248.06 119.547 247.934 119.231 247.702C118.915 247.47 118.682 247.142 118.565 246.768C118.448 246.394 118.454 245.992 118.582 245.621C118.71 245.25 118.953 244.93 119.276 244.707L125.812 240.195V237.251L132.686 237.662L133.553 248.06Z" fill="#2F2E41"/>
<path d="M156.846 235.179L153.393 237.746L141.846 225.655L146.942 221.867L156.846 235.179Z" fill="#FFB6B6"/>
<path d="M163.117 239.805L160.641 241.645L158.461 239.637L159.067 242.815L152.5 247.697C152.185 247.931 151.803 248.058 151.411 248.06C151.019 248.062 150.636 247.939 150.319 247.708C150.002 247.477 149.767 247.151 149.648 246.777C149.53 246.404 149.534 246.002 149.66 245.63L152.211 238.112L150.453 235.749L156.215 231.978L163.117 239.805Z" fill="#2F2E41"/>
<path d="M117.189 164.255L137.615 161.075L133.553 148.861H117.189V164.255Z" fill="#FFB6B6"/>
<path d="M136.292 155.012C136.292 155.012 144.456 162.063 140.689 182.162L136.09 201.856L148.62 223.599L142.249 227.073L126.809 205.622L119.743 189.056L116.006 160.022L136.292 155.012Z" fill="#2F2E41"/>
<path d="M123.638 193.777L123.146 201.379L124.584 223.889L131.721 226.345L133.072 203.281L123.638 193.777Z" fill="#2F2E41"/>
<path d="M121.443 114.347L129.339 114.655L132.486 119.876L139.665 121.277L135.379 142.95L136.167 155.286L129.019 155.242C123.867 155.211 118.884 157.082 115.028 160.496L115.241 144.483L112.167 132.53L112.858 119.996L118.633 119.274L121.443 114.347Z" fill="#EAAD02"/>
<path d="M125.818 111.815C129.922 111.815 133.249 108.489 133.249 104.387C133.249 100.285 129.922 96.9593 125.818 96.9593C121.714 96.9593 118.387 100.285 118.387 104.387C118.387 108.489 121.714 111.815 125.818 111.815Z" fill="#FFB6B6"/>
<path d="M120.771 96.8155C122.073 96.022 123.565 95.5927 125.09 95.5727C126.615 95.5526 128.117 95.9423 129.44 96.7012C130.762 97.4601 131.856 98.5603 132.608 99.8866C133.36 101.213 133.741 102.717 133.712 104.241C129.926 105.191 125.948 105.918 121.91 104.468L120.956 102.135L120.394 104.47C119.164 104.972 117.931 105.397 116.699 104.465C116.648 102.945 116.998 101.439 117.713 100.097C118.427 98.7541 119.482 97.6227 120.771 96.8155Z" fill="#2F2E41"/>
<path d="M138.291 170.261L139.292 179.348C139.362 179.575 139.503 179.773 139.694 179.914C139.885 180.055 140.116 180.131 140.353 180.131H144.971C145.208 180.131 145.439 180.055 145.63 179.914C145.821 179.773 145.962 179.575 146.031 179.348L146.861 172.383C147.1 172.501 147.364 172.56 147.631 172.555C147.898 172.551 148.16 172.483 148.395 172.358C148.63 172.232 148.833 172.053 148.985 171.834C149.138 171.616 149.236 171.364 149.272 171.1C149.309 170.836 149.282 170.567 149.194 170.315C149.106 170.063 148.959 169.836 148.766 169.652C148.573 169.468 148.339 169.332 148.083 169.256C147.828 169.18 147.558 169.166 147.296 169.215C147.192 169.092 147.063 168.994 146.918 168.927C146.772 168.86 146.614 168.825 146.454 168.826H139.351C139.178 168.826 139.007 168.866 138.852 168.945C138.696 169.023 138.562 169.136 138.459 169.276C138.356 169.416 138.287 169.577 138.257 169.749C138.228 169.92 138.24 170.095 138.291 170.261ZM147.006 171.912L147.514 170.261C147.573 170.071 147.579 169.868 147.531 169.674C147.553 169.673 147.573 169.668 147.595 169.668C147.914 169.668 148.22 169.794 148.446 170.02C148.672 170.245 148.798 170.551 148.798 170.87C148.798 171.189 148.672 171.495 148.446 171.721C148.22 171.946 147.914 172.073 147.595 172.073C147.388 172.072 147.185 172.016 147.006 171.912Z" fill="#6C63FF"/>
<path d="M145.254 180.137C144.962 179.845 144.739 179.492 144.598 179.103C144.458 178.714 144.405 178.3 144.443 177.889C144.48 177.477 144.607 177.079 144.815 176.722C145.023 176.365 145.307 176.059 145.647 175.823L141.146 153.481L146.116 155.075L149.718 176.686C150.076 177.283 150.203 177.99 150.074 178.673C149.945 179.356 149.57 179.969 149.02 180.394C148.469 180.819 147.782 181.028 147.088 180.981C146.394 180.934 145.741 180.634 145.254 180.137Z" fill="#FFB6B6"/>
<path d="M136.582 123.604L139.665 121.277C139.665 121.277 142.385 121.084 142.867 125.988C143.349 130.891 146.365 149.709 146.365 149.709L151.083 171.553L144.552 172.986L139.498 149.413L134.439 133.149L136.582 123.604Z" fill="#EAAD02"/>
<path d="M109.97 143.942C110.934 143.942 111.715 143.161 111.715 142.197C111.715 141.234 110.934 140.453 109.97 140.453C109.006 140.453 108.224 141.234 108.224 142.197C108.224 143.161 109.006 143.942 109.97 143.942Z" fill="#6C63FF"/>
<path d="M54.3106 260.847L57.9482 260.847L59.6787 246.822L54.3101 246.823L54.3106 260.847Z" fill="#FFB6B6"/>
<path d="M53.3828 259.66L54.4067 259.66L58.4039 258.035L60.5464 259.659C61.7571 259.659 62.9185 260.14 63.7746 260.996C64.6307 261.852 65.1117 263.012 65.1118 264.222V264.371L53.383 264.371L53.3828 259.66Z" fill="#2F2E41"/>
<path d="M68.4067 258.555L71.9551 259.356L76.7336 246.058L71.4966 244.876L68.4067 258.555Z" fill="#FFB6B6"/>
<path d="M67.7637 257.193L68.7624 257.419L73.0196 256.714L74.7513 258.77L74.7516 258.77C75.9326 259.037 76.9592 259.762 77.6058 260.785C78.2523 261.808 78.4657 263.046 78.1991 264.227L78.1664 264.371L66.7256 261.789L67.7637 257.193Z" fill="#2F2E41"/>
<path d="M47.6519 188.708L50.9412 225.545C50.9412 225.545 49.7087 247.66 53.6856 255.443H59.4533L62.309 223.526L62.6675 202.103L75.0328 220.176L67.157 254.921L74.2556 255.555L87.0359 217.849L72.9951 182.452L47.6519 188.708Z" fill="#2F2E41"/>
<path d="M51.0967 130.046C55.7817 130.046 59.5796 126.25 59.5796 121.567C59.5796 116.884 55.7817 113.088 51.0967 113.088C46.4117 113.088 42.6138 116.884 42.6138 121.567C42.6138 126.25 46.4117 130.046 51.0967 130.046Z" fill="#FFB8B8"/>
<path d="M66.0089 138.126L59.0497 135.142L55.6618 131.55L47.1986 132.914L44.9531 136.763L37.6841 143.519L46.2006 182.01L45.9428 190.416C45.9428 190.416 51.3935 192.869 75.0326 187.222C75.3161 187.154 74.7227 186.858 74.7227 186.858L66.0089 138.126Z" fill="#D24336"/>
<path d="M42.2758 126.378C42.2167 126.298 42.1582 126.216 42.1003 126.134C42.0769 126.184 42.0584 126.234 42.0317 126.283L42.2758 126.378Z" fill="#2F2E41"/>
<path d="M59.535 115.365C58.968 114.13 57.957 113.154 56.7029 112.63C55.4599 112.129 54.0707 112.13 52.8286 112.633C51.7071 111.925 50.461 111.364 49.1488 111.294C47.8365 111.225 46.4491 111.711 45.6404 112.782C45.4598 113.065 45.2547 113.332 45.0274 113.578C44.3774 114.18 43.3895 114.093 42.5255 113.97C42.913 114.302 43.3006 114.634 43.6884 114.966C43.2193 115.089 42.7501 115.211 42.2809 115.334C42.8284 115.666 43.3758 115.998 43.9232 116.329C42.3339 117.283 41.6116 119.364 41.8024 121.254C41.9829 123.044 42.8472 124.68 43.8805 126.134C44.2926 125.265 44.2038 124.225 44.197 123.245C44.1899 122.211 44.373 121.036 45.2024 120.458C45.7619 120.068 46.4814 120.05 47.1561 120.054C50.5593 120.073 53.9586 120.285 57.3378 120.689C57.7963 120.709 58.2433 120.839 58.6413 121.067C59.3886 121.577 59.5342 122.628 59.6092 123.551C60.004 122.028 60.1972 120.459 60.1839 118.886C60.2172 117.68 59.9961 116.48 59.535 115.365Z" fill="#2F2E41"/>
<path d="M62.1757 214.531C69.5496 214.531 75.5273 208.556 75.5273 201.185C75.5273 193.815 69.5496 187.84 62.1757 187.84C54.8019 187.84 48.8242 193.815 48.8242 201.185C48.8242 208.556 54.8019 214.531 62.1757 214.531Z" fill="white"/>
<path d="M62.1761 187.543C61.4897 187.543 60.8044 187.595 60.1258 187.697C59.7787 187.748 59.4406 187.813 59.1052 187.893C56.6421 188.461 54.3851 189.701 52.5862 191.476C50.7872 193.251 49.5171 195.491 48.9173 197.945C48.3176 200.4 48.412 202.972 49.1898 205.376C49.9677 207.78 51.3985 209.921 53.3226 211.56C53.551 211.752 53.7824 211.939 54.0227 212.117C55.7549 213.408 57.769 214.269 59.8992 214.63C62.0294 214.991 64.215 214.841 66.2759 214.193C68.3368 213.544 70.2142 212.416 71.7537 210.9C73.2931 209.385 74.4505 207.526 75.1306 205.476C75.8107 203.426 75.9941 201.244 75.6657 199.109C75.3373 196.975 74.5065 194.949 73.2417 193.198C71.9768 191.447 70.3141 190.021 68.3903 189.038C66.4665 188.055 64.3367 187.543 62.1761 187.543ZM62.1761 214.235C59.4002 214.238 56.6965 213.351 54.4618 211.705C54.2186 211.527 53.9842 211.343 53.7557 211.147C51.8811 209.567 50.4902 207.49 49.7424 205.155C48.9947 202.82 48.9204 200.322 49.5281 197.947C50.1359 195.572 51.4009 193.417 53.1783 191.728C54.9557 190.038 57.1734 188.884 59.577 188.397C59.9092 188.329 60.2416 188.276 60.5799 188.234C61.1094 188.169 61.6425 188.136 62.1761 188.136C65.6384 188.136 68.959 189.511 71.4072 191.958C73.8555 194.405 75.2309 197.725 75.2309 201.185C75.2309 204.646 73.8555 207.965 71.4072 210.413C68.959 212.86 65.6384 214.235 62.1761 214.235Z" fill="#3F3D56"/>
<path d="M55.627 198.516H68.7245C69.2043 198.516 69.5933 198.128 69.5933 197.648V197.605C69.5933 197.126 69.2043 196.737 68.7245 196.737H55.627C55.1472 196.737 54.7582 197.126 54.7582 197.605V197.648C54.7582 198.128 55.1472 198.516 55.627 198.516Z" fill="#6C63FF"/>
<path d="M55.627 202.075H68.7245C69.2043 202.075 69.5933 201.686 69.5933 201.207V201.164C69.5933 200.685 69.2043 200.296 68.7245 200.296H55.627C55.1472 200.296 54.7582 200.685 54.7582 201.164V201.207C54.7582 201.686 55.1472 202.075 55.627 202.075Z" fill="#6C63FF"/>
<path d="M55.627 205.634H68.7245C69.2043 205.634 69.5933 205.245 69.5933 204.766V204.723C69.5933 204.243 69.2043 203.855 68.7245 203.855H55.627C55.1472 203.855 54.7582 204.243 54.7582 204.723V204.766C54.7582 205.245 55.1472 205.634 55.627 205.634Z" fill="#6C63FF"/>
<path d="M211.55 260.394L207.736 260.394L205.921 245.689L211.551 245.689L211.55 260.394Z" fill="#9E616A"/>
<path d="M193.505 260.394L189.692 260.394L187.877 245.689L193.506 245.689L193.505 260.394Z" fill="#9E616A"/>
<path d="M193.64 264.371L181.911 264.371V264.222C181.911 263.012 182.392 261.852 183.248 260.996C184.104 260.14 185.266 259.659 186.476 259.659H186.477L188.619 258.035L192.616 259.66L193.64 259.66L193.64 264.371Z" fill="#2F2E41"/>
<path d="M212.174 264.371L200.445 264.371V264.222C200.445 263.012 200.926 261.852 201.782 260.996C202.638 260.14 203.799 259.659 205.01 259.659H205.01L207.153 258.035L211.15 259.66L212.174 259.66L212.174 264.371Z" fill="#2F2E41"/>
<path d="M189.764 173.363L183.968 208.644L185.545 213.902L183.475 217.625L186.515 250.326L185.281 253.041L188.729 255.167H195.744L196.117 225.563L197.85 221.216V218.821L201.377 200.769L202.027 226.049L203.053 230.403L202.191 233.502L203.317 235.674L206.309 255.812H214.176L213.568 251.127C214.253 250.78 214.803 250.215 215.133 249.522C215.462 248.828 215.551 248.045 215.386 247.295L214.935 245.242L215.962 239.17L217.831 205.296L217.304 177.964L208.102 170.93L189.764 173.363Z" fill="#2F2E41"/>
<path d="M203.053 128.059C207.09 128.059 210.362 124.788 210.362 120.753C210.362 116.718 207.09 113.447 203.053 113.447C199.017 113.447 195.745 116.718 195.745 120.753C195.745 124.788 199.017 128.059 203.053 128.059Z" fill="#9E616A"/>
<path d="M187.084 187.364C187.402 187.035 187.644 186.641 187.794 186.209C187.943 185.777 187.995 185.317 187.948 184.863C187.9 184.408 187.753 183.969 187.517 183.578C187.282 183.186 186.963 182.85 186.583 182.595L189.425 171.852L183.95 173.693L182.09 183.613C181.703 184.278 181.574 185.062 181.727 185.817C181.88 186.571 182.305 187.243 182.92 187.705C183.536 188.168 184.3 188.389 185.067 188.326C185.835 188.263 186.552 187.92 187.084 187.364Z" fill="#9E616A"/>
<path d="M190.075 135.783L188.9 135.539L187.897 136.094C187.897 136.094 185.098 139.826 185.098 143.247C185.098 146.667 181.675 179.631 181.675 179.631L187.897 182.429L192.875 156.618L190.075 135.783Z" fill="#E6E6E6"/>
<path d="M209.454 115.397C209.454 115.397 211.365 111.744 207.16 111.412C207.16 111.412 203.574 108.161 199.92 110.817C199.92 110.817 197.927 110.817 196.837 113.072C196.837 113.072 195.269 112.478 194.924 114.068C194.924 114.068 193.777 117.389 194.924 120.378C196.072 123.366 196.453 123.698 196.453 123.698C196.453 123.698 194.568 117.432 199.156 117.1C203.744 116.768 208.879 113.902 209.261 117.555C209.643 121.208 210.219 122.108 210.219 122.108C210.219 122.108 213.851 116.891 209.454 115.397Z" fill="#2F2E41"/>
<path d="M236.153 217.625C235.601 217.626 235.069 217.423 234.658 217.055L212.539 197.374C212.093 196.977 211.823 196.419 211.788 195.823C211.754 195.227 211.957 194.641 212.354 194.195L226.523 178.284C226.921 177.838 227.479 177.568 228.076 177.534C228.672 177.499 229.258 177.702 229.704 178.099L251.824 197.78C252.27 198.177 252.54 198.735 252.575 199.331C252.609 199.927 252.406 200.513 252.008 200.959L237.839 216.87C237.643 217.092 237.404 217.272 237.138 217.401C236.871 217.53 236.582 217.605 236.286 217.621C236.242 217.624 236.197 217.625 236.153 217.625Z" fill="white"/>
<path d="M236.152 217.77C235.565 217.771 234.998 217.555 234.561 217.163L212.442 197.482C211.968 197.059 211.681 196.465 211.644 195.831C211.607 195.197 211.823 194.573 212.245 194.098L226.415 178.187C226.838 177.713 227.432 177.426 228.067 177.389C228.702 177.352 229.325 177.569 229.8 177.99L251.92 197.672C252.395 198.094 252.682 198.688 252.719 199.323C252.756 199.957 252.539 200.581 252.116 201.056L237.947 216.967C237.738 217.202 237.484 217.394 237.201 217.532C236.917 217.669 236.609 217.749 236.295 217.766C236.247 217.769 236.2 217.77 236.152 217.77ZM228.207 177.964C227.95 177.963 227.696 178.017 227.462 178.122C227.228 178.227 227.018 178.38 226.848 178.572L212.678 194.483C212.358 194.844 212.194 195.316 212.222 195.797C212.25 196.279 212.467 196.729 212.827 197.05L234.946 216.731C235.125 216.89 235.333 217.012 235.558 217.09C235.784 217.169 236.023 217.202 236.261 217.188C236.499 217.174 236.733 217.113 236.948 217.009C237.163 216.905 237.355 216.76 237.514 216.582L251.684 200.671C252.004 200.31 252.169 199.838 252.141 199.356C252.113 198.875 251.895 198.425 251.534 198.104L229.415 178.423C229.083 178.127 228.653 177.963 228.207 177.964Z" fill="#3F3D56"/>
<path d="M244.173 202.557C243.935 202.557 243.704 202.469 243.526 202.31L226.163 186.861C226.067 186.776 225.989 186.673 225.932 186.558C225.876 186.443 225.843 186.318 225.836 186.19C225.828 186.062 225.846 185.933 225.888 185.812C225.93 185.691 225.995 185.579 226.081 185.483C226.166 185.388 226.269 185.31 226.385 185.254C226.5 185.198 226.626 185.166 226.754 185.158C226.882 185.151 227.01 185.169 227.131 185.212C227.252 185.254 227.364 185.32 227.46 185.406L244.822 200.855C244.97 200.986 245.074 201.159 245.121 201.351C245.168 201.543 245.156 201.745 245.085 201.929C245.015 202.114 244.89 202.273 244.727 202.385C244.564 202.497 244.371 202.557 244.173 202.557Z" fill="#6C63FF"/>
<path d="M240.862 206.275C240.623 206.276 240.392 206.188 240.214 206.029L222.851 190.58C222.756 190.495 222.678 190.392 222.622 190.277C222.566 190.161 222.534 190.036 222.527 189.909C222.519 189.781 222.537 189.653 222.579 189.532C222.621 189.411 222.687 189.3 222.772 189.204C222.857 189.109 222.96 189.031 223.075 188.975C223.19 188.919 223.316 188.887 223.443 188.88C223.571 188.872 223.699 188.89 223.82 188.932C223.941 188.974 224.052 189.039 224.148 189.125L241.511 204.573C241.658 204.705 241.763 204.878 241.81 205.07C241.857 205.262 241.844 205.463 241.774 205.648C241.703 205.833 241.578 205.992 241.415 206.104C241.253 206.216 241.059 206.275 240.862 206.275Z" fill="#6C63FF"/>
<path d="M237.55 209.994C237.311 209.995 237.08 209.907 236.902 209.748L219.539 194.299C219.444 194.214 219.366 194.111 219.31 193.996C219.254 193.881 219.221 193.755 219.214 193.628C219.206 193.5 219.224 193.372 219.266 193.251C219.308 193.13 219.374 193.018 219.459 192.923C219.544 192.827 219.647 192.749 219.762 192.693C219.878 192.638 220.003 192.605 220.131 192.598C220.259 192.59 220.387 192.608 220.508 192.65C220.629 192.693 220.74 192.758 220.836 192.843L238.199 208.292C238.346 208.424 238.451 208.597 238.498 208.789C238.545 208.981 238.532 209.182 238.462 209.367C238.391 209.552 238.266 209.711 238.104 209.823C237.941 209.935 237.748 209.995 237.55 209.994Z" fill="#6C63FF"/>
<path d="M217.694 187.998C217.471 187.599 217.339 187.156 217.306 186.7C217.273 186.244 217.341 185.786 217.504 185.359C217.667 184.932 217.922 184.546 218.25 184.228C218.579 183.91 218.973 183.668 219.406 183.519L219.425 172.406L224.242 175.593L223.486 185.657C223.688 186.4 223.611 187.191 223.269 187.881C222.927 188.57 222.344 189.11 221.63 189.399C220.916 189.687 220.121 189.704 219.396 189.446C218.67 189.188 218.065 188.673 217.694 187.998Z" fill="#9E616A"/>
<path d="M218.14 138.828L220.292 136.755L221.873 137.896C221.873 137.896 223.429 139.761 224.673 145.359C225.917 150.956 224.673 181.743 224.673 181.743L217.829 180.81L218.762 164.639L215.962 150.956L218.14 138.828Z" fill="#E6E6E6"/>
<path d="M221.318 137.261L214.067 133.798L209.144 129.234L200.166 129.167L197.27 132.93L189.625 135.526L190.9 161.876L190.031 163.903C190.031 163.903 190.636 164.449 190.913 164.755C191.189 165.06 190.53 167.619 190.53 167.619L190.159 170.403L191.189 171.139L189.85 172.72L189.518 175.212C189.518 175.212 212.892 169.405 217.308 179.025C217.542 179.534 216.967 174.566 216.967 174.566L216.392 170.93L216.962 167.666L217.831 166.797L216.374 165.341L217.308 158.43L221.318 137.261Z" fill="#004AC7"/>
<path d="M56.8779 195.677C57.0578 195.221 57.1354 194.73 57.1052 194.24C57.0749 193.75 56.9376 193.273 56.7028 192.842C56.468 192.411 56.1415 192.036 55.7463 191.745C55.3511 191.453 54.8968 191.252 54.4154 191.155L52.8046 179.333L48.1343 183.413L50.3799 194.015C50.2707 194.834 50.4659 195.665 50.9286 196.35C51.3912 197.035 52.0892 197.526 52.8901 197.731C53.6911 197.936 54.5394 197.84 55.2744 197.462C56.0094 197.083 56.5799 196.448 56.8779 195.677Z" fill="#FFB8B8"/>
<path d="M38.5804 143.303L37.3145 143.545L36.5493 144.508C36.5493 144.508 35.3115 149.361 36.7216 152.753C38.1317 156.145 48.3272 190.237 48.3272 190.237L55.6503 190.45L49.9456 162.808L38.5804 143.303Z" fill="#D24336"/>
<path d="M67.4501 193.943C67.1128 193.586 66.8578 193.16 66.7031 192.694C66.5484 192.228 66.4978 191.734 66.5549 191.247C66.6119 190.759 66.7752 190.29 67.0332 189.872C67.2912 189.455 67.6377 189.099 68.0483 188.829L65.1328 177.259L70.9885 179.305L72.8594 189.979C73.2663 190.698 73.395 191.542 73.2212 192.35C73.0474 193.158 72.5831 193.874 71.9164 194.362C71.2496 194.851 70.4267 195.078 69.6035 195.001C68.7804 194.924 68.0142 194.547 67.4501 193.943Z" fill="#FFB8B8"/>
<path d="M64.8915 138.526L66.1565 138.279L67.2257 138.887C67.2257 138.887 70.1847 142.929 70.1414 146.602C70.0981 150.274 73.3551 185.709 73.3551 185.709L66.6392 188.635L61.6216 160.86L64.8915 138.526Z" fill="#D24336"/>
</g>
<line x1="100.817" y1="53.2557" x2="126.254" y2="64.3344" stroke="#109756" stroke-width="0.5"/>
<line x1="100.556" y1="53.2932" x2="115.919" y2="40.4433" stroke="#109756" stroke-width="0.5"/>
<line x1="100.197" y1="53.412" x2="84.7334" y2="43.1976" stroke="#109756" stroke-width="0.5"/>
<line x1="100.536" y1="53.3517" x2="85.3351" y2="73.9836" stroke="#109756" stroke-width="0.5"/>
<path d="M102.128 54.5905C102.732 53.7702 102.557 52.6152 101.737 52.0108C100.917 51.4065 99.7618 51.5815 99.1574 52.4019C98.553 53.2222 98.728 54.3771 99.5483 54.9815C100.369 55.5859 101.523 55.4108 102.128 54.5905Z" fill="#109756"/>
<path d="M119.9 43.4499C121.455 41.3396 121.005 38.3686 118.895 36.8139C116.785 35.2592 113.814 35.7096 112.259 37.8198C110.704 39.9301 111.154 42.9011 113.265 44.4558C115.375 46.0105 118.346 45.5601 119.9 43.4499Z" fill="#109756"/>
<path d="M87.7873 45.4319C88.9534 43.8492 88.6157 41.621 87.0331 40.4549C85.4505 39.2889 83.2223 39.6267 82.0562 41.2094C80.8901 42.792 81.2278 45.0203 82.8104 46.1863C84.393 47.3523 86.6212 47.0146 87.7873 45.4319Z" fill="#109756"/>
<path d="M87.4263 75.5242C88.3592 74.258 88.0891 72.4754 86.823 71.5426C85.5569 70.6098 83.7743 70.88 82.8415 72.1462C81.9086 73.4123 82.1787 75.1949 83.4448 76.1277C84.7108 77.0605 86.4934 76.7903 87.4263 75.5242Z" fill="#109756"/>
<path d="M131.886 68.7859C134.218 65.6205 133.543 61.164 130.378 58.8319C127.213 56.4999 122.756 57.1755 120.424 60.3408C118.092 63.5062 118.767 67.9627 121.932 70.2947C125.097 72.6268 129.554 71.9512 131.886 68.7859Z" fill="#109756"/>
<line x1="253.93" y1="307.332" x2="291.076" y2="325.318" stroke="#D24336" stroke-width="0.5"/>
<line x1="253.669" y1="307.358" x2="277.27" y2="289.178" stroke="#D24336" stroke-width="0.5"/>
<line x1="253.124" y1="307.318" x2="230.751" y2="291.212" stroke="#D24336" stroke-width="0.5"/>
<line x1="253.466" y1="307.272" x2="229.639" y2="337.028" stroke="#D24336" stroke-width="0.5"/>
<path d="M255.852 309.284C256.799 308.101 256.608 306.374 255.425 305.426C254.242 304.479 252.515 304.67 251.567 305.854C250.62 307.037 250.811 308.764 251.994 309.711C253.177 310.658 254.904 310.467 255.852 309.284Z" fill="#D24336"/>
<path d="M282.933 293.788C285.37 290.744 284.878 286.301 281.835 283.865C278.792 281.428 274.349 281.92 271.912 284.963C269.475 288.007 269.967 292.449 273.01 294.886C276.053 297.323 280.496 296.831 282.933 293.788Z" fill="#D24336"/>
<path d="M235.085 294.815C236.913 292.532 236.544 289.2 234.261 287.372C231.979 285.545 228.647 285.914 226.819 288.196C224.991 290.479 225.36 293.811 227.643 295.639C229.925 297.466 233.257 297.097 235.085 294.815Z" fill="#D24336"/>
<path d="M232.75 339.519C234.213 337.693 233.918 335.027 232.092 333.565C230.266 332.103 227.6 332.398 226.138 334.224C224.676 336.051 224.971 338.716 226.797 340.178C228.623 341.64 231.288 341.345 232.75 339.519Z" fill="#D24336"/>
<path d="M299.233 332.161C302.889 327.596 302.151 320.931 297.586 317.276C293.021 313.621 286.357 314.359 282.702 318.924C279.046 323.489 279.784 330.153 284.349 333.809C288.914 337.464 295.578 336.726 299.233 332.161Z" fill="#D24336"/>
<defs>
<clipPath id="clip0_87_1252">
<rect width="252.723" height="170.835" fill="white" transform="translate(0 93.5359)"/>
</clipPath>
</defs>
</svg>
