<svg width="1173" height="651" viewBox="0 0 1173 651" fill="none" xmlns="http://www.w3.org/2000/svg">
<path d="M275.463 8C275.463 12.4183 279.045 16 283.463 16C287.881 16 291.463 12.4183 291.463 8C291.463 3.58172 287.881 0 283.463 0C279.045 0 275.463 3.58172 275.463 8ZM1169.5 190.374V619H1172.5V190.374H1169.5ZM1141 647.5H32V650.5H1141V647.5ZM3.5 619V205.839H0.5V619H3.5ZM3.5 205.839V183.106H0.5V205.839H3.5ZM24.7326 161.874H77.2544V158.874H24.7326V161.874ZM281.963 8V130.374H284.963V8H281.963ZM313.463 161.874H1141V158.874H313.463V161.874ZM281.963 130.374C281.963 147.771 296.066 161.874 313.463 161.874V158.874C297.723 158.874 284.963 146.114 284.963 130.374H281.963ZM32 647.5C16.2599 647.5 3.5 634.74 3.5 619H0.5C0.5 636.397 14.603 650.5 32 650.5V647.5ZM3.5 183.106C3.5 171.38 13.0062 161.874 24.7326 161.874V158.874C11.3493 158.874 0.5 169.723 0.5 183.106H3.5ZM1169.5 619C1169.5 634.74 1156.74 647.5 1141 647.5V650.5C1158.4 650.5 1172.5 636.397 1172.5 619H1169.5ZM1172.5 190.374C1172.5 172.977 1158.4 158.874 1141 158.874V161.874C1156.74 161.874 1169.5 174.633 1169.5 190.374H1172.5Z" fill="#D24336"/>
</svg>
