<svg width="223" height="48" viewBox="0 0 223 48" fill="none" xmlns="http://www.w3.org/2000/svg">
<rect width="223" height="48" rx="24" fill="#4180EA"/>
<circle cx="199.5" cy="23.5" r="17.5" fill="#F5FAF6"/>
<path opacity="0.8" d="M192 29.3846L203.077 18.3077H193.154V16L207 16V29.8462H204.692V19.9231L193.615 31L192 29.3846Z" fill="#4180EA"/>
<path d="M78.2363 31H70.2871V16.7227H78.2363V18.1875H71.9473V22.8066H77.875V24.252H71.9473V29.5352H78.2363V31ZM83.7051 25.5215L80.0039 20.2969H81.8594L84.6816 24.418L87.4941 20.2969H89.3301L85.6289 25.5215L89.5352 31H87.6797L84.6816 26.6348L81.6641 31H79.8281L83.7051 25.5215ZM96.6543 20.1016C97.9889 20.1016 99.0534 20.5605 99.8477 21.4785C100.642 22.3965 101.039 23.7767 101.039 25.6191C101.039 26.8366 100.857 27.8587 100.492 28.6855C100.128 29.5124 99.6133 30.1374 98.9492 30.5605C98.2917 30.9837 97.5137 31.1953 96.6152 31.1953C96.0488 31.1953 95.5508 31.1204 95.1211 30.9707C94.6914 30.821 94.3236 30.6191 94.0176 30.3652C93.7116 30.1113 93.4577 29.8346 93.2559 29.5352H93.1387C93.1582 29.7891 93.181 30.0951 93.207 30.4531C93.2396 30.8112 93.2559 31.1237 93.2559 31.3906V35.7852H91.625V20.2969H92.9629L93.1777 21.8789H93.2559C93.4642 21.5534 93.7181 21.2572 94.0176 20.9902C94.3171 20.7168 94.6816 20.502 95.1113 20.3457C95.5475 20.1829 96.0618 20.1016 96.6543 20.1016ZM96.3711 21.4688C95.6289 21.4688 95.0299 21.612 94.5742 21.8984C94.125 22.1849 93.7962 22.6146 93.5879 23.1875C93.3796 23.7539 93.2689 24.4668 93.2559 25.3262V25.6387C93.2559 26.5436 93.3535 27.3086 93.5488 27.9336C93.7507 28.5586 94.0794 29.0339 94.5352 29.3594C94.9974 29.6849 95.6159 29.8477 96.3906 29.8477C97.0547 29.8477 97.6081 29.6686 98.0508 29.3105C98.4935 28.9525 98.8223 28.4544 99.0371 27.8164C99.2585 27.1719 99.3691 26.4329 99.3691 25.5996C99.3691 24.3366 99.1217 23.334 98.627 22.5918C98.1387 21.8431 97.3867 21.4688 96.3711 21.4688ZM105.502 31H103.871V15.8047H105.502V31ZM118.158 25.6289C118.158 26.5078 118.044 27.2923 117.816 27.9824C117.589 28.6725 117.26 29.2552 116.83 29.7305C116.4 30.2057 115.88 30.5703 115.268 30.8242C114.662 31.0716 113.975 31.1953 113.207 31.1953C112.491 31.1953 111.833 31.0716 111.234 30.8242C110.642 30.5703 110.128 30.2057 109.691 29.7305C109.262 29.2552 108.926 28.6725 108.686 27.9824C108.451 27.2923 108.334 26.5078 108.334 25.6289C108.334 24.457 108.533 23.4609 108.93 22.6406C109.327 21.8138 109.893 21.1855 110.629 20.7559C111.371 20.3197 112.253 20.1016 113.275 20.1016C114.252 20.1016 115.105 20.3197 115.834 20.7559C116.57 21.1921 117.139 21.8236 117.543 22.6504C117.953 23.4707 118.158 24.4635 118.158 25.6289ZM110.014 25.6289C110.014 26.4883 110.128 27.2337 110.355 27.8652C110.583 28.4967 110.935 28.985 111.41 29.3301C111.885 29.6751 112.497 29.8477 113.246 29.8477C113.988 29.8477 114.597 29.6751 115.072 29.3301C115.554 28.985 115.909 28.4967 116.137 27.8652C116.365 27.2337 116.479 26.4883 116.479 25.6289C116.479 24.776 116.365 24.0404 116.137 23.4219C115.909 22.7969 115.557 22.3151 115.082 21.9766C114.607 21.638 113.992 21.4688 113.236 21.4688C112.123 21.4688 111.306 21.8366 110.785 22.5723C110.271 23.3079 110.014 24.3268 110.014 25.6289ZM125.824 20.1016C126.039 20.1016 126.264 20.1146 126.498 20.1406C126.732 20.1602 126.941 20.1895 127.123 20.2285L126.918 21.7324C126.742 21.6868 126.547 21.651 126.332 21.625C126.117 21.599 125.915 21.5859 125.727 21.5859C125.297 21.5859 124.89 21.6738 124.506 21.8496C124.128 22.0189 123.796 22.2663 123.51 22.5918C123.223 22.9108 122.999 23.2982 122.836 23.7539C122.673 24.2031 122.592 24.7044 122.592 25.2578V31H120.961V20.2969H122.309L122.484 22.2695H122.553C122.774 21.8724 123.041 21.5111 123.354 21.1855C123.666 20.8535 124.027 20.5898 124.438 20.3945C124.854 20.1992 125.316 20.1016 125.824 20.1016ZM133.266 20.1016C134.177 20.1016 134.958 20.3034 135.609 20.707C136.26 21.1107 136.758 21.6771 137.104 22.4062C137.449 23.1289 137.621 23.9753 137.621 24.9453V25.9512H130.229C130.248 27.2077 130.561 28.1647 131.166 28.8223C131.771 29.4798 132.624 29.8086 133.725 29.8086C134.402 29.8086 135.001 29.7467 135.521 29.623C136.042 29.4993 136.583 29.3171 137.143 29.0762V30.502C136.602 30.7428 136.065 30.9186 135.531 31.0293C135.004 31.14 134.379 31.1953 133.656 31.1953C132.628 31.1953 131.729 30.987 130.961 30.5703C130.199 30.1471 129.607 29.5286 129.184 28.7148C128.76 27.901 128.549 26.9049 128.549 25.7266C128.549 24.5742 128.741 23.5781 129.125 22.7383C129.516 21.8919 130.062 21.2409 130.766 20.7852C131.475 20.3294 132.309 20.1016 133.266 20.1016ZM133.246 21.4297C132.38 21.4297 131.69 21.7129 131.176 22.2793C130.661 22.8457 130.355 23.6367 130.258 24.6523H135.922C135.915 24.0143 135.814 23.4544 135.619 22.9727C135.43 22.4844 135.141 22.1068 134.75 21.8398C134.359 21.5664 133.858 21.4297 133.246 21.4297Z" fill="white"/>
</svg>
