<svg width="29" height="28" viewBox="0 0 29 28" fill="none" xmlns="http://www.w3.org/2000/svg">
<path d="M24.0096 20.4295L24.0096 3.50712C24.0096 2.87625 24.2234 2.34706 24.6509 1.91954C25.0784 1.49203 25.6069 1.27902 26.2363 1.2805C26.8671 1.2805 27.3963 1.49426 27.8238 1.92177C28.2514 2.34928 28.4644 2.87773 28.4629 3.50712L28.4629 25.7734C28.4629 26.4042 28.2491 26.9334 27.8216 27.361C27.3941 27.7885 26.8657 28.0015 26.2363 28L3.97001 28C3.33914 28 2.80995 27.7862 2.38243 27.3587C1.95492 26.9312 1.74191 26.4028 1.74339 25.7734C1.74339 25.1425 1.95715 24.6133 2.38466 24.1858C2.81217 23.7583 3.34062 23.5453 3.97001 23.5467L20.8924 23.5467L1.07541 3.72979C0.667191 3.32157 0.463081 2.80203 0.463081 2.17115C0.463081 1.54027 0.667191 1.02073 1.07541 0.612514C1.48362 0.2043 2.00316 0.000190735 2.63404 0.000190735C3.26492 0.000190735 3.78446 0.2043 4.19268 0.612514L24.0096 20.4295Z" fill="#470082"/>
</svg>
