<svg width="223" height="48" viewBox="0 0 223 48" fill="none" xmlns="http://www.w3.org/2000/svg">
<rect width="223" height="48" rx="24" fill="#4180EA"/>
<circle cx="199.5" cy="23.5" r="17.5" fill="#F5FAF6"/>
<path opacity="0.8" d="M192 29.3846L203.077 18.3077H193.154V16L207 16V29.8462H204.692V19.9231L193.615 31L192 29.3846Z" fill="#4180EA"/>
<path d="M47.1309 16.7227C48.3027 16.7227 49.2695 16.8691 50.0312 17.1621C50.7995 17.4486 51.3724 17.888 51.75 18.4805C52.1276 19.0729 52.3164 19.8281 52.3164 20.7461C52.3164 21.5013 52.1797 22.1328 51.9062 22.6406C51.6328 23.1419 51.2747 23.5488 50.832 23.8613C50.3893 24.1738 49.9173 24.4147 49.416 24.584L53.332 31H51.3984L47.9023 25.043H44.9336V31H43.2734V16.7227H47.1309ZM47.0332 18.1582H44.9336V23.6367H47.1992C48.3646 23.6367 49.2207 23.3991 49.7676 22.9238C50.321 22.4486 50.5977 21.7487 50.5977 20.8242C50.5977 19.8542 50.3047 19.1673 49.7188 18.7637C49.1393 18.36 48.2441 18.1582 47.0332 18.1582ZM59.4941 20.1016C60.4056 20.1016 61.1868 20.3034 61.8379 20.707C62.4889 21.1107 62.987 21.6771 63.332 22.4062C63.6771 23.1289 63.8496 23.9753 63.8496 24.9453V25.9512H56.457C56.4766 27.2077 56.7891 28.1647 57.3945 28.8223C58 29.4798 58.8529 29.8086 59.9531 29.8086C60.6302 29.8086 61.2292 29.7467 61.75 29.623C62.2708 29.4993 62.8112 29.3171 63.3711 29.0762V30.502C62.8307 30.7428 62.2936 30.9186 61.7598 31.0293C61.2324 31.14 60.6074 31.1953 59.8848 31.1953C58.8561 31.1953 57.9577 30.987 57.1895 30.5703C56.4277 30.1471 55.8353 29.5286 55.4121 28.7148C54.9889 27.901 54.7773 26.9049 54.7773 25.7266C54.7773 24.5742 54.9694 23.5781 55.3535 22.7383C55.7441 21.8919 56.291 21.2409 56.9941 20.7852C57.7038 20.3294 58.5371 20.1016 59.4941 20.1016ZM59.4746 21.4297C58.6087 21.4297 57.9186 21.7129 57.4043 22.2793C56.89 22.8457 56.584 23.6367 56.4863 24.6523H62.1504C62.1439 24.0143 62.043 23.4544 61.8477 22.9727C61.6589 22.4844 61.3691 22.1068 60.9785 21.8398C60.5879 21.5664 60.0866 21.4297 59.4746 21.4297ZM69.5918 35.8047C68.1855 35.8047 67.1016 35.541 66.3398 35.0137C65.5781 34.4928 65.1973 33.7604 65.1973 32.8164C65.1973 32.1458 65.4089 31.5729 65.832 31.0977C66.2617 30.6224 66.8542 30.3066 67.6094 30.1504C67.3294 30.0202 67.0885 29.8249 66.8867 29.5645C66.6914 29.304 66.5938 29.0046 66.5938 28.666C66.5938 28.2754 66.7012 27.9336 66.916 27.6406C67.1374 27.3411 67.4727 27.0547 67.9219 26.7812C67.362 26.5534 66.9062 26.1693 66.5547 25.6289C66.2096 25.082 66.0371 24.4473 66.0371 23.7246C66.0371 22.9564 66.1966 22.3021 66.5156 21.7617C66.8346 21.2148 67.2969 20.7982 67.9023 20.5117C68.5078 20.2253 69.2402 20.082 70.0996 20.082C70.2884 20.082 70.4772 20.0918 70.666 20.1113C70.8613 20.1243 71.0469 20.1471 71.2227 20.1797C71.3984 20.2057 71.5514 20.2383 71.6816 20.2773H75.3535V21.3223L73.3809 21.5664C73.5762 21.8203 73.7389 22.1263 73.8691 22.4844C73.9993 22.8424 74.0645 23.2396 74.0645 23.6758C74.0645 24.7435 73.7031 25.5931 72.9805 26.2246C72.2578 26.8496 71.265 27.1621 70.002 27.1621C69.7025 27.1621 69.3965 27.1361 69.084 27.084C68.765 27.2598 68.5208 27.4551 68.3516 27.6699C68.1888 27.8848 68.1074 28.1322 68.1074 28.4121C68.1074 28.6204 68.1693 28.7865 68.293 28.9102C68.4232 29.0339 68.6087 29.125 68.8496 29.1836C69.0905 29.2357 69.3802 29.2617 69.7188 29.2617H71.6035C72.7689 29.2617 73.6608 29.5059 74.2793 29.9941C74.9043 30.4824 75.2168 31.1953 75.2168 32.1328C75.2168 33.3177 74.735 34.2259 73.7715 34.8574C72.8079 35.4889 71.4147 35.8047 69.5918 35.8047ZM69.6406 34.5352C70.526 34.5352 71.2585 34.444 71.8379 34.2617C72.4238 34.0859 72.86 33.8288 73.1465 33.4902C73.4395 33.1582 73.5859 32.7611 73.5859 32.2988C73.5859 31.8691 73.4883 31.5436 73.293 31.3223C73.0977 31.1074 72.8112 30.9642 72.4336 30.8926C72.056 30.8145 71.5938 30.7754 71.0469 30.7754H69.1914C68.7096 30.7754 68.2897 30.8503 67.9316 31C67.5736 31.1497 67.2969 31.3711 67.1016 31.6641C66.9128 31.957 66.8184 32.3216 66.8184 32.7578C66.8184 33.3372 67.0625 33.7767 67.5508 34.0762C68.0391 34.3822 68.7357 34.5352 69.6406 34.5352ZM70.0605 25.9805C70.8353 25.9805 71.418 25.7852 71.8086 25.3945C72.1992 25.0039 72.3945 24.4342 72.3945 23.6855C72.3945 22.8848 72.196 22.2858 71.7988 21.8887C71.4017 21.485 70.8158 21.2832 70.041 21.2832C69.2988 21.2832 68.7259 21.4915 68.3223 21.9082C67.9251 22.3184 67.7266 22.9206 67.7266 23.7148C67.7266 24.444 67.9284 25.0039 68.332 25.3945C68.7357 25.7852 69.3118 25.9805 70.0605 25.9805ZM79.084 20.2969V31H77.4629V20.2969H79.084ZM78.293 16.293C78.5599 16.293 78.7878 16.3809 78.9766 16.5566C79.1719 16.7259 79.2695 16.9928 79.2695 17.3574C79.2695 17.7155 79.1719 17.9824 78.9766 18.1582C78.7878 18.334 78.5599 18.4219 78.293 18.4219C78.013 18.4219 77.7786 18.334 77.5898 18.1582C77.4076 17.9824 77.3164 17.7155 77.3164 17.3574C77.3164 16.9928 77.4076 16.7259 77.5898 16.5566C77.7786 16.3809 78.013 16.293 78.293 16.293ZM89.4453 28.0703C89.4453 28.7539 89.2728 29.3301 88.9277 29.7988C88.5892 30.2611 88.1009 30.6094 87.4629 30.8438C86.8314 31.0781 86.0762 31.1953 85.1973 31.1953C84.4486 31.1953 83.8008 31.1367 83.2539 31.0195C82.707 30.9023 82.2285 30.7363 81.8184 30.5215V29.0273C82.2546 29.2422 82.7754 29.4375 83.3809 29.6133C83.9863 29.7891 84.6048 29.877 85.2363 29.877C86.1608 29.877 86.8314 29.7272 87.248 29.4277C87.6647 29.1283 87.873 28.7214 87.873 28.207C87.873 27.9141 87.7884 27.6569 87.6191 27.4355C87.4564 27.2077 87.1797 26.9896 86.7891 26.7812C86.3984 26.5664 85.8581 26.332 85.168 26.0781C84.4844 25.8177 83.8919 25.5605 83.3906 25.3066C82.8958 25.0462 82.5117 24.7305 82.2383 24.3594C81.9714 23.9883 81.8379 23.5065 81.8379 22.9141C81.8379 22.0091 82.2025 21.3158 82.9316 20.834C83.6673 20.3457 84.6309 20.1016 85.8223 20.1016C86.4668 20.1016 87.069 20.1667 87.6289 20.2969C88.1953 20.4206 88.7227 20.5898 89.2109 20.8047L88.6641 22.1035C88.2214 21.9147 87.7493 21.7552 87.248 21.625C86.7467 21.4948 86.2357 21.4297 85.7148 21.4297C84.9661 21.4297 84.39 21.5534 83.9863 21.8008C83.5892 22.0482 83.3906 22.3867 83.3906 22.8164C83.3906 23.1484 83.4818 23.4219 83.6641 23.6367C83.8529 23.8516 84.1523 24.0534 84.5625 24.2422C84.9727 24.431 85.513 24.6523 86.1836 24.9062C86.8542 25.1536 87.4336 25.4108 87.9219 25.6777C88.4102 25.9382 88.7845 26.2572 89.0449 26.6348C89.3118 27.0059 89.4453 27.4844 89.4453 28.0703ZM95.5098 29.8672C95.7767 29.8672 96.0501 29.8444 96.3301 29.7988C96.61 29.7533 96.8379 29.6979 97.0137 29.6328V30.8926C96.8249 30.9772 96.5612 31.0488 96.2227 31.1074C95.8906 31.166 95.5651 31.1953 95.2461 31.1953C94.6797 31.1953 94.1654 31.0977 93.7031 30.9023C93.2409 30.7005 92.8698 30.362 92.5898 29.8867C92.3164 29.4115 92.1797 28.7539 92.1797 27.9141V21.5664H90.6562V20.7754L92.1895 20.1406L92.834 17.8164H93.8105V20.2969H96.9453V21.5664H93.8105V27.8652C93.8105 28.5358 93.9635 29.0371 94.2695 29.3691C94.582 29.7012 94.9954 29.8672 95.5098 29.8672ZM103.303 20.1016C104.214 20.1016 104.995 20.3034 105.646 20.707C106.298 21.1107 106.796 21.6771 107.141 22.4062C107.486 23.1289 107.658 23.9753 107.658 24.9453V25.9512H100.266C100.285 27.2077 100.598 28.1647 101.203 28.8223C101.809 29.4798 102.661 29.8086 103.762 29.8086C104.439 29.8086 105.038 29.7467 105.559 29.623C106.079 29.4993 106.62 29.3171 107.18 29.0762V30.502C106.639 30.7428 106.102 30.9186 105.568 31.0293C105.041 31.14 104.416 31.1953 103.693 31.1953C102.665 31.1953 101.766 30.987 100.998 30.5703C100.236 30.1471 99.6439 29.5286 99.2207 28.7148C98.7975 27.901 98.5859 26.9049 98.5859 25.7266C98.5859 24.5742 98.778 23.5781 99.1621 22.7383C99.5527 21.8919 100.1 21.2409 100.803 20.7852C101.512 20.3294 102.346 20.1016 103.303 20.1016ZM103.283 21.4297C102.417 21.4297 101.727 21.7129 101.213 22.2793C100.699 22.8457 100.393 23.6367 100.295 24.6523H105.959C105.952 24.0143 105.852 23.4544 105.656 22.9727C105.467 22.4844 105.178 22.1068 104.787 21.8398C104.396 21.5664 103.895 21.4297 103.283 21.4297ZM115.275 20.1016C115.49 20.1016 115.715 20.1146 115.949 20.1406C116.184 20.1602 116.392 20.1895 116.574 20.2285L116.369 21.7324C116.193 21.6868 115.998 21.651 115.783 21.625C115.568 21.599 115.367 21.5859 115.178 21.5859C114.748 21.5859 114.341 21.6738 113.957 21.8496C113.579 22.0189 113.247 22.2663 112.961 22.5918C112.674 22.9108 112.45 23.2982 112.287 23.7539C112.124 24.2031 112.043 24.7044 112.043 25.2578V31H110.412V20.2969H111.76L111.936 22.2695H112.004C112.225 21.8724 112.492 21.5111 112.805 21.1855C113.117 20.8535 113.479 20.5898 113.889 20.3945C114.305 20.1992 114.768 20.1016 115.275 20.1016ZM135.197 31H133.283L125.5 19.0078H125.422C125.441 19.3268 125.464 19.6914 125.49 20.1016C125.516 20.5052 125.536 20.9382 125.549 21.4004C125.568 21.8561 125.578 22.3216 125.578 22.7969V31H124.035V16.7227H125.939L133.693 28.6758H133.762C133.749 28.4479 133.732 28.1257 133.713 27.709C133.693 27.2858 133.674 26.8333 133.654 26.3516C133.641 25.8633 133.635 25.4108 133.635 24.9941V16.7227H135.197V31ZM148.078 25.6289C148.078 26.5078 147.964 27.2923 147.736 27.9824C147.508 28.6725 147.18 29.2552 146.75 29.7305C146.32 30.2057 145.799 30.5703 145.188 30.8242C144.582 31.0716 143.895 31.1953 143.127 31.1953C142.411 31.1953 141.753 31.0716 141.154 30.8242C140.562 30.5703 140.048 30.2057 139.611 29.7305C139.182 29.2552 138.846 28.6725 138.605 27.9824C138.371 27.2923 138.254 26.5078 138.254 25.6289C138.254 24.457 138.452 23.4609 138.85 22.6406C139.247 21.8138 139.813 21.1855 140.549 20.7559C141.291 20.3197 142.173 20.1016 143.195 20.1016C144.172 20.1016 145.025 20.3197 145.754 20.7559C146.49 21.1921 147.059 21.8236 147.463 22.6504C147.873 23.4707 148.078 24.4635 148.078 25.6289ZM139.934 25.6289C139.934 26.4883 140.048 27.2337 140.275 27.8652C140.503 28.4967 140.855 28.985 141.33 29.3301C141.805 29.6751 142.417 29.8477 143.166 29.8477C143.908 29.8477 144.517 29.6751 144.992 29.3301C145.474 28.985 145.829 28.4967 146.057 27.8652C146.285 27.2337 146.398 26.4883 146.398 25.6289C146.398 24.776 146.285 24.0404 146.057 23.4219C145.829 22.7969 145.477 22.3151 145.002 21.9766C144.527 21.638 143.911 21.4688 143.156 21.4688C142.043 21.4688 141.226 21.8366 140.705 22.5723C140.191 23.3079 139.934 24.3268 139.934 25.6289ZM159.592 30.9805L157.688 24.75C157.603 24.4831 157.521 24.2227 157.443 23.9688C157.372 23.7083 157.303 23.4609 157.238 23.2266C157.18 22.9857 157.124 22.7643 157.072 22.5625C157.027 22.3542 156.988 22.1751 156.955 22.0254H156.887C156.861 22.1751 156.825 22.3542 156.779 22.5625C156.734 22.7643 156.678 22.9857 156.613 23.2266C156.555 23.4674 156.49 23.7214 156.418 23.9883C156.346 24.2487 156.265 24.5124 156.174 24.7793L154.182 30.9805H152.355L149.406 20.2773H151.086L152.629 26.1855C152.733 26.5762 152.831 26.9635 152.922 27.3477C153.02 27.7253 153.101 28.0833 153.166 28.4219C153.238 28.7539 153.29 29.0436 153.322 29.291H153.4C153.439 29.1283 153.482 28.9329 153.527 28.7051C153.579 28.4772 153.635 28.2363 153.693 27.9824C153.758 27.722 153.827 27.4648 153.898 27.2109C153.97 26.9505 154.042 26.7064 154.113 26.4785L156.086 20.2773H157.834L159.738 26.4688C159.836 26.7812 159.93 27.1068 160.021 27.4453C160.119 27.7839 160.207 28.1126 160.285 28.4316C160.363 28.7441 160.419 29.0241 160.451 29.2715H160.529C160.555 29.0501 160.604 28.7767 160.676 28.4512C160.747 28.1257 160.829 27.7676 160.92 27.377C161.018 26.9863 161.118 26.5892 161.223 26.1855L162.785 20.2773H164.436L161.477 30.9805H159.592Z" fill="white"/>
</svg>
