<svg width="371" height="293" viewBox="0 0 371 293" fill="none" xmlns="http://www.w3.org/2000/svg">
<rect x="-123" width="494" height="199" rx="99.5" fill="#109756" fill-opacity="0.1"/>
<line x1="277.244" y1="88.9444" x2="290.244" y2="145.944" stroke="#D24336" stroke-width="0.5"/>
<line x1="277.059" y1="88.7571" x2="318.059" y2="98.7571" stroke="#D24336" stroke-width="0.5"/>
<line x1="276.75" y1="88.0128" x2="274.75" y2="49.0128" stroke="#D24336" stroke-width="0.5"/>
<line x1="277" y1="88.25" x2="223" y2="88.25" stroke="#D24336" stroke-width="0.5"/>
<path d="M276.888 92.7748C279.035 92.7748 280.775 91.0344 280.775 88.8874C280.775 86.7404 279.035 85 276.888 85C274.741 85 273 86.7404 273 88.8874C273 91.0344 274.741 92.7748 276.888 92.7748Z" fill="#D24336"/>
<path d="M318.001 109C323.524 109 328.001 104.523 328.001 99C328.001 93.4772 323.524 89 318.001 89C312.477 89 308 93.4772 308 99C308 104.523 312.477 109 318.001 109Z" fill="#D24336"/>
<path d="M274.5 57C278.643 57 282.001 53.6421 282.001 49.5C282.001 45.3579 278.643 42 274.5 42C270.358 42 267 45.3579 267 49.5C267 53.6421 270.358 57 274.5 57Z" fill="#D24336"/>
<path d="M223 94C226.314 94 229.001 91.3137 229.001 88C229.001 84.6863 226.314 82 223 82C219.686 82 217 84.6863 217 88C217 91.3137 219.686 94 223 94Z" fill="#D24336"/>
<path d="M290.001 161C298.286 161 305.002 154.284 305.002 146C305.002 137.716 298.286 131 290.001 131C281.716 131 275 137.716 275 146C275 154.284 281.716 161 290.001 161Z" fill="#D24336"/>
<path d="M221.875 80.625C217.457 80.625 213.875 84.2067 213.875 88.625C213.875 93.0433 217.457 96.625 221.875 96.625C226.293 96.625 229.875 93.0433 229.875 88.625C229.875 84.2067 226.293 80.625 221.875 80.625ZM221.875 87.125H113.375V90.125H221.875V87.125ZM81.875 118.625V261H84.875V118.625H81.875ZM53.375 289.5H-34.5V292.5H53.375V289.5ZM81.875 261C81.875 276.74 69.1151 289.5 53.375 289.5V292.5C70.772 292.5 84.875 278.397 84.875 261H81.875ZM113.375 87.125C95.978 87.125 81.875 101.228 81.875 118.625H84.875C84.875 102.885 97.6349 90.125 113.375 90.125V87.125Z" fill="#D24336"/>
</svg>
