<svg width="132" height="66" viewBox="0 0 132 66" fill="none" xmlns="http://www.w3.org/2000/svg">
<mask id="mask0_94_976" style="mask-type:alpha" maskUnits="userSpaceOnUse" x="0" y="4" width="46" height="36">
<path d="M42.0926 5.02992C44.1768 5.77802 45.2191 6.77547 45.2191 8.02232C45.2191 8.42743 45.0326 9.19129 44.6592 10.3133L35.6994 36.2627C35.637 36.481 35.5283 36.746 35.3727 37.0576C35.2173 37.3694 34.7971 37.7904 34.1126 38.32C33.4595 38.8187 32.6661 39.0681 31.7328 39.0681C30.8305 39.0681 30.0371 38.8187 29.3529 38.32C28.6995 37.7904 28.2639 37.2759 28.0461 36.7771L22.5862 20.6464C19.133 30.8701 17.3752 36.0757 17.313 36.2627C17.2508 36.4499 17.1108 36.7147 16.893 37.0576C16.6752 37.4005 16.4264 37.7123 16.1464 37.9927C15.4308 38.7096 14.5753 39.0681 13.5797 39.0681C12.5842 39.0681 11.7598 38.8344 11.1065 38.367C10.4842 37.8993 10.0643 37.4318 9.84649 36.9641L9.51982 36.2627L0.513324 10.3133C0.171108 9.2847 0 8.52105 0 8.02232C0 6.77547 1.0422 5.79361 3.12661 5.07669C4.02883 4.76497 4.83769 4.60912 5.55324 4.60912C6.29989 4.60912 6.85988 4.85849 7.23322 5.35721C7.63763 5.85594 7.99541 6.61962 8.30652 7.64826L13.4398 23.2646L18.5263 7.88209C18.9618 6.57288 19.7552 5.66891 20.9062 5.17021C21.404 4.952 22.0419 4.84292 22.8196 4.84292C23.6285 4.84292 24.3751 5.10785 25.0596 5.63776C25.7441 6.13649 26.1797 6.63521 26.3661 7.13397L31.7328 23.3581L36.8659 7.64826C37.1148 6.9314 37.3172 6.40144 37.4728 6.05856C37.6282 5.71568 37.9082 5.38839 38.3127 5.07669C38.7483 4.73379 39.2771 4.56238 39.8992 4.56238C40.5215 4.56238 41.2527 4.71823 42.0926 5.02992Z" fill="black"/>
</mask>
<g mask="url(#mask0_94_976)">
<path d="M35.5796 41.5356C34.7685 43.9853 32.1289 45.3131 29.6836 44.501C27.2385 43.6892 25.9137 41.045 26.7248 38.5953L38.0711 4.32327C38.8822 1.87358 41.522 0.545927 43.9671 1.35789C46.4122 2.16986 47.737 4.81396 46.9261 7.26365L35.5796 41.5356Z" fill="#0F9D58" fill-opacity="0.95"/>
<path d="M28.4817 38.643C29.1607 40.7026 31.3775 41.8211 33.4332 41.1413C35.4887 40.4617 36.6049 38.2411 35.9261 36.1817L25.9947 6.05514C25.3159 3.99563 23.0989 2.8771 21.0432 3.55682C18.9875 4.23652 17.8714 6.45706 18.5504 8.51655L28.4817 38.643Z" fill="#F4B400" fill-opacity="0.95"/>
<path d="M16.6859 38.3387C16.0108 40.3775 13.8137 41.4827 11.7785 40.8069C9.74326 40.1309 8.64061 37.9301 9.31565 35.8913L19.7992 4.22564C20.4742 2.18663 22.6714 1.08159 24.7066 1.7574C26.7417 2.43325 27.8446 4.63404 27.1694 6.67303L16.6859 38.3387Z" fill="#DB4437" fill-opacity="0.95"/>
<path d="M10.1531 42.9982C10.9603 45.4367 13.5878 46.7581 16.0216 45.9501C18.4554 45.1418 19.7741 42.51 18.9668 40.0716L7.60669 5.75841C6.79944 3.32009 4.17202 1.9986 1.73818 2.8068C-0.695655 3.61499 -2.01426 6.24681 -1.207 8.68512L10.1531 42.9982Z" fill="#4285F4" fill-opacity="0.95"/>
</g>
<mask id="mask1_94_976" style="mask-type:alpha" maskUnits="userSpaceOnUse" x="86" y="4" width="46" height="36">
<path d="M89.9077 5.02992C87.8235 5.77802 86.7812 6.77547 86.7812 8.02232C86.7812 8.42743 86.968 9.19129 87.3412 10.3133L96.301 36.2627C96.3634 36.481 96.4723 36.746 96.6276 37.0576C96.7833 37.3694 97.2032 37.7904 97.8877 38.32C98.5411 38.8187 99.3342 39.0681 100.268 39.0681C101.17 39.0681 101.963 38.8187 102.648 38.32C103.301 37.7904 103.736 37.2759 103.954 36.7771L109.414 20.6464C112.868 30.8701 114.625 36.0757 114.687 36.2627C114.75 36.4499 114.89 36.7147 115.107 37.0576C115.325 37.4005 115.574 37.7123 115.854 37.9927C116.57 38.7096 117.425 39.0681 118.421 39.0681C119.416 39.0681 120.241 38.8344 120.894 38.367C121.516 37.8993 121.936 37.4318 122.154 36.9641L122.48 36.2627L131.487 10.3133C131.829 9.2847 132 8.52105 132 8.02232C132 6.77547 130.958 5.79361 128.874 5.07669C127.972 4.76497 127.163 4.60912 126.447 4.60912C125.701 4.60912 125.141 4.85849 124.767 5.35721C124.363 5.85594 124.005 6.61962 123.694 7.64826L118.561 23.2646L113.474 7.88209C113.039 6.57288 112.245 5.66891 111.094 5.17021C110.596 4.952 109.959 4.84292 109.181 4.84292C108.372 4.84292 107.625 5.10785 106.941 5.63776C106.257 6.13649 105.821 6.63521 105.634 7.13397L100.268 23.3581L95.1344 7.64826C94.8855 6.9314 94.6834 6.40144 94.5277 6.05856C94.3721 5.71568 94.0921 5.38839 93.6876 5.07669C93.2523 4.73379 92.7235 4.56238 92.1011 4.56238C91.4788 4.56238 90.7479 4.71823 89.9077 5.02992Z" fill="black"/>
</mask>
<g mask="url(#mask1_94_976)">
<path d="M96.4199 41.5356C97.231 43.9853 99.8705 45.3131 102.316 44.501C104.761 43.6892 106.086 41.045 105.275 38.5953L93.9283 4.32327C93.1172 1.87358 90.4774 0.545927 88.0323 1.35789C85.5872 2.16986 84.2625 4.81396 85.0733 7.26365L96.4199 41.5356Z" fill="#0F9D58" fill-opacity="0.95"/>
<path d="M103.519 38.643C102.84 40.7026 100.623 41.8211 98.5676 41.1413C96.5119 40.4617 95.3959 38.2411 96.0747 36.1817L106.006 6.05514C106.685 3.99563 108.902 2.8771 110.957 3.55682C113.013 4.23652 114.129 6.45706 113.45 8.51655L103.519 38.643Z" fill="#F4B400" fill-opacity="0.95"/>
<path d="M115.314 38.3387C115.989 40.3775 118.186 41.4827 120.221 40.8069C122.257 40.1309 123.359 37.9301 122.684 35.8913L112.201 4.22564C111.526 2.18663 109.328 1.08159 107.293 1.7574C105.258 2.43325 104.155 4.63404 104.83 6.67303L115.314 38.3387Z" fill="#DB4437" fill-opacity="0.95"/>
<path d="M121.847 42.9982C121.04 45.4367 118.412 46.7581 115.978 45.9501C113.545 45.1418 112.226 42.51 113.033 40.0716L124.393 5.75841C125.201 3.32009 127.828 1.9986 130.262 2.8068C132.696 3.61499 134.014 6.24681 133.207 8.68512L121.847 42.9982Z" fill="#4285F4" fill-opacity="0.95"/>
</g>
<path fill-rule="evenodd" clip-rule="evenodd" d="M45.0819 20.3043C43.7956 21.0481 43.7956 22.9081 45.0819 23.6522L54.3085 28.9893C53.0852 26.9395 52.382 24.5419 52.382 21.9797C52.382 19.4157 53.0862 17.0163 54.3116 14.9652L45.0819 20.3043ZM65.8295 8.30246C65.8978 8.30151 65.9661 8.30092 66.0345 8.30092C71.1784 8.30092 75.6577 11.1512 77.9854 15.3612V4.61853C77.9854 3.13056 76.3778 2.20061 75.0918 2.94459L65.8295 8.30246ZM77.9854 28.5981C75.6577 32.8085 71.1784 35.6586 66.0345 35.6586C65.9682 35.6586 65.9017 35.6581 65.8352 35.6571L75.0918 41.0119C76.3778 41.7559 77.9854 40.8257 77.9854 39.3378V28.5981Z" fill="#34A853" fill-opacity="0.9"/>
<path fill-rule="evenodd" clip-rule="evenodd" d="M79.6843 22.2324C79.6859 22.1481 79.6866 22.0641 79.6866 21.9799C79.6866 16.8385 76.8553 12.3594 72.6698 10.0226H83.3784C84.8637 10.0226 85.7917 11.6333 85.0492 12.9219L79.6843 22.2324ZM73.0751 33.7015C71.0194 34.9438 68.61 35.6588 66.0339 35.6588C63.4814 35.6588 61.0923 34.9566 59.0487 33.7351L64.3814 42.9898C65.1242 44.2783 66.9806 44.2783 67.7229 42.9898L73.0751 33.7015ZM52.3827 22.1671L47.0554 12.9219C46.3126 11.6333 47.2411 10.0226 48.7261 10.0226H59.3982C55.2128 12.3594 52.3814 16.8385 52.3814 21.9799C52.3814 22.0423 52.3819 22.105 52.3827 22.1671Z" fill="#FBBC04" fill-opacity="0.9"/>
<path fill-rule="evenodd" clip-rule="evenodd" d="M87.0239 23.6522C88.3101 22.9081 88.3101 21.0481 87.0239 20.3043L77.7379 14.9326C78.9751 16.9909 79.6868 19.402 79.6868 21.9797C79.6868 24.5555 78.9764 26.9649 77.741 29.0219L87.0239 23.6522ZM66.2714 35.6568C66.1925 35.6581 66.1134 35.6586 66.0343 35.6586C60.9173 35.6586 56.4581 32.8383 54.1201 28.6644V39.3378C54.1201 40.8257 55.7279 41.7559 57.0139 41.0119L66.2714 35.6568ZM66.2775 8.30326L57.0139 2.94459C55.7279 2.20061 54.1201 3.13056 54.1201 4.61853V15.2952C56.4581 11.1215 60.9173 8.3011 66.0343 8.3011C66.1155 8.3011 66.1966 8.30169 66.2775 8.30326Z" fill="#EA4335" fill-opacity="0.9"/>
<path fill-rule="evenodd" clip-rule="evenodd" d="M67.7228 0.966436C66.9805 -0.322145 65.1241 -0.322145 64.3813 0.966436L59.0455 10.2263C61.0899 9.00357 63.4801 8.30091 66.0338 8.30091C68.6112 8.30091 71.0216 9.01638 73.0783 10.2599L67.7228 0.966436ZM79.6842 21.7239C79.6858 21.8089 79.6865 21.8944 79.6865 21.9797C79.6865 27.1188 76.858 31.596 72.6759 33.9337H83.3786C84.8636 33.9337 85.7916 32.3228 85.0493 31.0343L79.6842 21.7239ZM59.3922 33.9337C55.2099 31.596 52.3816 27.1188 52.3816 21.9797C52.3816 21.916 52.3818 21.8523 52.3826 21.7891L47.0553 31.0343C46.3127 32.3228 47.241 33.9337 48.726 33.9337H59.3922Z" fill="#4285F4" fill-opacity="0.9"/>
<path fill-rule="evenodd" clip-rule="evenodd" d="M73.8301 12.7731C68.7691 8.47131 61.1901 9.08659 56.8857 14.1428C57.7495 13.1496 59.2522 13.0336 60.2578 13.8885C61.2715 14.7502 61.3963 16.2722 60.5362 17.2877L60.5364 17.288C63.11 14.2486 67.6503 13.8682 70.6918 16.4314C70.6995 16.4381 70.7072 16.4448 70.7152 16.4515C71.7289 17.3134 73.2479 17.1883 74.108 16.1728C74.9682 15.157 74.8436 13.635 73.8299 12.7731H73.8301Z" fill="url(#paint0_linear_94_976)"/>
<path fill-rule="evenodd" clip-rule="evenodd" d="M56.8643 14.1672C52.573 19.2346 53.1841 26.8226 58.2224 31.1365L58.2558 31.165C57.2421 30.303 57.1175 28.781 57.9777 27.7652C58.8363 26.7512 60.3519 26.6251 61.3656 27.4824C58.3334 24.9002 57.9579 20.3472 60.524 17.3016C60.5281 17.297 60.5319 17.2924 60.5358 17.2878C61.3962 16.272 61.2716 14.75 60.2576 13.8883C59.2439 13.0264 57.7244 13.1514 56.8643 14.1672Z" fill="url(#paint1_linear_94_976)"/>
<path fill-rule="evenodd" clip-rule="evenodd" d="M58.2571 31.1647V31.165C63.3153 35.4645 70.8889 34.8521 75.1943 29.8035L75.2223 29.7706C74.3621 30.7864 72.8432 30.9112 71.8292 30.0495C70.8155 29.1878 70.6906 27.6658 71.551 26.65C68.9732 29.6941 64.4228 30.0711 61.3813 27.4945C61.3782 27.4919 61.3751 27.4891 61.3718 27.4865C60.358 26.6246 58.8389 26.7497 57.979 27.7652C57.1188 28.781 57.2434 30.303 58.2571 31.1647Z" fill="url(#paint2_linear_94_976)"/>
<path fill-rule="evenodd" clip-rule="evenodd" d="M73.8634 12.8012L73.8397 12.7812C74.8448 13.6445 74.9657 15.1598 74.1084 16.1723C73.2511 17.1848 71.7393 17.3121 70.7256 16.46C73.756 19.0455 74.1271 23.6016 71.5539 26.6456C71.5526 26.6469 71.5513 26.6485 71.55 26.65C70.6899 27.6658 70.8147 29.1878 71.8284 30.0495C72.8422 30.9112 74.3614 30.7864 75.2213 29.7706L75.2215 29.7708L75.2344 29.7554C79.5115 24.6878 78.8966 17.1108 73.8634 12.8012Z" fill="url(#paint3_linear_94_976)"/>
<path d="M21.9766 61H19.2266L16.2344 56.1875L15.2109 56.9219V61H12.7891V49.5781H15.2109V54.8047C15.3724 54.5807 15.5312 54.3568 15.6875 54.1328C15.8438 53.9089 16.0026 53.6849 16.1641 53.4609L19.2578 49.5781H21.9453L17.9609 54.6328L21.9766 61ZM39.5922 61H33.0141V49.5781H39.5922V51.5625H35.4359V54.0703H39.3031V56.0547H35.4359V59H39.5922V61ZM54.9109 49.5781C55.9474 49.5781 56.8016 49.7031 57.4734 49.9531C58.1505 50.2031 58.6531 50.5807 58.9813 51.0859C59.3094 51.5911 59.4734 52.2292 59.4734 53C59.4734 53.5208 59.3745 53.9766 59.1766 54.3672C58.9786 54.7578 58.7182 55.0885 58.3953 55.3594C58.0724 55.6302 57.7234 55.8516 57.3484 56.0234L60.7078 61H58.0203L55.2938 56.6172H54.0047V61H51.5828V49.5781H54.9109ZM54.7391 51.5625H54.0047V54.6484H54.7859C55.588 54.6484 56.1609 54.5156 56.5047 54.25C56.8536 53.9792 57.0281 53.5833 57.0281 53.0625C57.0281 52.5208 56.8406 52.1354 56.4656 51.9062C56.0958 51.6771 55.5203 51.5625 54.7391 51.5625ZM78.7375 61L77.9094 58.2812H73.7453L72.9172 61H70.3078L74.3391 49.5312H77.3L81.3469 61H78.7375ZM77.3313 56.25L76.5031 53.5938C76.451 53.4167 76.3807 53.1901 76.2922 52.9141C76.2089 52.6328 76.1229 52.349 76.0344 52.0625C75.951 51.7708 75.8833 51.5182 75.8313 51.3047C75.7792 51.5182 75.7063 51.7839 75.6125 52.1016C75.524 52.4141 75.438 52.7109 75.3547 52.9922C75.2714 53.2734 75.2115 53.474 75.175 53.5938L74.3547 56.25H77.3313ZM92.3922 61V49.5781H94.8141V59H99.4469V61H92.3922ZM118.031 61L117.203 58.2812H113.039L112.211 61H109.602L113.633 49.5312H116.594L120.641 61H118.031ZM116.625 56.25L115.797 53.5938C115.745 53.4167 115.674 53.1901 115.586 52.9141C115.503 52.6328 115.417 52.349 115.328 52.0625C115.245 51.7708 115.177 51.5182 115.125 51.3047C115.073 51.5182 115 51.7839 114.906 52.1016C114.818 52.4141 114.732 52.7109 114.648 52.9922C114.565 53.2734 114.505 53.474 114.469 53.5938L113.648 56.25H116.625Z" fill="url(#paint4_linear_94_976)"/>
<defs>
<linearGradient id="paint0_linear_94_976" x1="67.9267" y1="12.8475" x2="58.887" y2="15.4205" gradientUnits="userSpaceOnUse">
<stop stop-color="#4285F4"/>
<stop offset="1" stop-color="#4285F4" stop-opacity="0.7"/>
</linearGradient>
<linearGradient id="paint1_linear_94_976" x1="56.9385" y1="20.0817" x2="59.5254" y2="29.1334" gradientUnits="userSpaceOnUse">
<stop stop-color="#0F9D58"/>
<stop offset="1" stop-color="#0F9D58" stop-opacity="0.7"/>
</linearGradient>
<linearGradient id="paint2_linear_94_976" x1="64.1605" y1="31.0905" x2="73.1999" y2="28.5175" gradientUnits="userSpaceOnUse">
<stop stop-color="#F4B400"/>
<stop offset="1" stop-color="#F4B400" stop-opacity="0.7"/>
</linearGradient>
<linearGradient id="paint3_linear_94_976" x1="75.1504" y1="23.8587" x2="72.5615" y2="14.8149" gradientUnits="userSpaceOnUse">
<stop stop-color="#DB4437"/>
<stop offset="1" stop-color="#DB4437" stop-opacity="0.7"/>
</linearGradient>
<linearGradient id="paint4_linear_94_976" x1="11" y1="54.6667" x2="121" y2="54.6667" gradientUnits="userSpaceOnUse">
<stop stop-color="#4180EA"/>
<stop offset="0.407961" stop-color="#D24336"/>
<stop offset="0.762027" stop-color="#EAAD02"/>
<stop offset="1" stop-color="#109756"/>
</linearGradient>
</defs>
</svg>
