<svg width="221" height="496" viewBox="0 0 221 496" fill="none" xmlns="http://www.w3.org/2000/svg">
<rect x="18" y="430" width="430" height="173.219" rx="86.6094" transform="rotate(-90 18 430)" fill="#109756" fill-opacity="0.1"/>
<line x1="88.9444" y1="95.7563" x2="145.944" y2="82.7563" stroke="#109756" stroke-width="0.5"/>
<line x1="88.7571" y1="95.9408" x2="98.7571" y2="54.9408" stroke="#109756" stroke-width="0.5"/>
<line x1="88.0128" y1="96.2497" x2="49.0128" y2="98.2497" stroke="#109756" stroke-width="0.5"/>
<line x1="88.25" y1="96" x2="88.25" y2="150" stroke="#109756" stroke-width="0.5"/>
<path d="M92.7748 96.1124C92.7748 93.9653 91.0344 92.2248 88.8874 92.2248C86.7404 92.2248 85 93.9653 85 96.1124C85 98.2595 86.7404 100 88.8874 100C91.0344 100 92.7748 98.2595 92.7748 96.1124Z" fill="#109756"/>
<path d="M109 54.9994C109 49.4763 104.523 44.9989 99 44.9989C93.4772 44.9989 89 49.4763 89 54.9994C89 60.5226 93.4772 65 99 65C104.523 65 109 60.5226 109 54.9994Z" fill="#109756"/>
<path d="M57 98.4996C57 94.3572 53.6421 90.9992 49.5 90.9992C45.3579 90.9992 42 94.3572 42 98.4996C42 102.642 45.3579 106 49.5 106C53.6421 106 57 102.642 57 98.4996Z" fill="#109756"/>
<path d="M94 150C94 146.686 91.3137 143.999 88 143.999C84.6863 143.999 82 146.686 82 150C82 153.314 84.6863 156 88 156C91.3137 156 94 153.314 94 150Z" fill="#109756"/>
<path d="M161 82.9992C161 74.7144 154.284 67.9983 146 67.9983C137.716 67.9983 131 74.7144 131 82.9992C131 91.2839 137.716 98 146 98C154.284 98 161 91.2839 161 82.9992Z" fill="#109756"/>
<path d="M80.625 151.125C80.625 155.543 84.2067 159.125 88.625 159.125C93.0433 159.125 96.625 155.543 96.625 151.125C96.625 146.707 93.0433 143.125 88.625 143.125C84.2067 143.125 80.625 146.707 80.625 151.125ZM87.125 151.125V259.625H90.125V151.125H87.125ZM118.625 291.125H261V288.125H118.625V291.125ZM289.5 319.625V407.5H292.5V319.625H289.5ZM261 291.125C276.74 291.125 289.5 303.885 289.5 319.625H292.5C292.5 302.228 278.397 288.125 261 288.125V291.125ZM87.125 259.625C87.125 277.022 101.228 291.125 118.625 291.125V288.125C102.885 288.125 90.125 275.365 90.125 259.625H87.125Z" fill="#109756"/>
</svg>
