<svg width="479" height="304" viewBox="0 0 479 304" fill="none" xmlns="http://www.w3.org/2000/svg">
<path d="M147.228 121.106V120.852C142.15 120.852 137.558 118.793 134.232 115.464C130.908 112.134 128.852 107.538 128.852 102.459C128.852 97.3891 130.908 92.7961 134.232 89.4681C137.558 86.1409 142.15 84.0826 147.228 84.0826C152.307 84.0826 156.9 86.1409 160.225 89.4681C163.55 92.7961 165.604 97.3891 165.604 102.459C165.604 107.538 163.55 112.134 160.225 115.464C156.9 118.793 152.307 120.852 147.228 120.852V121.106V121.361C157.665 121.361 166.114 112.896 166.114 102.459C166.114 92.0377 157.665 83.5728 147.228 83.5728C136.792 83.5728 128.343 92.0377 128.343 102.459C128.343 112.896 136.792 121.361 147.228 121.361V121.106ZM174.09 105.771H174.344V99.1588C174.344 98.3708 173.705 97.7334 172.918 97.7334H171.217C170.834 97.7334 170.497 97.4722 170.414 97.1064C169.819 94.5116 168.804 92.0763 167.436 89.8807C167.347 89.7375 167.304 89.5787 167.304 89.4214C167.304 89.2084 167.384 89.0014 167.543 88.8426L168.739 87.6458C169.018 87.3675 169.158 86.9995 169.158 86.6359C169.158 86.2715 169.017 85.9057 168.739 85.6297L164.064 80.9543C163.791 80.6805 163.429 80.5365 163.066 80.5373C162.701 80.5365 162.33 80.673 162.049 80.9543L160.854 82.1497C160.694 82.3084 160.488 82.3878 160.274 82.3886C160.117 82.3886 159.957 82.3448 159.815 82.2558C157.62 80.8868 155.183 79.8717 152.587 79.2751C152.222 79.192 151.961 78.8559 151.961 78.473V76.776C151.961 75.9887 151.323 75.3513 150.535 75.3506H143.924C143.137 75.3513 142.499 75.9887 142.498 76.776V78.4722C142.499 78.8559 142.237 79.192 141.872 79.2751C139.275 79.8709 136.839 80.886 134.643 82.255C134.5 82.3441 134.341 82.3871 134.184 82.3871C133.97 82.3871 133.764 82.3077 133.605 82.1489L132.41 80.9543C132.135 80.679 131.772 80.5365 131.408 80.5373C131.044 80.5365 130.675 80.6738 130.394 80.9543L125.719 85.6297C125.44 85.9094 125.302 86.2775 125.302 86.6418C125.302 87.0061 125.444 87.3697 125.72 87.6458L126.916 88.8411C127.074 89.0007 127.153 89.207 127.154 89.4207C127.154 89.5772 127.11 89.7367 127.021 89.88C125.653 92.0748 124.639 94.5109 124.043 97.1072C123.96 97.4722 123.623 97.7334 123.241 97.7334H121.541C120.754 97.7334 120.116 98.3708 120.116 99.1588V105.771C120.116 106.557 120.754 107.196 121.541 107.196H123.242C123.624 107.196 123.961 107.457 124.044 107.823C124.64 110.418 125.655 112.854 127.022 115.048C127.111 115.191 127.155 115.35 127.155 115.507C127.154 115.721 127.075 115.927 126.916 116.086L125.719 117.283C125.438 117.565 125.302 117.936 125.302 118.301C125.302 118.664 125.445 119.026 125.719 119.299L130.394 123.975C130.676 124.256 131.047 124.393 131.412 124.393C131.775 124.393 132.136 124.249 132.41 123.975L133.609 122.776C133.768 122.618 133.974 122.538 134.188 122.537C134.345 122.537 134.503 122.581 134.647 122.67C136.841 124.037 139.277 125.05 141.872 125.646C142.237 125.729 142.499 126.065 142.498 126.448V128.153C142.499 128.94 143.137 129.578 143.924 129.579H150.535C151.323 129.578 151.961 128.94 151.961 128.153V126.447C151.961 126.065 152.222 125.728 152.588 125.645C155.183 125.05 157.617 124.037 159.812 122.67C159.954 122.581 160.114 122.537 160.271 122.537C160.484 122.537 160.691 122.617 160.85 122.776L162.049 123.975C162.327 124.254 162.695 124.393 163.059 124.393C163.423 124.393 163.788 124.252 164.064 123.975L168.739 119.299C169.017 119.023 169.158 118.657 169.157 118.294C169.158 117.93 169.018 117.562 168.739 117.283L167.542 116.086C167.383 115.926 167.303 115.72 167.303 115.506C167.303 115.35 167.346 115.19 167.435 115.047C168.803 112.853 169.817 110.417 170.413 107.823C170.496 107.457 170.832 107.196 171.215 107.196H172.918C173.705 107.196 174.344 106.557 174.344 105.771H174.09H173.835C173.834 106.276 173.424 106.686 172.918 106.687H171.215C170.602 106.687 170.057 107.104 169.917 107.708C169.334 110.249 168.341 112.632 167.003 114.778C166.863 115.002 166.794 115.255 166.794 115.506C166.794 115.847 166.924 116.189 167.182 116.446L168.379 117.644C168.559 117.823 168.647 118.057 168.648 118.294C168.647 118.528 168.559 118.76 168.379 118.939L163.705 123.615C163.526 123.794 163.294 123.883 163.059 123.883C162.822 123.883 162.589 123.794 162.409 123.615L161.21 122.416C160.953 122.158 160.612 122.028 160.271 122.028C160.02 122.028 159.766 122.097 159.542 122.238C157.396 123.574 155.013 124.566 152.473 125.149C151.869 125.288 151.452 125.834 151.452 126.447V128.153C151.451 128.659 151.041 129.069 150.535 129.069H143.924C143.418 129.069 143.008 128.659 143.008 128.153V126.448C143.008 125.834 142.591 125.289 141.986 125.149C139.445 124.566 137.063 123.575 134.916 122.238C134.692 122.098 134.439 122.028 134.188 122.028C133.847 122.028 133.506 122.159 133.249 122.417L132.05 123.615C131.872 123.793 131.641 123.883 131.412 123.883C131.171 123.883 130.935 123.795 130.755 123.615L126.08 118.939C125.901 118.761 125.811 118.531 125.811 118.301C125.811 118.06 125.899 117.824 126.08 117.644L127.276 116.446C127.534 116.19 127.665 115.848 127.665 115.507C127.665 115.255 127.595 115.003 127.454 114.779C126.116 112.632 125.124 110.249 124.54 107.708C124.4 107.103 123.855 106.687 123.242 106.687H121.541C121.035 106.686 120.626 106.276 120.625 105.771V99.1588C120.626 98.6528 121.035 98.2432 121.541 98.2425H123.241C123.855 98.2425 124.399 97.8262 124.54 97.2207C125.123 94.68 126.116 92.2967 127.454 90.1486C127.593 89.9245 127.663 89.6722 127.663 89.4207C127.664 89.0793 127.533 88.738 127.275 88.4813L126.08 87.2859C125.9 87.1063 125.811 86.8748 125.811 86.6418C125.811 86.4044 125.9 86.1699 126.08 85.9903L130.755 81.3149C130.934 81.1346 131.17 81.047 131.408 81.0463C131.64 81.047 131.871 81.1361 132.05 81.3149L133.244 82.5095C133.501 82.7663 133.842 82.8969 134.184 82.8969C134.435 82.8969 134.688 82.8264 134.913 82.6876C137.06 81.3483 139.444 80.3547 141.986 79.7715C142.591 79.6313 143.008 79.0866 143.008 78.4722V76.776C143.008 76.2699 143.418 75.8603 143.924 75.8596H150.535C151.041 75.8603 151.451 76.2699 151.452 76.776V78.473C151.452 79.0866 151.868 79.6313 152.473 79.7715C155.015 80.3555 157.398 81.349 159.546 82.6876C159.769 82.8279 160.023 82.8976 160.274 82.8976C160.616 82.8984 160.956 82.767 161.214 82.5095L162.409 81.3149C162.589 81.1338 162.825 81.047 163.066 81.0463C163.296 81.0463 163.526 81.1368 163.705 81.3149L168.379 85.9903C168.559 86.1691 168.648 86.4014 168.648 86.6359C168.647 86.8726 168.559 87.1056 168.379 87.2859L167.183 88.4827C166.926 88.7395 166.794 89.0801 166.794 89.4214C166.794 89.6729 166.865 89.926 167.004 90.1501C168.343 92.2982 169.335 94.6808 169.918 97.2207C170.057 97.8262 170.602 98.2425 171.217 98.2425H172.918C173.424 98.2432 173.834 98.6528 173.835 99.1588V105.771H174.09Z" fill="#ED564A"/>
<path d="M186.193 137.886C179.573 137.886 174.213 132.516 174.213 125.895C174.213 119.284 179.573 113.914 186.193 113.914C192.814 113.914 198.173 119.284 198.173 125.895C198.173 132.516 192.814 137.886 186.193 137.886ZM204.498 128.151V123.645C204.498 123.204 204.141 122.848 203.701 122.848H202.541C202.201 122.848 201.901 122.617 201.825 122.286C201.423 120.536 200.739 118.895 199.818 117.415C199.633 117.119 199.668 116.739 199.915 116.492L200.73 115.677C201.041 115.365 201.041 114.861 200.73 114.548L197.544 111.362C197.233 111.05 196.727 111.05 196.416 111.362L195.601 112.177C195.354 112.423 194.974 112.457 194.679 112.274C193.199 111.351 191.557 110.666 189.806 110.264C189.476 110.188 189.245 109.888 189.245 109.548V108.392C189.245 107.952 188.887 107.595 188.446 107.595H183.941C183.5 107.595 183.143 107.952 183.143 108.392V109.548C183.143 109.888 182.912 110.188 182.581 110.264C180.83 110.666 179.187 111.351 177.708 112.273C177.413 112.457 177.032 112.423 176.786 112.176L175.972 111.362C175.661 111.05 175.155 111.05 174.843 111.362L171.658 114.548C171.346 114.861 171.346 115.365 171.658 115.677L172.472 116.491C172.719 116.737 172.753 117.118 172.569 117.414C171.647 118.894 170.963 120.536 170.562 122.286C170.486 122.617 170.185 122.848 169.846 122.848H168.687C168.247 122.848 167.89 123.204 167.89 123.645V128.151C167.89 128.592 168.247 128.95 168.687 128.95H169.846C170.186 128.95 170.486 129.18 170.562 129.511C170.965 131.261 171.648 132.903 172.57 134.382C172.754 134.677 172.719 135.058 172.473 135.305L171.658 136.12C171.346 136.432 171.346 136.937 171.658 137.249L174.843 140.435C175.155 140.746 175.661 140.746 175.972 140.435L176.789 139.619C177.034 139.372 177.415 139.337 177.71 139.521C179.19 140.443 180.831 141.126 182.581 141.527C182.912 141.603 183.143 141.903 183.143 142.243V143.405C183.143 143.846 183.5 144.203 183.941 144.203H188.446C188.887 144.203 189.245 143.846 189.245 143.405V142.242C189.245 141.903 189.476 141.603 189.806 141.527C191.556 141.125 193.197 140.442 194.677 139.521C194.972 139.337 195.353 139.372 195.599 139.618L196.416 140.435C196.727 140.746 197.233 140.746 197.544 140.435L200.73 137.249C201.041 136.938 201.041 136.432 200.73 136.12L199.913 135.305C199.668 135.057 199.633 134.677 199.816 134.381C200.739 132.903 201.422 131.261 201.824 129.511C201.9 129.18 202.2 128.95 202.54 128.95H203.701C204.141 128.95 204.498 128.592 204.498 128.151Z" fill="#4C8BF5"/>
<path d="M121.836 245.271C121.836 246.476 120.858 247.454 119.651 247.454C118.446 247.454 117.468 246.476 117.468 245.271C117.468 244.063 118.446 243.086 119.651 243.086C120.858 243.086 121.836 244.063 121.836 245.271Z" fill="#F4B400"/>
<path d="M414.454 185.589C414.454 186.795 413.476 187.773 412.27 187.773C411.064 187.773 410.086 186.795 410.086 185.589C410.086 184.382 411.064 183.404 412.27 183.404C413.476 183.404 414.454 184.382 414.454 185.589Z" fill="#F4B400"/>
<path d="M410.086 107.596C410.086 108.802 409.108 109.78 407.901 109.78C406.695 109.78 405.718 108.802 405.718 107.596C405.718 106.389 406.695 105.411 407.901 105.411C409.108 105.411 410.086 106.389 410.086 107.596Z" fill="#F4B400"/>
<path d="M330.74 81.0863C330.74 81.8424 330.126 82.4561 329.37 82.4561C328.614 82.4561 328 81.8424 328 81.0863C328 80.3295 328.614 79.7158 329.37 79.7158C330.126 79.7158 330.74 80.3295 330.74 81.0863Z" fill="#F4B400"/>
<path d="M128.202 62.8356C128.202 63.5923 127.589 64.2058 126.832 64.2058C126.076 64.2058 125.462 63.5923 125.462 62.8356C125.462 62.079 126.076 61.4656 126.832 61.4656C127.589 61.4656 128.202 62.079 128.202 62.8356Z" fill="#F4B400"/>
<path d="M158.526 147.207C158.526 147.964 157.912 148.577 157.156 148.577C156.399 148.577 155.786 147.964 155.786 147.207C155.786 146.45 156.399 145.836 157.156 145.836C157.912 145.836 158.526 146.45 158.526 147.207Z" fill="#F4B400"/>
<path d="M108.263 247.454C108.263 248.211 107.649 248.824 106.892 248.824C106.136 248.824 105.523 248.211 105.523 247.454C105.523 246.697 106.136 246.084 106.892 246.084C107.649 246.084 108.263 246.697 108.263 247.454Z" fill="#F4B400"/>
<path d="M382.413 246.561C382.413 247.767 381.436 248.745 380.229 248.745C379.023 248.745 378.045 247.767 378.045 246.561C378.045 245.354 379.023 244.376 380.229 244.376C381.436 244.376 382.413 245.354 382.413 246.561Z" fill="#F4B400"/>
<path d="M428.858 246.561C428.858 247.767 427.88 248.745 426.674 248.745C425.468 248.745 424.49 247.767 424.49 246.561C424.49 245.354 425.468 244.376 426.674 244.376C427.88 244.376 428.858 245.354 428.858 246.561Z" fill="#F4B400"/>
<path d="M168.044 56.88C168.044 58.0862 167.066 59.0641 165.859 59.0641C164.653 59.0641 163.676 58.0862 163.676 56.88C163.676 55.6737 164.653 54.6958 165.859 54.6958C167.066 54.6958 168.044 55.6737 168.044 56.88Z" fill="#F4B400"/>
<path d="M316.562 156.256C316.562 157.87 315.254 159.178 313.639 159.178C312.025 159.178 310.717 157.87 310.717 156.256C310.717 154.642 312.025 153.333 313.639 153.333C315.254 153.333 316.562 154.642 316.562 156.256Z" fill="#F4B400"/>
<path d="M101.005 120.117C101.005 121.731 99.697 123.039 98.0831 123.039C96.4685 123.039 95.1603 121.731 95.1603 120.117C95.1603 118.503 96.4685 117.195 98.0831 117.195C99.697 117.195 101.005 118.503 101.005 120.117Z" fill="#F4B400"/>
<path d="M92.7814 76.4921H89.1062C88.8695 76.4921 88.6781 76.3006 88.6781 76.0639V72.3888C88.6781 72.152 88.8695 71.9604 89.1062 71.9604H92.7814C93.0181 71.9604 93.2096 72.152 93.2096 72.3888V76.0639C93.2096 76.3006 93.0181 76.4921 92.7814 76.4921Z" fill="#ED564A"/>
<path d="M98.8437 76.4921H95.1685C94.9318 76.4921 94.7404 76.3006 94.7404 76.0639V72.3888C94.7404 72.152 94.9318 71.9604 95.1685 71.9604H98.8437C99.0804 71.9604 99.2718 72.152 99.2718 72.3888V76.0639C99.2718 76.3006 99.0804 76.4921 98.8437 76.4921Z" fill="#ED564A"/>
<path d="M104.906 76.4921H101.231C100.995 76.4921 100.803 76.3006 100.803 76.0639V72.3888C100.803 72.152 100.995 71.9604 101.231 71.9604H104.906C105.143 71.9604 105.335 72.152 105.335 72.3888V76.0639C105.335 76.3006 105.143 76.4921 104.906 76.4921Z" fill="#ED564A"/>
<path d="M401.493 235.648H397.817C397.581 235.648 397.389 235.457 397.389 235.22V231.545C397.389 231.308 397.581 231.116 397.817 231.116H401.493C401.729 231.116 401.921 231.308 401.921 231.545V235.22C401.921 235.457 401.729 235.648 401.493 235.648Z" fill="#137647"/>
<path d="M407.555 235.648H403.88C403.643 235.648 403.451 235.457 403.451 235.22V231.545C403.451 231.308 403.643 231.116 403.88 231.116H407.555C407.792 231.116 407.983 231.308 407.983 231.545V235.22C407.983 235.457 407.792 235.648 407.555 235.648Z" fill="#137647"/>
<path d="M413.617 235.648H409.942C409.705 235.648 409.514 235.457 409.514 235.22V231.545C409.514 231.308 409.705 231.116 409.942 231.116H413.617C413.854 231.116 414.045 231.308 414.045 231.545V235.22C414.045 235.457 413.854 235.648 413.617 235.648Z" fill="#137647"/>
<path d="M121.238 233.165H117.562C117.326 233.165 117.134 232.972 117.134 232.736V229.061C117.134 228.825 117.326 228.632 117.562 228.632H121.238C121.474 228.632 121.666 228.825 121.666 229.061V232.736C121.666 232.972 121.474 233.165 121.238 233.165Z" fill="#D7DCF2"/>
<path d="M127.3 233.165H123.625C123.387 233.165 123.196 232.972 123.196 232.736V229.061C123.196 228.825 123.387 228.632 123.625 228.632H127.3C127.536 228.632 127.728 228.825 127.728 229.061V232.736C127.728 232.972 127.536 233.165 127.3 233.165Z" fill="#D7DCF2"/>
<path d="M133.361 233.165H129.686C129.45 233.165 129.258 232.972 129.258 232.736V229.061C129.258 228.825 129.45 228.632 129.686 228.632H133.361C133.598 228.632 133.79 228.825 133.79 229.061V232.736C133.79 232.972 133.598 233.165 133.361 233.165Z" fill="#D7DCF2"/>
<path d="M285.535 272.117H198.257C190.652 272.117 184.486 265.952 184.486 258.346V64.079C184.486 56.4738 190.652 50.3076 198.257 50.3076H285.535C293.141 50.3076 299.306 56.4738 299.306 64.079V258.346C299.306 265.952 293.141 272.117 285.535 272.117Z" fill="#4259B1"/>
<path d="M285.094 268.965H198.699C192.036 268.965 186.636 263.564 186.636 256.903V64.3129C186.636 57.6507 192.036 52.2502 198.699 52.2502H285.094C291.756 52.2502 297.157 57.6507 297.157 64.3129V256.903C297.157 263.564 291.756 268.965 285.094 268.965Z" fill="white"/>
<path d="M292.319 63.9348V256.301C292.319 260.812 288.661 264.47 284.149 264.47H199.643C195.131 264.47 191.474 260.812 191.474 256.301V63.9348C191.474 59.4233 195.131 55.7659 199.643 55.7659H213.735C214.518 55.7659 215.232 56.2071 215.582 56.9063L217.079 59.8936C217.761 61.2721 219.168 62.1358 220.699 62.1358H263.094C264.624 62.1358 266.032 61.2721 266.713 59.8936L268.21 56.9063C268.56 56.2071 269.275 55.7659 270.057 55.7659H284.149C288.661 55.7659 292.319 59.4233 292.319 63.9348Z" fill="#D7DCF2" fill-opacity="0.5"/>
<path d="M259.688 58.6409H225.542C224.749 58.6409 224.105 57.9971 224.105 57.203C224.105 56.409 224.749 55.7659 225.542 55.7659H259.688C260.482 55.7659 261.125 56.409 261.125 57.203C261.125 57.9971 260.482 58.6409 259.688 58.6409Z" fill="#032865"/>
<path d="M275.244 257.469H273.414C273.235 257.469 273.092 257.614 273.092 257.792C273.092 257.97 273.235 258.114 273.414 258.114H275.244C275.422 258.114 275.566 257.97 275.566 257.792C275.566 257.614 275.422 257.469 275.244 257.469ZM271.584 257.469H269.754C269.576 257.469 269.431 257.614 269.431 257.792C269.431 257.97 269.576 258.114 269.754 258.114H271.584C271.762 258.114 271.907 257.97 271.907 257.792C271.907 257.614 271.762 257.469 271.584 257.469ZM267.923 257.469H266.094C265.916 257.469 265.771 257.614 265.771 257.792C265.771 257.97 265.916 258.114 266.094 258.114H267.923C268.101 258.114 268.246 257.97 268.246 257.792C268.246 257.614 268.101 257.469 267.923 257.469ZM264.264 257.469H262.434C262.256 257.469 262.111 257.614 262.111 257.792C262.111 257.97 262.256 258.114 262.434 258.114H264.264C264.442 258.114 264.586 257.97 264.586 257.792C264.586 257.614 264.442 257.469 264.264 257.469ZM260.603 257.469H258.774C258.596 257.469 258.451 257.614 258.451 257.792C258.451 257.97 258.596 258.114 258.774 258.114H260.603C260.782 258.114 260.926 257.97 260.926 257.792C260.926 257.614 260.782 257.469 260.603 257.469ZM256.944 257.469H255.113C254.935 257.469 254.791 257.614 254.791 257.792C254.791 257.97 254.935 258.114 255.113 258.114H256.944C257.122 258.114 257.266 257.97 257.266 257.792C257.266 257.614 257.122 257.469 256.944 257.469ZM253.283 257.469H251.454C251.276 257.469 251.131 257.614 251.131 257.792C251.131 257.97 251.276 258.114 251.454 258.114H253.283C253.462 258.114 253.606 257.97 253.606 257.792C253.606 257.614 253.462 257.469 253.283 257.469ZM249.623 257.469H247.793C247.615 257.469 247.471 257.614 247.471 257.792C247.471 257.97 247.615 258.114 247.793 258.114H249.623C249.801 258.114 249.946 257.97 249.946 257.792C249.946 257.614 249.801 257.469 249.623 257.469ZM245.964 257.469H244.134C243.956 257.469 243.811 257.614 243.811 257.792C243.811 257.97 243.956 258.114 244.134 258.114H245.964C246.142 258.114 246.286 257.97 246.286 257.792C246.286 257.614 246.142 257.469 245.964 257.469ZM242.303 257.469H240.473C240.295 257.469 240.151 257.614 240.151 257.792C240.151 257.97 240.295 258.114 240.473 258.114H242.303C242.481 258.114 242.626 257.97 242.626 257.792C242.626 257.614 242.481 257.469 242.303 257.469ZM238.644 257.469H236.813C236.635 257.469 236.491 257.614 236.491 257.792C236.491 257.97 236.635 258.114 236.813 258.114H238.644C238.822 258.114 238.966 257.97 238.966 257.792C238.966 257.614 238.822 257.469 238.644 257.469ZM234.983 257.469H233.153C232.975 257.469 232.831 257.614 232.831 257.792C232.831 257.97 232.975 258.114 233.153 258.114H234.983C235.161 258.114 235.306 257.97 235.306 257.792C235.306 257.614 235.161 257.469 234.983 257.469ZM231.323 257.469H229.493C229.315 257.469 229.17 257.614 229.17 257.792C229.17 257.97 229.315 258.114 229.493 258.114H231.323C231.501 258.114 231.646 257.97 231.646 257.792C231.646 257.614 231.501 257.469 231.323 257.469ZM227.663 257.469H225.833C225.655 257.469 225.511 257.614 225.511 257.792C225.511 257.97 225.655 258.114 225.833 258.114H227.663C227.841 258.114 227.986 257.97 227.986 257.792C227.986 257.614 227.841 257.469 227.663 257.469ZM224.003 257.469H222.173C221.995 257.469 221.85 257.614 221.85 257.792C221.85 257.97 221.995 258.114 222.173 258.114H224.003C224.181 258.114 224.326 257.97 224.326 257.792C224.326 257.614 224.181 257.469 224.003 257.469ZM220.343 257.469H218.513C218.335 257.469 218.191 257.614 218.191 257.792C218.191 257.97 218.335 258.114 218.513 258.114H220.343C220.521 258.114 220.665 257.97 220.665 257.792C220.665 257.614 220.521 257.469 220.343 257.469ZM216.683 257.469H214.853C214.675 257.469 214.53 257.614 214.53 257.792C214.53 257.97 214.675 258.114 214.853 258.114H216.683C216.861 258.114 217.006 257.97 217.006 257.792C217.006 257.614 216.861 257.469 216.683 257.469ZM213.023 257.469H211.193C211.015 257.469 210.87 257.614 210.87 257.792C210.87 257.97 211.015 258.114 211.193 258.114H213.023C213.201 258.114 213.345 257.97 213.345 257.792C213.345 257.614 213.201 257.469 213.023 257.469ZM209.363 257.469H207.533C207.355 257.469 207.21 257.614 207.21 257.792C207.21 257.97 207.355 258.114 207.533 258.114H209.363C209.541 258.114 209.686 257.97 209.686 257.792C209.686 257.614 209.541 257.469 209.363 257.469ZM205.703 257.469H203.873C203.695 257.469 203.55 257.614 203.55 257.792C203.55 257.97 203.695 258.114 203.873 258.114H205.703C205.881 258.114 206.025 257.97 206.025 257.792C206.025 257.614 205.881 257.469 205.703 257.469ZM202.099 257.404C201.521 257.309 200.975 257.117 200.48 256.846C200.324 256.76 200.128 256.817 200.042 256.973C199.956 257.13 200.014 257.325 200.17 257.411C200.728 257.718 201.343 257.933 201.995 258.04C202.171 258.069 202.336 257.949 202.365 257.773C202.394 257.597 202.274 257.432 202.099 257.404ZM199.139 255.781C198.757 255.356 198.446 254.868 198.225 254.333C198.157 254.169 197.968 254.091 197.803 254.16C197.639 254.228 197.561 254.416 197.629 254.58C197.88 255.184 198.229 255.734 198.659 256.212C198.777 256.345 198.981 256.356 199.114 256.236C199.246 256.118 199.257 255.914 199.139 255.781ZM197.847 252.664C197.842 252.572 197.839 252.48 197.839 252.387V250.852C197.839 250.674 197.694 250.529 197.517 250.529C197.339 250.529 197.194 250.674 197.194 250.852V252.387C197.194 252.492 197.196 252.595 197.202 252.699C197.212 252.877 197.364 253.013 197.541 253.004C197.719 252.994 197.856 252.843 197.847 252.664ZM197.839 249.021V247.191C197.839 247.013 197.694 246.869 197.517 246.869C197.339 246.869 197.194 247.013 197.194 247.191V249.021C197.194 249.199 197.339 249.344 197.517 249.344C197.694 249.344 197.839 249.199 197.839 249.021ZM197.839 245.362V243.532C197.839 243.354 197.694 243.209 197.517 243.209C197.339 243.209 197.194 243.354 197.194 243.532V245.362C197.194 245.54 197.339 245.684 197.517 245.684C197.694 245.684 197.839 245.54 197.839 245.362ZM197.839 241.701V239.871C197.839 239.693 197.694 239.549 197.517 239.549C197.339 239.549 197.194 239.693 197.194 239.871V241.701C197.194 241.879 197.339 242.024 197.517 242.024C197.694 242.024 197.839 241.879 197.839 241.701ZM197.839 238.042V236.211C197.839 236.033 197.694 235.889 197.517 235.889C197.339 235.889 197.194 236.033 197.194 236.211V238.042C197.194 238.22 197.339 238.364 197.517 238.364C197.694 238.364 197.839 238.22 197.839 238.042ZM197.839 234.381V232.551C197.839 232.373 197.694 232.229 197.517 232.229C197.339 232.229 197.194 232.373 197.194 232.551V234.381C197.194 234.559 197.339 234.704 197.517 234.704C197.694 234.704 197.839 234.559 197.839 234.381ZM197.839 230.722V228.891C197.839 228.713 197.694 228.569 197.517 228.569C197.339 228.569 197.194 228.713 197.194 228.891V230.722C197.194 230.899 197.339 231.044 197.517 231.044C197.694 231.044 197.839 230.899 197.839 230.722ZM197.839 227.061V225.557C197.839 225.454 197.842 225.352 197.848 225.251C197.858 225.073 197.723 224.921 197.546 224.91C197.368 224.899 197.215 225.035 197.204 225.212C197.197 225.326 197.194 225.441 197.194 225.557V227.061C197.194 227.239 197.339 227.384 197.517 227.384C197.694 227.384 197.839 227.239 197.839 227.061ZM198.236 223.583C198.461 223.05 198.775 222.563 199.159 222.141C199.279 222.009 199.269 221.805 199.136 221.685C199.005 221.565 198.801 221.575 198.682 221.707C198.249 222.183 197.896 222.732 197.642 223.333C197.572 223.497 197.65 223.687 197.813 223.756C197.978 223.825 198.167 223.747 198.236 223.583ZM200.506 221.084C201.003 220.816 201.55 220.627 202.128 220.537C202.304 220.509 202.424 220.344 202.396 220.168C202.369 219.992 202.204 219.871 202.028 219.899C201.376 220.002 200.759 220.214 200.199 220.517C200.043 220.601 199.985 220.797 200.069 220.954C200.154 221.11 200.35 221.169 200.506 221.084ZM203.905 220.475H205.734C205.913 220.475 206.057 220.33 206.057 220.152C206.057 219.974 205.913 219.83 205.734 219.83H203.905C203.727 219.83 203.582 219.974 203.582 220.152C203.582 220.33 203.727 220.475 203.905 220.475ZM207.564 220.475H209.394C209.572 220.475 209.717 220.33 209.717 220.152C209.717 219.974 209.572 219.83 209.394 219.83H207.564C207.386 219.83 207.242 219.974 207.242 220.152C207.242 220.33 207.386 220.475 207.564 220.475ZM211.225 220.475H213.054C213.233 220.475 213.377 220.33 213.377 220.152C213.377 219.974 213.233 219.83 213.054 219.83H211.225C211.047 219.83 210.902 219.974 210.902 220.152C210.902 220.33 211.047 220.475 211.225 220.475ZM214.884 220.475H216.715C216.893 220.475 217.037 220.33 217.037 220.152C217.037 219.974 216.893 219.83 216.715 219.83H214.884C214.706 219.83 214.562 219.974 214.562 220.152C214.562 220.33 214.706 220.475 214.884 220.475ZM218.545 220.475H220.374C220.552 220.475 220.697 220.33 220.697 220.152C220.697 219.974 220.552 219.83 220.374 219.83H218.545C218.367 219.83 218.222 219.974 218.222 220.152C218.222 220.33 218.367 220.475 218.545 220.475ZM222.205 220.475H224.035C224.213 220.475 224.358 220.33 224.358 220.152C224.358 219.974 224.213 219.83 224.035 219.83H222.205C222.027 219.83 221.882 219.974 221.882 220.152C221.882 220.33 222.027 220.475 222.205 220.475ZM225.865 220.475H227.694C227.872 220.475 228.017 220.33 228.017 220.152C228.017 219.974 227.872 219.83 227.694 219.83H225.865C225.687 219.83 225.542 219.974 225.542 220.152C225.542 220.33 225.687 220.475 225.865 220.475ZM229.525 220.475H231.355C231.533 220.475 231.678 220.33 231.678 220.152C231.678 219.974 231.533 219.83 231.355 219.83H229.525C229.347 219.83 229.202 219.974 229.202 220.152C229.202 220.33 229.347 220.475 229.525 220.475ZM233.185 220.475H235.015C235.193 220.475 235.337 220.33 235.337 220.152C235.337 219.974 235.193 219.83 235.015 219.83H233.185C233.006 219.83 232.863 219.974 232.863 220.152C232.863 220.33 233.006 220.475 233.185 220.475ZM236.845 220.475H238.675C238.853 220.475 238.997 220.33 238.997 220.152C238.997 219.974 238.853 219.83 238.675 219.83H236.845C236.667 219.83 236.522 219.974 236.522 220.152C236.522 220.33 236.667 220.475 236.845 220.475ZM240.505 220.475H242.335C242.513 220.475 242.658 220.33 242.658 220.152C242.658 219.974 242.513 219.83 242.335 219.83H240.505C240.327 219.83 240.182 219.974 240.182 220.152C240.182 220.33 240.327 220.475 240.505 220.475ZM244.165 220.475H245.995C246.173 220.475 246.317 220.33 246.317 220.152C246.317 219.974 246.173 219.83 245.995 219.83H244.165C243.987 219.83 243.842 219.974 243.842 220.152C243.842 220.33 243.987 220.475 244.165 220.475ZM247.825 220.475H249.655C249.833 220.475 249.978 220.33 249.978 220.152C249.978 219.974 249.833 219.83 249.655 219.83H247.825C247.647 219.83 247.502 219.974 247.502 220.152C247.502 220.33 247.647 220.475 247.825 220.475ZM251.485 220.475H253.315C253.493 220.475 253.637 220.33 253.637 220.152C253.637 219.974 253.493 219.83 253.315 219.83H251.485C251.307 219.83 251.163 219.974 251.163 220.152C251.163 220.33 251.307 220.475 251.485 220.475ZM255.145 220.475H256.975C257.153 220.475 257.298 220.33 257.298 220.152C257.298 219.974 257.153 219.83 256.975 219.83H255.145C254.967 219.83 254.822 219.974 254.822 220.152C254.822 220.33 254.967 220.475 255.145 220.475ZM258.806 220.475H260.635C260.813 220.475 260.957 220.33 260.957 220.152C260.957 219.974 260.813 219.83 260.635 219.83H258.806C258.627 219.83 258.483 219.974 258.483 220.152C258.483 220.33 258.627 220.475 258.806 220.475ZM262.465 220.475H264.295C264.473 220.475 264.618 220.33 264.618 220.152C264.618 219.974 264.473 219.83 264.295 219.83H262.465C262.287 219.83 262.142 219.974 262.142 220.152C262.142 220.33 262.287 220.475 262.465 220.475ZM266.126 220.475H267.955C268.133 220.475 268.278 220.33 268.278 220.152C268.278 219.974 268.133 219.83 267.955 219.83H266.126C265.947 219.83 265.803 219.974 265.803 220.152C265.803 220.33 265.947 220.475 266.126 220.475ZM269.785 220.475H271.616C271.794 220.475 271.938 220.33 271.938 220.152C271.938 219.974 271.794 219.83 271.616 219.83H269.785C269.607 219.83 269.463 219.974 269.463 220.152C269.463 220.33 269.607 220.475 269.785 220.475ZM273.445 220.475H275.275C275.453 220.475 275.598 220.33 275.598 220.152C275.598 219.974 275.453 219.83 275.275 219.83H273.445C273.267 219.83 273.123 219.974 273.123 220.152C273.123 220.33 273.267 220.475 273.445 220.475ZM277.106 220.475H278.933C279.112 220.476 279.257 220.333 279.258 220.155C279.258 219.976 279.115 219.831 278.937 219.83H278.904H277.106C276.928 219.83 276.783 219.974 276.783 220.152C276.783 220.33 276.928 220.475 277.106 220.475ZM280.62 220.772C281.166 220.968 281.669 221.254 282.111 221.614C282.249 221.727 282.452 221.706 282.565 221.568C282.677 221.43 282.656 221.227 282.518 221.114C282.021 220.71 281.454 220.385 280.837 220.165C280.67 220.104 280.486 220.192 280.426 220.359C280.365 220.527 280.452 220.712 280.62 220.772ZM283.239 222.903C283.535 223.385 283.753 223.921 283.874 224.492C283.912 224.666 284.083 224.777 284.257 224.74C284.432 224.703 284.542 224.532 284.505 224.357C284.368 223.713 284.122 223.109 283.789 222.565C283.696 222.413 283.497 222.366 283.345 222.459C283.193 222.552 283.146 222.751 283.239 222.903ZM283.987 226.246V228.076C283.987 228.254 284.13 228.398 284.309 228.398C284.487 228.398 284.631 228.254 284.631 228.076V226.246C284.631 226.068 284.487 225.923 284.309 225.923C284.13 225.923 283.987 226.068 283.987 226.246ZM283.987 229.906V231.736C283.987 231.914 284.13 232.059 284.309 232.059C284.487 232.059 284.631 231.914 284.631 231.736V229.906C284.631 229.728 284.487 229.583 284.309 229.583C284.13 229.583 283.987 229.728 283.987 229.906ZM283.987 233.566V235.396C283.987 235.574 284.13 235.718 284.309 235.718C284.487 235.718 284.631 235.574 284.631 235.396V233.566C284.631 233.388 284.487 233.244 284.309 233.244C284.13 233.244 283.987 233.388 283.987 233.566ZM283.987 237.226V239.056C283.987 239.234 284.13 239.379 284.309 239.379C284.487 239.379 284.631 239.234 284.631 239.056V237.226C284.631 237.048 284.487 236.903 284.309 236.903C284.13 236.903 283.987 237.048 283.987 237.226ZM283.987 240.886V242.716C283.987 242.894 284.13 243.038 284.309 243.038C284.487 243.038 284.631 242.894 284.631 242.716V240.886C284.631 240.708 284.487 240.564 284.309 240.564C284.13 240.564 283.987 240.708 283.987 240.886ZM283.987 244.546V246.376C283.987 246.554 284.13 246.699 284.309 246.699C284.487 246.699 284.631 246.554 284.631 246.376V244.546C284.631 244.368 284.487 244.223 284.309 244.223C284.13 244.223 283.987 244.368 283.987 244.546ZM283.987 248.206V250.036C283.987 250.214 284.13 250.359 284.309 250.359C284.487 250.359 284.631 250.214 284.631 250.036V248.206C284.631 248.028 284.487 247.884 284.309 247.884C284.13 247.884 283.987 248.028 283.987 248.206ZM283.987 251.866V252.387C283.987 252.808 283.935 253.216 283.839 253.606C283.797 253.78 283.903 253.953 284.076 253.996C284.248 254.039 284.423 253.933 284.466 253.76C284.574 253.32 284.631 252.86 284.631 252.387V251.866C284.631 251.688 284.487 251.544 284.309 251.544C284.13 251.544 283.987 251.688 283.987 251.866ZM283.154 255.175C282.838 255.656 282.442 256.08 281.987 256.428C281.845 256.536 281.818 256.739 281.926 256.881C282.034 257.022 282.236 257.048 282.378 256.941C282.891 256.548 283.337 256.071 283.693 255.529C283.791 255.38 283.75 255.181 283.601 255.083C283.452 254.985 283.252 255.026 283.154 255.175ZM280.47 257.223C279.977 257.383 279.451 257.469 278.904 257.469H277.074C276.896 257.469 276.751 257.614 276.751 257.792C276.751 257.97 276.896 258.114 277.074 258.114H278.904C279.52 258.114 280.112 258.017 280.669 257.837C280.838 257.782 280.932 257.6 280.877 257.431C280.822 257.261 280.64 257.168 280.47 257.223Z" fill="#5B87CD"/>
<path d="M271.392 165.107H269.563C269.385 165.107 269.24 165.251 269.24 165.429C269.24 165.607 269.385 165.752 269.563 165.752H271.392C271.57 165.752 271.715 165.607 271.715 165.429C271.715 165.251 271.57 165.107 271.392 165.107ZM267.733 165.107H265.902C265.725 165.107 265.58 165.251 265.58 165.429C265.58 165.607 265.725 165.752 265.902 165.752H267.733C267.911 165.752 268.055 165.607 268.055 165.429C268.055 165.251 267.911 165.107 267.733 165.107ZM264.072 165.107H262.243C262.065 165.107 261.92 165.251 261.92 165.429C261.92 165.607 262.065 165.752 262.243 165.752H264.072C264.251 165.752 264.395 165.607 264.395 165.429C264.395 165.251 264.251 165.107 264.072 165.107ZM260.413 165.107H258.582C258.404 165.107 258.26 165.251 258.26 165.429C258.26 165.607 258.404 165.752 258.582 165.752H260.413C260.59 165.752 260.735 165.607 260.735 165.429C260.735 165.251 260.59 165.107 260.413 165.107ZM256.752 165.107H254.923C254.745 165.107 254.6 165.251 254.6 165.429C254.6 165.607 254.745 165.752 254.923 165.752H256.752C256.931 165.752 257.075 165.607 257.075 165.429C257.075 165.251 256.931 165.107 256.752 165.107ZM253.092 165.107H251.262C251.084 165.107 250.94 165.251 250.94 165.429C250.94 165.607 251.084 165.752 251.262 165.752H253.092C253.27 165.752 253.415 165.607 253.415 165.429C253.415 165.251 253.27 165.107 253.092 165.107ZM249.433 165.107H247.602C247.425 165.107 247.28 165.251 247.28 165.429C247.28 165.607 247.425 165.752 247.602 165.752H249.433C249.611 165.752 249.755 165.607 249.755 165.429C249.755 165.251 249.611 165.107 249.433 165.107ZM245.772 165.107H243.942C243.764 165.107 243.62 165.251 243.62 165.429C243.62 165.607 243.764 165.752 243.942 165.752H245.772C245.95 165.752 246.095 165.607 246.095 165.429C246.095 165.251 245.95 165.107 245.772 165.107ZM242.113 165.107H240.282C240.104 165.107 239.96 165.251 239.96 165.429C239.96 165.607 240.104 165.752 240.282 165.752H242.113C242.291 165.752 242.435 165.607 242.435 165.429C242.435 165.251 242.291 165.107 242.113 165.107ZM238.452 165.107H237.36C237.13 165.107 236.904 165.085 236.687 165.043C236.512 165.011 236.343 165.126 236.31 165.3C236.277 165.475 236.391 165.644 236.567 165.678C236.823 165.727 237.089 165.752 237.36 165.752H238.452C238.63 165.752 238.775 165.607 238.775 165.429C238.775 165.251 238.63 165.107 238.452 165.107ZM235.172 164.36C234.73 164.017 234.37 163.573 234.128 163.064C234.051 162.903 233.859 162.835 233.699 162.911C233.538 162.988 233.469 163.181 233.546 163.341C233.832 163.943 234.256 164.465 234.776 164.87C234.918 164.979 235.121 164.953 235.23 164.812C235.339 164.671 235.313 164.469 235.172 164.36ZM233.784 161.429V159.599C233.784 159.421 233.639 159.276 233.461 159.276C233.283 159.276 233.139 159.421 233.139 159.599V161.429C233.139 161.607 233.283 161.752 233.461 161.752C233.639 161.752 233.784 161.607 233.784 161.429ZM233.784 157.769V155.939C233.784 155.761 233.639 155.617 233.461 155.617C233.283 155.617 233.139 155.761 233.139 155.939V157.769C233.139 157.947 233.283 158.092 233.461 158.092C233.639 158.092 233.784 157.947 233.784 157.769ZM233.784 154.109V152.279C233.784 152.101 233.639 151.956 233.461 151.956C233.283 151.956 233.139 152.101 233.139 152.279V154.109C233.139 154.287 233.283 154.432 233.461 154.432C233.639 154.432 233.784 154.287 233.784 154.109ZM233.784 150.449V148.619C233.784 148.441 233.639 148.297 233.461 148.297C233.283 148.297 233.139 148.441 233.139 148.619V150.449C233.139 150.627 233.283 150.771 233.461 150.771C233.639 150.771 233.784 150.627 233.784 150.449ZM233.784 146.789V144.959C233.784 144.781 233.639 144.636 233.461 144.636C233.283 144.636 233.139 144.781 233.139 144.959V146.789C233.139 146.967 233.283 147.112 233.461 147.112C233.639 147.112 233.784 146.967 233.784 146.789ZM233.784 143.129V142.901C233.784 142.392 233.89 141.91 234.081 141.473C234.151 141.309 234.077 141.12 233.914 141.048C233.75 140.977 233.561 141.051 233.489 141.215C233.264 141.731 233.139 142.303 233.139 142.901V143.129C233.139 143.307 233.283 143.451 233.461 143.451C233.639 143.451 233.784 143.307 233.784 143.129ZM235.082 140.144C235.508 139.792 236.016 139.536 236.574 139.412C236.748 139.372 236.857 139.2 236.818 139.027C236.78 138.853 236.607 138.743 236.433 138.783C235.774 138.93 235.173 139.232 234.671 139.648C234.534 139.761 234.514 139.965 234.628 140.102C234.741 140.239 234.945 140.258 235.082 140.144ZM238.326 139.325H240.157C240.335 139.325 240.479 139.181 240.479 139.002C240.479 138.824 240.335 138.68 240.157 138.68H238.326C238.149 138.68 238.004 138.824 238.004 139.002C238.004 139.181 238.149 139.325 238.326 139.325ZM241.986 139.325H243.816C243.994 139.325 244.139 139.181 244.139 139.002C244.139 138.824 243.994 138.68 243.816 138.68H241.986C241.808 138.68 241.664 138.824 241.664 139.002C241.664 139.181 241.808 139.325 241.986 139.325ZM245.647 139.325H247.477C247.655 139.325 247.799 139.181 247.799 139.002C247.799 138.824 247.655 138.68 247.477 138.68H245.647C245.469 138.68 245.324 138.824 245.324 139.002C245.324 139.181 245.469 139.325 245.647 139.325ZM249.306 139.325H251.137C251.314 139.325 251.459 139.181 251.459 139.002C251.459 138.824 251.314 138.68 251.137 138.68H249.306C249.128 138.68 248.984 138.824 248.984 139.002C248.984 139.181 249.128 139.325 249.306 139.325ZM252.967 139.325H254.797C254.975 139.325 255.119 139.181 255.119 139.002C255.119 138.824 254.975 138.68 254.797 138.68H252.967C252.789 138.68 252.644 138.824 252.644 139.002C252.644 139.181 252.789 139.325 252.967 139.325ZM256.626 139.325H258.457C258.635 139.325 258.779 139.181 258.779 139.002C258.779 138.824 258.635 138.68 258.457 138.68H256.626C256.449 138.68 256.304 138.824 256.304 139.002C256.304 139.181 256.449 139.325 256.626 139.325ZM260.287 139.325H262.116C262.295 139.325 262.439 139.181 262.439 139.002C262.439 138.824 262.295 138.68 262.116 138.68H260.287C260.109 138.68 259.964 138.824 259.964 139.002C259.964 139.181 260.109 139.325 260.287 139.325ZM263.947 139.325H265.777C265.955 139.325 266.1 139.181 266.1 139.002C266.1 138.824 265.955 138.68 265.777 138.68H263.947C263.769 138.68 263.624 138.824 263.624 139.002C263.624 139.181 263.769 139.325 263.947 139.325ZM267.607 139.325H269.437C269.615 139.325 269.759 139.181 269.759 139.002C269.759 138.824 269.615 138.68 269.437 138.68H267.607C267.429 138.68 267.285 138.824 267.285 139.002C267.285 139.181 267.429 139.325 267.607 139.325ZM271.267 139.325H273.097C273.275 139.325 273.42 139.181 273.42 139.002C273.42 138.824 273.275 138.68 273.097 138.68H271.267C271.089 138.68 270.944 138.824 270.944 139.002C270.944 139.181 271.089 139.325 271.267 139.325ZM274.927 139.325H275.053C275.594 139.325 276.106 139.446 276.566 139.66C276.728 139.736 276.92 139.666 276.995 139.505C277.07 139.344 277.001 139.151 276.84 139.076C276.297 138.822 275.691 138.68 275.053 138.68H274.927C274.749 138.68 274.605 138.824 274.605 139.002C274.605 139.181 274.749 139.325 274.927 139.325ZM277.869 140.696C278.209 141.13 278.451 141.645 278.561 142.207C278.596 142.382 278.765 142.496 278.94 142.461C279.115 142.427 279.229 142.257 279.194 142.082C279.063 141.418 278.777 140.81 278.375 140.298C278.266 140.158 278.063 140.133 277.923 140.244C277.783 140.353 277.758 140.556 277.869 140.696ZM278.629 143.969V145.8C278.629 145.977 278.773 146.122 278.951 146.122C279.129 146.122 279.274 145.977 279.274 145.8V143.969C279.274 143.791 279.129 143.647 278.951 143.647C278.773 143.647 278.629 143.791 278.629 143.969ZM278.629 147.63V149.459C278.629 149.637 278.773 149.782 278.951 149.782C279.129 149.782 279.274 149.637 279.274 149.459V147.63C279.274 147.452 279.129 147.307 278.951 147.307C278.773 147.307 278.629 147.452 278.629 147.63ZM278.629 151.289V153.12C278.629 153.298 278.773 153.442 278.951 153.442C279.129 153.442 279.274 153.298 279.274 153.12V151.289C279.274 151.111 279.129 150.967 278.951 150.967C278.773 150.967 278.629 151.111 278.629 151.289ZM278.629 154.95V156.779C278.629 156.957 278.773 157.102 278.951 157.102C279.129 157.102 279.274 156.957 279.274 156.779V154.95C279.274 154.771 279.129 154.627 278.951 154.627C278.773 154.627 278.629 154.771 278.629 154.95ZM278.629 158.61V160.44C278.629 160.618 278.773 160.763 278.951 160.763C279.129 160.763 279.274 160.618 279.274 160.44V158.61C279.274 158.432 279.129 158.287 278.951 158.287C278.773 158.287 278.629 158.432 278.629 158.61ZM278.565 162.204C278.458 162.767 278.219 163.283 277.881 163.719C277.771 163.86 277.797 164.063 277.938 164.172C278.079 164.281 278.281 164.256 278.39 164.114C278.79 163.601 279.072 162.991 279.199 162.326C279.232 162.151 279.118 161.982 278.942 161.948C278.767 161.915 278.599 162.03 278.565 162.204ZM276.585 164.763C276.121 164.983 275.603 165.107 275.053 165.107H273.223C273.045 165.107 272.9 165.251 272.9 165.429C272.9 165.607 273.045 165.752 273.223 165.752H275.053C275.699 165.752 276.313 165.606 276.862 165.345C277.023 165.269 277.091 165.077 277.015 164.916C276.938 164.755 276.746 164.686 276.585 164.763Z" fill="#5B87CD"/>
<path d="M283.167 213.892H205.32C202.755 213.892 200.675 211.812 200.675 209.247V176.413C200.675 173.847 202.755 171.768 205.32 171.768H283.167C285.733 171.768 287.812 173.847 287.812 176.413V209.247C287.812 211.812 285.733 213.892 283.167 213.892Z" fill="#9D0C00"/>
<path d="M284.309 172.998V205.851C284.309 208.412 282.232 210.483 279.671 210.483H202.154C199.594 210.483 197.516 208.412 197.516 205.851V172.998C197.516 170.438 199.594 168.361 202.154 168.361H279.671C282.232 168.361 284.309 170.438 284.309 172.998Z" fill="#ED564A"/>
<path d="M227.499 207.059H204.662C202.93 207.059 201.527 205.656 201.527 203.924V181.087C201.527 179.356 202.93 177.952 204.662 177.952H227.499C229.23 177.952 230.634 179.356 230.634 181.087V203.924C230.634 205.656 229.23 207.059 227.499 207.059Z" fill="white"/>
<path d="M254.563 181.634H234.451C233.904 181.634 233.461 181.191 233.461 180.644C233.461 180.098 233.904 179.654 234.451 179.654H254.563C255.11 179.654 255.555 180.098 255.555 180.644C255.555 181.191 255.11 181.634 254.563 181.634Z" fill="white"/>
<path d="M245.399 185.588H234.451C233.904 185.588 233.461 185.144 233.461 184.598C233.461 184.051 233.904 183.608 234.451 183.608H245.399C245.946 183.608 246.389 184.051 246.389 184.598C246.389 185.144 245.946 185.588 245.399 185.588Z" fill="white"/>
<path d="M279.05 185.588H249.428C248.881 185.588 248.437 185.144 248.437 184.598C248.437 184.051 248.881 183.608 249.428 183.608H279.05C279.598 183.608 280.041 184.051 280.041 184.598C280.041 185.144 279.598 185.588 279.05 185.588Z" fill="white"/>
<path d="M251.389 189.542H234.451C233.904 189.542 233.461 189.099 233.461 188.552C233.461 188.005 233.904 187.562 234.451 187.562H251.389C251.936 187.562 252.38 188.005 252.38 188.552C252.38 189.099 251.936 189.542 251.389 189.542Z" fill="white"/>
<path d="M265.766 189.542H255.118C254.572 189.542 254.129 189.099 254.129 188.552C254.129 188.005 254.572 187.562 255.118 187.562H265.766C266.313 187.562 266.757 188.005 266.757 188.552C266.757 189.099 266.313 189.542 265.766 189.542Z" fill="#9D0C00"/>
<path d="M279.051 189.542H269.244C268.698 189.542 268.254 189.099 268.254 188.552C268.254 188.005 268.698 187.562 269.244 187.562H279.051C279.598 187.562 280.041 188.005 280.041 188.552C280.041 189.099 279.598 189.542 279.051 189.542Z" fill="#9D0C00"/>
<path d="M279.05 193.496H234.451C233.904 193.496 233.461 193.052 233.461 192.505C233.461 191.958 233.904 191.515 234.451 191.515H279.05C279.597 191.515 280.04 191.958 280.04 192.505C280.04 193.052 279.597 193.496 279.05 193.496Z" fill="white"/>
<path d="M258.997 197.449H234.451C233.904 197.449 233.461 197.006 233.461 196.459C233.461 195.912 233.904 195.469 234.451 195.469H258.997C259.543 195.469 259.988 195.912 259.988 196.459C259.988 197.006 259.543 197.449 258.997 197.449Z" fill="#9D0C00"/>
<path d="M279.051 197.449H262.954C262.408 197.449 261.964 197.006 261.964 196.459C261.964 195.912 262.408 195.469 262.954 195.469H279.051C279.597 195.469 280.04 195.912 280.04 196.459C280.04 197.006 279.597 197.449 279.051 197.449Z" fill="white"/>
<path d="M248.873 201.403H234.451C233.904 201.403 233.461 200.96 233.461 200.412C233.461 199.865 233.904 199.422 234.451 199.422H248.873C249.42 199.422 249.863 199.865 249.863 200.412C249.863 200.96 249.42 201.403 248.873 201.403Z" fill="white"/>
<path d="M267.198 201.403H252.777C252.229 201.403 251.786 200.96 251.786 200.412C251.786 199.865 252.229 199.422 252.777 199.422H267.198C267.745 199.422 268.188 199.865 268.188 200.412C268.188 200.96 267.745 201.403 267.198 201.403Z" fill="white"/>
<path d="M279.05 201.403H270.682C270.135 201.403 269.692 200.96 269.692 200.412C269.692 199.865 270.135 199.422 270.682 199.422H279.05C279.597 199.422 280.041 199.865 280.041 200.412C280.041 200.96 279.597 201.403 279.05 201.403Z" fill="white"/>
<path d="M254.563 205.357H234.451C233.904 205.357 233.461 204.913 233.461 204.366C233.461 203.819 233.904 203.375 234.451 203.375H254.563C255.11 203.375 255.555 203.819 255.555 204.366C255.555 204.913 255.11 205.357 254.563 205.357Z" fill="white"/>
<path d="M279.051 181.634H258.938C258.391 181.634 257.947 181.191 257.947 180.644C257.947 180.098 258.391 179.654 258.938 179.654H279.051C279.597 179.654 280.04 180.098 280.04 180.644C280.04 181.191 279.597 181.634 279.051 181.634Z" fill="white"/>
<path d="M284.309 172.997V174.378H197.516V172.997C197.516 170.437 199.594 168.36 202.154 168.36H279.671C282.232 168.36 284.309 170.437 284.309 172.997Z" fill="#ED564A"/>
<path d="M267.949 171.478C267.949 172.071 267.468 172.553 266.874 172.553C266.281 172.553 265.798 172.071 265.798 171.478C265.798 170.884 266.281 170.403 266.874 170.403C267.468 170.403 267.949 170.884 267.949 171.478Z" fill="#D7DCF2"/>
<path d="M273.451 171.478C273.451 172.071 272.968 172.553 272.376 172.553C271.782 172.553 271.3 172.071 271.3 171.478C271.3 170.884 271.782 170.403 272.376 170.403C272.968 170.403 273.451 170.884 273.451 171.478Z" fill="#D7DCF2"/>
<path d="M278.951 171.478C278.951 172.071 278.47 172.553 277.876 172.553C277.283 172.553 276.801 172.071 276.801 171.478C276.801 170.884 277.283 170.403 277.876 170.403C278.47 170.403 278.951 170.884 278.951 171.478Z" fill="#D7DCF2"/>
<path d="M224.387 165.429V165.14H207.21C206.015 165.14 204.936 164.657 204.153 163.874C203.37 163.091 202.887 162.012 202.886 160.817V143.639C202.887 142.444 203.37 141.365 204.153 140.582C204.936 139.799 206.015 139.316 207.21 139.315H224.387C225.582 139.316 226.662 139.799 227.444 140.582C228.228 141.365 228.711 142.444 228.711 143.639V160.817C228.711 162.012 228.228 163.091 227.444 163.874C226.662 164.657 225.582 165.14 224.387 165.14V165.429V165.718C227.094 165.718 229.289 163.523 229.289 160.817V143.639C229.289 140.933 227.094 138.738 224.387 138.738H207.21C204.503 138.738 202.309 140.933 202.309 143.639V160.817C202.309 163.523 204.503 165.718 207.21 165.718H224.387V165.429Z" fill="#1BA261"/>
<path d="M211.299 148.028L207.495 151.832C207.285 152.042 207.285 152.383 207.495 152.594L211.329 156.428C211.539 156.638 211.881 156.638 212.091 156.428C212.302 156.218 212.302 155.876 212.091 155.666L208.639 152.213L212.061 148.79C212.272 148.579 212.272 148.238 212.061 148.028C211.851 147.817 211.51 147.817 211.299 148.028Z" fill="#1BA261"/>
<path d="M219.536 148.79L222.959 152.213L219.506 155.666C219.296 155.876 219.296 156.218 219.506 156.428C219.716 156.638 220.058 156.638 220.268 156.428L224.102 152.594C224.202 152.493 224.26 152.355 224.26 152.213C224.26 152.071 224.202 151.932 224.102 151.832L220.299 148.028C220.088 147.817 219.747 147.817 219.536 148.028C219.325 148.238 219.325 148.579 219.536 148.79Z" fill="#1BA261"/>
<path d="M217.091 148.181L213.529 155.819C213.403 156.089 213.52 156.409 213.789 156.536C214.059 156.662 214.38 156.544 214.506 156.274L218.068 148.637C218.194 148.367 218.077 148.046 217.807 147.92C217.538 147.795 217.217 147.911 217.091 148.181Z" fill="#1BA261"/>
<path d="M284.309 74.5814V128.296C284.309 131.211 281.948 133.572 279.032 133.572H202.793C199.884 133.572 197.516 131.211 197.516 128.296V74.5814C197.516 71.6659 199.884 69.3049 202.793 69.3049H279.032C281.948 69.3049 284.309 71.6659 284.309 74.5814Z" fill="white"/>
<path d="M279.31 86.2779C279.31 93.2246 273.678 98.8565 266.731 98.8565C259.784 98.8565 254.152 93.2246 254.152 86.2779C254.152 79.3304 259.784 73.699 266.731 73.699C273.678 73.699 279.31 79.3304 279.31 86.2779Z" fill="#F4B400"/>
<path d="M248.534 133.572H202.793C199.884 133.572 197.516 131.211 197.516 128.295V119.839L217.533 85.1667C218.577 83.3539 221.197 83.3539 222.241 85.1667L237.355 111.343L248.579 130.785C249.121 131.714 249.037 132.772 248.534 133.572Z" fill="#137647"/>
<path d="M268.26 133.572H224.519L237.355 111.343L244.27 99.3646C245.212 97.7329 247.566 97.7329 248.508 99.3646L268.26 133.572Z" fill="#1BA261"/>
<path d="M355.02 284.059H321.298V233.382H355.02V284.059Z" fill="#137647"/>
<path d="M355.02 284.059H367.931V233.382H355.02V284.059Z" fill="#1BA261"/>
<path d="M366.347 236.946H356.867V235.328H366.347V236.946Z" fill="#A5B8E4"/>
<path d="M366.347 240.42H356.867V238.803H366.347V240.42Z" fill="#A5B8E4"/>
<path d="M366.347 243.894H356.867V242.277H366.347V243.894Z" fill="#A5B8E4"/>
<path d="M366.347 247.369H356.867V245.752H366.347V247.369Z" fill="#A5B8E4"/>
<path d="M366.347 250.844H356.867V249.226H366.347V250.844Z" fill="#A5B8E4"/>
<path d="M366.347 254.318H356.867V252.701H366.347V254.318Z" fill="#A5B8E4"/>
<path d="M366.347 257.793H356.867V256.175H366.347V257.793Z" fill="#A5B8E4"/>
<path d="M366.347 261.267H356.867V259.649H366.347V261.267Z" fill="#A5B8E4"/>
<path d="M366.347 264.741H356.867V263.123H366.347V264.741Z" fill="#A5B8E4"/>
<path d="M366.347 268.215H356.867V266.599H366.347V268.215Z" fill="#A5B8E4"/>
<path d="M366.347 271.69H356.867V270.073H366.347V271.69Z" fill="#A5B8E4"/>
<path d="M366.347 275.165H356.867V273.547H366.347V275.165Z" fill="#A5B8E4"/>
<path d="M366.347 278.64H356.867V277.022H366.347V278.64Z" fill="#A5B8E4"/>
<path d="M366.347 282.113H356.867V280.497H366.347V282.113Z" fill="#A5B8E4"/>
<path d="M315.82 284.059H332.959C332.959 284.059 333.916 281.008 331.84 277.227C331.84 277.227 330.461 278.333 326.329 277.585C326.329 277.585 324.604 279.049 323.413 279.622C322.217 280.202 315.358 281.548 315.82 284.059Z" fill="#120E59"/>
<path d="M317.015 235.736C318.122 242.341 323.229 264.686 325.425 277.887C329.438 278.229 331.366 277.769 332.387 277.533C332.187 272.929 331.791 261.919 331.837 257.09C331.913 248.93 332.296 238.168 328.704 232.262L316.625 233.214C316.698 233.851 316.765 234.371 316.824 234.741C316.882 235.096 316.948 235.425 317.015 235.736Z" fill="#4285F4"/>
<path d="M284.821 284.059H301.96C301.96 284.059 302.918 281.008 300.841 277.227C300.841 277.227 299.462 278.333 295.33 277.585C295.33 277.585 293.606 279.049 292.415 279.622C291.218 280.202 284.359 281.548 284.821 284.059Z" fill="#120E59"/>
<path d="M294.833 277.501C298.108 278.311 300.48 278.233 301.603 278.106C302.515 272.8 303.954 261.125 305.249 255.652C307.26 247.147 309.227 235.448 307.86 231.275L295.977 228.291C295.938 228.667 294.971 264.469 294.833 277.501Z" fill="#3469C2"/>
<path d="M342.124 216.11C341.885 213.762 341.611 212.047 341.611 212.047L328.335 215.296L317.058 217.866C312.878 218.796 307.827 219.918 303.375 220.924C298.379 222.059 295.062 225.854 296.156 230.857L297.409 236.926C304.396 236.83 337.251 233.68 340.061 232.262C343.236 230.658 344.191 224.99 342.124 216.11Z" fill="#3469C2"/>
<path d="M361.941 216.11C361.703 213.763 360.558 211.243 360.558 211.243L348.153 215.296L336.876 217.866C332.695 218.796 327.644 219.918 323.192 220.924C318.196 222.06 314.88 225.854 315.973 230.858L317.226 236.926C324.214 236.83 353.421 235.812 359.878 232.262C362.995 230.548 364.009 224.99 361.941 216.11Z" fill="#4285F4"/>
<path d="M324.784 197.085C324.784 197.085 330.681 194.421 332.303 197.092C333.191 198.555 332.577 201.271 330.566 202.412C328.555 203.552 317.191 208.358 306.465 211.038C306.465 211.038 306.007 209.546 305.268 207.978C305.268 207.978 310.08 205.982 314.864 202.623C319.648 199.263 324.784 197.085 324.784 197.085Z" fill="#F57787"/>
<path d="M326.258 178.671L321.204 198.856C321.204 198.856 321.727 203.959 326.88 201.454C332.034 198.95 335.449 182.869 335.449 182.869L326.258 178.671Z" fill="#F57787"/>
<path d="M334.808 189.961C334.183 189.809 333.586 189.644 333.011 189.472C332.421 189.299 331.861 189.119 331.329 188.932C326.526 187.286 323.931 185.309 323.931 185.309C325.441 178.746 327.26 174.34 328.877 171.436C328.921 171.364 328.964 171.299 328.999 171.22C329.043 171.148 329.085 171.076 329.129 171.004C329.999 169.559 331.25 168.344 332.644 167.346C332.788 167.245 332.925 167.151 333.068 167.051L333.665 177.589L333.765 178.675L334.808 189.961Z" fill="white"/>
<path d="M334.808 189.961C334.182 189.809 333.586 189.644 333.011 189.472C332.421 189.299 331.861 189.119 331.328 188.932C332.336 181.834 333.248 177.373 333.248 177.373L333.765 178.675L334.808 189.961Z" fill="#93B3F4"/>
<path d="M364.64 171.738C364.518 174.857 363.972 179.867 363.498 184.899C363.346 186.496 363.202 188.098 363.08 189.644C362.994 190.608 361.543 195.748 361.484 196.667C361.226 201.066 359.069 204.359 361.111 211.058C361.6 212.661 361.721 213.489 361.721 214.15C361.721 214.61 361.125 215.091 360.888 215.221C360.033 215.717 358.35 216.062 356.309 216.313H356.302C352.283 216.802 346.863 216.896 343.593 216.896C339.2 216.896 332.608 216.198 331.774 215.091C331.012 214.078 331.717 212.604 332.076 210.569C333.694 201.39 333.118 196.603 333.018 189.975C333.018 189.809 333.011 189.644 333.011 189.472C332.846 179.249 332.17 170.501 332.644 167.346C332.788 167.245 332.925 167.151 333.069 167.051C333.765 166.576 334.449 166.152 335.11 165.778C335.167 165.75 335.24 165.707 335.311 165.663C335.512 165.548 335.72 165.44 335.915 165.333C335.987 165.289 336.066 165.254 336.145 165.218C337.633 164.491 339.804 163.715 341.047 163.284C341.205 163.233 341.349 163.183 341.472 163.147C342.643 163.075 343.916 163.061 345.289 163.096C346.482 163.132 348.308 163.291 350.292 163.55H350.299C352.542 163.837 354.993 164.262 356.941 164.793L356.977 164.808C357.344 164.923 359.723 165.814 362.204 168.467C363.03 169.344 363.878 170.422 364.64 171.738Z" fill="white"/>
<path d="M361.111 211.058C361.6 212.661 361.721 213.489 361.721 214.15C361.721 214.61 361.125 215.091 360.888 215.221C360.033 215.717 358.35 216.061 356.309 216.313C357.15 216.212 358.601 214.878 358.602 213.676C358.602 212.833 357.51 207.141 357.812 203.468C358.113 199.801 358.71 193.965 357.574 189.291C356.431 184.62 355.36 178.474 355.36 178.474L361.765 182.34C361.765 182.34 362.592 183.498 363.498 184.899C363.346 186.496 363.202 188.098 363.08 189.644C362.995 190.608 359.069 204.359 361.111 211.058Z" fill="#93B3F4"/>
<path d="M332.933 144.722C332.933 144.722 333.487 151.421 335.708 151.87C337.929 152.32 337.384 149.474 337.384 149.474L337.074 146.293L332.933 144.722Z" fill="#192C4A"/>
<path d="M343.175 168.999C338.827 168.481 340.451 164.255 341.047 163.283C341.205 163.234 341.953 163.004 342.01 162.967L342.025 162.96C342.169 162.845 342.277 162.673 342.362 162.457C342.787 161.343 342.593 159.121 342.579 158.978V158.971V158.568C342.65 158.302 342.723 158.051 342.78 157.813L345.066 156.016L349.904 152.213C349.904 152.213 348.617 158.575 349.652 162.586C349.731 162.888 349.889 163.313 350.291 163.55H350.299C350.429 163.636 350.587 163.693 350.78 163.723C351.967 164.283 350.314 169.847 343.175 168.999Z" fill="#F57787"/>
<path d="M347.008 156.256C347.008 156.256 346.968 160.502 342.359 162.455C342.788 161.347 342.59 159.123 342.577 158.981L344.507 157.465L347.008 156.256Z" fill="#EC4E5E"/>
<path d="M333.995 145.675C333.995 145.675 335.001 159.574 338.754 160.755C338.754 160.755 343.535 161.205 346.968 156.587C347.957 155.257 349.207 154.958 349.615 153.351C350.278 150.741 351.214 145.927 350.02 143.027C348.321 138.895 334.156 135.615 333.995 145.675Z" fill="#F57787"/>
<path d="M350.078 140.733C350.016 138.209 347.461 137.266 347.461 137.266C344.916 136.075 339.629 136.588 334.179 137.804C333.626 137.927 333.012 137.851 332.422 137.774C331.647 137.673 330.912 137.572 330.406 137.924C329.326 138.672 330.4 142.091 330.4 142.091C332.503 148.458 340.239 146.388 342.564 145.602C343.117 147.241 343.046 149.521 344.425 150.696C345.21 151.366 346.575 151.385 347.963 151.154C348.134 151.478 348.776 151.765 348.906 152.21C349.343 153.7 349.281 156.026 349.267 157.822L349.923 157.502C350.009 157.016 356.795 140.942 350.078 140.733Z" fill="#120E59"/>
<path d="M337.845 150.356L337.685 150.384C337.71 150.527 337.722 150.671 337.722 150.81C337.722 151.264 337.596 151.678 337.386 151.989C337.176 152.299 336.887 152.505 336.546 152.563C336.482 152.574 336.419 152.58 336.355 152.58C335.643 152.586 334.92 151.885 334.751 150.883C334.726 150.737 334.714 150.594 334.714 150.455C334.714 150.001 334.84 149.587 335.049 149.276C335.26 148.966 335.55 148.76 335.89 148.702C335.953 148.691 336.017 148.686 336.081 148.686C336.793 148.68 337.515 149.38 337.685 150.384L337.845 150.356L338.004 150.329C337.812 149.211 337.007 148.37 336.081 148.363C335.999 148.363 335.917 148.37 335.835 148.384C335.397 148.458 335.031 148.725 334.781 149.095C334.531 149.466 334.391 149.942 334.391 150.455C334.391 150.612 334.404 150.774 334.432 150.937C334.623 152.054 335.428 152.897 336.355 152.902C336.436 152.903 336.518 152.896 336.6 152.882C337.039 152.808 337.405 152.54 337.654 152.17C337.905 151.799 338.044 151.323 338.044 150.81C338.044 150.653 338.032 150.492 338.004 150.329L337.845 150.356Z" fill="white"/>
<path d="M342.379 149.508L342.221 149.535C342.245 149.68 342.257 149.824 342.257 149.963C342.257 150.416 342.132 150.83 341.922 151.141C341.711 151.452 341.422 151.657 341.082 151.716C341.017 151.726 340.953 151.731 340.89 151.731C340.177 151.738 339.455 151.038 339.286 150.034C339.262 149.89 339.249 149.746 339.249 149.607C339.249 149.154 339.374 148.739 339.584 148.429C339.796 148.118 340.084 147.912 340.424 147.854C340.489 147.843 340.553 147.838 340.616 147.838C341.329 147.831 342.051 148.532 342.221 149.535L342.379 149.508L342.539 149.481C342.348 148.364 341.543 147.521 340.616 147.515C340.535 147.515 340.452 147.522 340.37 147.535C339.932 147.61 339.566 147.877 339.316 148.248C339.066 148.619 338.927 149.095 338.926 149.607C338.926 149.765 338.939 149.926 338.967 150.088C339.158 151.206 339.963 152.048 340.89 152.055C340.971 152.055 341.054 152.048 341.136 152.034C341.574 151.96 341.939 151.692 342.19 151.322C342.44 150.951 342.58 150.476 342.58 149.963C342.58 149.806 342.566 149.644 342.539 149.481L342.379 149.508Z" fill="white"/>
<path d="M337.982 150.441L337.925 150.406L337.977 150.449L337.982 150.441L337.925 150.406L337.977 150.449C337.98 150.446 338.119 150.271 338.739 150.269C338.838 150.269 338.95 150.274 339.074 150.285L339.101 149.963C338.969 149.952 338.848 149.946 338.739 149.946C337.964 149.942 337.737 150.216 337.708 150.271L337.982 150.441Z" fill="white"/>
<path d="M342.444 149.945L346.321 149.326L346.27 149.007L342.393 149.626" fill="white"/>
<path d="M346.58 154.087C349.25 155.109 350.083 148.539 347.548 148.247C345.626 148.027 345.547 150.709 345.547 150.709C345.547 150.709 345.056 153.503 346.58 154.087Z" fill="#F57787"/>
<path d="M346.895 152.633C346.895 152.633 346.857 152.587 346.799 152.498C346.75 152.406 346.65 152.283 346.582 152.115C346.507 151.949 346.428 151.748 346.385 151.519C346.333 151.293 346.319 151.04 346.339 150.786C346.362 150.534 346.428 150.281 346.535 150.065C346.637 149.845 346.785 149.669 346.922 149.54C347.21 149.286 347.461 149.237 347.461 149.237C347.461 149.237 347.288 149.415 347.13 149.708C346.973 149.994 346.835 150.383 346.805 150.801C346.687 150.898 346.588 151.009 346.52 151.108C346.412 151.256 346.359 151.368 346.359 151.368L346.797 151.525C346.805 151.711 346.828 151.886 346.84 152.044C346.858 152.218 346.874 152.364 346.885 152.467C346.895 152.571 346.895 152.633 346.895 152.633Z" fill="#F36272"/>
<path d="M346.8 151.526L346.796 151.525L346.36 151.369C346.36 151.369 346.412 151.257 346.52 151.108C346.588 151.01 346.687 150.898 346.805 150.801C346.868 150.751 346.934 150.704 347.006 150.665C347.211 150.547 347.437 150.494 347.602 150.482C347.651 150.477 347.695 150.476 347.733 150.476C347.823 150.476 347.877 150.485 347.877 150.485C347.877 150.485 347.768 150.497 347.619 150.553C347.469 150.606 347.284 150.711 347.145 150.853C347.003 150.992 346.911 151.164 346.865 151.298C346.815 151.432 346.8 151.526 346.8 151.526Z" fill="#F36272"/>
<path d="M372.247 199.745L372.246 199.752C371.073 201.112 366.621 202.105 364.479 200.222C363.805 199.622 363.045 198.041 362.299 196.081C360.399 191.066 358.601 183.565 358.601 183.565L368.565 178.474C368.565 178.474 369.846 184.221 370.951 189.683C370.951 189.683 370.961 189.738 370.981 189.835C371.341 191.584 371.675 193.306 371.938 194.782L371.957 194.9C372.22 196.663 372.389 198.501 372.247 199.745Z" fill="#F57787"/>
<path d="M354.839 176.587C355.801 180.588 358.825 188.17 358.825 188.17C360.943 188.521 363.784 188.131 366.137 187.285C368.854 186.31 370.796 184.26 370.796 184.26C370.796 184.26 368.79 178.623 366.99 174.573C365.374 170.937 364.403 169.58 363.704 168.86C362.651 167.757 360.953 166.493 359.748 165.917L354.839 176.587Z" fill="white"/>
<path d="M367.438 179.199L361.591 176.676L356.984 164.806C356.984 164.806 357.829 165.062 358.94 165.512H358.946C358.967 165.522 359.015 165.538 359.095 165.571L359.181 165.608C360.174 166.073 364.028 168.344 366.695 176.596C366.717 176.666 366.738 176.735 366.759 176.805C367.042 177.756 367.251 178.52 367.363 178.916L367.396 179.033L367.438 179.199Z" fill="white"/>
<path d="M372.247 199.745L372.246 199.751C372.16 200.481 371.959 201.005 371.598 201.191L370.666 201.751C369.448 202.496 367.238 203.764 364.49 204.945C357.825 207.824 348.143 211.164 342.923 212.695C342.923 212.695 342.407 211.219 341.604 209.684C341.604 209.684 346.325 207.491 350.966 203.937C355.614 200.389 362.299 196.08 362.299 196.08L363.987 194.094C363.987 194.094 369.987 188.572 370.951 189.683C370.951 189.683 370.96 189.738 370.981 189.835C371.124 190.41 371.601 192.53 371.937 194.782L371.957 194.899C372.22 196.663 372.389 198.501 372.247 199.745Z" fill="#F57787"/>
<path d="M342.294 209.347C342.294 209.347 341.121 210.054 339.926 209.802C339.264 209.663 338.997 209.393 338.508 209.307C338.019 209.22 336.717 209.06 336.072 208.743C335.427 208.427 335.176 208.392 335.199 209.039C335.221 209.686 336.493 210.247 336.839 210.425C337.184 210.605 337.616 211.18 337.663 211.251C337.71 211.323 335.543 212.458 334.96 212.227C334.96 212.227 334.786 212.749 334.885 213.041C334.984 213.332 335.43 213.434 335.465 213.581C335.499 213.727 335.362 214.026 335.459 214.259C335.555 214.491 335.953 214.492 336.113 214.869C336.274 215.246 336.097 215.252 336.214 215.646C336.331 216.04 336.834 216.112 336.93 216.314C337.026 216.517 336.975 216.754 337.186 216.894C337.397 217.035 339.347 216.408 340.058 216.104C340.768 215.799 342.67 213.063 344.774 212.13L342.294 209.347Z" fill="#F57787"/>
<path d="M352.254 221.563H337.097V220.08H352.254C352.664 220.08 352.996 220.411 352.996 220.821C352.996 221.23 352.664 221.563 352.254 221.563Z" fill="#2C3A64"/>
<path d="M344.053 221.563H306.102C305.647 221.563 305.249 221.26 305.128 220.822L297.36 192.861C297.189 192.242 297.654 191.629 298.296 191.629H334.995C335.85 191.629 336.6 192.2 336.829 193.024L344.568 220.884C344.663 221.226 344.407 221.563 344.053 221.563Z" fill="#2C3A64"/>
<path d="M342.679 221.563H304.73C304.275 221.563 303.875 221.26 303.755 220.822L295.987 192.861C295.815 192.242 296.28 191.629 296.923 191.629H333.621C334.477 191.629 335.227 192.2 335.456 193.024L343.196 220.884C343.29 221.226 343.033 221.563 342.679 221.563Z" fill="#ED564A"/>
<path d="M192.268 203.496L196.664 198.989C196.664 198.989 196.816 196.979 197.056 196.556C197.296 196.131 197.914 194.562 198.222 194.39C198.53 194.219 199.146 194.39 199.146 194.39C199.146 194.39 199.757 194.186 200.03 194.186C200.304 194.186 200.816 194.435 200.816 194.435C200.816 194.435 201.474 194.39 201.748 194.39C202.021 194.39 202.109 194.468 202.109 194.468C202.109 194.468 203.169 193.248 203.683 192.837C204.196 192.427 204.981 191.67 205.214 191.673C205.433 191.676 205.53 192.062 205.37 192.473C205.211 192.883 204.515 193.546 204.515 193.546L202.513 196.581C202.513 196.581 202.854 196.444 203.037 196.33C203.22 196.216 204.441 195.075 204.515 195.029C204.589 194.984 205.136 194.619 205.456 194.984C205.776 195.349 203.359 198.244 202.971 198.632C202.583 199.019 200.362 200.145 200.362 200.145C200.362 200.145 198.016 204.364 197.788 204.637C197.56 204.911 192.268 203.496 192.268 203.496Z" fill="#F57789"/>
<path d="M196.405 182.692C196.405 182.692 193.95 196.917 191.638 197.246C191.638 197.246 182.411 197.619 180.355 186.425C178.573 176.718 185.723 174.647 189.067 175.39C192.412 176.132 197.123 176.615 196.405 182.692Z" fill="#F57789"/>
<path d="M188.25 194.972C188.25 194.972 186.957 196.714 186.504 200.934C186.504 200.934 182.662 201.483 179.118 199.66C179.118 199.66 181.028 193.706 181.262 187.242" fill="#F57789"/>
<path d="M185.647 173.007C180.605 174.122 181.008 177.263 181.008 177.263C178.648 177.847 178.14 178.822 178.16 183.179C178.179 187.537 179.757 192.769 180.626 193.195C181.495 193.621 186.425 193.642 186.837 193.492C187.248 193.343 188.973 189.345 188.571 188.641C188.169 187.939 188.591 185.172 189.74 185.068C190.887 184.963 190.663 186.743 190.663 186.743L191.606 186.536L192.335 184.749C198.998 185.146 200.72 177.552 200.72 177.552C199.119 176.508 190.691 171.893 185.647 173.007Z" fill="#0B0754"/>
<path d="M129.674 269.305L134.772 270.041L133.083 275.995L127.561 274.602C127.561 274.602 125.315 271.557 128.707 269.305C128.87 269.195 129.407 269.244 129.674 269.305Z" fill="#F57787"/>
<path d="M167.728 254.013L160.213 231.259C160.213 231.259 157.935 230.447 156.769 231.259C156.769 231.259 148.941 235.468 149.775 247.472C150.405 256.521 152.315 266.334 153.09 270.27L133.041 269.53C133.041 269.53 130.567 272.469 132.167 276.296C132.167 276.296 157.361 283.071 160.909 283.698C163.794 284.207 166.95 284.599 168.474 283.293C171.16 280.993 167.728 254.013 167.728 254.013Z" fill="#D49C00"/>
<path d="M153.412 269.305L158.51 270.041L156.822 275.995L151.3 274.602C151.3 274.602 149.054 271.557 152.446 269.305C152.609 269.195 153.145 269.244 153.412 269.305Z" fill="#F57787"/>
<path d="M151.562 272.426C151.448 273.597 152.473 274.653 152.286 274.945C152.098 275.237 148.671 280.988 148.671 280.988C148.671 280.988 151.259 282.114 150.841 283.742H144.288C144.288 283.742 142.577 282.197 142.62 279.985C142.62 279.985 143.064 277.44 144.233 275.186C145.402 272.933 148.059 267.845 148.059 267.845C148.059 267.845 148.864 267.519 150.242 267.886C151.856 268.317 153.412 269.304 153.412 269.304C153.412 269.304 151.844 269.529 151.562 272.426Z" fill="#120E59"/>
<path d="M204.052 278.513C202.433 272.477 187.212 246.706 182.063 239.748C171.486 235.156 160.213 231.259 160.213 231.259C155.551 232.373 153.255 241.766 155.899 248.028C157.713 252.325 169.221 263.139 176.268 269.504L156.713 269.481C156.713 269.481 154.409 272.924 156.497 276.195C156.497 276.195 189.021 283.59 191.874 284.008C194.727 284.426 201.129 284.008 201.129 284.008C201.129 284.008 205.413 283.595 204.052 278.513Z" fill="#F4B400"/>
<path d="M127.824 272.426C127.709 273.597 128.735 274.653 128.547 274.945C128.359 275.237 124.933 280.988 124.933 280.988C124.933 280.988 127.52 282.114 127.103 283.742H120.55C120.55 283.742 118.839 282.197 118.88 279.985C118.88 279.985 119.325 277.44 120.494 275.186C121.663 272.933 124.32 267.845 124.32 267.845C124.32 267.845 125.126 267.519 126.504 267.886C128.118 268.317 129.674 269.304 129.674 269.304C129.674 269.304 128.105 269.529 127.824 272.426Z" fill="#120E59"/>
<path d="M228.538 199.115L218.049 217.566L210.536 210.078L204.319 219.334L206.124 220.201L205.475 220.741C205.475 220.741 219.971 227.801 221.709 226.244C223.446 224.686 231.54 201.213 231.54 201.213L228.538 199.115Z" fill="#F57789"/>
<path d="M211.875 211.25C211.875 211.25 209.895 219.603 205.934 223.564L195.8 219.707C195.8 219.707 191.098 227.615 186.499 233.679C184.731 236.021 184.144 239.317 182.067 239.748C181.938 239.704 181.816 239.665 181.687 239.633C176.055 237.942 167.747 239.736 160.89 237.188C153.317 234.369 154.788 232.782 154.788 232.782C154.788 232.782 159.38 224.506 161.987 215.74C163.147 211.863 163.954 208.27 164.49 205.464C165.451 200.497 169.431 196.614 174.449 195.936C174.507 195.93 174.559 195.917 174.617 195.911C180.358 195.182 195.388 196.956 198.31 198.207C201.232 199.459 211.875 211.25 211.875 211.25Z" fill="white"/>
<path d="M195.8 219.707C195.8 219.707 191.097 227.615 186.498 233.679C184.731 236.021 184.144 239.317 182.067 239.749C182.976 239.427 184.486 234.64 185.021 233.563C185.563 232.492 186.421 231.415 188.279 227.654C190.13 223.887 192.643 218.366 192.643 218.366L195.8 219.707Z" fill="#93B3F4"/>
<path d="M176.268 269.505C176.268 269.505 176.427 269.47 176.708 269.433C176.99 269.404 177.393 269.346 177.879 269.327C178.848 269.274 180.145 269.313 181.428 269.491C182.069 269.583 182.708 269.697 183.297 269.844C183.888 269.984 184.433 270.149 184.889 270.317C185.349 270.474 185.718 270.648 185.976 270.764C186.234 270.881 186.378 270.957 186.378 270.957C186.378 270.957 186.215 270.939 185.937 270.891C185.662 270.833 185.262 270.779 184.79 270.699C183.845 270.54 182.593 270.339 181.335 270.171C180.707 270.073 180.076 270.005 179.485 269.922C178.891 269.848 178.338 269.778 177.864 269.719C176.906 269.591 176.268 269.505 176.268 269.505Z" fill="#040606"/>
<path d="M236.377 192.325C236.207 192.308 235.133 193.171 234.614 193.597L235.212 192.452C235.212 192.452 236.002 191.688 236.287 191.269C236.572 190.85 236.421 190.431 236.197 190.408C236.039 190.392 235.093 191.143 234.545 191.589L234.666 191.359C234.666 191.359 235.457 190.595 235.741 190.175C236.026 189.756 235.876 189.337 235.651 189.315C235.426 189.292 233.607 190.82 233.607 190.82L232.721 192.006L233.389 190.708C233.389 190.708 233.74 190.279 233.976 189.81C234.209 189.341 234.041 189.197 233.91 189.04C233.78 188.884 232.555 189.796 232.242 190.161C231.929 190.526 230.939 192.005 230.861 192.214L229.837 194.332C229.772 193.718 229.669 192.668 229.597 191.999C229.492 191.034 228.62 190.806 228.589 191.275C228.559 191.745 228.073 194.05 228.183 195.302C228.292 196.553 228.502 197.373 228.58 198.077C228.659 198.781 227.929 200.187 227.929 200.187C227.929 200.187 230.848 201.999 231.331 201.457C231.813 200.914 232.84 199.71 233.337 198.899C234.019 197.783 234.479 196.318 234.479 196.318L235.391 194.369C235.391 194.369 236.182 193.606 236.466 193.187C236.751 192.767 236.601 192.347 236.377 192.325Z" fill="#F57789"/>
<path d="M403.929 133.575V133.287H369.7C367.347 133.287 365.44 135.194 365.44 137.548V145.634C365.44 147.805 367.062 149.597 369.163 149.861C369.306 149.88 369.412 149.999 369.412 150.143V154.57C369.41 154.73 369.481 154.881 369.588 154.975C369.693 155.071 369.826 155.122 369.966 155.123C370.128 155.125 370.305 155.044 370.413 154.891L373.899 150.015C373.954 149.94 374.041 149.895 374.134 149.895H403.929C406.283 149.895 408.19 147.987 408.19 145.634V137.548C408.19 135.194 406.283 133.287 403.929 133.287V133.575V133.865C404.947 133.865 405.867 134.276 406.534 134.943C407.201 135.611 407.612 136.53 407.613 137.548V145.634C407.612 146.652 407.201 147.57 406.534 148.238C405.867 148.905 404.947 149.317 403.929 149.317H374.134C373.855 149.317 373.592 149.452 373.43 149.679L369.942 154.555L369.966 154.571V154.545L369.943 154.555L369.966 154.571V154.545V154.563L369.979 154.55L369.966 154.545V154.563L369.979 154.55L369.959 154.57H369.989L369.979 154.55L369.959 154.57H369.989V150.143C369.989 149.709 369.667 149.342 369.235 149.287C367.422 149.06 366.016 147.51 366.017 145.634V137.548C366.018 136.53 366.43 135.611 367.097 134.943C367.763 134.276 368.682 133.865 369.7 133.865H403.929V133.575Z" fill="#F4B400"/>
<path d="M374.951 141.578H374.662C374.661 142.141 374.206 142.596 373.643 142.597C373.081 142.596 372.625 142.141 372.624 141.578C372.625 141.015 373.081 140.56 373.643 140.559C374.206 140.56 374.661 141.015 374.662 141.578H374.951H375.24C375.24 140.696 374.525 139.982 373.643 139.982C372.762 139.982 372.047 140.696 372.047 141.578C372.047 142.46 372.762 143.175 373.643 143.175C374.525 143.175 375.24 142.46 375.24 141.578H374.951Z" fill="#F4B400"/>
<path d="M381.537 141.578H381.248C381.248 142.141 380.792 142.596 380.229 142.597C379.666 142.596 379.211 142.141 379.21 141.578C379.211 141.015 379.666 140.56 380.229 140.559C380.792 140.56 381.248 141.015 381.248 141.578H381.537H381.826C381.826 140.696 381.111 139.982 380.229 139.982C379.347 139.982 378.633 140.696 378.632 141.578C378.633 142.46 379.347 143.175 380.229 143.175C381.111 143.175 381.826 142.46 381.826 141.578H381.537Z" fill="#F4B400"/>
<path d="M388.123 141.578H387.834C387.833 142.141 387.377 142.596 386.815 142.597C386.252 142.596 385.797 142.141 385.795 141.578C385.797 141.015 386.252 140.56 386.815 140.559C387.377 140.56 387.833 141.015 387.834 141.578H388.123H388.412C388.412 140.696 387.696 139.982 386.815 139.982C385.933 139.982 385.218 140.696 385.218 141.578C385.218 142.46 385.933 143.175 386.815 143.175C387.696 143.175 388.412 142.46 388.412 141.578H388.123Z" fill="#F4B400"/>
<path d="M394.708 141.578H394.42C394.419 142.141 393.963 142.596 393.4 142.597C392.838 142.596 392.382 142.141 392.381 141.578C392.382 141.015 392.838 140.56 393.4 140.559C393.963 140.56 394.419 141.015 394.42 141.578H394.708H394.997C394.997 140.696 394.282 139.982 393.4 139.982C392.519 139.982 391.803 140.696 391.803 141.578C391.803 142.46 392.519 143.175 393.4 143.175C394.282 143.175 394.997 142.46 394.997 141.578H394.708Z" fill="#F4B400"/>
<path d="M401.294 141.578H401.005C401.004 142.141 400.549 142.596 399.986 142.597C399.424 142.596 398.968 142.141 398.967 141.578C398.968 141.015 399.424 140.56 399.986 140.559C400.549 140.56 401.004 141.015 401.005 141.578H401.294H401.583C401.583 140.696 400.868 139.982 399.986 139.982C399.105 139.982 398.39 140.696 398.39 141.578C398.39 142.46 399.105 143.175 399.986 143.175C400.868 143.175 401.583 142.46 401.583 141.578H401.294Z" fill="#F4B400"/>
<path d="M133.456 169.026V169.314H167.686C168.704 169.314 169.623 169.726 170.289 170.393C170.956 171.06 171.368 171.979 171.369 172.997V181.083C171.37 182.96 169.964 184.509 168.151 184.738C167.719 184.792 167.397 185.159 167.397 185.593V190.02H167.427L167.407 189.999L167.397 190.02H167.427L167.407 189.999L167.42 190.012V189.994L167.407 189.999L167.42 190.012V189.994V190.021L167.444 190.005L167.42 189.994V190.021L167.444 190.005L163.956 185.129C163.794 184.902 163.531 184.767 163.252 184.767H133.456C132.438 184.767 131.519 184.355 130.852 183.688C130.185 183.021 129.773 182.101 129.773 181.083V172.997C129.773 171.979 130.185 171.06 130.852 170.393C131.519 169.726 132.438 169.314 133.456 169.314V169.026V168.736C131.103 168.736 129.196 170.644 129.196 172.997V181.083C129.196 183.436 131.103 185.344 133.456 185.344H163.252C163.345 185.344 163.432 185.389 163.486 185.465L166.973 190.341C167.081 190.494 167.258 190.574 167.42 190.572C167.559 190.572 167.693 190.52 167.798 190.425C167.904 190.33 167.976 190.18 167.974 190.02V185.593C167.974 185.449 168.08 185.329 168.223 185.311C170.323 185.046 171.945 183.255 171.946 181.083V172.997C171.946 170.644 170.038 168.736 167.686 168.736H133.456V169.026Z" fill="#ED564A"/>
<path d="M162.434 177.029H162.146C162.146 177.91 162.861 178.625 163.742 178.625C164.624 178.625 165.339 177.91 165.339 177.029C165.339 176.147 164.624 175.432 163.742 175.431C162.861 175.432 162.146 176.147 162.146 177.029H162.434H162.723C162.724 176.466 163.179 176.01 163.742 176.009C164.305 176.01 164.761 176.466 164.761 177.029C164.761 177.591 164.305 178.047 163.742 178.048C163.179 178.047 162.724 177.591 162.723 177.029H162.434Z" fill="#ED564A"/>
<path d="M155.849 177.029H155.56C155.56 177.91 156.275 178.625 157.156 178.625C158.039 178.625 158.753 177.91 158.754 177.029C158.753 176.147 158.039 175.432 157.156 175.431C156.275 175.432 155.56 176.147 155.56 177.029H155.849H156.138C156.138 176.466 156.594 176.01 157.156 176.009C157.72 176.01 158.174 176.466 158.176 177.029C158.174 177.591 157.72 178.047 157.156 178.048C156.594 178.047 156.138 177.591 156.138 177.029H155.849Z" fill="#ED564A"/>
<path d="M149.263 177.029H148.975C148.975 177.91 149.689 178.625 150.571 178.625C151.452 178.625 152.168 177.91 152.168 177.029C152.168 176.147 151.452 175.432 150.571 175.431C149.689 175.432 148.975 176.147 148.975 177.029H149.263H149.552C149.553 176.466 150.008 176.01 150.571 176.009C151.133 176.01 151.589 176.466 151.59 177.029C151.589 177.591 151.133 178.047 150.571 178.048C150.008 178.047 149.553 177.591 149.552 177.029H149.263Z" fill="#ED564A"/>
<path d="M142.677 177.029H142.389C142.389 177.91 143.103 178.625 143.986 178.625C144.867 178.625 145.582 177.91 145.582 177.029C145.582 176.147 144.867 175.432 143.986 175.431C143.103 175.432 142.389 176.147 142.389 177.029H142.677H142.966C142.967 176.466 143.422 176.01 143.986 176.009C144.548 176.01 145.004 176.466 145.004 177.029C145.004 177.591 144.548 178.047 143.986 178.048C143.422 178.047 142.967 177.591 142.966 177.029H142.677Z" fill="#ED564A"/>
<path d="M136.092 177.029H135.803C135.803 177.91 136.518 178.625 137.399 178.625C138.282 178.625 138.996 177.91 138.996 177.029C138.996 176.147 138.282 175.432 137.399 175.431C136.518 175.432 135.803 176.147 135.803 177.029H136.092H136.381C136.381 176.466 136.837 176.01 137.399 176.009C137.962 176.01 138.418 176.466 138.419 177.029C138.418 177.591 137.962 178.047 137.399 178.048C136.837 178.047 136.381 177.591 136.381 177.029H136.092Z" fill="#ED564A"/>
<path d="M340.176 114.92H277.789C274.348 114.92 271.559 112.131 271.559 108.69C271.559 105.249 274.348 102.46 277.789 102.46H340.176C343.616 102.46 346.406 105.249 346.406 108.69C346.406 112.131 343.616 114.92 340.176 114.92Z" fill="white"/>
<path d="M340.176 114.92V114.632H277.789C276.146 114.632 274.663 113.967 273.587 112.891C272.512 111.816 271.847 110.332 271.847 108.69C271.847 107.049 272.512 105.566 273.587 104.49C274.663 103.414 276.146 102.75 277.789 102.75H340.176C341.818 102.75 343.301 103.414 344.377 104.49C345.453 105.566 346.117 107.049 346.117 108.69C346.117 110.332 345.453 111.816 344.377 112.891C343.301 113.967 341.818 114.632 340.176 114.632V114.92V115.21C343.777 115.21 346.695 112.291 346.695 108.69C346.695 105.09 343.777 102.172 340.176 102.172H277.789C274.188 102.172 271.269 105.09 271.269 108.69C271.269 112.291 274.188 115.21 277.789 115.21H340.176V114.92Z" fill="#4C8BF5"/>
<path d="M339.262 108.26H338.723C338.722 109.028 338.413 109.719 337.909 110.222C337.406 110.725 336.716 111.034 335.949 111.035C335.181 111.034 334.491 110.725 333.987 110.222C333.484 109.719 333.175 109.028 333.175 108.26C333.175 107.493 333.484 106.803 333.987 106.299C334.491 105.796 335.181 105.488 335.949 105.487C336.716 105.488 337.406 105.796 337.909 106.299C338.413 106.803 338.722 107.493 338.723 108.26H339.262H339.8C339.8 106.133 338.076 104.409 335.949 104.409C333.821 104.409 332.096 106.133 332.096 108.26C332.096 110.389 333.821 112.113 335.949 112.113C338.076 112.113 339.8 110.389 339.8 108.26H339.262Z" fill="#4C8BF5"/>
<path d="M337.91 110.984L339.739 112.813C339.95 113.024 340.291 113.024 340.502 112.813C340.713 112.603 340.713 112.261 340.502 112.051L338.672 110.221C338.462 110.011 338.121 110.011 337.91 110.221C337.699 110.433 337.699 110.774 337.91 110.984Z" fill="#4C8BF5"/>
<path d="M245.67 284.36H229.975C227.229 284.36 225.003 282.134 225.003 279.388V263.693C225.003 260.947 227.229 258.721 229.975 258.721H245.67C248.417 258.721 250.643 260.947 250.643 263.693V279.388C250.643 282.134 248.417 284.36 245.67 284.36Z" fill="#9D0C00"/>
<path d="M240.998 284.36H225.303C222.557 284.36 220.331 282.134 220.331 279.388V263.693C220.331 260.947 222.557 258.721 225.303 258.721H240.998C243.743 258.721 245.969 260.947 245.969 263.693V279.388C245.969 282.134 243.743 284.36 240.998 284.36Z" fill="#ED564A"/>
<path d="M230.121 266.701L237.482 270.95C237.936 271.213 237.936 271.868 237.482 272.13L230.121 276.379C229.667 276.642 229.1 276.314 229.1 275.789V267.291C229.1 266.766 229.667 266.438 230.121 266.701Z" fill="white"/>
<path d="M408.021 284.36H387.504C383.914 284.36 381.004 281.449 381.004 277.86V257.343C381.004 253.753 383.914 250.844 387.504 250.844H408.021C411.611 250.844 414.521 253.753 414.521 257.343V277.86C414.521 281.449 411.611 284.36 408.021 284.36Z" fill="#28418F"/>
<path d="M401.913 284.36H381.396C377.806 284.36 374.896 281.449 374.896 277.86V257.343C374.896 253.753 377.806 250.844 381.396 250.844H401.913C405.502 250.844 408.413 253.753 408.413 257.343V277.86C408.413 281.449 405.502 284.36 401.913 284.36Z" fill="#4259B1"/>
<path d="M395.681 259.067C395.681 261.292 393.878 263.094 391.654 263.094C389.43 263.094 387.627 261.292 387.627 259.067C387.627 256.843 389.43 255.04 391.654 255.04C393.878 255.04 395.681 256.843 395.681 259.067Z" fill="white"/>
<path d="M400.049 272.701V278.646C400.049 279.183 399.613 279.619 399.077 279.619H384.232C383.695 279.619 383.259 279.183 383.259 278.646V272.701C383.259 268.065 387.018 264.306 391.654 264.306C396.29 264.306 400.049 268.065 400.049 272.701Z" fill="white"/>
<path d="M316.7 122.097H303.522C302.976 122.097 302.532 121.654 302.532 121.106C302.532 120.56 302.976 120.116 303.522 120.116H316.7C317.247 120.116 317.69 120.56 317.69 121.106C317.69 121.654 317.247 122.097 316.7 122.097Z" fill="#4C8BF5"/>
<path d="M329.883 122.097H320.347C319.801 122.097 319.357 121.654 319.357 121.106C319.357 120.56 319.801 120.116 320.347 120.116H329.883C330.43 120.116 330.874 120.56 330.874 121.106C330.874 121.654 330.43 122.097 329.883 122.097Z" fill="#4C8BF5"/>
<path d="M309.121 126.451H303.522C302.976 126.451 302.532 126.008 302.532 125.461C302.532 124.914 302.976 124.471 303.522 124.471H309.121C309.668 124.471 310.111 124.914 310.111 125.461C310.111 126.008 309.668 126.451 309.121 126.451Z" fill="#4C8BF5"/>
<path d="M329.884 126.451H312.445C311.899 126.451 311.455 126.008 311.455 125.461C311.455 124.914 311.899 124.471 312.445 124.471H329.884C330.431 124.471 330.874 124.914 330.874 125.461C330.874 126.008 330.431 126.451 329.884 126.451Z" fill="#4C8BF5"/>
<path d="M320.893 130.805H303.522C302.976 130.805 302.532 130.362 302.532 129.815C302.532 129.268 302.976 128.824 303.522 128.824H320.893C321.44 128.824 321.883 129.268 321.883 129.815C321.883 130.362 321.44 130.805 320.893 130.805Z" fill="#4C8BF5"/>
<path d="M329.884 130.805H324.285C323.738 130.805 323.295 130.362 323.295 129.815C323.295 129.268 323.738 128.824 324.285 128.824H329.884C330.431 128.824 330.874 129.268 330.874 129.815C330.874 130.362 330.431 130.805 329.884 130.805Z" fill="#4C8BF5"/>
<path d="M149.833 223.237H103.831C102.469 223.237 101.364 222.132 101.364 220.771V197.548C101.364 196.186 102.469 195.083 103.831 195.083H149.833C151.195 195.083 152.3 196.186 152.3 197.548V220.771C152.3 222.132 151.195 223.237 149.833 223.237Z" fill="#1A4EA5"/>
<path d="M103.53 199.176H150.135C150.294 199.176 150.424 199.047 150.424 198.886C150.424 198.728 150.294 198.598 150.135 198.598H103.53C103.37 198.598 103.241 198.728 103.241 198.886C103.241 199.047 103.37 199.176 103.53 199.176Z" fill="white"/>
<path d="M149.469 196.951C149.469 197.263 149.216 197.515 148.904 197.515C148.592 197.515 148.34 197.263 148.34 196.951C148.34 196.64 148.592 196.386 148.904 196.386C149.216 196.386 149.469 196.64 149.469 196.951Z" fill="white"/>
<path d="M146.525 196.951C146.525 197.263 146.272 197.515 145.961 197.515C145.65 197.515 145.397 197.263 145.397 196.951C145.397 196.64 145.65 196.386 145.961 196.386C146.272 196.386 146.525 196.64 146.525 196.951Z" fill="white"/>
<path d="M143.583 196.951C143.583 197.263 143.33 197.515 143.019 197.515C142.706 197.515 142.454 197.263 142.454 196.951C142.454 196.64 142.706 196.386 143.019 196.386C143.33 196.386 143.583 196.64 143.583 196.951Z" fill="white"/>
<path d="M112.217 202.676H104.309C103.878 202.676 103.529 202.326 103.529 201.896C103.529 201.466 103.878 201.117 104.309 201.117H112.217C112.647 201.117 112.996 201.466 112.996 201.896C112.996 202.326 112.647 202.676 112.217 202.676Z" fill="#1BA261"/>
<path d="M112.217 206.277H104.309C103.878 206.277 103.529 205.929 103.529 205.498C103.529 205.067 103.878 204.719 104.309 204.719H112.217C112.647 204.719 112.996 205.067 112.996 205.498C112.996 205.929 112.647 206.277 112.217 206.277Z" fill="#1BA261"/>
<path d="M112.217 209.879H104.309C103.878 209.879 103.529 209.53 103.529 209.099C103.529 208.669 103.878 208.319 104.309 208.319H112.217C112.647 208.319 112.996 208.669 112.996 209.099C112.996 209.53 112.647 209.879 112.217 209.879Z" fill="#1BA261"/>
<path d="M112.217 213.481H104.309C103.878 213.481 103.529 213.133 103.529 212.702C103.529 212.272 103.878 211.923 104.309 211.923H112.217C112.647 211.923 112.996 212.272 112.996 212.702C112.996 213.133 112.647 213.481 112.217 213.481Z" fill="#1BA261"/>
<path d="M112.217 217.083H104.309C103.878 217.083 103.529 216.734 103.529 216.303C103.529 215.873 103.878 215.523 104.309 215.523H112.217C112.647 215.523 112.996 215.873 112.996 216.303C112.996 216.734 112.647 217.083 112.217 217.083Z" fill="#ED564A"/>
<path d="M112.217 220.684H104.309C103.878 220.684 103.529 220.335 103.529 219.905C103.529 219.474 103.878 219.125 104.309 219.125H112.217C112.647 219.125 112.996 219.474 112.996 219.905C112.996 220.335 112.647 220.684 112.217 220.684Z" fill="#ED564A"/>
<path d="M149.355 202.676H115.275C114.844 202.676 114.496 202.326 114.496 201.896C114.496 201.466 114.844 201.117 115.275 201.117H149.355C149.786 201.117 150.135 201.466 150.135 201.896C150.135 202.326 149.786 202.676 149.355 202.676Z" fill="#4285F4"/>
<path d="M149.355 206.277H115.275C114.844 206.277 114.496 205.929 114.496 205.498C114.496 205.067 114.844 204.719 115.275 204.719H149.355C149.786 204.719 150.135 205.067 150.135 205.498C150.135 205.929 149.786 206.277 149.355 206.277Z" fill="#4285F4"/>
<path d="M149.355 209.879H115.275C114.844 209.879 114.496 209.53 114.496 209.099C114.496 208.669 114.844 208.319 115.275 208.319H149.355C149.786 208.319 150.135 208.669 150.135 209.099C150.135 209.53 149.786 209.879 149.355 209.879Z" fill="#4285F4"/>
<path d="M149.355 213.481H115.275C114.844 213.481 114.496 213.133 114.496 212.702C114.496 212.272 114.844 211.923 115.275 211.923H149.355C149.786 211.923 150.135 212.272 150.135 212.702C150.135 213.133 149.786 213.481 149.355 213.481Z" fill="#4285F4"/>
<path d="M149.355 217.083H115.275C114.844 217.083 114.496 216.734 114.496 216.303C114.496 215.873 114.844 215.523 115.275 215.523H149.355C149.786 215.523 150.135 215.873 150.135 216.303C150.135 216.734 149.786 217.083 149.355 217.083Z" fill="#4285F4"/>
<path d="M149.355 220.684H115.275C114.844 220.684 114.496 220.335 114.496 219.905C114.496 219.474 114.844 219.125 115.275 219.125H149.355C149.786 219.125 150.135 219.474 150.135 219.905C150.135 220.335 149.786 220.684 149.355 220.684Z" fill="#4285F4"/>
<path d="M389.208 71.2765H388.954C388.953 76.9967 386.635 82.1737 382.887 85.9223C379.138 89.6717 373.961 91.989 368.24 91.989C362.52 91.989 357.344 89.6717 353.593 85.9223C349.846 82.1737 347.527 76.9967 347.527 71.2765C347.527 65.5555 349.846 60.379 353.593 56.6299C357.344 52.8815 362.52 50.5631 368.24 50.5631C373.961 50.5631 379.138 52.8815 382.887 56.6299C386.635 60.379 388.953 65.5555 388.954 71.2765H389.208H389.463C389.463 59.5552 379.962 50.0542 368.24 50.0542C356.52 50.0542 347.018 59.5552 347.018 71.2765C347.018 82.9973 356.52 92.4981 368.24 92.4988C379.962 92.4981 389.463 82.9973 389.463 71.2765H389.208Z" fill="#D7DCF2"/>
<path d="M386.47 71.2757C386.47 81.3429 378.308 89.5044 368.24 89.5044C358.173 89.5044 350.011 81.3429 350.011 71.2757C350.011 61.2077 358.173 53.0464 368.24 53.0464C378.308 53.0464 386.47 61.2077 386.47 71.2757Z" fill="#4C8BF5"/>
<path d="M369.9 71.2762C369.9 72.1922 369.157 72.9353 368.241 72.9353C367.324 72.9353 366.582 72.1922 366.582 71.2762C366.582 70.3596 367.324 69.6165 368.241 69.6165C369.157 69.6165 369.9 70.3596 369.9 71.2762Z" fill="white"/>
<path d="M368.06 70.9496C367.809 71.089 367.494 70.998 367.354 70.7477L361.993 61.077C361.854 60.8268 361.945 60.5107 362.195 60.372C362.446 60.2326 362.762 60.3236 362.9 60.5739L368.262 70.2439C368.401 70.4948 368.311 70.8109 368.06 70.9496Z" fill="white"/>
<path d="M368.504 71.5393C368.707 71.3368 369.035 71.3368 369.238 71.5393L373.876 76.1782C374.079 76.3808 374.079 76.7088 373.876 76.9114C373.674 77.1147 373.345 77.1147 373.143 76.9114L368.504 72.2734C368.302 72.0709 368.302 71.7426 368.504 71.5393Z" fill="white"/>
<path d="M368.997 56.6849V54.5884C368.997 54.2324 368.708 53.9434 368.352 53.9434C367.996 53.9434 367.707 54.2324 367.707 54.5884V56.6849C367.707 57.0409 367.996 57.3299 368.352 57.3299C368.708 57.3299 368.997 57.0409 368.997 56.6849Z" fill="white"/>
<path d="M382.832 72.0325H384.928C385.284 72.0325 385.573 71.7436 385.573 71.3875C385.573 71.0308 385.284 70.7424 384.928 70.7424H382.832C382.475 70.7424 382.186 71.0308 382.186 71.3875C382.186 71.7436 382.475 72.0325 382.832 72.0325Z" fill="white"/>
<path d="M367.483 85.8667V87.9637C367.483 88.3198 367.772 88.6085 368.129 88.6085C368.485 88.6085 368.773 88.3198 368.773 87.9637V85.8667C368.773 85.5106 368.485 85.2219 368.129 85.2219C367.772 85.2219 367.483 85.5106 367.483 85.8667Z" fill="white"/>
<path d="M353.65 70.5193H351.553C351.197 70.5193 350.908 70.8076 350.908 71.1643C350.908 71.5204 351.197 71.8094 351.553 71.8094H353.65C354.006 71.8094 354.295 71.5204 354.295 71.1643C354.295 70.8076 354.006 70.5193 353.65 70.5193Z" fill="white"/>
<path d="M361.042 58.9067C360.931 58.9067 360.822 58.8487 360.762 58.7455L359.714 56.9296C359.625 56.7754 359.678 56.578 359.832 56.489C359.883 56.46 359.938 56.4458 359.993 56.4458C360.105 56.4458 360.213 56.5038 360.272 56.607L361.321 58.4229C361.41 58.5771 361.357 58.7745 361.203 58.8635C361.152 58.8925 361.096 58.9067 361.042 58.9067Z" fill="#042660"/>
<path d="M380.933 64.4001C380.821 64.4001 380.713 64.342 380.653 64.2388C380.564 64.084 380.617 63.8873 380.771 63.7982L382.587 62.75C382.637 62.7204 382.693 62.7068 382.748 62.7068C382.859 62.7068 382.967 62.7642 383.027 62.868C383.116 63.0222 383.064 63.2196 382.91 63.3086L381.094 64.3569C381.043 64.3859 380.987 64.4001 380.933 64.4001Z" fill="#042660"/>
<path d="M376.488 86.1063C376.376 86.1063 376.268 86.0484 376.208 85.9453L375.16 84.1288C375.071 83.9752 375.124 83.7778 375.278 83.6888C375.329 83.6599 375.384 83.645 375.439 83.645C375.55 83.645 375.659 83.7036 375.719 83.8068L376.766 85.6225C376.855 85.7768 376.803 85.9742 376.648 86.0632C376.598 86.0922 376.542 86.1063 376.488 86.1063Z" fill="#042660"/>
<path d="M353.733 79.8446C353.622 79.8446 353.513 79.7868 353.454 79.6836C353.365 79.5285 353.418 79.3319 353.572 79.2429L355.387 78.1952C355.438 78.1655 355.494 78.1514 355.549 78.1514C355.66 78.1514 355.768 78.2092 355.828 78.3131C355.917 78.4675 355.865 78.6641 355.71 78.7539L353.895 79.8016C353.843 79.8305 353.788 79.8446 353.733 79.8446Z" fill="#042660"/>
<path d="M355.66 64.2067C355.605 64.2067 355.549 64.1925 355.499 64.1634L353.683 63.1152C353.53 63.0262 353.476 62.8289 353.565 62.6747C353.625 62.5715 353.734 62.5134 353.845 62.5134C353.9 62.5134 353.955 62.5276 354.006 62.5566L355.821 63.6049C355.976 63.6938 356.029 63.8913 355.939 64.0454C355.88 64.1486 355.771 64.2067 355.66 64.2067Z" fill="#042660"/>
<path d="M375.633 59.0185C375.578 59.0185 375.523 59.0043 375.472 58.9752C375.317 58.8863 375.265 58.6889 375.354 58.5347L376.402 56.7189C376.461 56.6156 376.57 56.5576 376.681 56.5576C376.736 56.5576 376.792 56.5718 376.842 56.6008C376.996 56.6898 377.05 56.8872 376.961 57.0414L375.912 58.8573C375.852 58.9604 375.744 59.0185 375.633 59.0185Z" fill="#042660"/>
<path d="M382.636 80.039C382.582 80.039 382.526 80.0256 382.475 79.9959L380.66 78.9475C380.505 78.8584 380.453 78.6611 380.542 78.5075C380.601 78.4036 380.71 78.3457 380.821 78.3457C380.876 78.3457 380.931 78.3598 380.983 78.3887L382.798 79.4372C382.952 79.5262 383.005 79.7236 382.916 79.878C382.856 79.9818 382.748 80.039 382.636 80.039Z" fill="#042660"/>
<path d="M359.8 85.9947C359.745 85.9947 359.689 85.9799 359.639 85.9509C359.484 85.8619 359.431 85.6645 359.521 85.5109L360.568 83.6945C360.628 83.5913 360.737 83.5334 360.849 83.5334C360.904 83.5334 360.959 83.5475 361.009 83.5765C361.164 83.6655 361.217 83.8629 361.127 84.0172L360.079 85.8329C360.02 85.9361 359.911 85.9947 359.8 85.9947Z" fill="#042660"/>
<path d="M119.115 176.797H96.0893C92.6798 176.797 89.9165 174.033 89.9165 170.624V147.598C89.9165 144.19 92.6798 141.426 96.0893 141.426H119.115C122.524 141.426 125.287 144.19 125.287 147.598V170.624C125.287 174.033 122.524 176.797 119.115 176.797Z" fill="#137647"/>
<path d="M117.601 173.732H92.121C89.3889 173.732 87.1755 171.517 87.1755 168.786V143.306C87.1755 140.575 89.3889 138.361 92.121 138.361H117.601C120.332 138.361 122.546 140.575 122.546 143.306V168.786C122.546 171.517 120.332 173.732 117.601 173.732Z" fill="#1BA261"/>
<path d="M117.6 173.733V173.41H92.121C90.8433 173.41 89.6887 172.893 88.8517 172.056C88.014 171.218 87.4975 170.065 87.4975 168.787V143.308C87.4975 142.031 88.014 140.876 88.8517 140.039C89.6887 139.201 90.8433 138.685 92.121 138.684H117.6C118.878 138.685 120.032 139.201 120.869 140.039C121.707 140.876 122.223 142.031 122.223 143.308V168.787C122.223 170.065 121.707 171.218 120.869 172.056C120.032 172.893 118.878 173.41 117.6 173.41V173.733V174.055C120.51 174.054 122.868 171.697 122.868 168.787V143.308C122.868 140.398 120.51 138.04 117.6 138.039H92.121C89.2108 138.04 86.8527 140.398 86.8527 143.308V168.787C86.8527 171.697 89.2108 174.054 92.121 174.055H117.6V173.733Z" fill="#D7DCF2"/>
<path d="M100.267 149.971C100.267 147.488 102.288 145.467 104.77 145.467C107.253 145.467 109.273 147.488 109.273 149.971V151.997H100.267V149.971ZM110.985 151.997H110.801V149.971C110.801 146.645 108.096 143.939 104.77 143.939C101.444 143.939 98.7391 146.645 98.7391 149.971V151.997H98.699C97.7641 151.997 97.0065 152.754 97.0065 153.689V161.324C97.0065 162.259 97.7641 163.017 98.699 163.017H110.985C111.919 163.017 112.678 162.259 112.678 161.324V153.689C112.678 152.754 111.919 151.997 110.985 151.997Z" fill="#D7DCF2"/>
<path d="M106.828 155.921C106.828 154.702 105.719 153.742 104.456 153.994C103.711 154.142 103.092 154.753 102.937 155.498C102.75 156.393 103.174 157.211 103.868 157.618C104.009 157.7 104.089 157.855 104.047 158.012L103.704 159.277C103.501 160.028 104.067 160.768 104.845 160.768C105.623 160.768 106.19 160.028 105.986 159.277L105.647 158.026C105.603 157.867 105.687 157.71 105.83 157.628C106.426 157.29 106.828 156.654 106.828 155.921Z" fill="#1BA261"/>
<path d="M111.952 165.696H97.7322C97.3315 165.696 97.0065 165.371 97.0065 164.97C97.0065 164.569 97.3315 164.244 97.7322 164.244H111.952C112.353 164.244 112.678 164.569 112.678 164.97C112.678 165.371 112.353 165.696 111.952 165.696Z" fill="#D7DCF2"/>
<path d="M111.952 168.155H97.7322C97.3315 168.155 97.0065 167.83 97.0065 167.429C97.0065 167.028 97.3315 166.704 97.7322 166.704H111.952C112.353 166.704 112.678 167.028 112.678 167.429C112.678 167.83 112.353 168.155 111.952 168.155Z" fill="#D7DCF2"/>
<path d="M397.725 218.372H384.17C382.162 218.372 380.535 216.745 380.535 214.738V201.183C380.535 199.176 382.162 197.549 384.17 197.549H397.725C399.731 197.549 401.358 199.176 401.358 201.183V214.738C401.358 216.745 399.731 218.372 397.725 218.372Z" fill="#AC7F00"/>
<path d="M396.834 216.569H381.833C380.225 216.569 378.921 215.266 378.921 213.658V198.658C378.921 197.049 380.225 195.745 381.833 195.745H396.834C398.442 195.745 399.745 197.049 399.745 198.658V213.658C399.745 215.266 398.442 216.569 396.834 216.569Z" fill="#F4B400"/>
<path d="M396.833 216.569V216.246H381.833C381.117 216.246 380.472 215.957 380.002 215.488C379.533 215.018 379.243 214.374 379.243 213.658V198.657C379.243 197.941 379.533 197.296 380.002 196.827C380.472 196.358 381.117 196.069 381.833 196.068H396.833C397.549 196.069 398.194 196.358 398.663 196.827C399.132 197.296 399.422 197.941 399.422 198.657V213.658C399.422 214.374 399.132 215.018 398.663 215.488C398.194 215.957 397.549 216.246 396.833 216.246V216.569V216.892C398.619 216.891 400.066 215.444 400.066 213.658V198.657C400.066 196.871 398.619 195.423 396.833 195.423H381.833C380.047 195.423 378.599 196.871 378.599 198.657V213.658C378.599 215.444 380.047 216.891 381.833 216.892H396.833V216.569Z" fill="#D7DCF2"/>
<path d="M385.126 212.375C385.067 212.375 385.009 212.368 384.95 212.351C384.607 212.254 384.408 211.898 384.505 211.555L387.654 200.408C387.75 200.064 388.109 199.863 388.45 199.962C388.793 200.059 388.992 200.415 388.895 200.758L385.746 211.905C385.665 212.19 385.407 212.375 385.126 212.375Z" fill="white"/>
<path d="M390.392 212.375C390.333 212.375 390.274 212.368 390.216 212.351C389.873 212.254 389.674 211.898 389.77 211.555L392.92 200.408C393.017 200.064 393.375 199.863 393.716 199.962C394.06 200.059 394.258 200.415 394.162 200.758L391.012 211.905C390.932 212.19 390.673 212.375 390.392 212.375Z" fill="white"/>
<path d="M394.906 204.277H383.759C383.402 204.277 383.114 203.987 383.114 203.631C383.114 203.275 383.402 202.986 383.759 202.986H394.906C395.263 202.986 395.551 203.275 395.551 203.631C395.551 203.987 395.263 204.277 394.906 204.277Z" fill="white"/>
<path d="M394.906 209.368H383.759C383.402 209.368 383.114 209.08 383.114 208.723C383.114 208.367 383.402 208.078 383.759 208.078H394.906C395.263 208.078 395.551 208.367 395.551 208.723C395.551 209.08 395.263 209.368 394.906 209.368Z" fill="white"/>
<path d="M146.346 152.228H138.284C137.796 152.228 137.4 151.833 137.4 151.344C137.4 150.856 137.796 150.46 138.284 150.46H146.346C146.834 150.46 147.23 150.856 147.23 151.344C147.23 151.833 146.834 152.228 146.346 152.228Z" fill="#4C8BF5"/>
<path d="M154.467 156.152H138.284C137.796 156.152 137.4 155.756 137.4 155.268C137.4 154.78 137.796 154.384 138.284 154.384H154.467C154.956 154.384 155.351 154.78 155.351 155.268C155.351 155.756 154.956 156.152 154.467 156.152Z" fill="#4C8BF5"/>
<path d="M140.195 160.076H138.284C137.796 160.076 137.4 159.681 137.4 159.192C137.4 158.703 137.796 158.309 138.284 158.309H140.195C140.684 158.309 141.079 158.703 141.079 159.192C141.079 159.681 140.684 160.076 140.195 160.076Z" fill="#4C8BF5"/>
<path d="M154.467 160.076H143.198C142.71 160.076 142.315 159.681 142.315 159.192C142.315 158.703 142.71 158.309 143.198 158.309H154.467C154.956 158.309 155.351 158.703 155.351 159.192C155.351 159.681 154.956 160.076 154.467 160.076Z" fill="#4C8BF5"/>
<path d="M154.467 152.228H149.58C149.093 152.228 148.697 151.833 148.697 151.344C148.697 150.856 149.093 150.46 149.58 150.46H154.467C154.956 150.46 155.351 150.856 155.351 151.344C155.351 151.833 154.956 152.228 154.467 152.228Z" fill="#4C8BF5"/>
<path d="M69.0487 248.631C68.8965 247.789 68.9172 246.928 69.1294 246.099C69.8396 243.324 70.6524 238.104 68.8462 232.464C65.8331 223.056 53.6211 214.723 53.6211 214.723C53.6211 214.723 56.9357 228.607 59.6611 234.518C61.6563 238.847 65.1468 243.772 67.0833 246.365C67.6206 247.085 67.9889 247.915 68.1489 248.798C70.1234 259.723 69.8376 268.181 69.8325 268.312L70.7491 268.348C70.7543 268.215 71.0446 259.672 69.0487 248.631Z" fill="#1BA261"/>
<path d="M78.7856 239.786C81.2112 232.116 82.3391 223.081 82.3391 223.081C82.3391 223.081 71.3901 232.116 70.4928 239.106C69.9426 243.388 70.6264 246.822 71.2392 248.844C71.4991 249.702 71.5933 250.598 71.4972 251.491C70.389 261.778 71.2572 269.663 71.2714 269.783L72.0952 269.688C72.0823 269.572 71.2759 262.236 72.2255 252.515C72.3551 251.185 72.8911 249.926 73.7336 248.887C75.3011 246.954 77.5412 243.719 78.7856 239.786Z" fill="#137647"/>
<path d="M89.9173 222.725C89.9173 222.725 78.1178 227.103 75.0325 236.737C73.1546 242.6 74.0415 248.021 74.7757 250.827C74.982 251.616 74.9702 252.438 74.7735 253.227C72.0096 264.314 71.9671 275.79 71.9671 275.943H72.9062C72.9062 275.793 72.9495 264.591 75.6187 253.718C75.8836 252.638 76.3547 251.622 77.0181 250.73C79.0297 248.019 82.4541 243.143 84.4382 238.84C87.2282 232.788 89.9173 222.725 89.9173 222.725Z" fill="#1BA261"/>
<path d="M69.0976 263.373C68.8041 259.34 67.7049 255.709 66.3729 252.663C66.1065 252.053 66.0123 251.386 66.0981 250.726C66.2626 249.453 66.3309 247.478 65.822 244.968C64.8647 240.24 58.5911 230.029 49.5073 229.431C49.5073 229.431 52.6414 234.469 54.2541 238.684C56.2948 244.019 59.2072 249.599 64.037 251.739C64.8867 252.116 65.5517 252.821 65.9058 253.68C67.0702 256.502 68.0048 259.799 68.2694 263.433L69.0976 263.373Z" fill="#137647"/>
<path d="M62.956 284.059H77.9456L81.8352 260.293C82.0074 259.24 81.1956 258.285 80.1293 258.285H60.7724C59.7065 258.285 58.8947 259.24 59.0668 260.293L62.956 284.059Z" fill="#ED564A"/>
</svg>
