<svg width="245" height="156" viewBox="0 0 245 156" fill="none" xmlns="http://www.w3.org/2000/svg">
<g style="mix-blend-mode:multiply">
<path d="M122.5 155.595C190.155 155.595 245 151.108 245 145.573C245 140.037 190.155 135.55 122.5 135.55C54.8451 135.55 0 140.037 0 145.573C0 151.108 54.8451 155.595 122.5 155.595Z" fill="#E6E6E6"/>
</g>
<path d="M59.7221 50.0918C59.4767 50.8122 59.1838 51.5247 58.8671 52.2213L58.5584 52.8942C58.5267 52.9575 58.4792 53.0763 58.408 53.2267C56.128 58.4358 54.7901 64.009 54.4339 69.6851L53.8797 78.4012C53.8797 78.4012 40.2792 83.6577 30.0273 80.1666C30.344 75.5275 32.1885 70.9359 34.4764 66.4552C38.2051 59.1403 40.7621 51.303 42.2583 43.2361C42.9075 39.7291 43.62 36.5625 44.2295 35.4225C45.9078 32.3034 49.7869 29.4059 50.9348 28.9389C51.4969 28.7093 52.1619 28.3214 52.716 27.9731C53.2939 27.6089 53.7293 27.2922 53.7293 27.2922C53.7293 27.2922 57.7667 30.2293 59.1601 33.6017C59.445 34.2904 59.7063 35.2325 59.9517 36.317C60.1971 37.4254 60.4267 38.6603 60.6167 39.8795C60.7196 40.5286 60.7908 41.1857 60.8304 41.8428C61.0125 44.6373 60.6325 47.4397 59.73 50.0918H59.7221Z" fill="#38579C"/>
<path d="M20.3454 142.826L15.5876 142.794C14.7564 142.794 14.0281 142.271 13.751 141.472C13.2523 140.102 12.421 138.891 11.3365 137.949C10.4261 137.165 10.4023 135.701 11.289 134.814C11.289 134.814 12.4606 133.128 13.4027 131.83L16.4426 134.877L16.783 137.909C16.9176 138.954 17.5984 139.817 18.5563 140.158L19.4271 140.466C20.3534 140.791 20.7808 141.884 20.3454 142.826Z" fill="#060B47"/>
<path d="M67.132 108.793C66.9024 105.84 66.0791 102.958 64.7253 100.322L54.236 72.7251C49.7315 74.4905 40.6037 71.8226 33.0514 69.4001C33.0514 69.4001 24.1691 80.7207 35.3155 107.906C36.0438 109.679 34.9355 111.69 33.0356 111.991C25.1191 113.234 22.0791 121.95 13.2601 131.925L16.4426 134.885L38.6404 118.894C41.5062 116.907 43.327 113.733 43.5962 110.257L44.9657 89.5556L60.3633 109.624C57.7271 112.996 61.25 122.765 64.7887 137.854L69.3882 137.403L67.1399 108.801L67.132 108.793Z" fill="#FE6120"/>
<path d="M77.938 142.05C77.8351 142.081 77.7243 142.105 77.6214 142.137C75.6422 142.596 70.9873 142.002 68.462 142.477L66.4749 142.493C64.1475 142.541 64.0604 140.514 64.5354 138.353C64.5354 138.353 64.4958 137.894 64.4641 137.434C65.8812 137.411 67.5753 137.395 69.0478 137.371L69.0161 137.498C68.6203 136.065 78.2389 140.261 78.2389 140.261C78.9593 140.743 78.7851 141.796 77.938 142.05Z" fill="#060B47"/>
<path d="M61.9546 27.6961L58.0043 32.2798C57.5372 32.826 56.7139 32.8814 56.1755 32.4143L53.2069 29.8415C52.6448 29.3507 52.6052 28.4957 53.1198 27.9574L57.6322 23.2866L61.9467 27.6961H61.9546Z" fill="#CE807A"/>
<path d="M68.5886 14.3646C68.644 15.4887 68.6519 16.7633 68.4857 17.737C68.3986 18.2437 68.5015 18.7583 68.8023 19.1699L70.2827 21.1807C70.4411 21.3945 70.4331 21.6953 70.2511 21.8853C69.9819 22.1703 69.5544 22.5344 69.0636 22.5978C69.0636 22.5978 68.4699 25.3606 66.6807 27.2923C66.1187 27.9018 65.327 28.2581 64.5037 28.3214C55.6372 29.0418 52.2173 24.664 52.7239 15.9796C52.8348 14.0796 53.6739 12.2905 55.0593 10.9843C57.2363 8.91804 61.4637 5.90977 65.5407 8.71221C67.4011 9.99469 68.4699 12.1163 68.5886 14.3725V14.3646Z" fill="#CE807A"/>
<path d="M64.7412 17.7767C64.8124 17.7767 64.8758 17.7609 64.9312 17.7054C65.9207 16.6684 66.9182 17.4917 66.9578 17.5234C67.0528 17.6025 67.1953 17.5946 67.2745 17.4996C67.3536 17.4046 67.3457 17.2621 67.2507 17.183C66.7836 16.7792 65.6358 16.3121 64.5987 17.3967C64.5116 17.4917 64.5195 17.6342 64.5987 17.7213C64.6383 17.7609 64.6858 17.7767 64.7333 17.7846L64.7412 17.7767Z" fill="#060B47"/>
<path d="M67.4407 23.9594C67.4011 23.904 67.3378 23.8644 67.2665 23.8644C65.8336 23.8248 65.7782 22.5344 65.7782 22.479C65.7782 22.3523 65.6674 22.2573 65.5486 22.2573C65.422 22.2573 65.327 22.3602 65.327 22.4869C65.3428 23.1044 65.7624 24.276 67.2586 24.3156C67.3853 24.3156 67.4882 24.2206 67.4882 24.094C67.4882 24.0385 67.4723 23.991 67.4486 23.9515L67.4407 23.9594Z" fill="#060B47"/>
<path d="M67.0369 19.3838C67.0369 19.7321 66.7519 20.0171 66.4036 20.0171C66.0553 20.0171 65.7703 19.7321 65.7703 19.3838C65.7703 19.0355 66.0553 18.7505 66.4036 18.7505C66.7519 18.7505 67.0369 19.0355 67.0369 19.3838Z" fill="#060B47"/>
<path d="M69.9344 10.8338C69.3565 9.22673 68.272 7.31093 66.7124 6.61428C64.6858 5.70388 62.6987 5.54555 60.5375 5.94138C60.0309 6.03638 59.4846 6.12346 59.0096 6.32929C58.5188 6.54303 58.0438 6.90719 57.5134 7.01802C57.1414 6.08387 59.2155 4.8489 59.9042 4.83307C59.0413 4.76973 57.9409 5.02306 57.1176 5.29222C56.2943 5.56138 55.2097 6.08387 54.7268 6.88344C54.5447 7.19218 54.3864 7.61176 54.2914 7.96009C54.1727 8.38758 54.2597 8.34008 53.8323 8.33216C53.0248 8.33216 52.2885 8.65674 51.6235 9.13173C51.4652 9.24256 51.2831 9.39297 51.0852 9.57505C50.6894 9.8363 50.3332 10.145 50.064 10.6438C49.6365 11.4513 48.9478 13.0741 49.1536 14.04C49.5732 13.6283 49.8661 13.0583 50.444 12.8604C50.5152 13.1612 50.2223 13.6996 50.1511 14.0083C49.9848 14.6574 49.8819 15.3383 49.7711 16.0033C49.5653 17.2857 49.3832 18.7899 49.8107 20.0486C50.2461 21.339 50.9823 22.7402 51.8769 23.7456C52.4944 24.4422 53.3256 24.9489 54.0381 25.5189C54.6872 26.0335 54.9881 25.9068 55.5739 25.3447C56.0647 24.8777 56.5872 24.4581 57.0464 23.9514C57.2284 23.7535 57.5372 23.4052 57.6005 23.136C57.7034 22.7244 57.4184 22.6215 57.1968 22.2731C56.7139 21.5131 56.5239 20.4998 56.7693 19.6132C56.983 18.8294 57.8143 18.1803 58.5901 18.4574C58.9305 18.5761 59.3817 18.9244 59.6351 19.1778C59.9992 19.5419 59.9834 20.0565 60.0388 20.5632C61.3688 19.1065 62.7858 17.4282 63.1896 15.3541C63.4112 16.1537 63.6962 17.3728 63.435 18.2199C63.712 17.4282 64.195 16.7553 64.6224 16.0587C64.9074 15.5995 65.1924 15.1008 65.4141 14.602C65.6674 14.04 65.7228 13.4146 65.9445 12.8446C66.3482 13.5096 66.9499 14.1429 67.2111 14.9187C67.4645 15.6787 67.607 16.7712 67.4645 17.5945C67.5991 16.4782 68.3036 15.4649 68.3986 14.3012C68.4461 13.7233 68.272 13.1296 68.3274 12.5675C68.7786 13.1771 69.1665 13.9212 69.4278 14.6574C69.6415 15.2512 69.594 15.9162 69.7286 16.502C70.544 14.6891 70.5915 12.6942 69.9265 10.8338H69.9344Z" fill="#060B47"/>
<path d="M50.5944 29.1051C50.5944 29.1051 52.6448 26.0731 54.7347 26.2948C54.7347 26.2948 59.3342 31.5909 59.4213 34.3617C56.318 34.0609 53.3573 32.5013 50.5944 29.1051Z" fill="#00A6F6"/>
<path d="M150.089 77.4751H107.696C107.517 77.4751 107.372 77.6204 107.372 77.7997V80.3171C107.372 80.4964 107.517 80.6417 107.696 80.6417H150.089C150.268 80.6417 150.414 80.4964 150.414 80.3171V77.7997C150.414 77.6204 150.268 77.4751 150.089 77.4751Z" fill="#CE807A"/>
<path d="M113.214 71.9016H110.902L110.443 76.4299H113.649L113.214 71.9016Z" fill="#38579C"/>
<path d="M113.578 76.4299H110.451C110.158 76.4299 109.913 76.6674 109.913 76.9683V77.4749H114.109V76.9683C114.109 76.6753 113.871 76.4299 113.57 76.4299H113.578Z" fill="#060B47"/>
<path d="M113.784 70.9753V72.2103H110.309V70.9753H110.76V71.4503H111.274V70.9753H111.789V71.4503H112.304V70.9753H112.818V71.4503H113.341V70.9753H113.784Z" fill="#060B47"/>
<path d="M118.613 73.4138H117.544L116.919 76.43H119.254L118.613 73.4138Z" fill="#38579C"/>
<path d="M119.302 76.4299H116.974C116.65 76.4299 116.381 76.6912 116.381 77.0237V77.4749H119.888V77.0237C119.888 76.6991 119.626 76.4299 119.294 76.4299H119.302Z" fill="#060B47"/>
<path d="M119.231 72.6144C119.231 73.2478 118.716 73.7623 118.083 73.7623C117.449 73.7623 116.935 73.2478 116.935 72.6144C116.935 71.9811 117.449 71.4666 118.083 71.4666C118.716 71.4666 119.231 71.9811 119.231 72.6144Z" fill="#060B47"/>
<path d="M144.943 71.9016H147.255L147.714 76.4299H144.508L144.943 71.9016Z" fill="#CCCCCC"/>
<path d="M148.244 77.4829H144.049V76.9763C144.049 76.6833 144.286 76.4379 144.587 76.4379H147.714C148.007 76.4379 148.252 76.6754 148.252 76.9763V77.4829H148.244Z" fill="#E6E6E6"/>
<path d="M144.373 70.9753V72.2103H147.849V70.9753H147.397V71.4503H146.883V70.9753H146.368V71.4503H145.854V70.9753H145.331V71.4503H144.817V70.9753H144.373Z" fill="#E6E6E6"/>
<path d="M139.544 73.4138H140.613L141.238 76.43H138.903L139.544 73.4138Z" fill="#CCCCCC"/>
<path d="M141.769 77.4832H138.262V77.0319C138.262 76.7073 138.523 76.4382 138.856 76.4382H141.183C141.508 76.4382 141.777 76.6994 141.777 77.0319V77.4832H141.769Z" fill="#E6E6E6"/>
<path d="M138.927 72.6144C138.927 73.2478 139.441 73.7623 140.075 73.7623C140.708 73.7623 141.222 73.2478 141.222 72.6144C141.222 71.9811 140.708 71.4666 140.075 71.4666C139.441 71.4666 138.927 71.9811 138.927 72.6144Z" fill="#E6E6E6"/>
<path d="M132.103 73.4138H133.171L133.797 76.43H131.469L132.103 73.4138Z" fill="#CCCCCC"/>
<path d="M134.335 77.4832H130.828V77.0319C130.828 76.7073 131.089 76.4382 131.422 76.4382H133.749C134.074 76.4382 134.343 76.6994 134.343 77.0319V77.4832H134.335Z" fill="#E6E6E6"/>
<path d="M131.485 72.6144C131.485 73.2478 132 73.7623 132.633 73.7623C133.266 73.7623 133.781 73.2478 133.781 72.6144C133.781 71.9811 133.266 71.4666 132.633 71.4666C132 71.4666 131.485 71.9811 131.485 72.6144Z" fill="#E6E6E6"/>
<path d="M121.415 141.195C121.305 141.226 121.194 141.258 121.083 141.29C119.033 141.789 114.203 141.147 111.583 141.662L109.525 141.678C107.11 141.725 107.015 139.532 107.514 137.181C107.514 137.181 107.474 136.682 107.443 136.184C108.915 136.16 110.673 136.136 112.201 136.12L112.169 136.255C111.757 134.695 121.732 139.255 121.732 139.255C122.476 139.778 122.294 140.926 121.423 141.195H121.415Z" fill="#060B47"/>
<path d="M112.541 136.104L107.767 136.627C104.102 119.076 100.437 107.7 103.176 103.773L97.6263 95.6669C99.4313 94.1073 103.453 90.9249 106.627 90.5291L107.704 92.9594C109.105 96.031 109.96 99.3797 110.198 102.815L112.541 136.104Z" fill="#F4B2A0"/>
<path d="M60.3871 141.812H58.2734L66.847 98.7463L69.7682 99.3322L60.3871 141.812Z" fill="#FF9036"/>
<path d="M94.8634 141.812H96.9772L88.4036 98.7463L85.4824 99.3322L94.8634 141.812Z" fill="#FF9036"/>
<path d="M89.1319 102.372H66.1266C64.9628 102.372 64.0208 101.43 64.0208 100.267C64.0208 99.103 64.9628 98.1609 66.1266 98.1609H89.1319C90.2957 98.1609 91.2377 99.103 91.2377 100.267C91.2377 101.43 90.2957 102.372 89.1319 102.372Z" fill="#FFBB28"/>
<path d="M87.2003 25.1231C86.2265 24.9014 85.1499 25.1626 84.2949 25.693C83.3212 26.2947 82.585 27.213 81.9754 28.1709C80.8908 29.8571 80.115 31.7333 79.6875 33.6808C79.2125 35.8341 79.1888 38.1299 79.9963 40.1803C80.59 41.6844 81.6271 43.0777 81.6825 44.6847C81.7141 45.6268 81.3975 46.553 81.4133 47.4951C81.4371 48.8963 82.205 50.2105 83.2341 51.1921C84.2632 52.1738 85.5457 52.8625 86.8282 53.4958C85.7357 52.5537 84.5562 51.4296 84.5403 50.0046C84.5245 48.9042 85.2211 47.9226 85.4982 46.8459C85.7515 45.8406 85.617 44.756 85.1261 43.8456C84.6591 42.9669 83.8833 42.2702 83.4241 41.3915C82.5691 39.7448 82.9412 37.7736 83.3449 35.9687C83.5587 35.0029 83.8041 34.0054 84.4532 33.2454C85.0866 32.5092 86.0286 32.1054 86.8124 31.5354C88.6332 30.2055 90.6281 26.4134 87.604 25.2497C87.4694 25.1943 87.3349 25.1547 87.1924 25.1231H87.2003Z" fill="#C76F68"/>
<path d="M75.001 47.2419L76.3547 36.6179L81.4846 40.7266C80.8988 43.3628 81.6904 52.4905 81.6904 52.4905L74.993 47.2419H75.001Z" fill="#F7C6B9"/>
<path d="M86.7569 30.3321C86.9627 31.3692 87.1369 32.5567 87.1131 33.4829C87.0973 33.9658 87.2636 34.4329 87.5961 34.7733L89.2506 36.4516C89.4248 36.6257 89.4564 36.9107 89.3139 37.1166C89.1002 37.4174 88.7519 37.8132 88.3006 37.9399C88.3006 37.9399 88.1185 40.5919 86.7094 42.6344C86.2661 43.2756 85.5773 43.711 84.8174 43.8852C76.6554 45.7376 72.8793 42.1198 72.1984 33.9579C72.048 32.1687 72.5943 30.3955 73.7026 28.9863C75.4521 26.7697 78.9908 23.3973 83.1628 25.4714C85.0628 26.4134 86.3532 28.258 86.7569 30.34V30.3321Z" fill="#F7C6B9"/>
<path d="M83.6299 34.0135C83.6932 34.0135 83.7566 33.9819 83.7962 33.9265C84.5799 32.8261 85.6169 33.4594 85.6644 33.4911C85.7674 33.5544 85.894 33.5227 85.9574 33.4277C86.0207 33.3248 85.989 33.1981 85.894 33.1348C85.4032 32.8261 84.2711 32.5411 83.4478 33.689C83.3766 33.784 83.4003 33.9185 83.4953 33.9898C83.5349 34.0215 83.5824 34.0294 83.6299 34.0294V34.0135Z" fill="#060B47"/>
<path d="M86.9707 39.4126C86.9232 39.3651 86.8598 39.3413 86.7886 39.3492C85.4507 39.4996 85.2211 38.3042 85.2132 38.2567C85.1894 38.138 85.0786 38.0588 84.9678 38.0826C84.849 38.1063 84.7699 38.2092 84.7936 38.328C84.8886 38.898 85.4428 39.935 86.8361 39.7767C86.9548 39.7609 87.034 39.658 87.0261 39.5392C87.0261 39.4917 87.0023 39.4442 86.9707 39.4126Z" fill="#060B47"/>
<path d="M85.8148 35.3353C85.9019 35.6915 85.704 36.0478 85.3794 36.1269C85.0548 36.2061 84.7223 35.9765 84.6352 35.6203C84.5482 35.264 84.7461 34.9078 85.0706 34.8286C85.3952 34.7495 85.7277 34.979 85.8148 35.3353Z" fill="#060B47"/>
<path d="M69.3327 83.0404C69.3327 83.0404 83.9307 83.6183 86.8519 83.2145L86.559 82.1062C86.5194 81.5837 86.4798 80.9583 86.4561 80.2379C86.3532 76.7309 86.6857 71.1973 89.2585 67.4844C89.7494 66.772 90.2719 66.0991 90.6518 65.3312C92.5676 61.4758 87.3982 56.1163 85.2053 53.2585C84.1841 51.9206 81.4529 49.1261 81.4529 49.1261L75.0643 46.759C75.0643 46.759 72.5389 48.9044 70.7973 52.4114C69.4831 55.0634 70.3539 59.4175 71.4385 62.885C72.6655 66.772 72.0797 70.9123 71.2247 74.9022C70.821 76.7863 69.3327 83.0404 69.3327 83.0404Z" fill="#FFBB28"/>
<path d="M84.9045 27.4901C85.8307 27.1972 86.2503 26.0493 85.6407 25.2814C85.6407 25.2814 85.6328 25.2735 85.6249 25.2656C85.1024 24.6243 84.5403 24.0939 83.7566 23.8327C82.4741 23.4052 81.1362 23.1519 79.7825 23.1519C77.2334 23.1519 74.7001 24.7668 72.9823 26.5955C71.0902 28.6142 70.7656 30.9338 70.7656 33.57C70.7656 34.7654 70.8131 36.0083 71.019 37.172C71.2802 38.6128 71.6602 39.8636 71.6048 41.3519C71.5494 42.8323 71.391 44.0435 70.6548 45.326C69.9502 46.561 68.8657 47.5822 68.1848 48.7934C68.9132 48.3105 69.6257 47.7643 70.3856 47.2972C71.0506 46.8855 72.1589 46.0068 72.8952 45.8564C71.7552 46.9964 70.7419 48.6193 70.4331 50.2105C70.1481 51.6829 70.2036 53.195 70.1877 54.715C70.5123 51.8729 72.9348 50.5667 75.4126 49.8226C76.3626 49.5376 77.4788 49.6405 78.3576 49.1813C79.5767 48.5401 80.3288 47.7564 80.4158 46.2997C80.5504 44.0752 79.9646 42.2227 79.5292 40.1248C78.975 37.4491 79.2205 35.0741 80.1625 32.5329C80.7088 31.0604 81.3421 29.6117 82.4662 28.4797C82.7275 28.2105 83.8912 27.8068 84.9045 27.4822V27.4901Z" fill="#C76F68"/>
<path d="M82.1892 24.7036C82.7592 24.7274 83.4875 24.5136 84.1129 24.4819C84.96 24.4424 85.7754 24.5136 86.5908 24.7115C87.9603 25.044 89.3615 26.5007 88.8153 28.0127C88.2057 29.7227 86.0762 29.9918 84.7541 30.9022C83.5746 31.7097 82.1338 32.8734 81.8567 34.3538C81.7142 35.1138 81.6825 35.9371 81.833 36.705C82.0388 37.7896 82.6642 38.8108 82.7196 39.9112C81.9675 39.5154 81.7142 38.4862 81.0492 38.0825C80.8355 39.6816 81.2471 41.2254 80.8434 42.8245C80.5584 43.9249 80.0438 45.0411 79.458 46.0069C78.8326 47.044 78.3576 47.4715 77.2335 47.804C77.2176 47.3923 77.5501 46.7511 77.6214 46.2998C77.7955 45.1836 77.8193 44.0595 77.8193 42.9274C77.8193 40.6395 77.4235 38.3675 77.4235 36.0796C77.4235 35.003 77.3601 33.9105 77.4235 32.8418C77.5026 31.7018 77.8589 30.5381 78.1676 29.4456C78.5713 28.0285 79.4184 26.2315 80.7326 25.4161" fill="#C76F68"/>
<path d="M82.0783 72.614L82.1258 73.1286L83.7725 72.804C80.3446 73.4848 76.9168 75.9785 74.9931 77.6093C74.7001 77.0314 74.4864 76.3981 74.3914 75.7093L71.4148 56.0843C71.2406 54.9602 71.5256 53.8598 72.1352 52.989C72.7448 52.1102 73.6868 51.4611 74.8268 51.2394C77.2651 50.7644 79.5846 52.4506 79.8934 54.9127L82.0783 72.614Z" fill="#FFE5BD"/>
<path d="M103.12 66.7717C103.199 66.7084 103.271 66.6609 103.334 66.6134C105.036 65.4338 104.973 64.9351 104.767 64.7451C104.743 64.7213 104.704 64.6976 104.664 64.6738H104.656C104.601 64.6343 104.561 64.6263 104.561 64.6263C104.537 64.6263 104.522 64.6263 104.498 64.6263C103.88 64.5788 102.938 65.1409 101.965 65.9009C101.648 66.1621 101.315 66.4392 100.991 66.7242C100.136 67.4921 98.2121 69.5029 98.1408 69.5742C98.1092 69.6137 98.0696 69.6454 98.0379 69.685C98.03 69.6929 98.0221 69.7008 98.0221 69.7008L84.097 72.4953C80.6612 73.1762 77.2333 75.6778 75.3096 77.3007C76.7188 80.0477 80.0833 81.4014 83.1153 80.111C83.1153 80.111 98.6158 73.4849 98.6475 73.4849L98.9721 73.3266C99.0116 73.3266 99.0671 73.3266 99.1066 73.3266C99.2096 73.3266 99.3125 73.3266 99.4154 73.3187C99.8983 73.287 100.342 73.2316 100.753 73.1682C100.88 73.1445 101.015 73.1208 101.149 73.097C101.379 73.0416 101.624 72.9862 101.87 72.9228C102.067 72.8674 102.25 72.7962 102.424 72.7408C102.899 72.5666 103.271 72.3687 103.548 72.1945C103.714 72.0837 103.904 71.9966 104.094 71.9174C104.118 71.9174 104.142 71.8937 104.165 71.8937C104.617 71.7195 105.099 71.6799 105.582 71.767C105.662 71.7749 105.733 71.7987 105.804 71.8066C108.694 72.337 108.488 71.5929 108.488 71.5929C108.369 70.6825 105.353 70.4133 104.427 70.35C106.928 70.4608 109.208 70.9595 109.208 70.9595C109.319 70.9595 109.406 70.9437 109.485 70.9279H109.493C109.77 70.8408 109.818 70.635 109.802 70.4608C109.794 70.2946 109.731 70.1521 109.731 70.1521C109.675 69.4475 104.894 69.2654 104.173 69.2417C108.939 69.0833 109.636 69.5108 109.636 69.5108C109.952 69.5187 110.047 69.4 110.063 69.2575C110.063 69.21 110.063 69.1625 110.063 69.1229C110.055 69.0279 110.016 68.9408 110 68.9012C110 68.8775 109.984 68.8696 109.984 68.8696C109.074 67.9354 107.213 67.8088 105.772 67.88C105.701 67.88 105.63 67.8959 105.559 67.8959C104.688 67.9434 104.015 68.0542 103.88 68.0779C105.289 67.4525 106.976 67.4525 107.981 67.5475C108.036 67.5475 108.076 67.5475 108.124 67.5554C108.369 67.5554 108.599 67.5871 108.82 67.6425C108.852 67.6425 108.86 67.6425 108.86 67.6425C108.915 67.6584 108.979 67.6821 109.026 67.6742C109.778 67.8325 109.525 67.1438 109.469 67.025C109.461 67.0171 109.469 67.0013 109.469 67.0013C106.706 64.9113 103.437 66.6134 103.136 66.7717H103.12Z" fill="#F7C6B9"/>
<path d="M109.327 97.4402L84.2712 135.154L81.6983 133.239C85.6011 119.678 88.6569 108.365 96.7951 97.8202L94.2381 97.8677L101.482 85.8584L103.643 86.2463C109.24 86.4996 112.43 92.7774 109.319 97.4402H109.327Z" fill="#F7C6B9"/>
<path d="M88.8786 141.836L84.2791 141.804C83.4716 141.804 82.7749 141.298 82.4979 140.522C82.015 139.192 81.2075 138.02 80.1625 137.118C79.2758 136.358 79.26 134.941 80.115 134.086L82.0862 131.489C82.11 131.394 81.255 132.447 82.1654 131.196L85.1024 134.474L85.4349 137.078C85.5615 138.092 86.2186 138.931 87.1528 139.247L87.9998 139.54C88.8944 139.857 89.3061 140.91 88.8865 141.82L88.8786 141.836Z" fill="#060B47"/>
<path d="M101.482 85.8583L94.2381 97.8677L74.431 98.2476C69.4278 98.4851 65.7545 93.6165 67.3536 88.8745L69.3328 83.04L86.8441 83.2142L101.474 85.8583H101.482Z" fill="#FE6120"/>
<path d="M162.882 60.2647C163.12 60.9534 163.397 61.6343 163.698 62.2913L163.99 62.9326C164.022 62.9959 164.07 63.1067 164.133 63.2492C166.31 68.2208 167.577 73.5328 167.925 78.9477L168.455 87.26C168.455 87.26 181.43 92.2711 191.199 88.9462C190.899 84.5209 189.133 80.1431 186.956 75.8681C183.402 68.8937 180.963 61.4205 179.538 53.7257C178.921 50.377 178.24 47.3608 177.654 46.2762C176.055 43.2996 172.358 40.5368 171.258 40.0934C170.719 39.8797 170.086 39.5076 169.564 39.1672C169.017 38.8189 168.598 38.5181 168.598 38.5181C168.598 38.5181 164.742 41.3126 163.42 44.5346C163.143 45.1917 162.906 46.0942 162.668 47.1233C162.431 48.1762 162.217 49.3558 162.035 50.5195C161.94 51.1449 161.869 51.7624 161.829 52.3957C161.655 55.0636 162.019 57.7314 162.874 60.2647H162.882Z" fill="#0072E9"/>
<path d="M163.492 36.2456L165.186 41.7555C165.384 42.4125 166.08 42.7767 166.737 42.5709L170.316 41.4625C170.997 41.2488 171.361 40.5126 171.107 39.8476L168.954 34.0369L163.492 36.2377V36.2456Z" fill="#C76F68"/>
<path d="M153.612 28.5903C153.841 29.6353 154.158 30.8069 154.562 31.6619C154.768 32.1052 154.807 32.604 154.633 33.0552L153.778 35.2798C153.691 35.5173 153.778 35.7864 153.992 35.921C154.309 36.1189 154.799 36.3406 155.266 36.2772C155.266 36.2772 156.509 38.668 158.647 39.9901C159.32 40.4097 160.135 40.5284 160.911 40.3859C169.239 38.8026 171.282 33.9102 168.614 26.057C168.028 24.3391 166.801 22.9063 165.202 22.0513C162.676 20.7055 158.029 19.0034 154.989 22.6213C153.604 24.2679 153.161 26.5004 153.62 28.5982L153.612 28.5903Z" fill="#CE807A"/>
<path d="M158.006 30.7437C157.942 30.7674 157.871 30.7674 157.816 30.7279C156.644 30.0233 155.939 31.0287 155.908 31.0762C155.836 31.1791 155.702 31.2028 155.607 31.1316C155.504 31.0603 155.48 30.9337 155.551 30.8308C155.876 30.3399 156.818 29.6195 158.045 30.3558C158.148 30.4191 158.18 30.5537 158.116 30.6566C158.093 30.6962 158.053 30.7279 158.013 30.7437H158.006Z" fill="#060B47"/>
<path d="M157.087 37.1165C157.111 37.0532 157.158 37.0057 157.23 36.9819C158.536 36.5782 158.259 35.3828 158.251 35.3274C158.219 35.2086 158.291 35.0899 158.409 35.0661C158.528 35.0345 158.639 35.1057 158.671 35.2244C158.813 35.7944 158.718 36.974 157.356 37.3936C157.246 37.4252 157.119 37.3619 157.087 37.2511C157.071 37.2036 157.079 37.1561 157.087 37.1165Z" fill="#060B47"/>
<path d="M156.304 32.8021C156.391 33.1267 156.723 33.3167 157.048 33.2217C157.372 33.1346 157.562 32.8021 157.467 32.4775C157.38 32.1529 157.048 31.9629 156.723 32.0579C156.399 32.145 156.209 32.4775 156.304 32.8021Z" fill="#060B47"/>
<path d="M153.786 142.96C153.897 142.96 154.016 142.96 154.126 142.96C156.24 142.857 160.681 140.862 163.341 140.609L165.32 140.039C167.648 139.398 167.109 137.268 165.962 135.155C165.962 135.155 165.859 134.664 165.748 134.181C164.331 134.577 162.645 135.06 161.172 135.471L161.243 135.59C161.188 133.975 152.931 141.195 152.931 141.195C152.369 141.907 152.868 142.96 153.778 142.968L153.786 142.96Z" fill="#060B47"/>
<path d="M160.84 135.55L165.566 134.695C164.078 116.828 164.339 104.882 160.594 101.897L163.603 92.5399C161.433 91.5583 156.668 89.6504 153.509 90.1808L153.169 92.817C152.702 96.1657 152.836 99.6173 153.588 102.974L160.84 135.55Z" fill="#224491"/>
<path d="M199.076 141.812H201.19L192.617 98.7463L189.695 99.3322L199.076 141.812Z" fill="#FF9036"/>
<path d="M164.592 141.812H162.478L171.052 98.7463L173.973 99.3322L164.592 141.812Z" fill="#FF9036"/>
<path d="M170.332 102.372H193.337C194.501 102.372 195.443 101.43 195.443 100.267C195.443 99.103 194.501 98.1609 193.337 98.1609H170.332C169.168 98.1609 168.226 99.103 168.226 100.267C168.226 101.43 169.168 102.372 170.332 102.372Z" fill="#FFBB28"/>
<path d="M171.487 65.331L171.614 65.8376L169.944 66.0831C173.419 65.5764 177.504 66.7876 179.871 67.6901C179.958 67.0489 179.942 66.368 179.8 65.6872L176.039 46.1018C175.826 44.9777 175.192 44.0356 174.321 43.4102C173.451 42.7848 172.334 42.484 171.187 42.6502C168.724 43.0223 167.078 45.3893 167.616 47.8276L171.487 65.331Z" fill="#00A6F6"/>
<path d="M149.994 67.0332C149.899 67.0016 149.82 66.9778 149.741 66.9541C147.73 66.4078 147.627 65.917 147.754 65.6637C147.769 65.632 147.801 65.5924 147.825 65.5608H147.833C147.872 65.4974 147.912 65.4816 147.912 65.4816C147.928 65.4737 147.952 65.4658 147.967 65.4658C148.537 65.2125 149.614 65.4262 150.794 65.822C151.189 65.9645 151.593 66.1149 151.989 66.2733C153.058 66.7166 155.551 67.9674 155.646 68.0149C155.694 68.0387 155.741 68.0624 155.781 68.0861C155.797 68.0861 155.797 68.102 155.797 68.102L169.928 66.0754C173.411 65.5687 177.496 66.7878 179.863 67.6745C179.451 70.7461 176.72 73.1606 173.411 72.9548C173.411 72.9548 156.501 71.8782 156.478 71.894L156.113 71.8544C156.074 71.8623 156.026 71.8861 155.987 71.894C155.884 71.9256 155.789 71.9573 155.694 71.989C155.227 72.1236 154.784 72.2186 154.372 72.2898C154.245 72.3056 154.111 72.3294 153.968 72.3531C153.731 72.3848 153.485 72.4086 153.232 72.4323C153.026 72.4481 152.828 72.4402 152.646 72.4481C152.139 72.4481 151.72 72.3769 151.395 72.3056C151.197 72.2581 150.992 72.2344 150.786 72.2265C150.762 72.2265 150.738 72.2186 150.707 72.2265C150.216 72.2106 149.749 72.3373 149.321 72.5827C149.25 72.6223 149.187 72.6619 149.123 72.6936C146.558 74.166 146.511 73.3902 146.511 73.3902C146.313 72.4877 149.084 71.2211 149.939 70.8569C147.611 71.799 145.616 73.034 145.616 73.034C145.505 73.0656 145.426 73.0815 145.339 73.0973H145.331C145.038 73.1131 144.927 72.931 144.88 72.7569C144.832 72.5986 144.848 72.4402 144.848 72.4402C144.666 71.7594 149.131 69.9703 149.812 69.709C145.244 71.1578 144.73 71.7911 144.73 71.7911C144.437 71.9098 144.302 71.8227 144.239 71.6961C144.215 71.6486 144.207 71.609 144.199 71.5694C144.175 71.4823 144.183 71.3794 144.183 71.3398C144.183 71.3161 144.183 71.3002 144.183 71.3002C144.73 70.1128 146.455 69.3607 147.841 68.949C147.912 68.9253 147.983 68.9095 148.047 68.8857C148.894 68.6403 149.559 68.5216 149.693 68.4978C148.149 68.3791 146.558 68.949 145.632 69.3686C145.585 69.3845 145.545 69.4003 145.497 69.424C145.268 69.5111 145.054 69.614 144.872 69.7407C144.848 69.7565 144.832 69.7565 144.832 69.7565C144.785 69.7961 144.73 69.8278 144.682 69.8436C144.017 70.2474 144.033 69.5111 144.049 69.3765C144.049 69.3607 144.049 69.3528 144.049 69.3528C145.965 66.4474 149.638 66.9541 149.97 67.0174L149.994 67.0332Z" fill="#CE807A"/>
<path d="M155.821 86.2544L172.611 83.2144L190.131 83.0403L192.102 88.8747C193.709 93.6167 190.036 98.4933 185.032 98.2558L162.668 97.8283C170.806 108.381 173.854 119.686 177.765 133.247L175.192 135.163L150.136 97.4483C147.033 92.7776 150.216 86.5077 155.821 86.2544Z" fill="#38579C"/>
<path d="M170.577 141.836L175.176 141.804C175.984 141.804 176.681 141.298 176.958 140.522C177.441 139.192 178.248 138.02 179.293 137.118C180.18 136.358 180.195 134.941 179.34 134.086L177.369 131.489C177.346 131.394 178.2 132.447 177.29 131.196L174.353 134.474L174.021 137.078C173.894 138.092 173.237 138.931 172.303 139.247L171.456 139.54C170.561 139.857 170.149 140.91 170.569 141.82L170.577 141.836Z" fill="#060B47"/>
<path d="M171.313 30.7438C171.622 29.4693 172.509 23.4686 169.579 24.371C170.601 22.1465 167.909 17.5233 165.32 19.2807C165.55 17.2937 158.552 16.9216 159.256 18.8532C158.995 17.8874 154.126 19.1224 153.976 20.8244C151.902 19.8586 150.042 22.9223 149.669 24.3552C149.614 24.561 149.867 24.8064 149.82 24.9648C149.709 25.3289 149.179 25.4714 149.068 25.8593C148.941 26.3027 148.878 26.5085 148.973 27.0072C149.147 27.9176 149.986 28.7172 150.952 28.5668C151.633 29.3426 152.709 29.6038 153.153 28.1868C154.119 30.063 156.739 28.4718 157.499 27.2447C157.974 28.7251 158.481 29.8413 160.27 29.0893C159.462 29.6751 158.718 31.4246 159.628 32.2242C161.093 33.5067 161.402 31.1951 162.011 30.5855C164.505 28.0997 167.909 32.2321 164.165 33.2613C164.252 33.9817 164.133 35.3196 165.162 35.1375C164.552 36.515 163.761 37.7024 165.882 37.7104C167.537 37.7104 168.115 36.6812 169.302 36.1271C170.838 35.3987 172.485 35.9608 172.857 33.6254C173.031 32.5171 172.627 30.8467 171.329 30.7438H171.313Z" fill="#060B47"/>
<path d="M171.622 40.758C171.677 40.671 170.664 38.3435 170.664 38.3435C170.664 38.3435 164.64 39.4835 163.492 44.2017C163.492 44.2017 170.221 43.0855 171.622 40.758Z" fill="#00A6F6"/>
<path d="M94.5864 83.7683H91.2298L86.3453 144.496H88.839L94.5864 83.7683Z" fill="#060B47"/>
<path d="M164.402 83.7683H167.759L175.192 144.496H172.699L164.402 83.7683Z" fill="#060B47"/>
<path d="M169.571 80.6494H89.8048C88.5806 80.6494 87.5882 81.6418 87.5882 82.866V83.056C87.5882 84.2802 88.5806 85.2727 89.8048 85.2727H169.571C170.796 85.2727 171.788 84.2802 171.788 83.056V82.866C171.788 81.6418 170.796 80.6494 169.571 80.6494Z" fill="#FF9036"/>
<path d="M53.6976 55.6251L53.6581 56.1793L55.463 56.1238C51.7027 56.2426 47.6336 58.293 45.3061 59.6863C45.0924 59.0213 44.9816 58.3088 44.9974 57.5567L45.2745 36.2059C45.2903 34.9789 45.7811 33.8706 46.5728 33.0472C47.3724 32.2239 48.4886 31.7014 49.7394 31.6619C52.4073 31.5906 54.5843 33.7756 54.4735 36.4434L53.6897 55.6172L53.6976 55.6251Z" fill="#00A6F6"/>
<path d="M76.6634 53.3612C76.7584 53.3137 76.8375 53.2662 76.9167 53.2346C78.9354 52.2846 78.9433 51.7383 78.7692 51.5008C78.7454 51.4692 78.7058 51.4375 78.6742 51.4058H78.6662C78.6108 51.3504 78.5712 51.3425 78.5712 51.3425C78.5475 51.3425 78.5317 51.3267 78.5079 51.3346C77.8588 51.1763 76.7663 51.6038 75.5946 52.245C75.2067 52.4667 74.8109 52.7041 74.4151 52.9496C73.3701 53.6145 70.9793 55.4116 70.8922 55.4749C70.8447 55.5066 70.8052 55.5383 70.7577 55.5699C70.7418 55.5699 70.7418 55.5858 70.7418 55.5858L55.4709 56.1162C51.7026 56.2349 47.6256 58.2853 45.3061 59.6786C46.3194 62.8373 49.6523 64.8639 53.1039 64.0248C53.1039 64.0248 70.7181 59.7103 70.7497 59.7103L71.1218 59.5994C71.1693 59.5994 71.2168 59.6153 71.2643 59.6232C71.3751 59.6311 71.486 59.6548 71.5968 59.6628C72.1193 59.7182 72.6022 59.734 73.0455 59.734C73.1801 59.734 73.3305 59.734 73.4809 59.734C73.7343 59.7182 74.0034 59.6944 74.2726 59.6786C74.4942 59.6548 74.7001 59.6153 74.8901 59.5836C75.4205 59.4807 75.848 59.3382 76.1805 59.1957C76.3784 59.1086 76.5921 59.0453 76.8059 58.9978C76.8296 58.9978 76.8534 58.9819 76.885 58.9899C77.3917 58.879 77.9142 58.9265 78.405 59.1086C78.4921 59.1324 78.5554 59.164 78.6346 59.1878C81.6112 60.2565 81.5162 59.4253 81.5162 59.4253C81.5558 58.4357 78.3971 57.6203 77.4234 57.3986C80.0596 57.9528 82.3949 58.879 82.3949 58.879C82.5137 58.8949 82.6087 58.8949 82.6957 58.8869H82.7037C83.0124 58.8474 83.0995 58.6336 83.1074 58.4436C83.1232 58.2695 83.0836 58.1032 83.0836 58.1032C83.147 57.3511 78.1042 56.3141 77.3442 56.1637C82.4345 56.8286 83.0916 57.3986 83.0916 57.3986C83.4241 57.462 83.5507 57.3511 83.5903 57.2086C83.6061 57.1532 83.6061 57.1136 83.6141 57.0661C83.6141 56.9632 83.5982 56.8682 83.5824 56.8207C83.5824 56.797 83.5745 56.7811 83.5745 56.7811C82.7749 55.6333 80.8195 55.1662 79.2758 54.992C79.1966 54.9841 79.1175 54.9762 79.0462 54.9683C78.1121 54.8654 77.3838 54.8654 77.2334 54.8654C78.8404 54.4458 80.6216 54.7466 81.6824 55.0158C81.7378 55.0158 81.7774 55.0316 81.8328 55.0474C82.0941 55.0949 82.3316 55.1662 82.5532 55.2612C82.5849 55.2691 82.5928 55.277 82.5928 55.277C82.6562 55.3087 82.7116 55.3324 82.767 55.3403C83.5428 55.6412 83.3845 54.8654 83.3449 54.7308C83.3449 54.7149 83.3449 54.707 83.3449 54.707C80.7799 51.9996 77.0038 53.2346 76.6634 53.3612Z" fill="#CE807A"/>
<path d="M191.928 46.624L191.857 47.0832L190.392 46.7032C193.44 47.4948 196.393 49.9252 198.039 51.5006C198.332 51.0019 198.562 50.4319 198.681 49.8223L202.409 32.3189C202.623 31.3135 202.425 30.316 201.926 29.5006C201.42 28.6773 200.612 28.044 199.599 27.7748C197.43 27.2207 195.245 28.6061 194.841 30.8069L191.928 46.6319V46.624Z" fill="#FFE5BD"/>
<path d="M190.384 46.7034L177.995 43.4418C177.995 43.4418 177.995 43.4339 177.987 43.4259C177.955 43.3943 177.924 43.3547 177.9 43.323C176.499 41.4864 170.759 37.9794 167.854 40.3939C167.854 40.3939 167.854 40.4018 167.854 40.4098C167.798 40.5127 167.529 41.1222 168.218 41.0193C168.266 41.0193 168.321 41.0193 168.368 40.9956C168.368 40.9956 168.376 40.9956 168.408 40.9956C168.606 40.956 168.82 40.9402 169.033 40.956C169.081 40.956 169.113 40.956 169.16 40.956C170.07 40.9322 171.59 41.0193 172.825 41.6526C172.707 41.621 172.113 41.4943 171.321 41.3993C171.258 41.3993 171.195 41.3835 171.131 41.3756C169.841 41.2331 168.155 41.2489 167.284 42.0406C167.284 42.0406 167.276 42.0485 167.268 42.0722C167.252 42.1118 167.213 42.183 167.197 42.2701C167.197 42.3097 167.181 42.3414 167.189 42.3889C167.197 42.5155 167.276 42.6264 167.561 42.6343C167.561 42.6343 168.202 42.286 172.493 42.6897C171.844 42.6739 167.521 42.5868 167.442 43.2122C167.442 43.2122 167.379 43.3389 167.363 43.4814C167.339 43.6397 167.363 43.8297 167.616 43.9247H167.624C167.696 43.9484 167.775 43.9563 167.878 43.9722C167.878 43.9722 169.96 43.6476 172.216 43.6793C171.385 43.6793 168.653 43.7584 168.495 44.5738C168.495 44.5738 168.266 45.2309 170.902 44.9142C170.965 44.9142 171.028 44.8984 171.1 44.8905C171.535 44.8351 171.97 44.8905 172.366 45.0805C172.39 45.0805 172.414 45.0963 172.43 45.1042C172.604 45.1834 172.762 45.2705 172.905 45.3813C173.023 45.4684 173.158 45.5555 173.316 45.6505C173.079 45.7376 172.794 45.8246 172.43 45.9117C172.43 45.9117 170.775 46.7034 172.984 47.0517C172.984 47.0517 175.105 47.1229 176.491 46.6084C176.515 46.6084 176.538 46.6084 176.562 46.6163C176.657 46.6321 176.744 46.6321 176.839 46.64C176.879 46.64 176.918 46.64 176.958 46.648L177.243 46.8063L190.875 53.5986C193.535 54.9286 196.638 53.8836 198.055 51.4929C196.417 49.9254 193.456 47.495 190.4 46.6955L190.384 46.7034Z" fill="#F5B793"/>
<path d="M186.03 143.554C194.421 143.76 198.174 143.689 196.678 139.216C196.678 139.2 196.678 139.184 196.662 139.168C196.662 139.168 194.675 138.923 193.551 138.836L186.07 141.622C184.067 142.224 184.85 143.522 186.022 143.554H186.03Z" fill="#060B47"/>
<path d="M220.752 144.496C221.892 144.512 222.723 143.253 220.799 142.564L213.674 139.461L213.651 139.445C212.558 139.485 210.611 139.643 210.611 139.643C210.563 139.754 210.532 139.865 210.5 139.968C209.107 144.1 212.764 144.33 220.768 144.496H220.752Z" fill="#060B47"/>
<path d="M217.134 62.4572C208.861 65.1409 198.301 64.3809 193.147 63.7634C193.4 61.9584 193.677 60.1218 193.994 58.4673C194.722 54.5882 194.912 50.6299 194.548 46.7033C194.231 43.2913 194.144 37.9002 194.144 33.1978C194.144 30.5695 195.189 28.1708 196.884 26.4054C198.348 24.8934 200.28 23.8563 202.465 23.5238C202.829 23.4684 203.193 23.4288 203.573 23.4209L210.041 23.8642L215.115 24.2125C215.859 24.26 216.437 24.8934 216.406 25.6375C216.35 27.2842 216.224 30.2133 216.049 33.2215C215.883 36.2298 215.661 39.3093 215.4 41.2489C215.4 47.0279 216.129 55.8707 217.142 62.473L217.134 62.4572Z" fill="#FFBB28"/>
<path d="M210.199 24.8222C210.199 26.6905 208.394 28.2105 206.17 28.2105C203.945 28.2105 202.148 26.6905 202.148 24.8222C202.148 24.3631 202.251 23.9197 202.457 23.516C202.821 23.4606 203.185 23.421 203.565 23.4131L210.033 23.8564C210.144 24.1652 210.199 24.4897 210.199 24.8301V24.8222Z" fill="#F5B793"/>
<path d="M213.128 139.018L213.659 139.453H213.627C212.527 139.485 210.587 139.643 210.587 139.643C210.547 139.754 210.508 139.865 210.484 139.968L205.576 76.7863H203.771L196.496 139.216C196.496 139.216 196.496 139.184 196.48 139.176C196.48 139.176 194.54 138.939 193.456 138.844L193.63 138.701C193.63 138.701 191.777 118.823 191.128 99.8312C190.756 89.0648 191.255 80.325 192.047 73.5405C192.047 73.5405 192.466 68.7669 193.147 63.7716C198.301 64.389 208.861 65.1569 217.134 62.4653C217.3 63.5895 217.49 64.6582 217.672 65.624C218.385 69.3131 218.701 73.5405 218.701 73.5405C220.206 93.3555 214.276 139.398 213.128 139.026V139.018Z" fill="#F5B793"/>
<path d="M213.128 139.018L213.659 139.453H213.627C212.527 139.485 210.587 139.643 210.587 139.643C210.547 139.754 210.508 139.865 210.484 139.968L205.576 76.7863H203.771L196.496 139.216C196.496 139.216 196.496 139.184 196.48 139.176C196.48 139.176 194.54 138.939 193.456 138.844L193.63 138.701C193.63 138.701 191.777 118.823 191.128 99.8312C190.756 89.0648 191.255 80.325 192.047 73.5405C192.047 73.5405 192.466 68.7669 193.147 63.7716C198.301 64.389 208.861 65.1569 217.134 62.4653C217.3 63.5895 217.49 64.6582 217.672 65.624C218.385 69.3131 218.701 73.5405 218.701 73.5405C220.206 93.3555 214.276 139.398 213.128 139.026V139.018Z" fill="#060B47"/>
<path d="M228.423 48.5479L218.551 64.1197C218.313 64.4918 218.179 64.9272 218.171 65.3784L218.123 68.3075C218.123 68.3075 214.054 69.115 213.69 65.1251C213.651 64.658 213.856 64.1989 214.228 63.9218L215.748 62.7977C215.907 62.6868 216.033 62.5285 216.113 62.3464L222.913 46.743L223.079 46.3709L216.556 38.5732C214.719 36.3803 213.88 33.5145 214.26 30.6804L215.115 24.1968C219.192 24.933 224.282 35.2007 228.629 43.3389C228.906 43.8535 229.088 44.4076 229.175 44.9776C229.365 46.2047 229.112 47.4713 228.431 48.5479H228.423Z" fill="#F5B793"/>
<path d="M222.905 46.743L223.071 46.3709L216.548 38.5732C214.711 36.3803 213.872 33.5145 214.252 30.6804L215.107 24.1968C219.184 24.933 224.275 35.2007 228.621 43.3389C228.898 43.8535 229.08 44.4076 229.167 44.9776L222.905 46.743Z" fill="#FFE5BD"/>
<path d="M209.835 18.5047V18.6235L209.305 22.3601L209.186 23.2546L208.996 24.64C208.877 25.5188 208.26 26.255 207.42 26.5242L206.075 26.9596C204.539 27.4583 203.043 26.1046 203.383 24.5292L203.613 23.4446L203.81 22.5422L204.317 20.2464L206.557 19.5418L209.843 18.4968L209.835 18.5047Z" fill="#F5B793"/>
<path d="M210.08 17.3333L209.827 18.6316L209.312 22.3681C208.331 22.6056 207.222 22.7323 206.075 22.7323C205.291 22.7323 204.531 22.6769 203.81 22.5581L204.317 20.2624L206.557 19.5578L210.08 17.3333Z" fill="#EAA173"/>
<path d="M214.799 14.6574C215.376 13.3512 215.361 11.4671 214.236 11.1504C213.904 11.0554 213.492 11.1029 213.065 11.2533C212.97 7.19216 210.927 2.28392 208.125 1.48436C204.46 0.439378 200.873 1.64269 198.419 11.19C197.453 14.9662 199.258 19.5023 202.797 20.856C205.457 21.8773 209.241 19.5419 211.363 16.7157C212.645 16.6049 214.062 16.3199 214.799 14.6574Z" fill="#F5B793"/>
<path d="M206.431 12.7337C206.375 13.1533 206.019 13.4462 205.639 13.3987C205.259 13.3433 204.998 12.9633 205.053 12.5516C205.109 12.132 205.465 11.8391 205.845 11.8866C206.225 11.9421 206.486 12.322 206.431 12.7337Z" fill="#060B47"/>
<path d="M201.713 11.9974C201.657 12.417 201.301 12.7099 200.921 12.6624C200.541 12.6069 200.28 12.227 200.335 11.8153C200.391 11.3957 200.747 11.1028 201.127 11.1503C201.507 11.1978 201.768 11.5857 201.713 11.9974Z" fill="#060B47"/>
<path d="M207.832 11.768C207.745 11.7442 207.674 11.673 207.658 11.578C207.405 10.0976 206.067 10.2401 206.011 10.248C205.885 10.2638 205.766 10.1688 205.75 10.0422C205.734 9.91552 205.829 9.79677 205.956 9.78094C206.589 9.70177 207.856 9.97093 208.125 11.5067C208.149 11.6334 208.062 11.7601 207.935 11.7838C207.903 11.7838 207.864 11.7838 207.832 11.7838V11.768Z" fill="#060B47"/>
<path d="M203.304 16.9056C203.351 16.8264 203.438 16.7868 203.533 16.7947C205.022 16.9927 205.291 15.6785 205.299 15.6231C205.322 15.4964 205.449 15.4094 205.576 15.4331C205.702 15.4569 205.79 15.5835 205.766 15.7102C205.647 16.3356 205.014 17.4676 203.47 17.2618C203.343 17.246 203.248 17.1272 203.264 16.9927C203.264 16.961 203.28 16.9293 203.296 16.8977L203.304 16.9056Z" fill="#060B47"/>
<path d="M202.124 9.53541C202.061 9.58291 201.982 9.59083 201.91 9.54333C200.81 8.91793 200.193 9.85999 200.169 9.90749C200.113 10.0025 199.987 10.0262 199.892 9.97082C199.797 9.91541 199.773 9.78874 199.828 9.69374C200.113 9.2425 200.961 8.55377 202.1 9.20292C202.195 9.25833 202.227 9.37708 202.172 9.47208C202.156 9.49583 202.14 9.51958 202.116 9.53541H202.124Z" fill="#060B47"/>
<path d="M201.412 15.4808C201.269 15.4174 201.151 15.3145 201.071 15.1879C200.81 14.7683 200.968 14.1666 201.507 13.5729L203.05 11.4909C203.114 11.4117 203.217 11.3879 203.304 11.4513C203.383 11.5146 203.399 11.6254 203.343 11.7046L201.784 13.8025C201.277 14.3646 201.246 14.7841 201.38 14.99C201.515 15.2037 201.847 15.267 202.219 15.1562C202.314 15.1245 202.425 15.18 202.457 15.275C202.488 15.37 202.449 15.4649 202.354 15.4966C201.99 15.6074 201.665 15.5995 201.42 15.4808H201.412Z" fill="#060B47"/>
<path d="M212.376 2.26028C211.212 0.90656 209.455 0.22574 207.666 0.0515774C205.394 -0.162168 202.995 0.273239 201.166 1.64279C199.749 2.70361 198.76 4.27107 198.142 5.93354C197.501 7.65142 197.715 9.97887 198.308 11.7126C198.308 11.7126 199.211 8.70432 199.132 8.75182C201.602 8.43516 203.351 6.73311 205.283 5.15772C205.259 6.1077 205.18 7.05768 205.037 7.99975C206.455 7.71475 207.848 7.27935 209.17 6.70144C209.922 9.82054 210.278 13.0346 210.215 16.2487C211.885 14.3171 213.263 12.0609 213.801 9.56722C214.268 7.42976 214.054 5.07856 212.978 3.14693C212.796 2.83027 212.59 2.53736 212.36 2.2682L212.376 2.26028Z" fill="#060B47"/>
</svg>
