<svg width="222" height="219" viewBox="0 0 222 219" fill="none" xmlns="http://www.w3.org/2000/svg">
<path d="M114.737 101.179H109.07V218.397H114.737V101.179Z" fill="#FF720C"/>
<path d="M111.904 105.807C104.234 105.807 98 99.5733 98 91.9037C98 84.234 104.234 78 111.904 78C119.573 78 125.807 84.234 125.807 91.9037C125.807 99.5733 119.573 105.807 111.904 105.807ZM111.904 83.6672C107.37 83.6672 103.667 87.3699 103.667 91.9037C103.667 96.4375 107.37 100.14 111.904 100.14C116.437 100.14 120.14 96.4375 120.14 91.9037C120.14 87.3699 116.437 83.6672 111.904 83.6672Z" fill="#FF720C"/>
<rect width="222" height="78" rx="12" fill="#FFC9A2"/>
<path d="M59.84 53.64C57.0667 53.64 54.5333 52.9867 52.24 51.68C49.9467 50.3467 48.1333 48.5467 46.8 46.28C45.4933 43.9867 44.84 41.4533 44.84 38.68C44.84 35.9067 45.4933 33.3867 46.8 31.12C48.1333 28.8267 49.9467 27.0267 52.24 25.72C54.5333 24.3867 57.0667 23.72 59.84 23.72C64.16 23.72 67.7333 25.28 70.56 28.4L66.76 32.08C64.92 29.92 62.6267 28.84 59.88 28.84C58.0933 28.84 56.4667 29.2533 55 30.08C53.5333 30.88 52.3733 32.0267 51.52 33.52C50.6933 35.0133 50.28 36.7333 50.28 38.68C50.28 40.6267 50.6933 42.3467 51.52 43.84C52.3733 45.3333 53.5333 46.4933 55 47.32C56.4667 48.12 58.0933 48.52 59.88 48.52C62.8933 48.52 65.4133 47.2667 67.44 44.76L71.28 48.4C69.8667 50.1067 68.1867 51.4133 66.24 52.32C64.32 53.2 62.1867 53.64 59.84 53.64ZM81.0188 53.64C78.8588 53.64 77.0854 53.0133 75.6988 51.76C74.3121 50.48 73.6188 48.8133 73.6188 46.76C73.6188 45.4 73.9788 44.2 74.6988 43.16C75.4188 42.12 76.4054 41.32 77.6588 40.76C78.9121 40.2 80.2988 39.92 81.8188 39.92C83.9254 39.92 85.7254 40.2267 87.2188 40.84V39.96C87.2188 38.84 86.7921 37.9333 85.9388 37.24C85.1121 36.5467 83.9921 36.2 82.5788 36.2C81.6188 36.2 80.6854 36.4267 79.7788 36.88C78.8988 37.3067 78.1654 37.88 77.5788 38.6L74.2188 35.96C75.2054 34.68 76.4454 33.6933 77.9388 33C79.4321 32.3067 81.0588 31.96 82.8188 31.96C85.9388 31.96 88.3121 32.68 89.9388 34.12C91.5654 35.56 92.3788 37.6667 92.3788 40.44V53H87.2188V50.92H86.8988C86.2854 51.72 85.4721 52.3733 84.4588 52.88C83.4721 53.3867 82.3254 53.64 81.0188 53.64ZM82.2588 49.56C83.7788 49.56 84.9788 49.08 85.8588 48.12C86.7654 47.1333 87.2188 45.9867 87.2188 44.68C85.8588 44.04 84.4321 43.72 82.9388 43.72C80.2188 43.72 78.8588 44.7333 78.8588 46.76C78.8588 47.5867 79.1521 48.2667 79.7388 48.8C80.3254 49.3067 81.1654 49.56 82.2588 49.56ZM97.2006 24.36H102.441V53H97.2006V24.36ZM110.551 30.36C109.618 30.36 108.818 30.0267 108.151 29.36C107.485 28.6933 107.151 27.8933 107.151 26.96C107.151 26.0267 107.485 25.24 108.151 24.6C108.818 23.9333 109.618 23.6 110.551 23.6C111.485 23.6 112.271 23.9333 112.911 24.6C113.578 25.24 113.911 26.0267 113.911 26.96C113.911 27.8933 113.578 28.6933 112.911 29.36C112.271 30.0267 111.485 30.36 110.551 30.36ZM107.911 32.6H113.151V53H107.911V32.6ZM128.051 53.64C125.997 53.64 124.157 53.1867 122.531 52.28C120.904 51.3467 119.624 50.0533 118.691 48.4C117.784 46.7467 117.331 44.88 117.331 42.8C117.331 40.72 117.784 38.8667 118.691 37.24C119.624 35.5867 120.904 34.2933 122.531 33.36C124.157 32.4267 125.997 31.96 128.051 31.96C130.317 31.96 132.264 32.4533 133.891 33.44C135.517 34.4 136.691 35.7733 137.411 37.56L132.611 39.56C131.757 37.7467 130.237 36.84 128.051 36.84C126.451 36.84 125.131 37.3867 124.091 38.48C123.077 39.5733 122.571 41.0133 122.571 42.8C122.571 44.6133 123.077 46.0667 124.091 47.16C125.131 48.2533 126.451 48.8 128.051 48.8C130.264 48.8 131.864 47.84 132.851 45.92L137.611 48C136.731 49.7867 135.477 51.1733 133.851 52.16C132.224 53.1467 130.291 53.64 128.051 53.64ZM148.74 53.64C146.287 53.64 144.42 52.88 143.14 51.36C141.86 49.84 141.22 47.72 141.22 45V32.6H146.46V44.36C146.46 45.7467 146.794 46.84 147.46 47.64C148.127 48.4133 149.007 48.8 150.1 48.8C151.594 48.8 152.78 48.2533 153.66 47.16C154.54 46.0667 154.98 44.68 154.98 43V32.6H160.22V53H155.3V50.44H154.98C154.367 51.4267 153.5 52.2133 152.38 52.8C151.287 53.36 150.074 53.64 148.74 53.64ZM174.401 53.32C173.388 53.32 172.454 53.1733 171.601 52.88C170.748 52.56 170.054 52.1333 169.521 51.6C168.268 50.4 167.641 48.6933 167.641 46.48V37.08H164.081V32.6H167.641V26.84H172.881V32.6H177.881V37.08H172.881V45.52C172.881 46.56 173.108 47.3067 173.561 47.76C173.934 48.1867 174.574 48.4 175.481 48.4C175.988 48.4 176.401 48.3333 176.721 48.2C177.068 48.0667 177.508 47.84 178.041 47.52V52.64C176.894 53.0933 175.681 53.32 174.401 53.32Z" fill="#FF6B00"/>
</svg>
