<svg xmlns="http://www.w3.org/2000/svg" width="10" height="25" fill="none" viewBox="0 0 10 25"><path fill="#000" d="M0.269059 14.9299C0.448431 14.6216 0.665174 14.4736 0.919284 14.486C1.17339 14.4983 1.39013 14.6591 1.56951 14.9684L4.10314 19.323L4.10314 2.13594C4.10314 1.6992 4.18924 1.33285 4.36144 1.0369C4.53363 0.74094 4.74649 0.593475 5 0.594503C5.25411 0.594503 5.46727 0.742481 5.63946 1.03844C5.81166 1.33439 5.89746 1.70023 5.89686 2.13594L5.89686 19.323L8.45292 14.9299C8.63229 14.6216 8.84544 14.4675 9.09238 14.4675C9.33931 14.4675 9.55217 14.6216 9.73094 14.9299C9.91031 15.2382 10 15.6045 10 16.0289C10 16.4533 9.91031 16.8192 9.73094 17.1264L5.6278 24.1785C5.53812 24.3327 5.44096 24.4421 5.33632 24.5069C5.23169 24.5716 5.11958 24.6035 5 24.6024C4.88042 24.6024 4.76831 24.5701 4.66368 24.5053C4.55904 24.4406 4.46188 24.3316 4.3722 24.1785L0.246638 17.0879C0.0822134 16.8053 0 16.4523 0 16.0289C0 15.6056 0.0896873 15.2392 0.269059 14.9299Z"/></svg>