<svg width="91" height="91" viewBox="0 0 91 91" fill="none" xmlns="http://www.w3.org/2000/svg">
<path d="M27.3402 0.0979629C27.3402 0.0979629 27.3565 0.0979625 27.3565 0.0816353C27.3565 0.065308 27.3565 0.0653076 27.3402 0.0653076C27.3239 0.0653076 27.3238 0.065308 27.3238 0.0816353C27.3238 0.0979625 27.3239 0.0979629 27.3402 0.0979629Z" fill="#FFB700"/>
<path d="M31.879 0.114289C31.879 0.114289 31.9035 0.106126 31.9035 0.0897991C31.9035 0.0734718 31.8953 0.0653076 31.879 0.0653076C31.8627 0.0653076 31.8545 0.0734718 31.8545 0.0897991C31.8545 0.106126 31.8627 0.114289 31.879 0.114289Z" fill="#FFB700"/>
<path d="M36.4178 0.155154C36.4539 0.155154 36.4831 0.125914 36.4831 0.0898451C36.4831 0.0537759 36.4539 0.0245361 36.4178 0.0245361C36.3817 0.0245361 36.3525 0.0537759 36.3525 0.0898451C36.3525 0.125914 36.3817 0.155154 36.4178 0.155154Z" fill="#FFB700"/>
<path d="M40.957 0.163303C40.9978 0.163303 41.0305 0.130648 41.0305 0.0898302C41.0305 0.0490121 40.9978 0.0163574 40.957 0.0163574C40.9162 0.0163574 40.8835 0.0490121 40.8835 0.0898302C40.8835 0.130648 40.9162 0.163303 40.957 0.163303Z" fill="#FFB700"/>
<path d="M45.504 0.179599C45.553 0.179599 45.5938 0.138782 45.5938 0.0898004C45.5938 0.0408187 45.553 0 45.504 0C45.455 0 45.4142 0.0408187 45.4142 0.0898004C45.4142 0.138782 45.455 0.179599 45.504 0.179599Z" fill="#FFB700"/>
<path d="M50.043 0.163303C50.0838 0.163303 50.1165 0.130648 50.1165 0.0898302C50.1165 0.0490121 50.0838 0.0163574 50.043 0.0163574C50.0022 0.0163574 49.9696 0.0490121 49.9696 0.0898302C49.9696 0.130648 50.0022 0.163303 50.043 0.163303Z" fill="#FFB700"/>
<path d="M54.5819 0.155154C54.5819 0.155154 54.6472 0.130663 54.6472 0.0898451C54.6472 0.049027 54.6227 0.0245361 54.5819 0.0245361C54.5411 0.0245361 54.5166 0.049027 54.5166 0.0898451C54.5166 0.130663 54.5411 0.155154 54.5819 0.155154Z" fill="#FFB700"/>
<path d="M59.1211 0.130587C59.1211 0.130587 59.1619 0.11426 59.1619 0.0897693C59.1619 0.0652784 59.1456 0.0489502 59.1211 0.0489502C59.0966 0.0489502 59.0803 0.0652784 59.0803 0.0897693C59.0803 0.11426 59.0966 0.130587 59.1211 0.130587Z" fill="#FFB700"/>
<path d="M63.6683 0.106142C63.6774 0.106142 63.6847 0.0988313 63.6847 0.089814C63.6847 0.0807967 63.6774 0.0734863 63.6683 0.0734863C63.6593 0.0734863 63.652 0.0807967 63.652 0.089814C63.652 0.0988313 63.6593 0.106142 63.6683 0.106142Z" fill="#FFB700"/>
<path d="M22.7927 4.67774C22.8198 4.67774 22.8417 4.65581 22.8417 4.62876C22.8417 4.6017 22.8198 4.57977 22.7927 4.57977C22.7657 4.57977 22.7438 4.6017 22.7438 4.62876C22.7438 4.65581 22.7657 4.67774 22.7927 4.67774Z" fill="#FFB700"/>
<path d="M27.3401 4.74311C27.4054 4.74311 27.4544 4.69413 27.4544 4.62882C27.4544 4.56351 27.4054 4.51453 27.3401 4.51453C27.2748 4.51453 27.2258 4.56351 27.2258 4.62882C27.2258 4.69413 27.2748 4.74311 27.3401 4.74311Z" fill="#FFB700"/>
<path d="M31.8791 4.792C31.9689 4.792 32.0423 4.71853 32.0423 4.62873C32.0423 4.53893 31.9689 4.46545 31.8791 4.46545C31.7893 4.46545 31.7158 4.53893 31.7158 4.62873C31.7158 4.71853 31.7893 4.792 31.8791 4.792Z" fill="#FFB700"/>
<path d="M36.4179 4.83286C36.5306 4.83286 36.6219 4.74149 36.6219 4.62877C36.6219 4.51606 36.5306 4.42468 36.4179 4.42468C36.3051 4.42468 36.2138 4.51606 36.2138 4.62877C36.2138 4.74149 36.3051 4.83286 36.4179 4.83286Z" fill="#FFB700"/>
<path d="M40.9571 4.85737C41.0795 4.85737 41.1856 4.75941 41.1856 4.62879C41.1856 4.49817 41.0877 4.40021 40.9571 4.40021C40.8264 4.40021 40.7285 4.49817 40.7285 4.62879C40.7285 4.75941 40.8264 4.85737 40.9571 4.85737Z" fill="#FFB700"/>
<path d="M45.5042 4.86552C45.6349 4.86552 45.741 4.75939 45.741 4.62877C45.741 4.49816 45.6349 4.39203 45.5042 4.39203C45.3736 4.39203 45.2675 4.49816 45.2675 4.62877C45.2675 4.75939 45.3736 4.86552 45.5042 4.86552Z" fill="#FFB700"/>
<path d="M50.0431 4.85737C50.1655 4.85737 50.2717 4.75941 50.2717 4.62879C50.2717 4.49817 50.1737 4.40021 50.0431 4.40021C49.9125 4.40021 49.8145 4.49817 49.8145 4.62879C49.8145 4.75941 49.9125 4.85737 50.0431 4.85737Z" fill="#FFB700"/>
<path d="M54.5819 4.83286C54.6946 4.83286 54.786 4.74149 54.786 4.62877C54.786 4.51606 54.6946 4.42468 54.5819 4.42468C54.4692 4.42468 54.3778 4.51606 54.3778 4.62877C54.3778 4.74149 54.4692 4.83286 54.5819 4.83286Z" fill="#FFB700"/>
<path d="M59.1212 4.792C59.211 4.792 59.2845 4.71853 59.2845 4.62873C59.2845 4.53893 59.211 4.46545 59.1212 4.46545C59.0314 4.46545 58.9579 4.53893 58.9579 4.62873C58.9579 4.71853 59.0314 4.792 59.1212 4.792Z" fill="#FFB700"/>
<path d="M63.6683 4.74311C63.7336 4.74311 63.7825 4.69413 63.7825 4.62882C63.7825 4.56351 63.7336 4.51453 63.6683 4.51453C63.6029 4.51453 63.5539 4.56351 63.5539 4.62882C63.5539 4.69413 63.6029 4.74311 63.6683 4.74311Z" fill="#FFB700"/>
<path d="M68.2073 4.67774C68.2344 4.67774 68.2563 4.65581 68.2563 4.62876C68.2563 4.6017 68.2344 4.57977 68.2073 4.57977C68.1803 4.57977 68.1583 4.6017 68.1583 4.62876C68.1583 4.65581 68.1803 4.67774 68.2073 4.67774Z" fill="#FFB700"/>
<path d="M72.746 4.64514C72.746 4.64514 72.7623 4.64514 72.7623 4.62882C72.7623 4.61249 72.7623 4.61249 72.746 4.61249C72.7297 4.61249 72.7297 4.61249 72.7297 4.62882C72.7297 4.64514 72.7297 4.64514 72.746 4.64514Z" fill="#FFB700"/>
<path d="M13.7147 9.18408C13.7147 9.18408 13.7311 9.18408 13.7311 9.16776C13.7311 9.15143 13.7311 9.15143 13.7147 9.15143C13.6984 9.15143 13.6984 9.15143 13.6984 9.16776C13.6984 9.18408 13.6984 9.18408 13.7147 9.18408Z" fill="#FFB700"/>
<path d="M18.2539 9.25754C18.3029 9.25754 18.3437 9.21672 18.3437 9.16774C18.3437 9.11876 18.3029 9.07794 18.2539 9.07794C18.2049 9.07794 18.1641 9.11876 18.1641 9.16774C18.1641 9.21672 18.2049 9.25754 18.2539 9.25754Z" fill="#FFB700"/>
<path d="M22.793 9.34736C22.891 9.34736 22.9726 9.26572 22.9726 9.16776C22.9726 9.0698 22.891 8.98816 22.793 8.98816C22.6951 8.98816 22.6134 9.0698 22.6134 9.16776C22.6134 9.26572 22.6951 9.34736 22.793 9.34736Z" fill="#FFB700"/>
<path d="M27.3401 9.42082C27.4799 9.42082 27.5932 9.30751 27.5932 9.16775C27.5932 9.02798 27.4799 8.91467 27.3401 8.91467C27.2004 8.91467 27.0871 9.02798 27.0871 9.16775C27.0871 9.30751 27.2004 9.42082 27.3401 9.42082Z" fill="#FFB700"/>
<path d="M31.8791 9.48619C32.0506 9.48619 32.1975 9.34741 32.1975 9.16781C32.1975 8.98821 32.0587 8.84943 31.8791 8.84943C31.6995 8.84943 31.5607 8.98821 31.5607 9.16781C31.5607 9.34741 31.6995 9.48619 31.8791 9.48619Z" fill="#FFB700"/>
<path d="M36.4181 9.51878C36.612 9.51878 36.7691 9.36162 36.7691 9.16775C36.7691 8.97388 36.612 8.81671 36.4181 8.81671C36.2242 8.81671 36.0671 8.97388 36.0671 9.16775C36.0671 9.36162 36.2242 9.51878 36.4181 9.51878Z" fill="#FFB700"/>
<path d="M40.9569 9.55959C41.1692 9.55959 41.3488 9.38815 41.3488 9.16773C41.3488 8.94731 41.1773 8.77588 40.9569 8.77588C40.7365 8.77588 40.565 8.94731 40.565 9.16773C40.565 9.38815 40.7365 9.55959 40.9569 9.55959Z" fill="#FFB700"/>
<path d="M45.5041 9.5678C45.725 9.5678 45.9041 9.3887 45.9041 9.16778C45.9041 8.94686 45.725 8.76776 45.5041 8.76776C45.2832 8.76776 45.1041 8.94686 45.1041 9.16778C45.1041 9.3887 45.2832 9.5678 45.5041 9.5678Z" fill="#FFB700"/>
<path d="M50.0429 9.55959C50.2552 9.55959 50.4348 9.38815 50.4348 9.16773C50.4348 8.94731 50.2633 8.77588 50.0429 8.77588C49.8225 8.77588 49.6511 8.94731 49.6511 9.16773C49.6511 9.38815 49.8225 9.55959 50.0429 9.55959Z" fill="#FFB700"/>
<path d="M54.5822 9.53514C54.7851 9.53514 54.9495 9.37067 54.9495 9.16778C54.9495 8.96489 54.7851 8.80042 54.5822 8.80042C54.3793 8.80042 54.2148 8.96489 54.2148 9.16778C54.2148 9.37067 54.3793 9.53514 54.5822 9.53514Z" fill="#FFB700"/>
<path d="M59.1208 9.48619C59.2923 9.48619 59.4392 9.34741 59.4392 9.16781C59.4392 8.98821 59.3004 8.84943 59.1208 8.84943C58.9412 8.84943 58.8025 8.98821 58.8025 9.16781C58.8025 9.34741 58.9412 9.48619 59.1208 9.48619Z" fill="#FFB700"/>
<path d="M63.6683 9.42082C63.8081 9.42082 63.9214 9.30751 63.9214 9.16775C63.9214 9.02798 63.8081 8.91467 63.6683 8.91467C63.5285 8.91467 63.4152 9.02798 63.4152 9.16775C63.4152 9.30751 63.5285 9.42082 63.6683 9.42082Z" fill="#FFB700"/>
<path d="M68.2072 9.34736C68.3052 9.34736 68.3868 9.26572 68.3868 9.16776C68.3868 9.0698 68.3052 8.98816 68.2072 8.98816C68.1092 8.98816 68.0276 9.0698 68.0276 9.16776C68.0276 9.26572 68.1092 9.34736 68.2072 9.34736Z" fill="#FFB700"/>
<path d="M72.7461 9.25754C72.7951 9.25754 72.8359 9.21672 72.8359 9.16774C72.8359 9.11876 72.7951 9.07794 72.7461 9.07794C72.6971 9.07794 72.6563 9.11876 72.6563 9.16774C72.6563 9.21672 72.6971 9.25754 72.7461 9.25754Z" fill="#FFB700"/>
<path d="M77.285 9.18408C77.285 9.18408 77.3013 9.18408 77.3013 9.16776C77.3013 9.15143 77.3013 9.15143 77.285 9.15143C77.2687 9.15143 77.2687 9.15143 77.2687 9.16776C77.2687 9.18408 77.2687 9.18408 77.285 9.18408Z" fill="#FFB700"/>
<path d="M9.17611 13.7313C9.18513 13.7313 9.19243 13.724 9.19243 13.7149C9.19243 13.7059 9.18513 13.6986 9.17611 13.6986C9.16709 13.6986 9.15977 13.7059 9.15977 13.7149C9.15977 13.724 9.16709 13.7313 9.17611 13.7313Z" fill="#FFB700"/>
<path d="M13.715 13.8129C13.7691 13.8129 13.813 13.769 13.813 13.7149C13.813 13.6608 13.7691 13.6169 13.715 13.6169C13.6609 13.6169 13.6171 13.6608 13.6171 13.7149C13.6171 13.769 13.6609 13.8129 13.715 13.8129Z" fill="#FFB700"/>
<path d="M18.2538 13.919C18.3665 13.919 18.4579 13.8276 18.4579 13.7149C18.4579 13.6022 18.3665 13.5108 18.2538 13.5108C18.141 13.5108 18.0497 13.6022 18.0497 13.7149C18.0497 13.8276 18.141 13.919 18.2538 13.919Z" fill="#FFB700"/>
<path d="M22.7927 14.017C22.9595 14.017 23.0947 13.8817 23.0947 13.7149C23.0947 13.5481 22.9595 13.4128 22.7927 13.4128C22.6259 13.4128 22.4906 13.5481 22.4906 13.7149C22.4906 13.8817 22.6259 14.017 22.7927 14.017Z" fill="#FFB700"/>
<path d="M27.3398 14.0986C27.5521 14.0986 27.7317 13.9272 27.7317 13.7067C27.7317 13.4863 27.5602 13.3149 27.3398 13.3149C27.1194 13.3149 26.948 13.4863 26.948 13.7067C26.948 13.9272 27.1194 14.0986 27.3398 14.0986Z" fill="#FFB700"/>
<path d="M31.8792 14.1721C32.1317 14.1721 32.3363 13.9674 32.3363 13.7149C32.3363 13.4624 32.1317 13.2578 31.8792 13.2578C31.6267 13.2578 31.422 13.4624 31.422 13.7149C31.422 13.9674 31.6267 14.1721 31.8792 14.1721Z" fill="#FFB700"/>
<path d="M36.4181 14.221C36.6977 14.221 36.9243 13.9944 36.9243 13.7149C36.9243 13.4354 36.6977 13.2087 36.4181 13.2087C36.1386 13.2087 35.912 13.4354 35.912 13.7149C35.912 13.9944 36.1386 14.221 36.4181 14.221Z" fill="#FFB700"/>
<path d="M40.9567 14.2537C41.2588 14.2537 41.4956 14.0088 41.4956 13.7149C41.4956 13.421 41.2506 13.1761 40.9567 13.1761C40.6629 13.1761 40.4179 13.421 40.4179 13.7149C40.4179 14.0088 40.6629 14.2537 40.9567 14.2537Z" fill="#FFB700"/>
<path d="M45.5041 14.27C45.8107 14.27 46.0593 14.0215 46.0593 13.7149C46.0593 13.4083 45.8107 13.1598 45.5041 13.1598C45.1976 13.1598 44.949 13.4083 44.949 13.7149C44.949 14.0215 45.1976 14.27 45.5041 14.27Z" fill="#FFB700"/>
<path d="M50.0432 14.2537C50.3407 14.2537 50.582 14.0125 50.582 13.7149C50.582 13.4173 50.3407 13.1761 50.0432 13.1761C49.7456 13.1761 49.5044 13.4173 49.5044 13.7149C49.5044 14.0125 49.7456 14.2537 50.0432 14.2537Z" fill="#FFB700"/>
<path d="M54.5822 14.221C54.8618 14.221 55.0884 13.9944 55.0884 13.7149C55.0884 13.4354 54.8618 13.2087 54.5822 13.2087C54.3027 13.2087 54.0761 13.4354 54.0761 13.7149C54.0761 13.9944 54.3027 14.221 54.5822 14.221Z" fill="#FFB700"/>
<path d="M59.1209 14.1721C59.3734 14.1721 59.5781 13.9674 59.5781 13.7149C59.5781 13.4624 59.3734 13.2578 59.1209 13.2578C58.8684 13.2578 58.6637 13.4624 58.6637 13.7149C58.6637 13.9674 58.8684 14.1721 59.1209 14.1721Z" fill="#FFB700"/>
<path d="M63.668 14.1068C63.8844 14.1068 64.0598 13.9313 64.0598 13.7149C64.0598 13.4985 63.8844 13.3231 63.668 13.3231C63.4516 13.3231 63.2761 13.4985 63.2761 13.7149C63.2761 13.9313 63.4516 14.1068 63.668 14.1068Z" fill="#FFB700"/>
<path d="M68.2073 14.017C68.3741 14.017 68.5093 13.8817 68.5093 13.7149C68.5093 13.5481 68.3741 13.4128 68.2073 13.4128C68.0405 13.4128 67.9052 13.5481 67.9052 13.7149C67.9052 13.8817 68.0405 14.017 68.2073 14.017Z" fill="#FFB700"/>
<path d="M72.7462 13.9271C72.8605 13.9271 72.9585 13.8292 72.9585 13.7149C72.9585 13.6006 72.8605 13.5026 72.7462 13.5026C72.6319 13.5026 72.5339 13.6006 72.5339 13.7149C72.5339 13.8292 72.6319 13.9271 72.7462 13.9271Z" fill="#FFB700"/>
<path d="M77.2849 13.8292C77.348 13.8292 77.3992 13.778 77.3992 13.7149C77.3992 13.6518 77.348 13.6006 77.2849 13.6006C77.2218 13.6006 77.1706 13.6518 77.1706 13.7149C77.1706 13.778 77.2218 13.8292 77.2849 13.8292Z" fill="#FFB700"/>
<path d="M81.8324 13.7313C81.8414 13.7313 81.8487 13.724 81.8487 13.7149C81.8487 13.7059 81.8414 13.6986 81.8324 13.6986C81.8234 13.6986 81.8161 13.7059 81.8161 13.7149C81.8161 13.724 81.8234 13.7313 81.8324 13.7313Z" fill="#FFB700"/>
<path d="M9.17584 18.3437C9.22482 18.3437 9.26563 18.3028 9.26563 18.2539C9.26563 18.2049 9.22482 18.1641 9.17584 18.1641C9.12686 18.1641 9.08603 18.2049 9.08603 18.2539C9.08603 18.3028 9.12686 18.3437 9.17584 18.3437Z" fill="#FFB700"/>
<path d="M13.7147 18.458C13.8275 18.458 13.9188 18.3666 13.9188 18.2539C13.9188 18.1412 13.8275 18.0498 13.7147 18.0498C13.602 18.0498 13.5107 18.1412 13.5107 18.2539C13.5107 18.3666 13.602 18.458 13.7147 18.458Z" fill="#FFB700"/>
<path d="M18.2541 18.5641C18.4255 18.5641 18.5724 18.4253 18.5724 18.2457C18.5724 18.0661 18.4337 17.9274 18.2541 17.9274C18.0745 17.9274 17.9357 18.0661 17.9357 18.2457C17.9357 18.4253 18.0745 18.5641 18.2541 18.5641Z" fill="#FFB700"/>
<path d="M22.7928 18.6784C23.0295 18.6784 23.2173 18.4907 23.2173 18.2539C23.2173 18.0172 23.0295 17.8294 22.7928 17.8294C22.556 17.8294 22.3683 18.0172 22.3683 18.2539C22.3683 18.4907 22.556 18.6784 22.7928 18.6784Z" fill="#FFB700"/>
<path d="M27.3399 18.7682C27.6239 18.7682 27.8542 18.5379 27.8542 18.2539C27.8542 17.9698 27.6239 17.7396 27.3399 17.7396C27.0558 17.7396 26.8256 17.9698 26.8256 18.2539C26.8256 18.5379 27.0558 18.7682 27.3399 18.7682Z" fill="#FFB700"/>
<path d="M31.8788 18.8417C32.2054 18.8417 32.4666 18.5805 32.4666 18.2457C32.4666 17.911 32.2054 17.658 31.8788 17.658C31.5523 17.658 31.2829 17.9192 31.2829 18.2457C31.2829 18.5723 31.5441 18.8417 31.8788 18.8417Z" fill="#FFB700"/>
<path d="M36.418 18.907C36.7787 18.907 37.0711 18.6146 37.0711 18.2539C37.0711 17.8932 36.7787 17.6008 36.418 17.6008C36.0573 17.6008 35.7649 17.8932 35.7649 18.2539C35.7649 18.6146 36.0573 18.907 36.418 18.907Z" fill="#FFB700"/>
<path d="M40.9568 18.9478C41.3405 18.9478 41.6507 18.6376 41.6507 18.2539C41.6507 17.8702 41.3405 17.56 40.9568 17.56C40.5731 17.56 40.2629 17.8702 40.2629 18.2539C40.2629 18.6376 40.5731 18.9478 40.9568 18.9478Z" fill="#FFB700"/>
<path d="M45.504 18.956C45.8958 18.956 46.2061 18.6376 46.2061 18.2539C46.2061 17.8702 45.8877 17.5518 45.504 17.5518C45.1203 17.5518 44.8019 17.8702 44.8019 18.2539C44.8019 18.6376 45.1203 18.956 45.504 18.956Z" fill="#FFB700"/>
<path d="M50.0432 18.9478C50.4269 18.9478 50.7371 18.6376 50.7371 18.2539C50.7371 17.8702 50.4269 17.56 50.0432 17.56C49.6595 17.56 49.3493 17.8702 49.3493 18.2539C49.3493 18.6376 49.6595 18.9478 50.0432 18.9478Z" fill="#FFB700"/>
<path d="M54.5821 18.907C54.9428 18.907 55.2352 18.6146 55.2352 18.2539C55.2352 17.8932 54.9428 17.6008 54.5821 17.6008C54.2214 17.6008 53.929 17.8932 53.929 18.2539C53.929 18.6146 54.2214 18.907 54.5821 18.907Z" fill="#FFB700"/>
<path d="M59.121 18.8417C59.4475 18.8417 59.7088 18.5805 59.7088 18.2457C59.7088 17.911 59.4475 17.658 59.121 17.658C58.7944 17.658 58.525 17.9192 58.525 18.2457C58.525 18.5723 58.7863 18.8417 59.121 18.8417Z" fill="#FFB700"/>
<path d="M63.668 18.7682C63.9521 18.7682 64.1824 18.5379 64.1824 18.2539C64.1824 17.9698 63.9521 17.7396 63.668 17.7396C63.384 17.7396 63.1537 17.9698 63.1537 18.2539C63.1537 18.5379 63.384 18.7682 63.668 18.7682Z" fill="#FFB700"/>
<path d="M68.207 18.6784C68.4437 18.6784 68.6315 18.4907 68.6315 18.2539C68.6315 18.0172 68.4437 17.8294 68.207 17.8294C67.9702 17.8294 67.7824 18.0172 67.7824 18.2539C67.7824 18.4907 67.9702 18.6784 68.207 18.6784Z" fill="#FFB700"/>
<path d="M72.7461 18.5805C72.9257 18.5805 73.0726 18.4335 73.0726 18.2539C73.0726 18.0743 72.9257 17.9274 72.7461 17.9274C72.5665 17.9274 72.4195 18.0743 72.4195 18.2539C72.4195 18.4335 72.5665 18.5805 72.7461 18.5805Z" fill="#FFB700"/>
<path d="M77.2852 18.4661C77.3995 18.4661 77.4975 18.3682 77.4975 18.2539C77.4975 18.1396 77.3995 18.0416 77.2852 18.0416C77.1709 18.0416 77.073 18.1396 77.073 18.2539C77.073 18.3682 77.1709 18.4661 77.2852 18.4661Z" fill="#FFB700"/>
<path d="M81.8322 18.3437C81.8811 18.3437 81.9219 18.3028 81.9219 18.2539C81.9219 18.2049 81.8811 18.1641 81.8322 18.1641C81.7832 18.1641 81.7423 18.2049 81.7423 18.2539C81.7423 18.3028 81.7832 18.3437 81.8322 18.3437Z" fill="#FFB700"/>
<path d="M86.3711 18.262C86.3711 18.262 86.3874 18.262 86.3874 18.2457C86.3874 18.2294 86.3874 18.2294 86.3711 18.2294C86.3547 18.2294 86.3547 18.2294 86.3547 18.2457C86.3547 18.262 86.3547 18.262 86.3711 18.262Z" fill="#FFB700"/>
<path d="M4.62866 22.8418C4.65571 22.8418 4.67764 22.8199 4.67764 22.7928C4.67764 22.7658 4.65571 22.7438 4.62866 22.7438C4.60161 22.7438 4.57968 22.7658 4.57968 22.7928C4.57968 22.8199 4.60161 22.8418 4.62866 22.8418Z" fill="#FFB700"/>
<path d="M9.17594 22.9725C9.2739 22.9725 9.35554 22.8908 9.35554 22.7929C9.35554 22.6949 9.2739 22.6133 9.17594 22.6133C9.07798 22.6133 8.99634 22.6949 8.99634 22.7929C8.99634 22.8908 9.07798 22.9725 9.17594 22.9725Z" fill="#FFB700"/>
<path d="M13.715 23.0949C13.8819 23.0949 14.0171 22.9597 14.0171 22.7928C14.0171 22.626 13.8819 22.4908 13.715 22.4908C13.5482 22.4908 13.413 22.626 13.413 22.7928C13.413 22.9597 13.5482 23.0949 13.715 23.0949Z" fill="#FFB700"/>
<path d="M18.2538 23.2255C18.4905 23.2255 18.6783 23.0377 18.6783 22.801C18.6783 22.5642 18.4905 22.3765 18.2538 22.3765C18.017 22.3765 17.8292 22.5642 17.8292 22.801C17.8292 23.0377 18.017 23.2255 18.2538 23.2255Z" fill="#FFB700"/>
<path d="M22.7927 23.3317C23.0947 23.3317 23.3315 23.0868 23.3315 22.7929C23.3315 22.499 23.0866 22.2541 22.7927 22.2541C22.4988 22.2541 22.2539 22.499 22.2539 22.7929C22.2539 23.0868 22.4988 23.3317 22.7927 23.3317Z" fill="#FFB700"/>
<path d="M27.3402 23.4378C27.6912 23.4378 27.9851 23.1521 27.9851 22.7929C27.9851 22.4337 27.6994 22.1479 27.3402 22.1479C26.981 22.1479 26.6952 22.4337 26.6952 22.7929C26.6952 23.1521 26.981 23.4378 27.3402 23.4378Z" fill="#FFB700"/>
<path d="M31.8791 23.5276C32.2791 23.5276 32.6057 23.201 32.6057 22.801C32.6057 22.401 32.2791 22.0745 31.8791 22.0745C31.4791 22.0745 31.1525 22.401 31.1525 22.801C31.1525 23.201 31.4791 23.5276 31.8791 23.5276Z" fill="#FFB700"/>
<path d="M36.4181 23.5847C36.8589 23.5847 37.2099 23.2337 37.2099 22.7928C37.2099 22.352 36.8507 22.001 36.4181 22.001C35.9854 22.001 35.6262 22.3602 35.6262 22.7928C35.6262 23.2255 35.9854 23.5847 36.4181 23.5847Z" fill="#FFB700"/>
<path d="M40.957 23.6419C41.4224 23.6419 41.7979 23.2664 41.7979 22.8011C41.7979 22.3357 41.4224 21.9602 40.957 21.9602C40.4917 21.9602 40.1162 22.3357 40.1162 22.8011C40.1162 23.2664 40.4917 23.6419 40.957 23.6419Z" fill="#FFB700"/>
<path d="M45.504 23.65C45.9775 23.65 46.3612 23.2663 46.3612 22.7928C46.3612 22.3194 45.9775 21.9357 45.504 21.9357C45.0306 21.9357 44.6469 22.3194 44.6469 22.7928C44.6469 23.2663 45.0306 23.65 45.504 23.65Z" fill="#FFB700"/>
<path d="M50.0431 23.6419C50.5084 23.6419 50.8839 23.2664 50.8839 22.8011C50.8839 22.3357 50.5084 21.9602 50.0431 21.9602C49.5777 21.9602 49.2022 22.3357 49.2022 22.8011C49.2022 23.2664 49.5777 23.6419 50.0431 23.6419Z" fill="#FFB700"/>
<path d="M54.5821 23.6011C55.0311 23.6011 55.3903 23.2419 55.3903 22.7929C55.3903 22.3439 55.0311 21.9847 54.5821 21.9847C54.1331 21.9847 53.7739 22.3439 53.7739 22.7929C53.7739 23.2419 54.1331 23.6011 54.5821 23.6011Z" fill="#FFB700"/>
<path d="M59.1209 23.5276C59.5209 23.5276 59.8474 23.201 59.8474 22.801C59.8474 22.401 59.5209 22.0745 59.1209 22.0745C58.7208 22.0745 58.3943 22.401 58.3943 22.801C58.3943 23.201 58.7208 23.5276 59.1209 23.5276Z" fill="#FFB700"/>
<path d="M63.6683 23.4378C64.0194 23.4378 64.3132 23.1521 64.3132 22.7929C64.3132 22.4337 64.0275 22.1479 63.6683 22.1479C63.3091 22.1479 63.0234 22.4337 63.0234 22.7929C63.0234 23.1521 63.3091 23.4378 63.6683 23.4378Z" fill="#FFB700"/>
<path d="M68.2073 23.3317C68.5093 23.3317 68.7461 23.0868 68.7461 22.7929C68.7461 22.499 68.5011 22.2541 68.2073 22.2541C67.9134 22.2541 67.6684 22.499 67.6684 22.7929C67.6684 23.0868 67.9134 23.3317 68.2073 23.3317Z" fill="#FFB700"/>
<path d="M72.746 23.2255C72.9827 23.2255 73.1705 23.0377 73.1705 22.801C73.1705 22.5642 72.9827 22.3765 72.746 22.3765C72.5093 22.3765 72.3215 22.5642 72.3215 22.801C72.3215 23.0377 72.5093 23.2255 72.746 23.2255Z" fill="#FFB700"/>
<path d="M77.2849 23.0949C77.4518 23.0949 77.587 22.9597 77.587 22.7928C77.587 22.626 77.4518 22.4908 77.2849 22.4908C77.1181 22.4908 76.9829 22.626 76.9829 22.7928C76.9829 22.9597 77.1181 23.0949 77.2849 23.0949Z" fill="#FFB700"/>
<path d="M81.8322 22.9725C81.9302 22.9725 82.0119 22.8908 82.0119 22.7929C82.0119 22.6949 81.9302 22.6133 81.8322 22.6133C81.7343 22.6133 81.6526 22.6949 81.6526 22.7929C81.6526 22.8908 81.7343 22.9725 81.8322 22.9725Z" fill="#FFB700"/>
<path d="M86.3714 22.8418C86.3985 22.8418 86.4204 22.8199 86.4204 22.7928C86.4204 22.7658 86.3985 22.7438 86.3714 22.7438C86.3444 22.7438 86.3224 22.7658 86.3224 22.7928C86.3224 22.8199 86.3444 22.8418 86.3714 22.8418Z" fill="#FFB700"/>
<path d="M0.0896846 27.3482C0.0896846 27.3482 0.106003 27.3482 0.106003 27.3319C0.106003 27.3156 0.106012 27.3156 0.0896846 27.3156C0.0733573 27.3156 0.0733414 27.3156 0.0733414 27.3319C0.0733414 27.3482 0.0733573 27.3482 0.0896846 27.3482Z" fill="#FFB700"/>
<path d="M4.62862 27.4462C4.69174 27.4462 4.74289 27.395 4.74289 27.3319C4.74289 27.2688 4.69174 27.2176 4.62862 27.2176C4.56549 27.2176 4.51431 27.2688 4.51431 27.3319C4.51431 27.395 4.56549 27.4462 4.62862 27.4462Z" fill="#FFB700"/>
<path d="M9.17606 27.5849C9.31583 27.5849 9.42913 27.4716 9.42913 27.3318C9.42913 27.192 9.31583 27.0787 9.17606 27.0787C9.03629 27.0787 8.92299 27.192 8.92299 27.3318C8.92299 27.4716 9.03629 27.5849 9.17606 27.5849Z" fill="#FFB700"/>
<path d="M13.7148 27.7237C13.927 27.7237 14.1066 27.5523 14.1066 27.3319C14.1066 27.1114 13.9352 26.94 13.7148 26.94C13.4943 26.94 13.3229 27.1114 13.3229 27.3319C13.3229 27.5523 13.4943 27.7237 13.7148 27.7237Z" fill="#FFB700"/>
<path d="M18.2539 27.8461C18.5379 27.8461 18.7682 27.6159 18.7682 27.3318C18.7682 27.0478 18.5379 26.8175 18.2539 26.8175C17.9698 26.8175 17.7396 27.0478 17.7396 27.3318C17.7396 27.6159 17.9698 27.8461 18.2539 27.8461Z" fill="#FFB700"/>
<path d="M22.7928 27.9767C23.149 27.9767 23.4377 27.688 23.4377 27.3318C23.4377 26.9756 23.149 26.6869 22.7928 26.6869C22.4366 26.6869 22.1478 26.9756 22.1478 27.3318C22.1478 27.688 22.4366 27.9767 22.7928 27.9767Z" fill="#FFB700"/>
<path d="M27.3401 28.0911C27.7564 28.0911 28.0993 27.7564 28.0993 27.3318C28.0993 26.9073 27.7646 26.5726 27.3401 26.5726C26.9156 26.5726 26.5808 26.9073 26.5808 27.3318C26.5808 27.7564 26.9156 28.0911 27.3401 28.0911Z" fill="#FFB700"/>
<path d="M31.879 28.189C32.3525 28.189 32.7362 27.8053 32.7362 27.3319C32.7362 26.8584 32.3525 26.4747 31.879 26.4747C31.4055 26.4747 31.0218 26.8584 31.0218 27.3319C31.0218 27.8053 31.4055 28.189 31.879 28.189Z" fill="#FFB700"/>
<path d="M36.4181 28.2625C36.9321 28.2625 37.3488 27.8458 37.3488 27.3318C37.3488 26.8179 36.9321 26.4012 36.4181 26.4012C35.9042 26.4012 35.4875 26.8179 35.4875 27.3318C35.4875 27.8458 35.9042 28.2625 36.4181 28.2625Z" fill="#FFB700"/>
<path d="M40.9571 28.3278C41.5041 28.3278 41.9531 27.8788 41.9531 27.3318C41.9531 26.7849 41.5041 26.3359 40.9571 26.3359C40.4101 26.3359 39.9611 26.7849 39.9611 27.3318C39.9611 27.8788 40.4101 28.3278 40.9571 28.3278Z" fill="#FFB700"/>
<path d="M45.5039 28.3441C46.059 28.3441 46.508 27.8951 46.508 27.34C46.508 26.7849 46.059 26.3359 45.5039 26.3359C44.9488 26.3359 44.4998 26.7849 44.4998 27.34C44.4998 27.8951 44.9488 28.3441 45.5039 28.3441Z" fill="#FFB700"/>
<path d="M50.0431 28.3278C50.5901 28.3278 51.0391 27.8788 51.0391 27.3318C51.0391 26.7849 50.5901 26.3359 50.0431 26.3359C49.4962 26.3359 49.0472 26.7849 49.0472 27.3318C49.0472 27.8788 49.4962 28.3278 50.0431 28.3278Z" fill="#FFB700"/>
<path d="M54.5822 28.2788C55.1047 28.2788 55.5292 27.8543 55.5292 27.3319C55.5292 26.8094 55.1047 26.3849 54.5822 26.3849C54.0597 26.3849 53.6352 26.8094 53.6352 27.3319C53.6352 27.8543 54.0597 28.2788 54.5822 28.2788Z" fill="#FFB700"/>
<path d="M59.1211 28.189C59.5946 28.189 59.9783 27.8053 59.9783 27.3319C59.9783 26.8584 59.5946 26.4747 59.1211 26.4747C58.6476 26.4747 58.2639 26.8584 58.2639 27.3319C58.2639 27.8053 58.6476 28.189 59.1211 28.189Z" fill="#FFB700"/>
<path d="M63.668 28.0992C64.0918 28.0992 64.4354 27.7556 64.4354 27.3318C64.4354 26.908 64.0918 26.5645 63.668 26.5645C63.2442 26.5645 62.9006 26.908 62.9006 27.3318C62.9006 27.7556 63.2442 28.0992 63.668 28.0992Z" fill="#FFB700"/>
<path d="M68.207 27.9767C68.558 27.9767 68.8519 27.691 68.8519 27.3318C68.8519 26.9726 68.5662 26.6869 68.207 26.6869C67.8478 26.6869 67.562 26.9726 67.562 27.3318C67.562 27.691 67.8478 27.9767 68.207 27.9767Z" fill="#FFB700"/>
<path d="M72.7461 27.8543C73.0318 27.8543 73.2604 27.6257 73.2604 27.34C73.2604 27.0543 73.0318 26.8257 72.7461 26.8257C72.4604 26.8257 72.2318 27.0543 72.2318 27.34C72.2318 27.6257 72.4604 27.8543 72.7461 27.8543Z" fill="#FFB700"/>
<path d="M77.2851 27.7237C77.5015 27.7237 77.6769 27.5483 77.6769 27.3319C77.6769 27.1154 77.5015 26.94 77.2851 26.94C77.0686 26.94 76.8932 27.1154 76.8932 27.3319C76.8932 27.5483 77.0686 27.7237 77.2851 27.7237Z" fill="#FFB700"/>
<path d="M81.8324 27.5849C81.9721 27.5849 82.0854 27.4716 82.0854 27.3318C82.0854 27.192 81.9721 27.0787 81.8324 27.0787C81.6926 27.0787 81.5793 27.192 81.5793 27.3318C81.5793 27.4716 81.6926 27.5849 81.8324 27.5849Z" fill="#FFB700"/>
<path d="M86.3714 27.4462C86.4367 27.4462 86.4856 27.3972 86.4856 27.3319C86.4856 27.2666 86.4367 27.2176 86.3714 27.2176C86.306 27.2176 86.257 27.2666 86.257 27.3319C86.257 27.3972 86.306 27.4462 86.3714 27.4462Z" fill="#FFB700"/>
<path d="M90.9101 27.3482C90.9191 27.3482 90.9264 27.3409 90.9264 27.3319C90.9264 27.3229 90.9191 27.3156 90.9101 27.3156C90.9011 27.3156 90.8937 27.3229 90.8937 27.3319C90.8937 27.3409 90.9011 27.3482 90.9101 27.3482Z" fill="#FFB700"/>
<path d="M0.0898662 31.9035C0.0898662 31.9035 0.114356 31.8953 0.114356 31.879C0.114356 31.8627 0.106193 31.8545 0.0898662 31.8545C0.0735389 31.8545 0.0653763 31.8627 0.0653763 31.879C0.0653763 31.8953 0.0735389 31.9035 0.0898662 31.9035Z" fill="#FFB700"/>
<path d="M4.62897 32.0422C4.71877 32.0422 4.79225 31.9688 4.79225 31.879C4.79225 31.7892 4.71877 31.7157 4.62897 31.7157C4.53917 31.7157 4.46568 31.7892 4.46568 31.879C4.46568 31.9688 4.53917 32.0422 4.62897 32.0422Z" fill="#FFB700"/>
<path d="M9.17601 32.1974C9.35185 32.1974 9.49438 32.0548 9.49438 31.879C9.49438 31.7032 9.35185 31.5606 9.17601 31.5606C9.00018 31.5606 8.85762 31.7032 8.85762 31.879C8.85762 32.0548 9.00018 32.1974 9.17601 32.1974Z" fill="#FFB700"/>
<path d="M13.7151 32.3361C13.9676 32.3361 14.1722 32.1315 14.1722 31.879C14.1722 31.6265 13.9676 31.4218 13.7151 31.4218C13.4626 31.4218 13.2579 31.6265 13.2579 31.879C13.2579 32.1315 13.4626 32.3361 13.7151 32.3361Z" fill="#FFB700"/>
<path d="M18.2538 32.4667C18.5803 32.4667 18.8416 32.2055 18.8416 31.8707C18.8416 31.536 18.5803 31.283 18.2538 31.283C17.9272 31.283 17.6578 31.5442 17.6578 31.8707C17.6578 32.1973 17.9191 32.4667 18.2538 32.4667Z" fill="#FFB700"/>
<path d="M22.7927 32.6056C23.1927 32.6056 23.5192 32.279 23.5192 31.879C23.5192 31.479 23.1927 31.1525 22.7927 31.1525C22.3927 31.1525 22.0661 31.479 22.0661 31.879C22.0661 32.279 22.3927 32.6056 22.7927 32.6056Z" fill="#FFB700"/>
<path d="M27.34 32.7362C27.8135 32.7362 28.1971 32.3525 28.1971 31.879C28.1971 31.4055 27.8135 31.0218 27.34 31.0218C26.8665 31.0218 26.4828 31.4055 26.4828 31.879C26.4828 32.3525 26.8665 32.7362 27.34 32.7362Z" fill="#FFB700"/>
<path d="M31.8789 32.8504C32.4154 32.8504 32.8503 32.4155 32.8503 31.8789C32.8503 31.3424 32.4154 30.9075 31.8789 30.9075C31.3423 30.9075 30.9074 31.3424 30.9074 31.8789C30.9074 32.4155 31.3423 32.8504 31.8789 32.8504Z" fill="#FFB700"/>
<path d="M36.4178 32.9484C37.0084 32.9484 37.4872 32.4696 37.4872 31.8789C37.4872 31.2883 37.0084 30.8095 36.4178 30.8095C35.8272 30.8095 35.3484 31.2883 35.3484 31.8789C35.3484 32.4696 35.8272 32.9484 36.4178 32.9484Z" fill="#FFB700"/>
<path d="M40.9568 33.0056C41.5854 33.0056 42.0915 32.4994 42.0915 31.8708C42.0915 31.2422 41.5854 30.7361 40.9568 30.7361C40.3282 30.7361 39.822 31.2422 39.822 31.8708C39.822 32.4994 40.3282 33.0056 40.9568 33.0056Z" fill="#FFB700"/>
<path d="M45.5041 33.0463C46.1489 33.0463 46.6715 32.5237 46.6715 31.8789C46.6715 31.2342 46.1489 30.7115 45.5041 30.7115C44.8594 30.7115 44.3367 31.2342 44.3367 31.8789C44.3367 32.5237 44.8594 33.0463 45.5041 33.0463Z" fill="#FFB700"/>
<path d="M50.043 33.0219C50.6797 33.0219 51.1859 32.5076 51.1859 31.879C51.1859 31.2504 50.6716 30.7361 50.043 30.7361C49.4144 30.7361 48.9001 31.2504 48.9001 31.879C48.9001 32.5076 49.4144 33.0219 50.043 33.0219Z" fill="#FFB700"/>
<path d="M54.5819 32.9566C55.1778 32.9566 55.6676 32.475 55.6676 31.8709C55.6676 31.2668 55.186 30.7851 54.5819 30.7851C53.9778 30.7851 53.4961 31.2668 53.4961 31.8709C53.4961 32.475 53.9778 32.9566 54.5819 32.9566Z" fill="#FFB700"/>
<path d="M59.1212 32.8586C59.66 32.8586 60.1008 32.4177 60.1008 31.8789C60.1008 31.3401 59.66 30.8993 59.1212 30.8993C58.5824 30.8993 58.1416 31.3401 58.1416 31.8789C58.1416 32.4177 58.5824 32.8586 59.1212 32.8586Z" fill="#FFB700"/>
<path d="M63.6683 32.7443C64.1462 32.7443 64.5336 32.3569 64.5336 31.879C64.5336 31.401 64.1462 31.0136 63.6683 31.0136C63.1904 31.0136 62.803 31.401 62.803 31.879C62.803 32.3569 63.1904 32.7443 63.6683 32.7443Z" fill="#FFB700"/>
<path d="M68.2072 32.6219C68.6154 32.6219 68.9501 32.2872 68.9501 31.879C68.9501 31.4708 68.6154 31.1361 68.2072 31.1361C67.7991 31.1361 67.4644 31.4708 67.4644 31.879C67.4644 32.2872 67.7991 32.6219 68.2072 32.6219Z" fill="#FFB700"/>
<path d="M72.7462 32.4831C73.0809 32.4831 73.3503 32.2137 73.3503 31.879C73.3503 31.5443 73.0809 31.2749 72.7462 31.2749C72.4115 31.2749 72.1421 31.5443 72.1421 31.879C72.1421 32.2137 72.4115 32.4831 72.7462 32.4831Z" fill="#FFB700"/>
<path d="M77.2852 32.3443C77.5422 32.3443 77.7505 32.136 77.7505 31.879C77.7505 31.622 77.5422 31.4136 77.2852 31.4136C77.0282 31.4136 76.8198 31.622 76.8198 31.879C76.8198 32.136 77.0282 32.3443 77.2852 32.3443Z" fill="#FFB700"/>
<path d="M81.8323 32.1974C82.0082 32.1974 82.1507 32.0548 82.1507 31.879C82.1507 31.7032 82.0082 31.5606 81.8323 31.5606C81.6565 31.5606 81.5139 31.7032 81.5139 31.879C81.5139 32.0548 81.6565 32.1974 81.8323 32.1974Z" fill="#FFB700"/>
<path d="M86.3713 32.0504C86.4692 32.0504 86.5509 31.9687 86.5509 31.8708C86.5509 31.7728 86.4692 31.6912 86.3713 31.6912C86.2733 31.6912 86.1917 31.7728 86.1917 31.8708C86.1917 31.9687 86.2733 32.0504 86.3713 32.0504Z" fill="#FFB700"/>
<path d="M90.9102 31.9117C90.9102 31.9117 90.951 31.8953 90.951 31.8708C90.951 31.8463 90.9347 31.83 90.9102 31.83C90.8857 31.83 90.8694 31.8463 90.8694 31.8708C90.8694 31.8953 90.8857 31.9117 90.9102 31.9117Z" fill="#FFB700"/>
<path d="M0.0896379 36.4833C0.0896379 36.4833 0.154936 36.4588 0.154936 36.418C0.154936 36.3772 0.130456 36.3527 0.0896379 36.3527C0.0488197 36.3527 0.0243149 36.3772 0.0243149 36.418C0.0243149 36.4588 0.0488197 36.4833 0.0896379 36.4833Z" fill="#FFB700"/>
<path d="M4.62871 36.622C4.74143 36.622 4.8328 36.5307 4.8328 36.418C4.8328 36.3052 4.74143 36.2139 4.62871 36.2139C4.516 36.2139 4.42462 36.3052 4.42462 36.418C4.42462 36.5307 4.516 36.622 4.62871 36.622Z" fill="#FFB700"/>
<path d="M9.17599 36.769C9.36986 36.769 9.52702 36.6119 9.52702 36.418C9.52702 36.2241 9.36986 36.067 9.17599 36.067C8.98212 36.067 8.82494 36.2241 8.82494 36.418C8.82494 36.6119 8.98212 36.769 9.17599 36.769Z" fill="#FFB700"/>
<path d="M13.715 36.9241C13.9946 36.9241 14.2212 36.6975 14.2212 36.4179C14.2212 36.1384 13.9946 35.9118 13.715 35.9118C13.4355 35.9118 13.2089 36.1384 13.2089 36.4179C13.2089 36.6975 13.4355 36.9241 13.715 36.9241Z" fill="#FFB700"/>
<path d="M18.2539 37.0711C18.6131 37.0711 18.907 36.7772 18.907 36.418C18.907 36.0588 18.6131 35.7649 18.2539 35.7649C17.8947 35.7649 17.6008 36.0588 17.6008 36.418C17.6008 36.7772 17.8947 37.0711 18.2539 37.0711Z" fill="#FFB700"/>
<path d="M22.793 37.2098C23.2339 37.2098 23.5849 36.8506 23.5849 36.418C23.5849 35.9853 23.2257 35.6261 22.793 35.6261C22.3603 35.6261 22.0011 35.9853 22.0011 36.418C22.0011 36.8506 22.3603 37.2098 22.793 37.2098Z" fill="#FFB700"/>
<path d="M27.3401 37.3486C27.8544 37.3486 28.2707 36.9323 28.2707 36.418C28.2707 35.9036 27.8544 35.4873 27.3401 35.4873C26.8258 35.4873 26.4094 35.9036 26.4094 36.418C26.4094 36.9323 26.8258 37.3486 27.3401 37.3486Z" fill="#FFB700"/>
<path d="M31.8792 37.4874C32.4698 37.4874 32.9486 37.0086 32.9486 36.418C32.9486 35.8274 32.4698 35.3486 31.8792 35.3486C31.2885 35.3486 30.8097 35.8274 30.8097 36.418C30.8097 37.0086 31.2885 37.4874 31.8792 37.4874Z" fill="#FFB700"/>
<path d="M36.4181 37.6098C37.0793 37.6098 37.6181 37.071 37.6181 36.4098C37.6181 35.7485 37.0793 35.2097 36.4181 35.2097C35.7568 35.2097 35.218 35.7485 35.218 36.4098C35.218 37.071 35.7568 37.6098 36.4181 37.6098Z" fill="#FFB700"/>
<path d="M40.957 37.6997C41.6673 37.6997 42.2387 37.1282 42.2387 36.418C42.2387 35.7077 41.6673 35.1363 40.957 35.1363C40.2468 35.1363 39.6753 35.7077 39.6753 36.418C39.6753 37.1282 40.2468 37.6997 40.957 37.6997Z" fill="#FFB700"/>
<path d="M45.5042 37.7405C46.2346 37.7405 46.8267 37.1484 46.8267 36.418C46.8267 35.6876 46.2346 35.0955 45.5042 35.0955C44.7738 35.0955 44.1817 35.6876 44.1817 36.418C44.1817 37.1484 44.7738 37.7405 45.5042 37.7405Z" fill="#FFB700"/>
<path d="M50.043 37.6997C50.7533 37.6997 51.3247 37.1282 51.3247 36.418C51.3247 35.7077 50.7533 35.1363 50.043 35.1363C49.3328 35.1363 48.7614 35.7077 48.7614 36.418C48.7614 37.1282 49.3328 37.6997 50.043 37.6997Z" fill="#FFB700"/>
<path d="M54.5822 37.6098C55.2434 37.6098 55.7822 37.071 55.7822 36.4098C55.7822 35.7485 55.2434 35.2097 54.5822 35.2097C53.9209 35.2097 53.3821 35.7485 53.3821 36.4098C53.3821 37.071 53.9209 37.6098 54.5822 37.6098Z" fill="#FFB700"/>
<path d="M59.1209 37.5037C59.7168 37.5037 60.2067 37.0221 60.2067 36.418C60.2067 35.8139 59.725 35.3322 59.1209 35.3322C58.5168 35.3322 58.0351 35.8139 58.0351 36.418C58.0351 37.0221 58.5168 37.5037 59.1209 37.5037Z" fill="#FFB700"/>
<path d="M63.6682 37.3649C64.1907 37.3649 64.6152 36.9404 64.6152 36.4179C64.6152 35.8955 64.1907 35.4709 63.6682 35.4709C63.1458 35.4709 62.7212 35.8955 62.7212 36.4179C62.7212 36.9404 63.1458 37.3649 63.6682 37.3649Z" fill="#FFB700"/>
<path d="M68.2072 37.2261C68.6562 37.2261 69.0154 36.8669 69.0154 36.4179C69.0154 35.9689 68.6562 35.6097 68.2072 35.6097C67.7582 35.6097 67.399 35.9689 67.399 36.4179C67.399 36.8669 67.7582 37.2261 68.2072 37.2261Z" fill="#FFB700"/>
<path d="M72.7462 37.0711C73.1054 37.0711 73.3993 36.7772 73.3993 36.418C73.3993 36.0588 73.1054 35.7649 72.7462 35.7649C72.387 35.7649 72.0931 36.0588 72.0931 36.418C72.0931 36.7772 72.387 37.0711 72.7462 37.0711Z" fill="#FFB700"/>
<path d="M77.2851 36.9322C77.5709 36.9322 77.7994 36.7037 77.7994 36.4179C77.7994 36.1322 77.5709 35.9036 77.2851 35.9036C76.9994 35.9036 76.7708 36.1322 76.7708 36.4179C76.7708 36.7037 76.9994 36.9322 77.2851 36.9322Z" fill="#FFB700"/>
<path d="M81.8323 36.7853C82.0364 36.7853 82.1996 36.622 82.1996 36.418C82.1996 36.2139 82.0364 36.0506 81.8323 36.0506C81.6282 36.0506 81.4649 36.2139 81.4649 36.418C81.4649 36.622 81.6282 36.7853 81.8323 36.7853Z" fill="#FFB700"/>
<path d="M86.3713 36.6302C86.4855 36.6302 86.5835 36.5322 86.5835 36.4179C86.5835 36.3037 86.4855 36.2057 86.3713 36.2057C86.257 36.2057 86.159 36.3037 86.159 36.4179C86.159 36.5322 86.257 36.6302 86.3713 36.6302Z" fill="#FFB700"/>
<path d="M90.91 36.4833C90.91 36.4833 90.9754 36.4588 90.9754 36.418C90.9754 36.3772 90.9509 36.3527 90.91 36.3527C90.8692 36.3527 90.8447 36.3772 90.8447 36.418C90.8447 36.4588 90.8692 36.4833 90.91 36.4833Z" fill="#FFB700"/>
<path d="M0.0898119 41.0304C0.13063 41.0304 0.163282 40.9977 0.163282 40.9569C0.163282 40.9161 0.13063 40.8834 0.0898119 40.8834C0.0489937 40.8834 0.0163422 40.9161 0.0163422 40.9569C0.0163422 40.9977 0.0489937 41.0304 0.0898119 41.0304Z" fill="#FFB700"/>
<path d="M4.62889 41.1856C4.75134 41.1856 4.85747 41.0876 4.85747 40.957C4.85747 40.8264 4.75951 40.7284 4.62889 40.7284C4.49827 40.7284 4.40031 40.8264 4.40031 40.957C4.40031 41.0876 4.49827 41.1856 4.62889 41.1856Z" fill="#FFB700"/>
<path d="M9.17574 41.3488C9.39215 41.3488 9.56758 41.1733 9.56758 40.9569C9.56758 40.7405 9.39215 40.5651 9.17574 40.5651C8.95932 40.5651 8.78387 40.7405 8.78387 40.9569C8.78387 41.1733 8.95932 41.3488 9.17574 41.3488Z" fill="#FFB700"/>
<path d="M13.715 41.5039C14.0171 41.5039 14.2538 41.259 14.2538 40.9651C14.2538 40.6712 14.0089 40.4263 13.715 40.4263C13.4211 40.4263 13.1762 40.6712 13.1762 40.9651C13.1762 41.259 13.4211 41.5039 13.715 41.5039Z" fill="#FFB700"/>
<path d="M18.2537 41.6508C18.6374 41.6508 18.9476 41.3406 18.9476 40.9569C18.9476 40.5732 18.6374 40.263 18.2537 40.263C17.87 40.263 17.5598 40.5732 17.5598 40.9569C17.5598 41.3406 17.87 41.6508 18.2537 41.6508Z" fill="#FFB700"/>
<path d="M22.793 41.7978C23.2574 41.7978 23.6338 41.4213 23.6338 40.9569C23.6338 40.4926 23.2574 40.1161 22.793 40.1161C22.3286 40.1161 21.9521 40.4926 21.9521 40.9569C21.9521 41.4213 22.3286 41.7978 22.793 41.7978Z" fill="#FFB700"/>
<path d="M27.34 41.9529C27.887 41.9529 28.336 41.5039 28.336 40.9569C28.336 40.4099 27.887 39.9609 27.34 39.9609C26.7931 39.9609 26.3441 40.4099 26.3441 40.9569C26.3441 41.5039 26.7931 41.9529 27.34 41.9529Z" fill="#FFB700"/>
<path d="M31.8791 42.0917C32.5077 42.0917 33.0139 41.5856 33.0139 40.957C33.0139 40.3284 32.5077 39.8222 31.8791 39.8222C31.2505 39.8222 30.7444 40.3284 30.7444 40.957C30.7444 41.5856 31.2505 42.0917 31.8791 42.0917Z" fill="#FFB700"/>
<path d="M36.418 42.2386C37.1259 42.2386 37.6997 41.6648 37.6997 40.9569C37.6997 40.2491 37.1259 39.6752 36.418 39.6752C35.7101 39.6752 35.1363 40.2491 35.1363 40.9569C35.1363 41.6648 35.7101 42.2386 36.418 42.2386Z" fill="#FFB700"/>
<path d="M40.9569 42.3692C41.7324 42.3692 42.3692 41.7406 42.3692 40.9569C42.3692 40.1732 41.7406 39.5446 40.9569 39.5446C40.1732 39.5446 39.5446 40.1732 39.5446 40.9569C39.5446 41.7406 40.1732 42.3692 40.9569 42.3692Z" fill="#FFB700"/>
<path d="M45.504 42.4264C46.3156 42.4264 46.9735 41.7685 46.9735 40.9569C46.9735 40.1454 46.3156 39.4875 45.504 39.4875C44.6925 39.4875 44.0346 40.1454 44.0346 40.9569C44.0346 41.7685 44.6925 42.4264 45.504 42.4264Z" fill="#FFB700"/>
<path d="M50.0429 42.3692C50.8229 42.3692 51.4552 41.7369 51.4552 40.9569C51.4552 40.1769 50.8229 39.5446 50.0429 39.5446C49.2629 39.5446 48.6306 40.1769 48.6306 40.9569C48.6306 41.7369 49.2629 42.3692 50.0429 42.3692Z" fill="#FFB700"/>
<path d="M54.582 42.2549C55.3004 42.2549 55.8801 41.6753 55.8801 40.9569C55.8801 40.2385 55.3004 39.6589 54.582 39.6589C53.8636 39.6589 53.284 40.2385 53.284 40.9569C53.284 41.6753 53.8636 42.2549 54.582 42.2549Z" fill="#FFB700"/>
<path d="M59.121 42.108C59.7578 42.108 60.2639 41.5937 60.2639 40.9651C60.2639 40.3365 59.7496 39.8222 59.121 39.8222C58.4924 39.8222 57.9781 40.3365 57.9781 40.9651C57.9781 41.5937 58.4924 42.108 59.121 42.108Z" fill="#FFB700"/>
<path d="M63.668 41.961C64.2225 41.961 64.6721 41.5115 64.6721 40.9569C64.6721 40.4023 64.2225 39.9528 63.668 39.9528C63.1134 39.9528 62.6638 40.4023 62.6638 40.9569C62.6638 41.5115 63.1134 41.961 63.668 41.961Z" fill="#FFB700"/>
<path d="M68.2071 41.8141C68.6806 41.8141 69.0643 41.4303 69.0643 40.9569C69.0643 40.4835 68.6806 40.0997 68.2071 40.0997C67.7337 40.0997 67.35 40.4835 67.35 40.9569C67.35 41.4303 67.7337 41.8141 68.2071 41.8141Z" fill="#FFB700"/>
<path d="M72.7461 41.6671C73.138 41.6671 73.4482 41.3488 73.4482 40.9651C73.4482 40.5814 73.1298 40.263 72.7461 40.263C72.3624 40.263 72.044 40.5814 72.044 40.9651C72.044 41.3488 72.3624 41.6671 72.7461 41.6671Z" fill="#FFB700"/>
<path d="M77.2853 41.512C77.5919 41.512 77.8404 41.2635 77.8404 40.9569C77.8404 40.6503 77.5919 40.4018 77.2853 40.4018C76.9787 40.4018 76.7302 40.6503 76.7302 40.9569C76.7302 41.2635 76.9787 41.512 77.2853 41.512Z" fill="#FFB700"/>
<path d="M81.8321 41.3488C82.0443 41.3488 82.2239 41.1773 82.2239 40.9569C82.2239 40.7365 82.0525 40.5651 81.8321 40.5651C81.6116 40.5651 81.4402 40.7365 81.4402 40.9569C81.4402 41.1773 81.6116 41.3488 81.8321 41.3488Z" fill="#FFB700"/>
<path d="M86.371 41.1937C86.5016 41.1937 86.6078 41.0876 86.6078 40.957C86.6078 40.8263 86.5016 40.7202 86.371 40.7202C86.2404 40.7202 86.1343 40.8263 86.1343 40.957C86.1343 41.0876 86.2404 41.1937 86.371 41.1937Z" fill="#FFB700"/>
<path d="M90.9102 41.0468C90.9598 41.0468 91 41.0066 91 40.957C91 40.9074 90.9598 40.8672 90.9102 40.8672C90.8606 40.8672 90.8204 40.9074 90.8204 40.957C90.8204 41.0066 90.8606 41.0468 90.9102 41.0468Z" fill="#FFB700"/>
<path d="M0.0898129 45.5857C0.138795 45.5857 0.179601 45.5449 0.179601 45.4959C0.179601 45.4469 0.138795 45.4061 0.0898129 45.4061C0.0408311 45.4061 0 45.4469 0 45.4959C0 45.5449 0.0408311 45.5857 0.0898129 45.5857Z" fill="#FFB700"/>
<path d="M4.62869 45.7408C4.75931 45.7408 4.86544 45.6346 4.86544 45.504C4.86544 45.3734 4.75931 45.2673 4.62869 45.2673C4.49807 45.2673 4.39194 45.3734 4.39194 45.504C4.39194 45.6346 4.49807 45.7408 4.62869 45.7408Z" fill="#FFB700"/>
<path d="M9.17594 45.8959C9.39686 45.8959 9.57595 45.7168 9.57595 45.4959C9.57595 45.275 9.39686 45.0959 9.17594 45.0959C8.95501 45.0959 8.7759 45.275 8.7759 45.4959C8.7759 45.7168 8.95501 45.8959 9.17594 45.8959Z" fill="#FFB700"/>
<path d="M13.715 46.0511C14.017 46.0511 14.2701 45.8061 14.2701 45.4959C14.2701 45.1857 14.0252 44.9408 13.715 44.9408C13.4048 44.9408 13.1599 45.1857 13.1599 45.4959C13.1599 45.8061 13.4048 46.0511 13.715 46.0511Z" fill="#FFB700"/>
<path d="M18.2539 46.198C18.6416 46.198 18.9559 45.8836 18.9559 45.4959C18.9559 45.1082 18.6416 44.7938 18.2539 44.7938C17.8661 44.7938 17.5518 45.1082 17.5518 45.4959C17.5518 45.8836 17.8661 46.198 18.2539 46.198Z" fill="#FFB700"/>
<path d="M22.7929 46.3532C23.2664 46.3532 23.6501 45.9694 23.6501 45.496C23.6501 45.0226 23.2664 44.6388 22.7929 44.6388C22.3195 44.6388 21.9358 45.0226 21.9358 45.496C21.9358 45.9694 22.3195 46.3532 22.7929 46.3532Z" fill="#FFB700"/>
<path d="M27.3398 46.5082C27.8949 46.5082 28.3439 46.0592 28.3439 45.5041C28.3439 44.9489 27.8949 44.4999 27.3398 44.4999C26.7847 44.4999 26.3357 44.9489 26.3357 45.5041C26.3357 46.0592 26.7847 46.5082 27.3398 46.5082Z" fill="#FFB700"/>
<path d="M31.8791 46.6634C32.5238 46.6634 33.0465 46.1407 33.0465 45.496C33.0465 44.8512 32.5238 44.3286 31.8791 44.3286C31.2343 44.3286 30.7117 44.8512 30.7117 45.496C30.7117 46.1407 31.2343 46.6634 31.8791 46.6634Z" fill="#FFB700"/>
<path d="M36.4181 46.8184C37.1485 46.8184 37.7407 46.2263 37.7407 45.4959C37.7407 44.7655 37.1485 44.1734 36.4181 44.1734C35.6877 44.1734 35.0956 44.7655 35.0956 45.4959C35.0956 46.2263 35.6877 46.8184 36.4181 46.8184Z" fill="#FFB700"/>
<path d="M40.957 46.9654C41.7686 46.9654 42.4265 46.3075 42.4265 45.4959C42.4265 44.6844 41.7686 44.0265 40.957 44.0265C40.1455 44.0265 39.4876 44.6844 39.4876 45.4959C39.4876 46.3075 40.1455 46.9654 40.957 46.9654Z" fill="#FFB700"/>
<path d="M45.5041 47.0715C46.3743 47.0715 47.0797 46.3661 47.0797 45.4959C47.0797 44.6258 46.3743 43.9203 45.5041 43.9203C44.634 43.9203 43.9285 44.6258 43.9285 45.4959C43.9285 46.3661 44.634 47.0715 45.5041 47.0715Z" fill="#FFB700"/>
<path d="M50.0431 46.9654C50.8546 46.9654 51.5125 46.3075 51.5125 45.4959C51.5125 44.6844 50.8546 44.0265 50.0431 44.0265C49.2315 44.0265 48.5736 44.6844 48.5736 45.4959C48.5736 46.3075 49.2315 46.9654 50.0431 46.9654Z" fill="#FFB700"/>
<path d="M54.582 46.8266C55.3169 46.8266 55.9127 46.2308 55.9127 45.4959C55.9127 44.761 55.3169 44.1652 54.582 44.1652C53.8471 44.1652 53.2513 44.761 53.2513 45.4959C53.2513 46.2308 53.8471 46.8266 54.582 46.8266Z" fill="#FFB700"/>
<path d="M59.1212 46.6634C59.7659 46.6634 60.2886 46.1407 60.2886 45.496C60.2886 44.8512 59.7659 44.3286 59.1212 44.3286C58.4765 44.3286 57.9538 44.8512 57.9538 45.496C57.9538 46.1407 58.4765 46.6634 59.1212 46.6634Z" fill="#FFB700"/>
<path d="M63.6683 46.5164C64.2319 46.5164 64.6888 46.0595 64.6888 45.4959C64.6888 44.9323 64.2319 44.4755 63.6683 44.4755C63.1048 44.4755 62.6479 44.9323 62.6479 45.4959C62.6479 46.0595 63.1048 46.5164 63.6683 46.5164Z" fill="#FFB700"/>
<path d="M68.2073 46.3613C68.6852 46.3613 69.0727 45.9739 69.0727 45.496C69.0727 45.018 68.6852 44.6306 68.2073 44.6306C67.7294 44.6306 67.342 45.018 67.342 45.496C67.342 45.9739 67.7294 46.3613 68.2073 46.3613Z" fill="#FFB700"/>
<path d="M72.7461 46.2143C73.1461 46.2143 73.4645 45.8959 73.4645 45.4959C73.4645 45.0959 73.1461 44.7775 72.7461 44.7775C72.3461 44.7775 72.0277 45.0959 72.0277 45.4959C72.0277 45.8959 72.3461 46.2143 72.7461 46.2143Z" fill="#FFB700"/>
<path d="M77.2853 46.0511C77.5919 46.0511 77.8404 45.8025 77.8404 45.4959C77.8404 45.1893 77.5919 44.9408 77.2853 44.9408C76.9787 44.9408 76.7302 45.1893 76.7302 45.4959C76.7302 45.8025 76.9787 46.0511 77.2853 46.0511Z" fill="#FFB700"/>
<path d="M81.8323 45.8959C82.0532 45.8959 82.2323 45.7168 82.2323 45.4959C82.2323 45.275 82.0532 45.0959 81.8323 45.0959C81.6113 45.0959 81.4322 45.275 81.4322 45.4959C81.4322 45.7168 81.6113 45.8959 81.8323 45.8959Z" fill="#FFB700"/>
<path d="M86.3714 45.749C86.5102 45.749 86.6245 45.6347 86.6245 45.4959C86.6245 45.3571 86.5102 45.2429 86.3714 45.2429C86.2326 45.2429 86.1183 45.3571 86.1183 45.4959C86.1183 45.6347 86.2326 45.749 86.3714 45.749Z" fill="#FFB700"/>
<path d="M90.9102 45.5857C90.9592 45.5857 91 45.5449 91 45.4959C91 45.4469 90.9592 45.4061 90.9102 45.4061C90.8612 45.4061 90.8204 45.4469 90.8204 45.4959C90.8204 45.5449 90.8612 45.5857 90.9102 45.5857Z" fill="#FFB700"/>
<path d="M0.0898119 50.1165C0.13063 50.1165 0.163282 50.0838 0.163282 50.043C0.163282 50.0022 0.13063 49.9695 0.0898119 49.9695C0.0489937 49.9695 0.0163422 50.0022 0.0163422 50.043C0.0163422 50.0838 0.0489937 50.1165 0.0898119 50.1165Z" fill="#FFB700"/>
<path d="M4.62889 50.2635C4.75134 50.2635 4.85747 50.1655 4.85747 50.0349C4.85747 49.9043 4.75951 49.8063 4.62889 49.8063C4.49827 49.8063 4.40031 49.9043 4.40031 50.0349C4.40031 50.1655 4.49827 50.2635 4.62889 50.2635Z" fill="#FFB700"/>
<path d="M9.17574 50.4268C9.38799 50.4268 9.56758 50.2553 9.56758 50.0349C9.56758 49.8145 9.39616 49.6431 9.17574 49.6431C8.95532 49.6431 8.78387 49.8145 8.78387 50.0349C8.78387 50.2553 8.95532 50.4268 9.17574 50.4268Z" fill="#FFB700"/>
<path d="M13.715 50.5819C14.0171 50.5819 14.2538 50.337 14.2538 50.0431C14.2538 49.7492 14.0089 49.5043 13.715 49.5043C13.4211 49.5043 13.1762 49.7492 13.1762 50.0431C13.1762 50.337 13.4211 50.5819 13.715 50.5819Z" fill="#FFB700"/>
<path d="M18.2537 50.7369C18.6374 50.7369 18.9476 50.4267 18.9476 50.043C18.9476 49.6593 18.6374 49.3491 18.2537 49.3491C17.87 49.3491 17.5598 49.6593 17.5598 50.043C17.5598 50.4267 17.87 50.7369 18.2537 50.7369Z" fill="#FFB700"/>
<path d="M22.793 50.8839C23.2583 50.8839 23.6338 50.5084 23.6338 50.0431C23.6338 49.5777 23.2583 49.2022 22.793 49.2022C22.3276 49.2022 21.9521 49.5777 21.9521 50.0431C21.9521 50.5084 22.3276 50.8839 22.793 50.8839Z" fill="#FFB700"/>
<path d="M27.34 51.039C27.887 51.039 28.336 50.59 28.336 50.043C28.336 49.4961 27.887 49.0471 27.34 49.0471C26.7931 49.0471 26.3441 49.4961 26.3441 50.043C26.3441 50.59 26.7931 51.039 27.34 51.039Z" fill="#FFB700"/>
<path d="M31.8789 51.186C32.5157 51.186 33.0218 50.6717 33.0218 50.0431C33.0218 49.4145 32.5075 48.9001 31.8789 48.9001C31.2503 48.9001 30.736 49.4145 30.736 50.0431C30.736 50.6717 31.2503 51.186 31.8789 51.186Z" fill="#FFB700"/>
<path d="M36.418 51.3247C37.1282 51.3247 37.6997 50.7533 37.6997 50.043C37.6997 49.3328 37.1282 48.7614 36.418 48.7614C35.7078 48.7614 35.1363 49.3328 35.1363 50.043C35.1363 50.7533 35.7078 51.3247 36.418 51.3247Z" fill="#FFB700"/>
<path d="M40.9569 51.4472C41.7324 51.4472 42.3692 50.8186 42.3692 50.0349C42.3692 49.2512 41.7406 48.6226 40.9569 48.6226C40.1732 48.6226 39.5446 49.2512 39.5446 50.0349C39.5446 50.8186 40.1732 51.4472 40.9569 51.4472Z" fill="#FFB700"/>
<path d="M45.504 51.5125C46.3156 51.5125 46.9735 50.8546 46.9735 50.0431C46.9735 49.2315 46.3156 48.5736 45.504 48.5736C44.6925 48.5736 44.0346 49.2315 44.0346 50.0431C44.0346 50.8546 44.6925 51.5125 45.504 51.5125Z" fill="#FFB700"/>
<path d="M50.0431 51.4636C50.8276 51.4636 51.4636 50.8276 51.4636 50.0431C51.4636 49.2586 50.8276 48.6226 50.0431 48.6226C49.2586 48.6226 48.6226 49.2586 48.6226 50.0431C48.6226 50.8276 49.2586 51.4636 50.0431 51.4636Z" fill="#FFB700"/>
<path d="M54.582 51.341C55.3004 51.341 55.8801 50.7614 55.8801 50.043C55.8801 49.3246 55.3004 48.745 54.582 48.745C53.8636 48.745 53.284 49.3246 53.284 50.043C53.284 50.7614 53.8636 51.341 54.582 51.341Z" fill="#FFB700"/>
<path d="M59.121 51.186C59.7578 51.186 60.2639 50.6717 60.2639 50.0431C60.2639 49.4145 59.7496 48.9001 59.121 48.9001C58.4924 48.9001 57.9781 49.4145 57.9781 50.0431C57.9781 50.6717 58.4924 51.186 59.121 51.186Z" fill="#FFB700"/>
<path d="M63.668 51.0471C64.2231 51.0471 64.6721 50.5981 64.6721 50.043C64.6721 49.4879 64.2231 49.0389 63.668 49.0389C63.1128 49.0389 62.6638 49.4879 62.6638 50.043C62.6638 50.5981 63.1128 51.0471 63.668 51.0471Z" fill="#FFB700"/>
<path d="M68.2071 50.9002C68.6806 50.9002 69.0643 50.5165 69.0643 50.043C69.0643 49.5695 68.6806 49.1859 68.2071 49.1859C67.7337 49.1859 67.35 49.5695 67.35 50.043C67.35 50.5165 67.7337 50.9002 68.2071 50.9002Z" fill="#FFB700"/>
<path d="M72.7461 50.7451C73.138 50.7451 73.4482 50.4267 73.4482 50.043C73.4482 49.6593 73.1298 49.3409 72.7461 49.3409C72.3624 49.3409 72.044 49.6593 72.044 50.043C72.044 50.4267 72.3624 50.7451 72.7461 50.7451Z" fill="#FFB700"/>
<path d="M77.2853 50.5982C77.5873 50.5982 77.8404 50.3533 77.8404 50.043C77.8404 49.7328 77.5955 49.4879 77.2853 49.4879C76.9751 49.4879 76.7302 49.7328 76.7302 50.043C76.7302 50.3533 76.9751 50.5982 77.2853 50.5982Z" fill="#FFB700"/>
<path d="M81.8323 50.4431C82.0532 50.4431 82.2323 50.264 82.2323 50.0431C82.2323 49.8222 82.0532 49.6431 81.8323 49.6431C81.6113 49.6431 81.4322 49.8222 81.4322 50.0431C81.4322 50.264 81.6113 50.4431 81.8323 50.4431Z" fill="#FFB700"/>
<path d="M86.371 50.2798C86.5016 50.2798 86.6078 50.1737 86.6078 50.0431C86.6078 49.9125 86.5016 49.8063 86.371 49.8063C86.2404 49.8063 86.1343 49.9125 86.1343 50.0431C86.1343 50.1737 86.2404 50.2798 86.371 50.2798Z" fill="#FFB700"/>
<path d="M90.9102 50.1247C90.9592 50.1247 91 50.0839 91 50.0349C91 49.9859 90.9592 49.9451 90.9102 49.9451C90.8612 49.9451 90.8204 49.9859 90.8204 50.0349C90.8204 50.0839 90.8612 50.1247 90.9102 50.1247Z" fill="#FFB700"/>
<path d="M0.0896379 54.6473C0.0896379 54.6473 0.154936 54.6229 0.154936 54.582C0.154936 54.5412 0.130456 54.5167 0.0896379 54.5167C0.0488197 54.5167 0.0243149 54.5412 0.0243149 54.582C0.0243149 54.6229 0.0488197 54.6473 0.0896379 54.6473Z" fill="#FFB700"/>
<path d="M4.62871 54.7861C4.74143 54.7861 4.8328 54.6947 4.8328 54.582C4.8328 54.4693 4.74143 54.3779 4.62871 54.3779C4.516 54.3779 4.42462 54.4693 4.42462 54.582C4.42462 54.6947 4.516 54.7861 4.62871 54.7861Z" fill="#FFB700"/>
<path d="M9.17597 54.9494C9.37886 54.9494 9.54332 54.785 9.54332 54.5821C9.54332 54.3792 9.37886 54.2147 9.17597 54.2147C8.97308 54.2147 8.80859 54.3792 8.80859 54.5821C8.80859 54.785 8.97308 54.9494 9.17597 54.9494Z" fill="#FFB700"/>
<path d="M13.715 55.0882C13.9946 55.0882 14.2212 54.8615 14.2212 54.582C14.2212 54.3025 13.9946 54.0759 13.715 54.0759C13.4355 54.0759 13.2089 54.3025 13.2089 54.582C13.2089 54.8615 13.4355 55.0882 13.715 55.0882Z" fill="#FFB700"/>
<path d="M18.2539 55.2352C18.6146 55.2352 18.907 54.9428 18.907 54.5821C18.907 54.2214 18.6146 53.929 18.2539 53.929C17.8933 53.929 17.6008 54.2214 17.6008 54.5821C17.6008 54.9428 17.8933 55.2352 18.2539 55.2352Z" fill="#FFB700"/>
<path d="M22.793 55.3902C23.2393 55.3902 23.6012 55.0284 23.6012 54.582C23.6012 54.1356 23.2393 53.7738 22.793 53.7738C22.3466 53.7738 21.9848 54.1356 21.9848 54.582C21.9848 55.0284 22.3466 55.3902 22.793 55.3902Z" fill="#FFB700"/>
<path d="M27.3401 55.529C27.8625 55.529 28.2871 55.1045 28.2871 54.582C28.2871 54.0595 27.8625 53.635 27.3401 53.635C26.8176 53.635 26.3931 54.0595 26.3931 54.582C26.3931 55.1045 26.8176 55.529 27.3401 55.529Z" fill="#FFB700"/>
<path d="M31.8792 55.6678C32.4751 55.6678 32.9649 55.1861 32.9649 54.582C32.9649 53.9779 32.4833 53.4963 31.8792 53.4963C31.2751 53.4963 30.7934 53.9779 30.7934 54.582C30.7934 55.1861 31.2751 55.6678 31.8792 55.6678Z" fill="#FFB700"/>
<path d="M36.4181 55.7739C37.0793 55.7739 37.6181 55.2351 37.6181 54.5739C37.6181 53.9126 37.0793 53.3738 36.4181 53.3738C35.7568 53.3738 35.218 53.9126 35.218 54.5739C35.218 55.2351 35.7568 55.7739 36.4181 55.7739Z" fill="#FFB700"/>
<path d="M40.957 55.8801C41.6754 55.8801 42.255 55.3005 42.255 54.5821C42.255 53.8637 41.6754 53.2841 40.957 53.2841C40.2386 53.2841 39.659 53.8637 39.659 54.5821C39.659 55.3005 40.2386 55.8801 40.957 55.8801Z" fill="#FFB700"/>
<path d="M45.5042 55.9127C46.2389 55.9127 46.843 55.3167 46.843 54.5738C46.843 53.8309 46.2471 53.235 45.5042 53.235C44.7613 53.235 44.1653 53.8309 44.1653 54.5738C44.1653 55.3167 44.7613 55.9127 45.5042 55.9127Z" fill="#FFB700"/>
<path d="M50.043 55.8801C50.7614 55.8801 51.341 55.3005 51.341 54.5821C51.341 53.8637 50.7614 53.2841 50.043 53.2841C49.3246 53.2841 48.745 53.8637 48.745 54.5821C48.745 55.3005 49.3246 55.8801 50.043 55.8801Z" fill="#FFB700"/>
<path d="M54.5819 55.7903C55.2514 55.7903 55.7901 55.2515 55.7901 54.5821C55.7901 53.9126 55.2514 53.3738 54.5819 53.3738C53.9125 53.3738 53.3737 53.9126 53.3737 54.5821C53.3737 55.2515 53.9125 55.7903 54.5819 55.7903Z" fill="#FFB700"/>
<path d="M59.1209 55.6678C59.7168 55.6678 60.2067 55.1861 60.2067 54.582C60.2067 53.9779 59.725 53.4963 59.1209 53.4963C58.5168 53.4963 58.0351 53.9779 58.0351 54.582C58.0351 55.1861 58.5168 55.6678 59.1209 55.6678Z" fill="#FFB700"/>
<path d="M63.668 55.5371C64.1955 55.5371 64.6232 55.1095 64.6232 54.582C64.6232 54.0545 64.1955 53.6268 63.668 53.6268C63.1405 53.6268 62.7129 54.0545 62.7129 54.582C62.7129 55.1095 63.1405 55.5371 63.668 55.5371Z" fill="#FFB700"/>
<path d="M68.2072 55.3902C68.6536 55.3902 69.0154 55.0284 69.0154 54.582C69.0154 54.1356 68.6536 53.7738 68.2072 53.7738C67.7608 53.7738 67.399 54.1356 67.399 54.582C67.399 55.0284 67.7608 55.3902 68.2072 55.3902Z" fill="#FFB700"/>
<path d="M72.7462 55.2515C73.1135 55.2515 73.4156 54.9494 73.4156 54.5821C73.4156 54.2147 73.1135 53.9127 72.7462 53.9127C72.3788 53.9127 72.0767 54.2147 72.0767 54.5821C72.0767 54.9494 72.3788 55.2515 72.7462 55.2515Z" fill="#FFB700"/>
<path d="M77.2851 55.0963C77.5692 55.0963 77.7994 54.866 77.7994 54.582C77.7994 54.2979 77.5692 54.0677 77.2851 54.0677C77.0011 54.0677 76.7708 54.2979 76.7708 54.582C76.7708 54.866 77.0011 55.0963 77.2851 55.0963Z" fill="#FFB700"/>
<path d="M81.8323 54.9494C82.0352 54.9494 82.1996 54.785 82.1996 54.5821C82.1996 54.3792 82.0352 54.2147 81.8323 54.2147C81.6294 54.2147 81.4649 54.3792 81.4649 54.5821C81.4649 54.785 81.6294 54.9494 81.8323 54.9494Z" fill="#FFB700"/>
<path d="M86.3713 54.7943C86.4855 54.7943 86.5835 54.6963 86.5835 54.582C86.5835 54.4677 86.4855 54.3698 86.3713 54.3698C86.257 54.3698 86.159 54.4677 86.159 54.582C86.159 54.6963 86.257 54.7943 86.3713 54.7943Z" fill="#FFB700"/>
<path d="M90.9102 54.6556C90.9511 54.6556 90.9837 54.6229 90.9837 54.5821C90.9837 54.5413 90.9511 54.5086 90.9102 54.5086C90.8694 54.5086 90.8367 54.5413 90.8367 54.5821C90.8367 54.6229 90.8694 54.6556 90.9102 54.6556Z" fill="#FFB700"/>
<path d="M0.0898596 59.1618C0.0898596 59.1618 0.130668 59.1455 0.130668 59.121C0.130668 59.0965 0.11435 59.0802 0.0898596 59.0802C0.0653687 59.0802 0.0490265 59.0965 0.0490265 59.121C0.0490265 59.1455 0.0653687 59.1618 0.0898596 59.1618Z" fill="#FFB700"/>
<path d="M4.62897 59.2842C4.71914 59.2842 4.79225 59.2112 4.79225 59.121C4.79225 59.0308 4.71914 58.9577 4.62897 58.9577C4.53879 58.9577 4.46568 59.0308 4.46568 59.121C4.46568 59.2112 4.53879 59.2842 4.62897 59.2842Z" fill="#FFB700"/>
<path d="M9.17601 59.4394C9.35185 59.4394 9.49438 59.2969 9.49438 59.1211C9.49438 58.9452 9.35185 58.8027 9.17601 58.8027C9.00018 58.8027 8.85762 58.9452 8.85762 59.1211C8.85762 59.2969 9.00018 59.4394 9.17601 59.4394Z" fill="#FFB700"/>
<path d="M13.7151 59.5781C13.9676 59.5781 14.1722 59.3735 14.1722 59.121C14.1722 58.8685 13.9676 58.6638 13.7151 58.6638C13.4626 58.6638 13.2579 58.8685 13.2579 59.121C13.2579 59.3735 13.4626 59.5781 13.7151 59.5781Z" fill="#FFB700"/>
<path d="M18.2538 59.7169C18.5803 59.7169 18.8416 59.4557 18.8416 59.121C18.8416 58.7863 18.5803 58.5332 18.2538 58.5332C17.9272 58.5332 17.6578 58.7944 17.6578 59.121C17.6578 59.4475 17.9191 59.7169 18.2538 59.7169Z" fill="#FFB700"/>
<path d="M22.7927 59.8558C23.1927 59.8558 23.5192 59.5292 23.5192 59.1292C23.5192 58.7292 23.1927 58.4026 22.7927 58.4026C22.3927 58.4026 22.0661 58.7292 22.0661 59.1292C22.0661 59.5292 22.3927 59.8558 22.7927 59.8558Z" fill="#FFB700"/>
<path d="M27.34 59.9782C27.8135 59.9782 28.1971 59.5945 28.1971 59.121C28.1971 58.6475 27.8135 58.2639 27.34 58.2639C26.8665 58.2639 26.4828 58.6475 26.4828 59.121C26.4828 59.5945 26.8665 59.9782 27.34 59.9782Z" fill="#FFB700"/>
<path d="M31.8791 60.1088C32.4179 60.1088 32.8587 59.668 32.8587 59.1292C32.8587 58.5904 32.4179 58.1495 31.8791 58.1495C31.3403 58.1495 30.8994 58.5904 30.8994 59.1292C30.8994 59.668 31.3403 60.1088 31.8791 60.1088Z" fill="#FFB700"/>
<path d="M36.4178 60.2067C37.0137 60.2067 37.5035 59.7251 37.5035 59.121C37.5035 58.5169 37.0219 58.0352 36.4178 58.0352C35.8137 58.0352 35.332 58.5169 35.332 59.121C35.332 59.7251 35.8137 60.2067 36.4178 60.2067Z" fill="#FFB700"/>
<path d="M40.9569 60.2721C41.5937 60.2721 42.0998 59.7578 42.0998 59.1292C42.0998 58.5006 41.5855 57.9863 40.9569 57.9863C40.3283 57.9863 39.814 58.5006 39.814 59.1292C39.814 59.7578 40.3283 60.2721 40.9569 60.2721Z" fill="#FFB700"/>
<path d="M45.5041 60.2884C46.1489 60.2884 46.6715 59.7657 46.6715 59.121C46.6715 58.4763 46.1489 57.9536 45.5041 57.9536C44.8594 57.9536 44.3367 58.4763 44.3367 59.121C44.3367 59.7657 44.8594 60.2884 45.5041 60.2884Z" fill="#FFB700"/>
<path d="M50.043 60.2721C50.6797 60.2721 51.1859 59.7578 51.1859 59.1292C51.1859 58.5006 50.6716 57.9863 50.043 57.9863C49.4144 57.9863 48.9001 58.5006 48.9001 59.1292C48.9001 59.7578 49.4144 60.2721 50.043 60.2721Z" fill="#FFB700"/>
<path d="M54.5819 60.2067C55.1778 60.2067 55.6676 59.7251 55.6676 59.121C55.6676 58.5169 55.186 58.0352 54.5819 58.0352C53.9778 58.0352 53.4961 58.5169 53.4961 59.121C53.4961 59.7251 53.9778 60.2067 54.5819 60.2067Z" fill="#FFB700"/>
<path d="M59.1212 60.1088C59.66 60.1088 60.1008 59.668 60.1008 59.1292C60.1008 58.5904 59.66 58.1495 59.1212 58.1495C58.5824 58.1495 58.1416 58.5904 58.1416 59.1292C58.1416 59.668 58.5824 60.1088 59.1212 60.1088Z" fill="#FFB700"/>
<path d="M63.6683 59.9864C64.1462 59.9864 64.5336 59.5989 64.5336 59.121C64.5336 58.6431 64.1462 58.2557 63.6683 58.2557C63.1904 58.2557 62.803 58.6431 62.803 59.121C62.803 59.5989 63.1904 59.9864 63.6683 59.9864Z" fill="#FFB700"/>
<path d="M68.2072 59.8639C68.6154 59.8639 68.9501 59.5292 68.9501 59.121C68.9501 58.7128 68.6154 58.3781 68.2072 58.3781C67.7991 58.3781 67.4644 58.7128 67.4644 59.121C67.4644 59.5292 67.7991 59.8639 68.2072 59.8639Z" fill="#FFB700"/>
<path d="M72.7462 59.7252C73.0809 59.7252 73.3503 59.4558 73.3503 59.1211C73.3503 58.7864 73.0809 58.517 72.7462 58.517C72.4115 58.517 72.1421 58.7864 72.1421 59.1211C72.1421 59.4558 72.4115 59.7252 72.7462 59.7252Z" fill="#FFB700"/>
<path d="M77.2852 59.5863C77.5422 59.5863 77.7505 59.378 77.7505 59.121C77.7505 58.864 77.5422 58.6556 77.2852 58.6556C77.0282 58.6556 76.8198 58.864 76.8198 59.121C76.8198 59.378 77.0282 59.5863 77.2852 59.5863Z" fill="#FFB700"/>
<path d="M81.8323 59.4394C82.0082 59.4394 82.1507 59.2969 82.1507 59.1211C82.1507 58.9452 82.0082 58.8027 81.8323 58.8027C81.6565 58.8027 81.5139 58.9452 81.5139 59.1211C81.5139 59.2969 81.6565 59.4394 81.8323 59.4394Z" fill="#FFB700"/>
<path d="M86.3713 59.3006C86.4692 59.3006 86.5509 59.219 86.5509 59.121C86.5509 59.023 86.4692 58.9414 86.3713 58.9414C86.2733 58.9414 86.1917 59.023 86.1917 59.121C86.1917 59.219 86.2733 59.3006 86.3713 59.3006Z" fill="#FFB700"/>
<path d="M90.9102 59.1618C90.9328 59.1618 90.951 59.1436 90.951 59.121C90.951 59.0985 90.9328 59.0802 90.9102 59.0802C90.8877 59.0802 90.8694 59.0985 90.8694 59.121C90.8694 59.1436 90.8877 59.1618 90.9102 59.1618Z" fill="#FFB700"/>
<path d="M0.0896846 63.6763C0.0896846 63.6763 0.106003 63.6763 0.106003 63.6599C0.106003 63.6436 0.106012 63.6436 0.0896846 63.6436C0.0733573 63.6436 0.0733414 63.6436 0.0733414 63.6599C0.0733414 63.6763 0.0733573 63.6763 0.0896846 63.6763Z" fill="#FFB700"/>
<path d="M4.62862 63.7742C4.69392 63.7742 4.74289 63.7253 4.74289 63.6599C4.74289 63.5946 4.69392 63.5457 4.62862 63.5457C4.56331 63.5457 4.51431 63.5946 4.51431 63.6599C4.51431 63.7253 4.56331 63.7742 4.62862 63.7742Z" fill="#FFB700"/>
<path d="M9.17606 63.9131C9.31583 63.9131 9.42913 63.7998 9.42913 63.6601C9.42913 63.5203 9.31583 63.407 9.17606 63.407C9.03629 63.407 8.92299 63.5203 8.92299 63.6601C8.92299 63.7998 9.03629 63.9131 9.17606 63.9131Z" fill="#FFB700"/>
<path d="M13.7148 64.0518C13.927 64.0518 14.1066 63.8804 14.1066 63.66C14.1066 63.4396 13.9352 63.2681 13.7148 63.2681C13.4943 63.2681 13.3229 63.4396 13.3229 63.66C13.3229 63.8804 13.4943 64.0518 13.7148 64.0518Z" fill="#FFB700"/>
<path d="M18.2539 64.1824C18.5396 64.1824 18.7682 63.9538 18.7682 63.6681C18.7682 63.3824 18.5396 63.1538 18.2539 63.1538C17.9681 63.1538 17.7396 63.3824 17.7396 63.6681C17.7396 63.9538 17.9681 64.1824 18.2539 64.1824Z" fill="#FFB700"/>
<path d="M22.7928 64.3049C23.1438 64.3049 23.4377 64.0191 23.4377 63.6599C23.4377 63.3007 23.152 63.015 22.7928 63.015C22.4336 63.015 22.1478 63.3007 22.1478 63.6599C22.1478 64.0191 22.4336 64.3049 22.7928 64.3049Z" fill="#FFB700"/>
<path d="M27.3398 64.4356C27.7643 64.4356 28.1072 64.0927 28.1072 63.6682C28.1072 63.2437 27.7643 62.9008 27.3398 62.9008C26.9153 62.9008 26.5725 63.2437 26.5725 63.6682C26.5725 64.0927 26.9153 64.4356 27.3398 64.4356Z" fill="#FFB700"/>
<path d="M31.8792 64.5254C32.3571 64.5254 32.7445 64.1379 32.7445 63.66C32.7445 63.1821 32.3571 62.7947 31.8792 62.7947C31.4013 62.7947 31.0138 63.1821 31.0138 63.66C31.0138 64.1379 31.4013 64.5254 31.8792 64.5254Z" fill="#FFB700"/>
<path d="M36.4181 64.6069C36.9406 64.6069 37.3651 64.1824 37.3651 63.6599C37.3651 63.1375 36.9406 62.713 36.4181 62.713C35.8956 62.713 35.4711 63.1375 35.4711 63.6599C35.4711 64.1824 35.8956 64.6069 36.4181 64.6069Z" fill="#FFB700"/>
<path d="M40.9569 64.6723C41.512 64.6723 41.961 64.2233 41.961 63.6682C41.961 63.1131 41.512 62.6641 40.9569 62.6641C40.4018 62.6641 39.9528 63.1131 39.9528 63.6682C39.9528 64.2233 40.4018 64.6723 40.9569 64.6723Z" fill="#FFB700"/>
<path d="M45.5043 64.6804C46.0678 64.6804 46.5247 64.2236 46.5247 63.66C46.5247 63.0964 46.0678 62.6395 45.5043 62.6395C44.9407 62.6395 44.4838 63.0964 44.4838 63.66C44.4838 64.2236 44.9407 64.6804 45.5043 64.6804Z" fill="#FFB700"/>
<path d="M50.0429 64.6723C50.5981 64.6723 51.047 64.2233 51.047 63.6682C51.047 63.1131 50.5981 62.6641 50.0429 62.6641C49.4878 62.6641 49.0388 63.1131 49.0388 63.6682C49.0388 64.2233 49.4878 64.6723 50.0429 64.6723Z" fill="#FFB700"/>
<path d="M54.582 64.6232C55.1126 64.6232 55.5371 64.1987 55.5371 63.6681C55.5371 63.1375 55.1126 62.713 54.582 62.713C54.0514 62.713 53.6268 63.1375 53.6268 63.6681C53.6268 64.1987 54.0514 64.6232 54.582 64.6232Z" fill="#FFB700"/>
<path d="M59.1209 64.5254C59.5988 64.5254 59.9862 64.1379 59.9862 63.66C59.9862 63.1821 59.5988 62.7947 59.1209 62.7947C58.643 62.7947 58.2556 63.1821 58.2556 63.66C58.2556 64.1379 58.643 64.5254 59.1209 64.5254Z" fill="#FFB700"/>
<path d="M63.668 64.4356C64.0925 64.4356 64.4354 64.0927 64.4354 63.6682C64.4354 63.2437 64.0925 62.9008 63.668 62.9008C63.2435 62.9008 62.9006 63.2437 62.9006 63.6682C62.9006 64.0927 63.2435 64.4356 63.668 64.4356Z" fill="#FFB700"/>
<path d="M68.2072 64.3212C68.5664 64.3212 68.8602 64.0273 68.8602 63.6681C68.8602 63.3089 68.5664 63.015 68.2072 63.015C67.848 63.015 67.554 63.3089 67.554 63.6681C67.554 64.0273 67.848 64.3212 68.2072 64.3212Z" fill="#FFB700"/>
<path d="M72.7461 64.1906C73.04 64.1906 73.2767 63.9539 73.2767 63.66C73.2767 63.3661 73.04 63.1293 72.7461 63.1293C72.4522 63.1293 72.2154 63.3661 72.2154 63.66C72.2154 63.9539 72.4522 64.1906 72.7461 64.1906Z" fill="#FFB700"/>
<path d="M77.2852 64.0682C77.5056 64.0682 77.6852 63.8886 77.6852 63.6681C77.6852 63.4477 77.5056 63.2681 77.2852 63.2681C77.0648 63.2681 76.8852 63.4477 76.8852 63.6681C76.8852 63.8886 77.0648 64.0682 77.2852 64.0682Z" fill="#FFB700"/>
<path d="M81.8322 63.9295C81.9791 63.9295 82.0934 63.807 82.0934 63.6682C82.0934 63.5294 81.971 63.407 81.8322 63.407C81.6934 63.407 81.5709 63.5294 81.5709 63.6682C81.5709 63.807 81.6934 63.9295 81.8322 63.9295Z" fill="#FFB700"/>
<path d="M86.3711 63.7906C86.4446 63.7906 86.4936 63.7334 86.4936 63.6681C86.4936 63.6028 86.4364 63.5457 86.3711 63.5457C86.3058 63.5457 86.2487 63.6028 86.2487 63.6681C86.2487 63.7334 86.3058 63.7906 86.3711 63.7906Z" fill="#FFB700"/>
<path d="M90.9101 63.6763C90.9101 63.6763 90.9264 63.6763 90.9264 63.6599C90.9264 63.6436 90.9264 63.6436 90.9101 63.6436C90.8938 63.6436 90.8937 63.6436 90.8937 63.6599C90.8937 63.6763 90.8938 63.6763 90.9101 63.6763Z" fill="#FFB700"/>
<path d="M4.62866 68.2561C4.65571 68.2561 4.67764 68.2342 4.67764 68.2071C4.67764 68.1801 4.65571 68.1581 4.62866 68.1581C4.60161 68.1581 4.57968 68.1801 4.57968 68.2071C4.57968 68.2342 4.60161 68.2561 4.62866 68.2561Z" fill="#FFB700"/>
<path d="M9.17594 68.3785C9.2739 68.3785 9.35554 68.2969 9.35554 68.1989C9.35554 68.101 9.2739 68.0193 9.17594 68.0193C9.07798 68.0193 8.99634 68.101 8.99634 68.1989C8.99634 68.2969 9.07798 68.3785 9.17594 68.3785Z" fill="#FFB700"/>
<path d="M13.715 68.5093C13.8819 68.5093 14.0171 68.374 14.0171 68.2072C14.0171 68.0404 13.8819 67.9052 13.715 67.9052C13.5482 67.9052 13.413 68.0404 13.413 68.2072C13.413 68.374 13.5482 68.5093 13.715 68.5093Z" fill="#FFB700"/>
<path d="M18.2538 68.6317C18.4905 68.6317 18.6783 68.4439 18.6783 68.2072C18.6783 67.9704 18.4905 67.7827 18.2538 67.7827C18.017 67.7827 17.8292 67.9704 17.8292 68.2072C17.8292 68.4439 18.017 68.6317 18.2538 68.6317Z" fill="#FFB700"/>
<path d="M22.7927 68.7459C23.0902 68.7459 23.3315 68.5047 23.3315 68.2071C23.3315 67.9096 23.0902 67.6683 22.7927 67.6683C22.4951 67.6683 22.2539 67.9096 22.2539 68.2071C22.2539 68.5047 22.4951 68.7459 22.7927 68.7459Z" fill="#FFB700"/>
<path d="M27.3402 68.8439C27.6912 68.8439 27.9851 68.5582 27.9851 68.199C27.9851 67.8398 27.6994 67.5541 27.3402 67.5541C26.981 67.5541 26.6952 67.8398 26.6952 68.199C26.6952 68.5582 26.981 68.8439 27.3402 68.8439Z" fill="#FFB700"/>
<path d="M31.8791 68.95C32.2873 68.95 32.622 68.6153 32.622 68.2071C32.622 67.7989 32.2873 67.4642 31.8791 67.4642C31.4709 67.4642 31.1362 67.7989 31.1362 68.2071C31.1362 68.6153 31.4709 68.95 31.8791 68.95Z" fill="#FFB700"/>
<path d="M36.418 69.0154C36.8644 69.0154 37.2262 68.6535 37.2262 68.2072C37.2262 67.7608 36.8644 67.399 36.418 67.399C35.9717 67.399 35.6098 67.7608 35.6098 68.2072C35.6098 68.6535 35.9717 69.0154 36.418 69.0154Z" fill="#FFB700"/>
<path d="M40.957 69.0643C41.4305 69.0643 41.8142 68.6806 41.8142 68.2072C41.8142 67.7337 41.4305 67.35 40.957 67.35C40.4835 67.35 40.0999 67.7337 40.0999 68.2072C40.0999 68.6806 40.4835 69.0643 40.957 69.0643Z" fill="#FFB700"/>
<path d="M45.5042 69.0725C45.9821 69.0725 46.3696 68.6851 46.3696 68.2071C46.3696 67.7292 45.9821 67.3418 45.5042 67.3418C45.0263 67.3418 44.6389 67.7292 44.6389 68.2071C44.6389 68.6851 45.0263 69.0725 45.5042 69.0725Z" fill="#FFB700"/>
<path d="M50.0431 69.0643C50.5165 69.0643 50.9002 68.6806 50.9002 68.2072C50.9002 67.7338 50.5165 67.35 50.0431 67.35C49.5697 67.35 49.1859 67.7338 49.1859 68.2072C49.1859 68.6806 49.5697 69.0643 50.0431 69.0643Z" fill="#FFB700"/>
<path d="M54.5821 69.0154C55.0285 69.0154 55.3903 68.6535 55.3903 68.2072C55.3903 67.7608 55.0285 67.399 54.5821 67.399C54.1358 67.399 53.7739 67.7608 53.7739 68.2072C53.7739 68.6535 54.1358 69.0154 54.5821 69.0154Z" fill="#FFB700"/>
<path d="M59.1208 68.95C59.529 68.95 59.8637 68.6153 59.8637 68.2071C59.8637 67.7989 59.529 67.4642 59.1208 67.4642C58.7126 67.4642 58.3779 67.7989 58.3779 68.2071C58.3779 68.6153 58.7126 68.95 59.1208 68.95Z" fill="#FFB700"/>
<path d="M63.6681 68.8603C64.0288 68.8603 64.3212 68.5679 64.3212 68.2072C64.3212 67.8465 64.0288 67.5541 63.6681 67.5541C63.3074 67.5541 63.015 67.8465 63.015 68.2072C63.015 68.5679 63.3074 68.8603 63.6681 68.8603Z" fill="#FFB700"/>
<path d="M68.2072 68.7622C68.5138 68.7622 68.7623 68.5137 68.7623 68.2071C68.7623 67.9005 68.5138 67.652 68.2072 67.652C67.9006 67.652 67.6521 67.9005 67.6521 68.2071C67.6521 68.5137 67.9006 68.7622 68.2072 68.7622Z" fill="#FFB700"/>
<path d="M72.746 68.648C72.9909 68.648 73.1868 68.452 73.1868 68.2071C73.1868 67.9622 72.9909 67.7663 72.746 67.7663C72.5011 67.7663 72.3051 67.9622 72.3051 68.2071C72.3051 68.452 72.5011 68.648 72.746 68.648Z" fill="#FFB700"/>
<path d="M77.2849 68.5256C77.4608 68.5256 77.6033 68.383 77.6033 68.2072C77.6033 68.0313 77.4608 67.8888 77.2849 67.8888C77.1091 67.8888 76.9665 68.0313 76.9665 68.2072C76.9665 68.383 77.1091 68.5256 77.2849 68.5256Z" fill="#FFB700"/>
<path d="M81.8321 68.3949C81.9382 68.3949 82.0198 68.3132 82.0198 68.2071C82.0198 68.101 81.9382 68.0193 81.8321 68.0193C81.7259 68.0193 81.6443 68.101 81.6443 68.2071C81.6443 68.3132 81.7259 68.3949 81.8321 68.3949Z" fill="#FFB700"/>
<path d="M86.3714 68.2561C86.3985 68.2561 86.4204 68.2342 86.4204 68.2071C86.4204 68.1801 86.3985 68.1581 86.3714 68.1581C86.3444 68.1581 86.3224 68.1801 86.3224 68.2071C86.3224 68.2342 86.3444 68.2561 86.3714 68.2561Z" fill="#FFB700"/>
<path d="M4.62869 72.7542C4.62869 72.7542 4.64501 72.7542 4.64501 72.7379C4.64501 72.7216 4.64502 72.7216 4.62869 72.7216C4.61236 72.7216 4.61237 72.7216 4.61237 72.7379C4.61237 72.7542 4.61236 72.7542 4.62869 72.7542Z" fill="#FFB700"/>
<path d="M9.17584 72.8359C9.22544 72.8359 9.26563 72.7957 9.26563 72.7461C9.26563 72.6965 9.22544 72.6563 9.17584 72.6563C9.12625 72.6563 9.08603 72.6965 9.08603 72.7461C9.08603 72.7957 9.12625 72.8359 9.17584 72.8359Z" fill="#FFB700"/>
<path d="M13.7149 72.9583C13.8292 72.9583 13.9272 72.8604 13.9272 72.7461C13.9272 72.6318 13.8292 72.5338 13.7149 72.5338C13.6006 72.5338 13.5027 72.6318 13.5027 72.7461C13.5027 72.8604 13.6006 72.9583 13.7149 72.9583Z" fill="#FFB700"/>
<path d="M18.2538 73.0726C18.4334 73.0726 18.5804 72.9257 18.5804 72.7461C18.5804 72.5665 18.4334 72.4196 18.2538 72.4196C18.0742 72.4196 17.9273 72.5665 17.9273 72.7461C17.9273 72.9257 18.0742 73.0726 18.2538 73.0726Z" fill="#FFB700"/>
<path d="M22.7928 73.1706C23.0295 73.1706 23.2173 72.9828 23.2173 72.7461C23.2173 72.5094 23.0295 72.3216 22.7928 72.3216C22.556 72.3216 22.3683 72.5094 22.3683 72.7461C22.3683 72.9828 22.556 73.1706 22.7928 73.1706Z" fill="#FFB700"/>
<path d="M27.3399 73.2604C27.6239 73.2604 27.8542 73.0302 27.8542 72.7461C27.8542 72.4621 27.6239 72.2318 27.3399 72.2318C27.0558 72.2318 26.8256 72.4621 26.8256 72.7461C26.8256 73.0302 27.0558 73.2604 27.3399 73.2604Z" fill="#FFB700"/>
<path d="M31.879 73.3502C32.2127 73.3502 32.4831 73.0797 32.4831 72.7461C32.4831 72.4124 32.2127 72.142 31.879 72.142C31.5454 72.142 31.2749 72.4124 31.2749 72.7461C31.2749 73.0797 31.5454 73.3502 31.879 73.3502Z" fill="#FFB700"/>
<path d="M36.418 73.3993C36.7787 73.3993 37.0711 73.1069 37.0711 72.7462C37.0711 72.3855 36.7787 72.0931 36.418 72.0931C36.0573 72.0931 35.7649 72.3855 35.7649 72.7462C35.7649 73.1069 36.0573 73.3993 36.418 73.3993Z" fill="#FFB700"/>
<path d="M40.957 73.4482C41.3447 73.4482 41.6591 73.1339 41.6591 72.7461C41.6591 72.3584 41.3447 72.0441 40.957 72.0441C40.5693 72.0441 40.2549 72.3584 40.2549 72.7461C40.2549 73.1339 40.5693 73.4482 40.957 73.4482Z" fill="#FFB700"/>
<path d="M45.504 73.4645C45.9007 73.4645 46.2224 73.1429 46.2224 72.7461C46.2224 72.3493 45.9007 72.0277 45.504 72.0277C45.1072 72.0277 44.7856 72.3493 44.7856 72.7461C44.7856 73.1429 45.1072 73.4645 45.504 73.4645Z" fill="#FFB700"/>
<path d="M50.043 73.4482C50.4308 73.4482 50.7451 73.1339 50.7451 72.7461C50.7451 72.3584 50.4308 72.0441 50.043 72.0441C49.6553 72.0441 49.3409 72.3584 49.3409 72.7461C49.3409 73.1339 49.6553 73.4482 50.043 73.4482Z" fill="#FFB700"/>
<path d="M54.5821 73.4156C54.9518 73.4156 55.2515 73.1158 55.2515 72.7461C55.2515 72.3764 54.9518 72.0767 54.5821 72.0767C54.2124 72.0767 53.9127 72.3764 53.9127 72.7461C53.9127 73.1158 54.2124 73.4156 54.5821 73.4156Z" fill="#FFB700"/>
<path d="M59.1211 73.3502C59.4559 73.3502 59.7252 73.0808 59.7252 72.7461C59.7252 72.4114 59.4559 72.142 59.1211 72.142C58.7864 72.142 58.517 72.4114 58.517 72.7461C58.517 73.0808 58.7864 73.3502 59.1211 73.3502Z" fill="#FFB700"/>
<path d="M63.668 73.2767C63.9619 73.2767 64.1987 73.04 64.1987 72.7461C64.1987 72.4522 63.9619 72.2155 63.668 72.2155C63.3742 72.2155 63.1374 72.4522 63.1374 72.7461C63.1374 73.04 63.3742 73.2767 63.668 73.2767Z" fill="#FFB700"/>
<path d="M68.2069 73.1869C68.4519 73.1869 68.6478 72.991 68.6478 72.7461C68.6478 72.5012 68.4519 72.3052 68.2069 72.3052C67.962 72.3052 67.7661 72.5012 67.7661 72.7461C67.7661 72.991 67.962 73.1869 68.2069 73.1869Z" fill="#FFB700"/>
<path d="M72.7461 73.0726C72.9257 73.0726 73.0726 72.9257 73.0726 72.7461C73.0726 72.5665 72.9257 72.4196 72.7461 72.4196C72.5665 72.4196 72.4195 72.5665 72.4195 72.7461C72.4195 72.9257 72.5665 73.0726 72.7461 73.0726Z" fill="#FFB700"/>
<path d="M77.2852 72.9583C77.4025 72.9583 77.4975 72.8633 77.4975 72.7461C77.4975 72.6288 77.4025 72.5338 77.2852 72.5338C77.168 72.5338 77.073 72.6288 77.073 72.7461C77.073 72.8633 77.168 72.9583 77.2852 72.9583Z" fill="#FFB700"/>
<path d="M81.8323 72.8441C81.8864 72.8441 81.9303 72.8002 81.9303 72.7461C81.9303 72.692 81.8864 72.6481 81.8323 72.6481C81.7782 72.6481 81.7344 72.692 81.7344 72.7461C81.7344 72.8002 81.7782 72.8441 81.8323 72.8441Z" fill="#FFB700"/>
<path d="M86.3711 72.7542C86.3711 72.7542 86.3874 72.7542 86.3874 72.7379C86.3874 72.7216 86.3874 72.7216 86.3711 72.7216C86.3547 72.7216 86.3547 72.7216 86.3547 72.7379C86.3547 72.7542 86.3547 72.7542 86.3711 72.7542Z" fill="#FFB700"/>
<path d="M9.17611 77.3015C9.17611 77.3015 9.19243 77.3015 9.19243 77.2851C9.19243 77.2688 9.19244 77.2688 9.17611 77.2688C9.15978 77.2688 9.15977 77.2688 9.15977 77.2851C9.15977 77.3015 9.15978 77.3015 9.17611 77.3015Z" fill="#FFB700"/>
<path d="M13.715 77.3994C13.7804 77.3994 13.8293 77.3504 13.8293 77.2851C13.8293 77.2198 13.7804 77.1708 13.715 77.1708C13.6497 77.1708 13.6007 77.2198 13.6007 77.2851C13.6007 77.3504 13.6497 77.3994 13.715 77.3994Z" fill="#FFB700"/>
<path d="M18.254 77.4974C18.3683 77.4974 18.4662 77.3994 18.4662 77.2851C18.4662 77.1708 18.3683 77.0729 18.254 77.0729C18.1397 77.0729 18.0417 77.1708 18.0417 77.2851C18.0417 77.3994 18.1397 77.4974 18.254 77.4974Z" fill="#FFB700"/>
<path d="M22.7927 77.5872C22.956 77.5872 23.0947 77.4484 23.0947 77.2851C23.0947 77.1219 22.956 76.9831 22.7927 76.9831C22.6294 76.9831 22.4906 77.1219 22.4906 77.2851C22.4906 77.4484 22.6294 77.5872 22.7927 77.5872Z" fill="#FFB700"/>
<path d="M27.3398 77.6769C27.5521 77.6769 27.7317 77.5055 27.7317 77.285C27.7317 77.0646 27.5602 76.8932 27.3398 76.8932C27.1194 76.8932 26.948 77.0646 26.948 77.285C26.948 77.5055 27.1194 77.6769 27.3398 77.6769Z" fill="#FFB700"/>
<path d="M31.879 77.7504C32.1402 77.7504 32.3443 77.5382 32.3443 77.2851C32.3443 77.032 32.132 76.8198 31.879 76.8198C31.6259 76.8198 31.4136 77.032 31.4136 77.2851C31.4136 77.5382 31.6259 77.7504 31.879 77.7504Z" fill="#FFB700"/>
<path d="M36.4179 77.7994C36.7037 77.7994 36.9323 77.5709 36.9323 77.2851C36.9323 76.9994 36.7037 76.7708 36.4179 76.7708C36.1322 76.7708 35.9036 76.9994 35.9036 77.2851C35.9036 77.5709 36.1322 77.7994 36.4179 77.7994Z" fill="#FFB700"/>
<path d="M40.9567 77.8321C41.2588 77.8321 41.4956 77.5871 41.4956 77.2933C41.4956 76.9994 41.2506 76.7545 40.9567 76.7545C40.6629 76.7545 40.4179 76.9994 40.4179 77.2933C40.4179 77.5871 40.6629 77.8321 40.9567 77.8321Z" fill="#FFB700"/>
<path d="M45.5041 77.8402C45.8062 77.8402 46.0593 77.5953 46.0593 77.2851C46.0593 76.9749 45.8144 76.73 45.5041 76.73C45.1939 76.73 44.949 76.9749 44.949 77.2851C44.949 77.5953 45.1939 77.8402 45.5041 77.8402Z" fill="#FFB700"/>
<path d="M50.0431 77.8402C50.3452 77.8402 50.5983 77.5953 50.5983 77.2851C50.5983 76.9749 50.3534 76.73 50.0431 76.73C49.7329 76.73 49.488 76.9749 49.488 77.2851C49.488 77.5953 49.7329 77.8402 50.0431 77.8402Z" fill="#FFB700"/>
<path d="M54.582 77.7994C54.8678 77.7994 55.0963 77.5709 55.0963 77.2851C55.0963 76.9994 54.8678 76.7708 54.582 76.7708C54.2963 76.7708 54.0677 76.9994 54.0677 77.2851C54.0677 77.5709 54.2963 77.7994 54.582 77.7994Z" fill="#FFB700"/>
<path d="M59.1211 77.7504C59.3823 77.7504 59.5864 77.5382 59.5864 77.2851C59.5864 77.032 59.3742 76.8198 59.1211 76.8198C58.868 76.8198 58.6558 77.032 58.6558 77.2851C58.6558 77.5382 58.868 77.7504 59.1211 77.7504Z" fill="#FFB700"/>
<path d="M63.6682 77.6932C63.8886 77.6932 64.0682 77.5136 64.0682 77.2932C64.0682 77.0728 63.8886 76.8932 63.6682 76.8932C63.4478 76.8932 63.2681 77.0728 63.2681 77.2932C63.2681 77.5136 63.4478 77.6932 63.6682 77.6932Z" fill="#FFB700"/>
<path d="M68.2073 77.6035C68.3787 77.6035 68.5256 77.4647 68.5256 77.2851C68.5256 77.1055 68.3869 76.9667 68.2073 76.9667C68.0277 76.9667 67.8889 77.1055 67.8889 77.2851C67.8889 77.4647 68.0277 77.6035 68.2073 77.6035Z" fill="#FFB700"/>
<path d="M72.7462 77.4974C72.8605 77.4974 72.9585 77.3994 72.9585 77.2851C72.9585 77.1708 72.8605 77.0729 72.7462 77.0729C72.6319 77.0729 72.5339 77.1708 72.5339 77.2851C72.5339 77.3994 72.6319 77.4974 72.7462 77.4974Z" fill="#FFB700"/>
<path d="M77.2849 77.3994C77.3502 77.3994 77.3992 77.3504 77.3992 77.2851C77.3992 77.2198 77.3502 77.1708 77.2849 77.1708C77.2196 77.1708 77.1706 77.2198 77.1706 77.2851C77.1706 77.3504 77.2196 77.3994 77.2849 77.3994Z" fill="#FFB700"/>
<path d="M81.8322 77.3096C81.8322 77.3096 81.8567 77.3014 81.8567 77.2851C81.8567 77.2688 81.8485 77.2606 81.8322 77.2606C81.8159 77.2606 81.8077 77.2688 81.8077 77.2851C81.8077 77.3014 81.8159 77.3096 81.8322 77.3096Z" fill="#FFB700"/>
<path d="M13.7147 81.8404C13.7147 81.8404 13.7311 81.8404 13.7311 81.8241C13.7311 81.8077 13.7311 81.8077 13.7147 81.8077C13.6984 81.8077 13.6984 81.8077 13.6984 81.8241C13.6984 81.8404 13.6984 81.8404 13.7147 81.8404Z" fill="#FFB700"/>
<path d="M18.2539 81.9139C18.3029 81.9139 18.3437 81.873 18.3437 81.8241C18.3437 81.7751 18.3029 81.7343 18.2539 81.7343C18.2049 81.7343 18.1641 81.7751 18.1641 81.8241C18.1641 81.873 18.2049 81.9139 18.2539 81.9139Z" fill="#FFB700"/>
<path d="M22.793 82.0037C22.891 82.0037 22.9726 81.922 22.9726 81.8241C22.9726 81.7261 22.891 81.6445 22.793 81.6445C22.6951 81.6445 22.6134 81.7261 22.6134 81.8241C22.6134 81.922 22.6951 82.0037 22.793 82.0037Z" fill="#FFB700"/>
<path d="M27.3401 82.0772C27.4799 82.0772 27.5932 81.9639 27.5932 81.8241C27.5932 81.6843 27.4799 81.571 27.3401 81.571C27.2004 81.571 27.0871 81.6843 27.0871 81.8241C27.0871 81.9639 27.2004 82.0772 27.3401 82.0772Z" fill="#FFB700"/>
<path d="M31.8791 82.1424C32.0506 82.1424 32.1975 82.0037 32.1975 81.8241C32.1975 81.6445 32.0587 81.5057 31.8791 81.5057C31.6995 81.5057 31.5607 81.6445 31.5607 81.8241C31.5607 82.0037 31.6995 82.1424 31.8791 82.1424Z" fill="#FFB700"/>
<path d="M36.4181 82.1915C36.621 82.1915 36.7854 82.027 36.7854 81.8241C36.7854 81.6212 36.621 81.4567 36.4181 81.4567C36.2152 81.4567 36.0507 81.6212 36.0507 81.8241C36.0507 82.027 36.2152 82.1915 36.4181 82.1915Z" fill="#FFB700"/>
<path d="M40.9569 82.216C41.1692 82.216 41.3488 82.0445 41.3488 81.8241C41.3488 81.6037 41.1773 81.4323 40.9569 81.4323C40.7365 81.4323 40.565 81.6037 40.565 81.8241C40.565 82.0445 40.7365 82.216 40.9569 82.216Z" fill="#FFB700"/>
<path d="M45.5041 82.2241C45.725 82.2241 45.9041 82.045 45.9041 81.8241C45.9041 81.6032 45.725 81.4241 45.5041 81.4241C45.2832 81.4241 45.1041 81.6032 45.1041 81.8241C45.1041 82.045 45.2832 82.2241 45.5041 82.2241Z" fill="#FFB700"/>
<path d="M50.0431 82.2241C50.264 82.2241 50.4431 82.045 50.4431 81.8241C50.4431 81.6032 50.264 81.4241 50.0431 81.4241C49.8222 81.4241 49.6431 81.6032 49.6431 81.8241C49.6431 82.045 49.8222 82.2241 50.0431 82.2241Z" fill="#FFB700"/>
<path d="M54.5822 82.1915C54.7851 82.1915 54.9495 82.027 54.9495 81.8241C54.9495 81.6212 54.7851 81.4567 54.5822 81.4567C54.3793 81.4567 54.2148 81.6212 54.2148 81.8241C54.2148 82.027 54.3793 82.1915 54.5822 82.1915Z" fill="#FFB700"/>
<path d="M59.1208 82.1424C59.2923 82.1424 59.4392 82.0037 59.4392 81.8241C59.4392 81.6445 59.3004 81.5057 59.1208 81.5057C58.9412 81.5057 58.8025 81.6445 58.8025 81.8241C58.8025 82.0037 58.9412 82.1424 59.1208 82.1424Z" fill="#FFB700"/>
<path d="M63.6681 82.0853C63.8124 82.0853 63.9293 81.9684 63.9293 81.8241C63.9293 81.6798 63.8124 81.5629 63.6681 81.5629C63.5238 81.5629 63.4069 81.6798 63.4069 81.8241C63.4069 81.9684 63.5238 82.0853 63.6681 82.0853Z" fill="#FFB700"/>
<path d="M68.207 82.02C68.3131 82.02 68.3947 81.9384 68.3947 81.8322C68.3947 81.7261 68.3131 81.6445 68.207 81.6445C68.1009 81.6445 68.0192 81.7261 68.0192 81.8322C68.0192 81.9384 68.1009 82.02 68.207 82.02Z" fill="#FFB700"/>
<path d="M72.7463 81.922C72.8004 81.922 72.8443 81.8781 72.8443 81.824C72.8443 81.7699 72.8004 81.7261 72.7463 81.7261C72.6922 81.7261 72.6483 81.7699 72.6483 81.824C72.6483 81.8781 72.6922 81.922 72.7463 81.922Z" fill="#FFB700"/>
<path d="M77.2852 81.8567C77.2852 81.8567 77.3097 81.8486 77.3097 81.8322C77.3097 81.8159 77.3015 81.8077 77.2852 81.8077C77.2689 81.8077 77.2607 81.8159 77.2607 81.8322C77.2607 81.8486 77.2689 81.8567 77.2852 81.8567Z" fill="#FFB700"/>
<path d="M18.2538 86.3794C18.2538 86.3794 18.2701 86.3794 18.2701 86.3631C18.2701 86.3467 18.2701 86.3467 18.2538 86.3467C18.2374 86.3467 18.2374 86.3467 18.2374 86.3631C18.2374 86.3794 18.2374 86.3794 18.2538 86.3794Z" fill="#FFB700"/>
<path d="M22.7927 86.4202C22.8198 86.4202 22.8417 86.3982 22.8417 86.3712C22.8417 86.3441 22.8198 86.3222 22.7927 86.3222C22.7657 86.3222 22.7438 86.3441 22.7438 86.3712C22.7438 86.3982 22.7657 86.4202 22.7927 86.4202Z" fill="#FFB700"/>
<path d="M27.3401 86.4855C27.4054 86.4855 27.4544 86.4366 27.4544 86.3712C27.4544 86.3059 27.4054 86.257 27.3401 86.257C27.2748 86.257 27.2258 86.3059 27.2258 86.3712C27.2258 86.4366 27.2748 86.4855 27.3401 86.4855Z" fill="#FFB700"/>
<path d="M31.879 86.5426C31.977 86.5426 32.0586 86.461 32.0586 86.363C32.0586 86.265 31.977 86.1834 31.879 86.1834C31.7811 86.1834 31.6994 86.265 31.6994 86.363C31.6994 86.461 31.7811 86.5426 31.879 86.5426Z" fill="#FFB700"/>
<path d="M36.418 86.5835C36.5353 86.5835 36.6303 86.4885 36.6303 86.3712C36.6303 86.254 36.5353 86.159 36.418 86.159C36.3008 86.159 36.2058 86.254 36.2058 86.3712C36.2058 86.4885 36.3008 86.5835 36.418 86.5835Z" fill="#FFB700"/>
<path d="M40.9568 86.608C41.0875 86.608 41.1936 86.5018 41.1936 86.3712C41.1936 86.2406 41.0875 86.1345 40.9568 86.1345C40.8262 86.1345 40.7201 86.2406 40.7201 86.3712C40.7201 86.5018 40.8262 86.608 40.9568 86.608Z" fill="#FFB700"/>
<path d="M45.5042 86.6243C45.644 86.6243 45.7573 86.511 45.7573 86.3712C45.7573 86.2315 45.644 86.1182 45.5042 86.1182C45.3644 86.1182 45.2511 86.2315 45.2511 86.3712C45.2511 86.511 45.3644 86.6243 45.5042 86.6243Z" fill="#FFB700"/>
<path d="M50.0429 86.608C50.1736 86.608 50.2796 86.502 50.2796 86.3712C50.2796 86.2404 50.1736 86.1345 50.0429 86.1345C49.9121 86.1345 49.8061 86.2404 49.8061 86.3712C49.8061 86.502 49.9121 86.608 50.0429 86.608Z" fill="#FFB700"/>
<path d="M54.5821 86.5835C54.6993 86.5835 54.7944 86.4885 54.7944 86.3712C54.7944 86.254 54.6993 86.159 54.5821 86.159C54.4649 86.159 54.3699 86.254 54.3699 86.3712C54.3699 86.4885 54.4649 86.5835 54.5821 86.5835Z" fill="#FFB700"/>
<path d="M59.1212 86.5426C59.2191 86.5426 59.3008 86.461 59.3008 86.363C59.3008 86.265 59.2191 86.1834 59.1212 86.1834C59.0232 86.1834 58.9416 86.265 58.9416 86.363C58.9416 86.461 59.0232 86.5426 59.1212 86.5426Z" fill="#FFB700"/>
<path d="M63.668 86.4937C63.7415 86.4937 63.7905 86.4365 63.7905 86.3712C63.7905 86.3059 63.7334 86.2488 63.668 86.2488C63.6027 86.2488 63.5456 86.3059 63.5456 86.3712C63.5456 86.4365 63.6027 86.4937 63.668 86.4937Z" fill="#FFB700"/>
<path d="M68.2073 86.4202C68.2344 86.4202 68.2563 86.3982 68.2563 86.3712C68.2563 86.3441 68.2344 86.3222 68.2073 86.3222C68.1803 86.3222 68.1583 86.3441 68.1583 86.3712C68.1583 86.3982 68.1803 86.4202 68.2073 86.4202Z" fill="#FFB700"/>
<path d="M72.746 86.3794C72.746 86.3794 72.7623 86.3794 72.7623 86.3631C72.7623 86.3467 72.7623 86.3467 72.746 86.3467C72.7297 86.3467 72.7297 86.3467 72.7297 86.3631C72.7297 86.3794 72.7297 86.3794 72.746 86.3794Z" fill="#FFB700"/>
<path d="M27.3402 90.9265C27.3402 90.9265 27.3565 90.9265 27.3565 90.9102C27.3565 90.8939 27.3565 90.8939 27.3402 90.8939C27.3239 90.8939 27.3238 90.8939 27.3238 90.9102C27.3238 90.9265 27.3239 90.9265 27.3402 90.9265Z" fill="#FFB700"/>
<path d="M31.879 90.9511C31.879 90.9511 31.9198 90.9348 31.9198 90.9103C31.9198 90.8858 31.9035 90.8694 31.879 90.8694C31.8545 90.8694 31.8382 90.8858 31.8382 90.9103C31.8382 90.9348 31.8545 90.9511 31.879 90.9511Z" fill="#FFB700"/>
<path d="M36.4178 90.9755C36.4178 90.9755 36.4831 90.951 36.4831 90.9102C36.4831 90.8694 36.4586 90.8449 36.4178 90.8449C36.377 90.8449 36.3525 90.8694 36.3525 90.9102C36.3525 90.951 36.377 90.9755 36.4178 90.9755Z" fill="#FFB700"/>
<path d="M40.957 91C41.006 91 41.0468 90.9592 41.0468 90.9102C41.0468 90.8612 41.006 90.8204 40.957 90.8204C40.908 90.8204 40.8672 90.8612 40.8672 90.9102C40.8672 90.9592 40.908 91 40.957 91Z" fill="#FFB700"/>
<path d="M45.504 91C45.553 91 45.5938 90.9592 45.5938 90.9102C45.5938 90.8612 45.553 90.8204 45.504 90.8204C45.455 90.8204 45.4142 90.8612 45.4142 90.9102C45.4142 90.9592 45.455 91 45.504 91Z" fill="#FFB700"/>
<path d="M50.043 91C50.092 91 50.1328 90.9592 50.1328 90.9102C50.1328 90.8612 50.092 90.8204 50.043 90.8204C49.994 90.8204 49.9532 90.8612 49.9532 90.9102C49.9532 90.9592 49.994 91 50.043 91Z" fill="#FFB700"/>
<path d="M54.582 90.9837C54.6229 90.9837 54.6555 90.951 54.6555 90.9102C54.6555 90.8694 54.6229 90.8367 54.582 90.8367C54.5412 90.8367 54.5086 90.8694 54.5086 90.9102C54.5086 90.951 54.5412 90.9837 54.582 90.9837Z" fill="#FFB700"/>
<path d="M59.1211 90.9511C59.1211 90.9511 59.1619 90.9348 59.1619 90.9103C59.1619 90.8858 59.1456 90.8694 59.1211 90.8694C59.0966 90.8694 59.0803 90.8858 59.0803 90.9103C59.0803 90.9348 59.0966 90.9511 59.1211 90.9511Z" fill="#FFB700"/>
<path d="M63.6683 90.9265C63.6683 90.9265 63.6847 90.9265 63.6847 90.9102C63.6847 90.8939 63.6847 90.8939 63.6683 90.8939C63.652 90.8939 63.652 90.8939 63.652 90.9102C63.652 90.9265 63.652 90.9265 63.6683 90.9265Z" fill="#FFB700"/>
</svg>
