<svg width="1442" height="38" viewBox="0 0 1442 38" fill="none" xmlns="http://www.w3.org/2000/svg">
<path d="M1442 0H0V38H1442V0Z" fill="url(#paint0_linear_130_18)" fill-opacity="0.8"/>
<rect y="3" width="1442" height="32" fill="white"/>
<path d="M261 3H257V35H261V3Z" fill="#79567C"/>
<path d="M636 3H632V35H636V3Z" fill="#BB4F26"/>
<path d="M942 3H938V35H942V3Z" fill="#CA7A0B"/>
<path d="M1213 3H1209V35H1213V3Z" fill="#8A821F"/>
<path d="M47.28 13.544H48.944L54.688 22.664H54.752L54.688 20.456V13.544H56.048V25H54.64L48.624 15.448H48.56L48.624 17.656V25H47.28V13.544ZM61.9681 25.256C61.1895 25.256 60.4908 25.0693 59.8721 24.696C59.2535 24.3227 58.7681 23.8107 58.4161 23.16C58.0748 22.4987 57.9041 21.7573 57.9041 20.936C57.9041 20.1467 58.0641 19.4213 58.3841 18.76C58.7148 18.0987 59.1788 17.5707 59.7761 17.176C60.3735 16.7813 61.0668 16.584 61.8561 16.584C62.6561 16.584 63.3495 16.7653 63.9361 17.128C64.5228 17.48 64.9708 17.9707 65.2801 18.6C65.6001 19.2293 65.7601 19.9493 65.7601 20.76C65.7601 20.92 65.7441 21.0587 65.7121 21.176H59.2641C59.2961 21.7947 59.4455 22.3173 59.7121 22.744C59.9788 23.1707 60.3148 23.4907 60.7201 23.704C61.1361 23.9173 61.5681 24.024 62.0161 24.024C63.0615 24.024 63.8668 23.5333 64.4321 22.552L65.5841 23.112C65.2321 23.7733 64.7521 24.296 64.1441 24.68C63.5468 25.064 62.8215 25.256 61.9681 25.256ZM64.3201 20.056C64.2988 19.7147 64.2028 19.3733 64.0321 19.032C63.8615 18.6907 63.5895 18.4027 63.2161 18.168C62.8535 17.9333 62.3948 17.816 61.8401 17.816C61.2001 17.816 60.6561 18.024 60.2081 18.44C59.7708 18.8453 59.4828 19.384 59.3441 20.056H64.3201ZM69.2755 20.856L66.4435 16.84H67.9795L70.0915 19.864L72.1235 16.84H73.7075L70.8595 20.856L73.7715 25H72.1875L70.0595 21.864L67.9795 25H66.3955L69.2755 20.856ZM78.1284 25.128C77.7977 25.128 77.4884 25.0747 77.2004 24.968C76.923 24.8613 76.6884 24.7173 76.4964 24.536C76.283 24.3333 76.123 24.0987 76.0164 23.832C75.9097 23.5653 75.8564 23.24 75.8564 22.856V18.072H74.4324V16.84H75.8564V14.536H77.2164V16.84H79.2004V18.072H77.2164V22.52C77.2164 22.968 77.3017 23.2987 77.4724 23.512C77.675 23.7467 77.9684 23.864 78.3524 23.864C78.6617 23.864 78.9604 23.7733 79.2484 23.592V24.92C79.0884 24.9947 78.923 25.048 78.7524 25.08C78.5924 25.112 78.3844 25.128 78.1284 25.128ZM83.1939 13.544H84.6979L86.7779 21.96L86.9699 22.744H87.0339L87.2739 21.96L89.8339 13.544H91.2419L93.6899 21.96L93.9299 22.744H93.9939L96.2499 13.544H97.7539L94.6659 25H93.2579L90.8259 16.712L90.5699 15.816H90.5059L90.2339 16.712L87.7059 25H86.2979L83.1939 13.544ZM101.893 25.256C101.093 25.256 100.373 25.064 99.733 24.68C99.093 24.296 98.5917 23.7733 98.229 23.112C97.877 22.4507 97.701 21.72 97.701 20.92C97.701 20.12 97.877 19.3893 98.229 18.728C98.5917 18.0667 99.093 17.544 99.733 17.16C100.373 16.776 101.093 16.584 101.893 16.584C102.693 16.584 103.413 16.776 104.053 17.16C104.693 17.544 105.189 18.0667 105.541 18.728C105.904 19.3893 106.085 20.12 106.085 20.92C106.085 21.72 105.904 22.4507 105.541 23.112C105.189 23.7733 104.693 24.296 104.053 24.68C103.413 25.064 102.693 25.256 101.893 25.256ZM101.893 24.024C102.394 24.024 102.858 23.9013 103.285 23.656C103.722 23.4 104.069 23.0373 104.325 22.568C104.592 22.0987 104.725 21.5493 104.725 20.92C104.725 20.2907 104.592 19.7413 104.325 19.272C104.069 18.8027 103.722 18.4453 103.285 18.2C102.858 17.944 102.394 17.816 101.893 17.816C101.392 17.816 100.922 17.944 100.485 18.2C100.048 18.4453 99.6957 18.8027 99.429 19.272C99.173 19.7413 99.045 20.2907 99.045 20.92C99.045 21.5493 99.173 22.0987 99.429 22.568C99.6957 23.0373 100.048 23.4 100.485 23.656C100.922 23.9013 101.392 24.024 101.893 24.024ZM106.928 13.544H108.432L110.512 21.96L110.704 22.744H110.768L111.008 21.96L113.568 13.544H114.976L117.424 21.96L117.664 22.744H117.728L119.984 13.544H121.488L118.4 25H116.992L114.56 16.712L114.304 15.816H114.24L113.968 16.712L111.44 25H110.032L106.928 13.544ZM127.292 15.336C127.026 15.336 126.796 15.24 126.604 15.048C126.412 14.856 126.316 14.6267 126.316 14.36C126.316 14.0933 126.412 13.8693 126.604 13.688C126.796 13.496 127.026 13.4 127.292 13.4C127.559 13.4 127.788 13.496 127.98 13.688C128.172 13.8693 128.268 14.0933 128.268 14.36C128.268 14.6267 128.172 14.856 127.98 15.048C127.799 15.24 127.57 15.336 127.292 15.336ZM126.62 16.84H127.964V25H126.62V16.84ZM132.95 25.256C132.075 25.256 131.344 25.0533 130.758 24.648C130.171 24.232 129.755 23.704 129.51 23.064L130.726 22.52C130.928 23.0107 131.227 23.3893 131.622 23.656C132.027 23.9227 132.47 24.056 132.95 24.056C133.462 24.056 133.899 23.9547 134.262 23.752C134.624 23.5387 134.806 23.24 134.806 22.856C134.806 22.5147 134.662 22.2427 134.374 22.04C134.086 21.8267 133.632 21.6453 133.014 21.496L132.022 21.24C131.371 21.08 130.838 20.808 130.422 20.424C130.006 20.04 129.798 19.544 129.798 18.936C129.798 18.4667 129.936 18.056 130.214 17.704C130.502 17.3413 130.88 17.064 131.35 16.872C131.819 16.68 132.326 16.584 132.87 16.584C133.584 16.584 134.219 16.7387 134.774 17.048C135.339 17.3573 135.739 17.7893 135.974 18.344L134.79 18.888C134.427 18.1627 133.782 17.8 132.854 17.8C132.406 17.8 132.011 17.9067 131.67 18.12C131.339 18.3227 131.174 18.584 131.174 18.904C131.174 19.2027 131.291 19.448 131.526 19.64C131.76 19.8213 132.112 19.9707 132.582 20.088L133.766 20.392C134.566 20.5947 135.168 20.8987 135.574 21.304C135.979 21.6987 136.182 22.184 136.182 22.76C136.182 23.2613 136.038 23.704 135.75 24.088C135.462 24.4613 135.072 24.7493 134.582 24.952C134.091 25.1547 133.547 25.256 132.95 25.256ZM143.846 19.704L139.974 13.544H141.558L144.486 18.344H144.55L147.43 13.544H149.014L145.206 19.704V25H143.846V19.704ZM152.424 25.256C151.624 25.256 150.904 25.064 150.264 24.68C149.624 24.296 149.123 23.7733 148.76 23.112C148.408 22.4507 148.232 21.72 148.232 20.92C148.232 20.12 148.408 19.3893 148.76 18.728C149.123 18.0667 149.624 17.544 150.264 17.16C150.904 16.776 151.624 16.584 152.424 16.584C153.224 16.584 153.944 16.776 154.584 17.16C155.224 17.544 155.72 18.0667 156.072 18.728C156.435 19.3893 156.616 20.12 156.616 20.92C156.616 21.72 156.435 22.4507 156.072 23.112C155.72 23.7733 155.224 24.296 154.584 24.68C153.944 25.064 153.224 25.256 152.424 25.256ZM152.424 24.024C152.926 24.024 153.39 23.9013 153.816 23.656C154.254 23.4 154.6 23.0373 154.856 22.568C155.123 22.0987 155.256 21.5493 155.256 20.92C155.256 20.2907 155.123 19.7413 154.856 19.272C154.6 18.8027 154.254 18.4453 153.816 18.2C153.39 17.944 152.926 17.816 152.424 17.816C151.923 17.816 151.454 17.944 151.016 18.2C150.579 18.4453 150.227 18.8027 149.96 19.272C149.704 19.7413 149.576 20.2907 149.576 20.92C149.576 21.5493 149.704 22.0987 149.96 22.568C150.227 23.0373 150.579 23.4 151.016 23.656C151.454 23.9013 151.923 24.024 152.424 24.024ZM161.077 25.256C160.096 25.256 159.344 24.968 158.821 24.392C158.309 23.816 158.053 23.0107 158.053 21.976V16.84H159.413V21.768C159.413 22.5467 159.589 23.1173 159.941 23.48C160.293 23.8427 160.768 24.024 161.365 24.024C161.824 24.024 162.229 23.9013 162.581 23.656C162.944 23.4107 163.221 23.0907 163.413 22.696C163.616 22.3013 163.717 21.8853 163.717 21.448V16.84H165.077V25H163.781V23.816H163.717C163.493 24.2213 163.136 24.5627 162.645 24.84C162.155 25.1173 161.632 25.256 161.077 25.256Z" fill="black"/>
<path d="M355.576 13.544H357.112L361.464 25H359.976L358.824 21.848H353.88L352.728 25H351.24L355.576 13.544ZM358.36 20.568L356.84 16.44L356.376 15.208H356.312L355.864 16.44L354.344 20.568H358.36ZM362.711 16.84H364.007V18.04H364.071C364.295 17.6347 364.652 17.2933 365.143 17.016C365.634 16.728 366.156 16.584 366.711 16.584C367.692 16.584 368.439 16.872 368.951 17.448C369.474 18.0133 369.735 18.7867 369.735 19.768V25H368.375V19.976C368.375 19.2187 368.194 18.6693 367.831 18.328C367.468 17.9867 366.972 17.816 366.343 17.816C365.906 17.816 365.511 17.9387 365.159 18.184C364.818 18.4293 364.551 18.7547 364.359 19.16C364.167 19.5547 364.071 19.9707 364.071 20.408V25H362.711V16.84ZM375.44 25.256C374.64 25.256 373.92 25.064 373.28 24.68C372.64 24.296 372.139 23.7733 371.776 23.112C371.424 22.4507 371.248 21.72 371.248 20.92C371.248 20.12 371.424 19.3893 371.776 18.728C372.139 18.0667 372.64 17.544 373.28 17.16C373.92 16.776 374.64 16.584 375.44 16.584C376.24 16.584 376.96 16.776 377.6 17.16C378.24 17.544 378.736 18.0667 379.088 18.728C379.451 19.3893 379.632 20.12 379.632 20.92C379.632 21.72 379.451 22.4507 379.088 23.112C378.736 23.7733 378.24 24.296 377.6 24.68C376.96 25.064 376.24 25.256 375.44 25.256ZM375.44 24.024C375.941 24.024 376.405 23.9013 376.832 23.656C377.269 23.4 377.616 23.0373 377.872 22.568C378.139 22.0987 378.272 21.5493 378.272 20.92C378.272 20.2907 378.139 19.7413 377.872 19.272C377.616 18.8027 377.269 18.4453 376.832 18.2C376.405 17.944 375.941 17.816 375.44 17.816C374.939 17.816 374.469 17.944 374.032 18.2C373.595 18.4453 373.243 18.8027 372.976 19.272C372.72 19.7413 372.592 20.2907 372.592 20.92C372.592 21.5493 372.72 22.0987 372.976 22.568C373.243 23.0373 373.595 23.4 374.032 23.656C374.469 23.9013 374.939 24.024 375.44 24.024ZM384.113 25.128C383.782 25.128 383.473 25.0747 383.185 24.968C382.907 24.8613 382.673 24.7173 382.481 24.536C382.267 24.3333 382.107 24.0987 382.001 23.832C381.894 23.5653 381.841 23.24 381.841 22.856V18.072H380.417V16.84H381.841V14.536H383.201V16.84H385.185V18.072H383.201V22.52C383.201 22.968 383.286 23.2987 383.457 23.512C383.659 23.7467 383.953 23.864 384.337 23.864C384.646 23.864 384.945 23.7733 385.233 23.592V24.92C385.073 24.9947 384.907 25.048 384.737 25.08C384.577 25.112 384.369 25.128 384.113 25.128ZM386.914 13.544H388.274V16.92L388.21 18.04H388.274C388.498 17.624 388.85 17.2773 389.33 17C389.821 16.7227 390.354 16.584 390.93 16.584C391.922 16.584 392.68 16.8773 393.202 17.464C393.725 18.04 393.986 18.808 393.986 19.768V25H392.626V19.976C392.626 19.24 392.44 18.696 392.066 18.344C391.693 17.992 391.208 17.816 390.61 17.816C390.184 17.816 389.789 17.944 389.426 18.2C389.074 18.456 388.792 18.7867 388.578 19.192C388.376 19.5973 388.274 20.0187 388.274 20.456V25H386.914V13.544ZM399.578 25.256C398.799 25.256 398.1 25.0693 397.482 24.696C396.863 24.3227 396.378 23.8107 396.026 23.16C395.684 22.4987 395.514 21.7573 395.514 20.936C395.514 20.1467 395.674 19.4213 395.993 18.76C396.324 18.0987 396.788 17.5707 397.386 17.176C397.983 16.7813 398.676 16.584 399.466 16.584C400.266 16.584 400.959 16.7653 401.546 17.128C402.132 17.48 402.58 17.9707 402.89 18.6C403.21 19.2293 403.37 19.9493 403.37 20.76C403.37 20.92 403.354 21.0587 403.322 21.176H396.874C396.906 21.7947 397.055 22.3173 397.322 22.744C397.588 23.1707 397.924 23.4907 398.33 23.704C398.746 23.9173 399.178 24.024 399.626 24.024C400.671 24.024 401.476 23.5333 402.042 22.552L403.194 23.112C402.842 23.7733 402.362 24.296 401.754 24.68C401.156 25.064 400.431 25.256 399.578 25.256ZM401.93 20.056C401.908 19.7147 401.812 19.3733 401.642 19.032C401.471 18.6907 401.199 18.4027 400.826 18.168C400.463 17.9333 400.004 17.816 399.45 17.816C398.81 17.816 398.266 18.024 397.818 18.44C397.38 18.8453 397.092 19.384 396.954 20.056H401.93ZM404.961 16.84H406.257V18.152H406.321C406.481 17.704 406.79 17.336 407.249 17.048C407.708 16.7493 408.188 16.6 408.689 16.6C409.062 16.6 409.382 16.6533 409.649 16.76V18.232C409.308 18.0613 408.924 17.976 408.497 17.976C408.102 17.976 407.74 18.088 407.409 18.312C407.078 18.536 406.812 18.84 406.609 19.224C406.417 19.5973 406.321 20.0027 406.321 20.44V25H404.961V16.84ZM414.952 13.544H416.296V25H414.952V13.544ZM418.586 16.84H419.882V18.04H419.946C420.17 17.6347 420.527 17.2933 421.018 17.016C421.509 16.728 422.031 16.584 422.586 16.584C423.567 16.584 424.314 16.872 424.826 17.448C425.349 18.0133 425.61 18.7867 425.61 19.768V25H424.25V19.976C424.25 19.2187 424.069 18.6693 423.706 18.328C423.343 17.9867 422.847 17.816 422.218 17.816C421.781 17.816 421.386 17.9387 421.034 18.184C420.693 18.4293 420.426 18.7547 420.234 19.16C420.042 19.5547 419.946 19.9707 419.946 20.408V25H418.586V16.84ZM430.285 25.128C429.954 25.128 429.645 25.0747 429.357 24.968C429.079 24.8613 428.845 24.7173 428.653 24.536C428.439 24.3333 428.279 24.0987 428.173 23.832C428.066 23.5653 428.013 23.24 428.013 22.856V18.072H426.589V16.84H428.013V14.536H429.373V16.84H431.357V18.072H429.373V22.52C429.373 22.968 429.458 23.2987 429.629 23.512C429.831 23.7467 430.125 23.864 430.509 23.864C430.818 23.864 431.117 23.7733 431.405 23.592V24.92C431.245 24.9947 431.079 25.048 430.909 25.08C430.749 25.112 430.541 25.128 430.285 25.128ZM436.281 25.256C435.502 25.256 434.803 25.0693 434.185 24.696C433.566 24.3227 433.081 23.8107 432.729 23.16C432.387 22.4987 432.217 21.7573 432.217 20.936C432.217 20.1467 432.377 19.4213 432.697 18.76C433.027 18.0987 433.491 17.5707 434.089 17.176C434.686 16.7813 435.379 16.584 436.169 16.584C436.969 16.584 437.662 16.7653 438.249 17.128C438.835 17.48 439.283 17.9707 439.593 18.6C439.913 19.2293 440.073 19.9493 440.073 20.76C440.073 20.92 440.057 21.0587 440.025 21.176H433.577C433.609 21.7947 433.758 22.3173 434.025 22.744C434.291 23.1707 434.627 23.4907 435.033 23.704C435.449 23.9173 435.881 24.024 436.329 24.024C437.374 24.024 438.179 23.5333 438.745 22.552L439.897 23.112C439.545 23.7733 439.065 24.296 438.457 24.68C437.859 25.064 437.134 25.256 436.281 25.256ZM438.633 20.056C438.611 19.7147 438.515 19.3733 438.345 19.032C438.174 18.6907 437.902 18.4027 437.529 18.168C437.166 17.9333 436.707 17.816 436.153 17.816C435.513 17.816 434.969 18.024 434.521 18.44C434.083 18.8453 433.795 19.384 433.657 20.056H438.633ZM441.664 16.84H442.96V18.152H443.024C443.184 17.704 443.494 17.336 443.952 17.048C444.411 16.7493 444.891 16.6 445.392 16.6C445.766 16.6 446.086 16.6533 446.352 16.76V18.232C446.011 18.0613 445.627 17.976 445.2 17.976C444.806 17.976 444.443 18.088 444.112 18.312C443.782 18.536 443.515 18.84 443.312 19.224C443.12 19.5973 443.024 20.0027 443.024 20.44V25H441.664V16.84ZM450.812 25.256C450.033 25.256 449.335 25.0693 448.716 24.696C448.097 24.3227 447.612 23.8107 447.26 23.16C446.919 22.4987 446.748 21.7573 446.748 20.936C446.748 20.1467 446.908 19.4213 447.228 18.76C447.559 18.0987 448.023 17.5707 448.62 17.176C449.217 16.7813 449.911 16.584 450.7 16.584C451.5 16.584 452.193 16.7653 452.78 17.128C453.367 17.48 453.815 17.9707 454.124 18.6C454.444 19.2293 454.604 19.9493 454.604 20.76C454.604 20.92 454.588 21.0587 454.556 21.176H448.108C448.14 21.7947 448.289 22.3173 448.556 22.744C448.823 23.1707 449.159 23.4907 449.564 23.704C449.98 23.9173 450.412 24.024 450.86 24.024C451.905 24.024 452.711 23.5333 453.276 22.552L454.428 23.112C454.076 23.7733 453.596 24.296 452.988 24.68C452.391 25.064 451.665 25.256 450.812 25.256ZM453.164 20.056C453.143 19.7147 453.047 19.3733 452.876 19.032C452.705 18.6907 452.433 18.4027 452.06 18.168C451.697 17.9333 451.239 17.816 450.684 17.816C450.044 17.816 449.5 18.024 449.052 18.44C448.615 18.8453 448.327 19.384 448.188 20.056H453.164ZM459.122 25.256C458.247 25.256 457.516 25.0533 456.93 24.648C456.343 24.232 455.927 23.704 455.682 23.064L456.898 22.52C457.1 23.0107 457.399 23.3893 457.794 23.656C458.199 23.9227 458.642 24.056 459.122 24.056C459.634 24.056 460.071 23.9547 460.434 23.752C460.796 23.5387 460.978 23.24 460.978 22.856C460.978 22.5147 460.834 22.2427 460.546 22.04C460.258 21.8267 459.804 21.6453 459.186 21.496L458.194 21.24C457.543 21.08 457.01 20.808 456.594 20.424C456.178 20.04 455.97 19.544 455.97 18.936C455.97 18.4667 456.108 18.056 456.386 17.704C456.674 17.3413 457.052 17.064 457.522 16.872C457.991 16.68 458.498 16.584 459.042 16.584C459.756 16.584 460.391 16.7387 460.946 17.048C461.511 17.3573 461.911 17.7893 462.146 18.344L460.962 18.888C460.599 18.1627 459.954 17.8 459.026 17.8C458.578 17.8 458.183 17.9067 457.842 18.12C457.511 18.3227 457.346 18.584 457.346 18.904C457.346 19.2027 457.463 19.448 457.698 19.64C457.932 19.8213 458.284 19.9707 458.754 20.088L459.938 20.392C460.738 20.5947 461.34 20.8987 461.746 21.304C462.151 21.6987 462.354 22.184 462.354 22.76C462.354 23.2613 462.21 23.704 461.922 24.088C461.634 24.4613 461.244 24.7493 460.754 24.952C460.263 25.1547 459.719 25.256 459.122 25.256ZM466.894 25.128C466.563 25.128 466.254 25.0747 465.966 24.968C465.689 24.8613 465.454 24.7173 465.262 24.536C465.049 24.3333 464.889 24.0987 464.782 23.832C464.675 23.5653 464.622 23.24 464.622 22.856V18.072H463.198V16.84H464.622V14.536H465.982V16.84H467.966V18.072H465.982V22.52C465.982 22.968 466.067 23.2987 466.238 23.512C466.441 23.7467 466.734 23.864 467.118 23.864C467.427 23.864 467.726 23.7733 468.014 23.592V24.92C467.854 24.9947 467.689 25.048 467.518 25.08C467.358 25.112 467.15 25.128 466.894 25.128ZM470.496 15.336C470.229 15.336 470 15.24 469.808 15.048C469.616 14.856 469.52 14.6267 469.52 14.36C469.52 14.0933 469.616 13.8693 469.808 13.688C470 13.496 470.229 13.4 470.496 13.4C470.762 13.4 470.992 13.496 471.184 13.688C471.376 13.8693 471.472 14.0933 471.472 14.36C471.472 14.6267 471.376 14.856 471.184 15.048C471.002 15.24 470.773 15.336 470.496 15.336ZM469.824 16.84H471.168V25H469.824V16.84ZM473.305 16.84H474.601V18.04H474.665C474.889 17.6347 475.246 17.2933 475.737 17.016C476.228 16.728 476.75 16.584 477.305 16.584C478.286 16.584 479.033 16.872 479.545 17.448C480.068 18.0133 480.329 18.7867 480.329 19.768V25H478.969V19.976C478.969 19.2187 478.788 18.6693 478.425 18.328C478.062 17.9867 477.566 17.816 476.937 17.816C476.5 17.816 476.105 17.9387 475.753 18.184C475.412 18.4293 475.145 18.7547 474.953 19.16C474.761 19.5547 474.665 19.9707 474.665 20.408V25H473.305V16.84ZM485.78 28.712C484.82 28.712 484.025 28.488 483.396 28.04C482.777 27.592 482.361 27.0533 482.148 26.424L483.38 25.896C483.561 26.3653 483.86 26.744 484.276 27.032C484.702 27.3307 485.204 27.48 485.78 27.48C486.622 27.48 487.273 27.2347 487.732 26.744C488.201 26.2533 488.436 25.56 488.436 24.664V23.752H488.372C488.105 24.168 487.726 24.5093 487.236 24.776C486.756 25.032 486.206 25.16 485.588 25.16C484.884 25.16 484.238 24.9787 483.652 24.616C483.076 24.2533 482.617 23.7467 482.276 23.096C481.934 22.4453 481.764 21.704 481.764 20.872C481.764 20.0507 481.934 19.3147 482.276 18.664C482.617 18.0027 483.076 17.4907 483.652 17.128C484.238 16.7653 484.884 16.584 485.588 16.584C486.206 16.584 486.756 16.7173 487.236 16.984C487.726 17.24 488.105 17.5813 488.372 18.008H488.436V16.84H489.732V24.68C489.732 25.992 489.369 26.9893 488.644 27.672C487.918 28.3653 486.964 28.712 485.78 28.712ZM485.78 23.928C486.27 23.928 486.713 23.8053 487.108 23.56C487.513 23.3147 487.833 22.9627 488.068 22.504C488.313 22.0453 488.436 21.5013 488.436 20.872C488.436 20.232 488.313 19.6827 488.068 19.224C487.833 18.7653 487.513 18.4187 487.108 18.184C486.713 17.9387 486.27 17.816 485.78 17.816C485.289 17.816 484.841 17.9387 484.436 18.184C484.03 18.4293 483.705 18.7813 483.46 19.24C483.225 19.6987 483.108 20.2427 483.108 20.872C483.108 21.5013 483.225 22.0507 483.46 22.52C483.705 22.9787 484.03 23.3307 484.436 23.576C484.841 23.8107 485.289 23.928 485.78 23.928ZM495.733 13.544H502.357V14.84H497.077V18.632H501.845V19.912H497.077V23.704H502.357V25H495.733V13.544ZM503.065 16.84H504.521L507.049 23.4H507.081L509.641 16.84H511.065L507.737 25H506.361L503.065 16.84ZM515.578 25.256C514.799 25.256 514.1 25.0693 513.482 24.696C512.863 24.3227 512.378 23.8107 512.026 23.16C511.684 22.4987 511.514 21.7573 511.514 20.936C511.514 20.1467 511.674 19.4213 511.993 18.76C512.324 18.0987 512.788 17.5707 513.386 17.176C513.983 16.7813 514.676 16.584 515.466 16.584C516.266 16.584 516.959 16.7653 517.546 17.128C518.132 17.48 518.58 17.9707 518.89 18.6C519.21 19.2293 519.37 19.9493 519.37 20.76C519.37 20.92 519.354 21.0587 519.322 21.176H512.874C512.906 21.7947 513.055 22.3173 513.322 22.744C513.588 23.1707 513.924 23.4907 514.33 23.704C514.746 23.9173 515.178 24.024 515.626 24.024C516.671 24.024 517.476 23.5333 518.042 22.552L519.194 23.112C518.842 23.7733 518.362 24.296 517.754 24.68C517.156 25.064 516.431 25.256 515.578 25.256ZM517.93 20.056C517.908 19.7147 517.812 19.3733 517.642 19.032C517.471 18.6907 517.199 18.4027 516.826 18.168C516.463 17.9333 516.004 17.816 515.45 17.816C514.81 17.816 514.266 18.024 513.818 18.44C513.38 18.8453 513.092 19.384 512.954 20.056H517.93ZM520.961 16.84H522.257V18.04H522.321C522.545 17.6347 522.902 17.2933 523.393 17.016C523.884 16.728 524.406 16.584 524.961 16.584C525.942 16.584 526.689 16.872 527.201 17.448C527.724 18.0133 527.985 18.7867 527.985 19.768V25H526.625V19.976C526.625 19.2187 526.444 18.6693 526.081 18.328C525.718 17.9867 525.222 17.816 524.593 17.816C524.156 17.816 523.761 17.9387 523.409 18.184C523.068 18.4293 522.801 18.7547 522.609 19.16C522.417 19.5547 522.321 19.9707 522.321 20.408V25H520.961V16.84ZM532.66 25.128C532.329 25.128 532.02 25.0747 531.732 24.968C531.454 24.8613 531.22 24.7173 531.028 24.536C530.814 24.3333 530.654 24.0987 530.548 23.832C530.441 23.5653 530.388 23.24 530.388 22.856V18.072H528.964V16.84H530.388V14.536H531.748V16.84H533.732V18.072H531.748V22.52C531.748 22.968 531.833 23.2987 532.004 23.512C532.206 23.7467 532.5 23.864 532.884 23.864C533.193 23.864 533.492 23.7733 533.78 23.592V24.92C533.62 24.9947 533.454 25.048 533.284 25.08C533.124 25.112 532.916 25.128 532.66 25.128ZM539.326 17.432V13.544H540.67V17.432L540.51 21.624H539.47L539.326 17.432ZM539.998 25.096C539.71 25.096 539.464 25 539.262 24.808C539.07 24.6053 538.974 24.36 538.974 24.072C538.974 23.7947 539.07 23.56 539.262 23.368C539.464 23.1653 539.71 23.064 539.998 23.064C540.275 23.064 540.51 23.1653 540.702 23.368C540.904 23.56 541.006 23.7947 541.006 24.072C541.006 24.36 540.904 24.6053 540.702 24.808C540.51 25 540.275 25.096 539.998 25.096Z" fill="black"/>
<path d="M728.464 21.704H726.48L726.672 20.584H728.64L728.976 18.328H726.976L727.152 17.208H729.136L729.6 14.056H730.784L730.32 17.208H732.592L733.056 14.056H734.24L733.776 17.208H735.76L735.584 18.328H733.616L733.28 20.584H735.28L735.104 21.704H733.104L732.608 25H731.424L731.92 21.704H729.648L729.152 25H727.968L728.464 21.704ZM732.096 20.584L732.432 18.328H730.16L729.824 20.584H732.096ZM736.522 13.544H738.026L740.106 21.96L740.298 22.744H740.362L740.602 21.96L743.162 13.544H744.57L747.018 21.96L747.258 22.744H747.322L749.578 13.544H751.082L747.994 25H746.586L744.154 16.712L743.898 15.816H743.834L743.562 16.712L741.034 25H739.626L736.522 13.544ZM755.221 25.256C754.421 25.256 753.701 25.064 753.061 24.68C752.421 24.296 751.92 23.7733 751.557 23.112C751.205 22.4507 751.029 21.72 751.029 20.92C751.029 20.12 751.205 19.3893 751.557 18.728C751.92 18.0667 752.421 17.544 753.061 17.16C753.701 16.776 754.421 16.584 755.221 16.584C756.021 16.584 756.741 16.776 757.381 17.16C758.021 17.544 758.517 18.0667 758.869 18.728C759.232 19.3893 759.413 20.12 759.413 20.92C759.413 21.72 759.232 22.4507 758.869 23.112C758.517 23.7733 758.021 24.296 757.381 24.68C756.741 25.064 756.021 25.256 755.221 25.256ZM755.221 24.024C755.722 24.024 756.186 23.9013 756.613 23.656C757.05 23.4 757.397 23.0373 757.653 22.568C757.92 22.0987 758.053 21.5493 758.053 20.92C758.053 20.2907 757.92 19.7413 757.653 19.272C757.397 18.8027 757.05 18.4453 756.613 18.2C756.186 17.944 755.722 17.816 755.221 17.816C754.72 17.816 754.25 17.944 753.813 18.2C753.376 18.4453 753.024 18.8027 752.757 19.272C752.501 19.7413 752.373 20.2907 752.373 20.92C752.373 21.5493 752.501 22.0987 752.757 22.568C753.024 23.0373 753.376 23.4 753.813 23.656C754.25 23.9013 754.72 24.024 755.221 24.024ZM760.256 13.544H761.76L763.84 21.96L764.032 22.744H764.096L764.336 21.96L766.896 13.544H768.304L770.752 21.96L770.992 22.744H771.056L773.312 13.544H774.816L771.728 25H770.32L767.888 16.712L767.632 15.816H767.568L767.296 16.712L764.768 25H763.36L760.256 13.544ZM780.093 13.544H781.437V19.576H781.501L786.669 13.544H788.413V13.608L784.173 18.504L788.717 24.936V25H787.069L783.261 19.544L781.437 21.64V25H780.093V13.544ZM793.14 25.256C792.361 25.256 791.663 25.0693 791.044 24.696C790.425 24.3227 789.94 23.8107 789.588 23.16C789.247 22.4987 789.076 21.7573 789.076 20.936C789.076 20.1467 789.236 19.4213 789.556 18.76C789.887 18.0987 790.351 17.5707 790.948 17.176C791.545 16.7813 792.239 16.584 793.028 16.584C793.828 16.584 794.521 16.7653 795.108 17.128C795.695 17.48 796.143 17.9707 796.452 18.6C796.772 19.2293 796.932 19.9493 796.932 20.76C796.932 20.92 796.916 21.0587 796.884 21.176H790.436C790.468 21.7947 790.617 22.3173 790.884 22.744C791.151 23.1707 791.487 23.4907 791.892 23.704C792.308 23.9173 792.74 24.024 793.188 24.024C794.233 24.024 795.039 23.5333 795.604 22.552L796.756 23.112C796.404 23.7733 795.924 24.296 795.316 24.68C794.719 25.064 793.993 25.256 793.14 25.256ZM795.492 20.056C795.471 19.7147 795.375 19.3733 795.204 19.032C795.033 18.6907 794.761 18.4027 794.388 18.168C794.025 17.9333 793.567 17.816 793.012 17.816C792.372 17.816 791.828 18.024 791.38 18.44C790.943 18.8453 790.655 19.384 790.516 20.056H795.492ZM798.524 16.84H799.82V18.152H799.884C800.044 17.704 800.353 17.336 800.812 17.048C801.27 16.7493 801.75 16.6 802.252 16.6C802.625 16.6 802.945 16.6533 803.212 16.76V18.232C802.87 18.0613 802.486 17.976 802.06 17.976C801.665 17.976 801.302 18.088 800.972 18.312C800.641 18.536 800.374 18.84 800.172 19.224C799.98 19.5973 799.884 20.0027 799.884 20.44V25H798.524V16.84ZM806.819 25.256C806.222 25.256 805.688 25.1387 805.219 24.904C804.75 24.6693 804.387 24.3493 804.131 23.944C803.875 23.528 803.747 23.0587 803.747 22.536C803.747 21.672 804.072 21 804.723 20.52C805.374 20.0293 806.195 19.784 807.187 19.784C807.678 19.784 808.131 19.8373 808.547 19.944C808.974 20.0507 809.299 20.1733 809.523 20.312V19.816C809.523 19.208 809.31 18.7227 808.883 18.36C808.456 17.9867 807.918 17.8 807.267 17.8C806.808 17.8 806.387 17.9013 806.003 18.104C805.619 18.296 805.315 18.568 805.091 18.92L804.067 18.152C804.387 17.6613 804.824 17.2773 805.379 17C805.944 16.7227 806.568 16.584 807.251 16.584C808.36 16.584 809.23 16.8773 809.859 17.464C810.499 18.04 810.819 18.8293 810.819 19.832V25H809.523V23.832H809.459C809.224 24.2267 808.872 24.5627 808.403 24.84C807.934 25.1173 807.406 25.256 806.819 25.256ZM806.947 24.056C807.406 24.056 807.832 23.9387 808.227 23.704C808.622 23.4693 808.936 23.1547 809.171 22.76C809.406 22.3653 809.523 21.9333 809.523 21.464C809.267 21.2933 808.952 21.1547 808.579 21.048C808.206 20.9413 807.811 20.888 807.395 20.888C806.648 20.888 806.083 21.0427 805.699 21.352C805.326 21.6613 805.139 22.0613 805.139 22.552C805.139 23 805.31 23.3627 805.651 23.64C805.992 23.9173 806.424 24.056 806.947 24.056ZM812.711 13.544H814.071V25H812.711V13.544ZM818.616 25.256C818.019 25.256 817.485 25.1387 817.016 24.904C816.547 24.6693 816.184 24.3493 815.928 23.944C815.672 23.528 815.544 23.0587 815.544 22.536C815.544 21.672 815.869 21 816.52 20.52C817.171 20.0293 817.992 19.784 818.984 19.784C819.475 19.784 819.928 19.8373 820.344 19.944C820.771 20.0507 821.096 20.1733 821.32 20.312V19.816C821.32 19.208 821.107 18.7227 820.68 18.36C820.253 17.9867 819.715 17.8 819.064 17.8C818.605 17.8 818.184 17.9013 817.8 18.104C817.416 18.296 817.112 18.568 816.888 18.92L815.864 18.152C816.184 17.6613 816.621 17.2773 817.176 17C817.741 16.7227 818.365 16.584 819.048 16.584C820.157 16.584 821.027 16.8773 821.656 17.464C822.296 18.04 822.616 18.8293 822.616 19.832V25H821.32V23.832H821.256C821.021 24.2267 820.669 24.5627 820.2 24.84C819.731 25.1173 819.203 25.256 818.616 25.256ZM818.744 24.056C819.203 24.056 819.629 23.9387 820.024 23.704C820.419 23.4693 820.733 23.1547 820.968 22.76C821.203 22.3653 821.32 21.9333 821.32 21.464C821.064 21.2933 820.749 21.1547 820.376 21.048C820.003 20.9413 819.608 20.888 819.192 20.888C818.445 20.888 817.88 21.0427 817.496 21.352C817.123 21.6613 816.936 22.0613 816.936 22.552C816.936 23 817.107 23.3627 817.448 23.64C817.789 23.9173 818.221 24.056 818.744 24.056ZM828.003 16.424L828.787 15.224C828.595 15.192 828.424 15.096 828.275 14.936C828.125 14.7653 828.051 14.5573 828.051 14.312C828.051 14.024 828.147 13.784 828.339 13.592C828.541 13.3893 828.781 13.288 829.059 13.288C829.347 13.288 829.587 13.3893 829.779 13.592C829.981 13.784 830.083 14.024 830.083 14.312C830.083 14.4827 830.045 14.648 829.971 14.808C829.907 14.968 829.8 15.16 829.651 15.384L828.643 16.84L828.003 16.424ZM831.579 23.64C831.91 23.3093 832.566 22.648 833.547 21.656C834.529 20.6533 835.211 19.944 835.595 19.528C836.139 18.9413 836.507 18.4827 836.699 18.152C836.891 17.8213 836.987 17.4213 836.987 16.952C836.987 16.632 836.902 16.3333 836.731 16.056C836.571 15.768 836.331 15.5387 836.011 15.368C835.702 15.1867 835.329 15.096 834.891 15.096C834.315 15.096 833.851 15.2667 833.499 15.608C833.158 15.9387 832.934 16.3013 832.827 16.696L831.579 16.2C831.686 15.8587 831.878 15.5067 832.155 15.144C832.433 14.7707 832.806 14.456 833.275 14.2C833.745 13.9333 834.299 13.8 834.939 13.8C835.611 13.8 836.203 13.944 836.715 14.232C837.238 14.52 837.643 14.904 837.931 15.384C838.219 15.864 838.363 16.3813 838.363 16.936C838.363 18.056 837.777 19.2133 836.603 20.408L833.323 23.704H838.491V25H831.579V23.64ZM843.442 25.256C842.983 25.256 842.514 25.16 842.034 24.968C841.554 24.776 841.116 24.4773 840.722 24.072C840.338 23.656 840.06 23.1387 839.89 22.52L841.122 22.008C841.292 22.6267 841.58 23.1067 841.986 23.448C842.402 23.7893 842.887 23.96 843.442 23.96C843.847 23.96 844.226 23.8747 844.578 23.704C844.93 23.5227 845.207 23.2773 845.41 22.968C845.623 22.648 845.73 22.296 845.73 21.912C845.73 21.5387 845.623 21.1973 845.41 20.888C845.207 20.5787 844.924 20.3387 844.562 20.168C844.21 19.9867 843.82 19.896 843.394 19.896H842.45V18.632H843.298C843.884 18.632 844.375 18.4667 844.77 18.136C845.164 17.7947 845.362 17.3467 845.362 16.792C845.362 16.28 845.17 15.8693 844.786 15.56C844.402 15.2507 843.927 15.096 843.362 15.096C842.807 15.096 842.37 15.24 842.05 15.528C841.74 15.816 841.516 16.168 841.378 16.584L840.13 16.056C840.322 15.48 840.69 14.9627 841.234 14.504C841.788 14.0347 842.498 13.8 843.362 13.8C844.002 13.8 844.578 13.928 845.09 14.184C845.602 14.44 846.002 14.7973 846.29 15.256C846.588 15.7147 846.738 16.2267 846.738 16.792C846.738 17.3573 846.594 17.8373 846.306 18.232C846.018 18.6267 845.66 18.936 845.234 19.16V19.224C845.778 19.448 846.226 19.7947 846.578 20.264C846.93 20.7227 847.106 21.2667 847.106 21.896C847.106 22.536 846.94 23.112 846.61 23.624C846.29 24.136 845.847 24.536 845.282 24.824C844.727 25.112 844.114 25.256 843.442 25.256Z" fill="black"/>
<path d="M1034.46 21.704H1032.48L1032.67 20.584H1034.64L1034.98 18.328H1032.98L1033.15 17.208H1035.14L1035.6 14.056H1036.78L1036.32 17.208H1038.59L1039.06 14.056H1040.24L1039.78 17.208H1041.76L1041.58 18.328H1039.62L1039.28 20.584H1041.28L1041.1 21.704H1039.1L1038.61 25H1037.42L1037.92 21.704H1035.65L1035.15 25H1033.97L1034.46 21.704ZM1038.1 20.584L1038.43 18.328H1036.16L1035.82 20.584H1038.1ZM1043.53 13.544H1044.87V23.704H1049.9V25H1043.53V13.544ZM1054.84 25.256C1054.06 25.256 1053.37 25.0693 1052.75 24.696C1052.13 24.3227 1051.64 23.8107 1051.29 23.16C1050.95 22.4987 1050.78 21.7573 1050.78 20.936C1050.78 20.1467 1050.94 19.4213 1051.26 18.76C1051.59 18.0987 1052.05 17.5707 1052.65 17.176C1053.25 16.7813 1053.94 16.584 1054.73 16.584C1055.53 16.584 1056.22 16.7653 1056.81 17.128C1057.4 17.48 1057.85 17.9707 1058.16 18.6C1058.48 19.2293 1058.64 19.9493 1058.64 20.76C1058.64 20.92 1058.62 21.0587 1058.59 21.176H1052.14C1052.17 21.7947 1052.32 22.3173 1052.59 22.744C1052.85 23.1707 1053.19 23.4907 1053.6 23.704C1054.01 23.9173 1054.44 24.024 1054.89 24.024C1055.94 24.024 1056.74 23.5333 1057.31 22.552L1058.46 23.112C1058.11 23.7733 1057.63 24.296 1057.02 24.68C1056.42 25.064 1055.7 25.256 1054.84 25.256ZM1057.2 20.056C1057.17 19.7147 1057.08 19.3733 1056.91 19.032C1056.74 18.6907 1056.46 18.4027 1056.09 18.168C1055.73 17.9333 1055.27 17.816 1054.72 17.816C1054.08 17.816 1053.53 18.024 1053.08 18.44C1052.65 18.8453 1052.36 19.384 1052.22 20.056H1057.2ZM1063.13 25.128C1062.8 25.128 1062.49 25.0747 1062.2 24.968C1061.92 24.8613 1061.69 24.7173 1061.5 24.536C1061.28 24.3333 1061.12 24.0987 1061.02 23.832C1060.91 23.5653 1060.86 23.24 1060.86 22.856V18.072H1059.43V16.84H1060.86V14.536H1062.22V16.84H1064.2V18.072H1062.22V22.52C1062.22 22.968 1062.3 23.2987 1062.47 23.512C1062.68 23.7467 1062.97 23.864 1063.35 23.864C1063.66 23.864 1063.96 23.7733 1064.25 23.592V24.92C1064.09 24.9947 1063.92 25.048 1063.75 25.08C1063.59 25.112 1063.38 25.128 1063.13 25.128ZM1065.63 16.424L1066.41 15.224C1066.22 15.192 1066.05 15.096 1065.9 14.936C1065.75 14.7653 1065.68 14.5573 1065.68 14.312C1065.68 14.024 1065.77 13.784 1065.96 13.592C1066.17 13.3893 1066.41 13.288 1066.68 13.288C1066.97 13.288 1067.21 13.3893 1067.4 13.592C1067.61 13.784 1067.71 14.024 1067.71 14.312C1067.71 14.4827 1067.67 14.648 1067.6 14.808C1067.53 14.968 1067.43 15.16 1067.28 15.384L1066.27 16.84L1065.63 16.424ZM1071.54 25.256C1070.67 25.256 1069.94 25.0533 1069.35 24.648C1068.76 24.232 1068.35 23.704 1068.1 23.064L1069.32 22.52C1069.52 23.0107 1069.82 23.3893 1070.22 23.656C1070.62 23.9227 1071.06 24.056 1071.54 24.056C1072.06 24.056 1072.49 23.9547 1072.86 23.752C1073.22 23.5387 1073.4 23.24 1073.4 22.856C1073.4 22.5147 1073.26 22.2427 1072.97 22.04C1072.68 21.8267 1072.23 21.6453 1071.61 21.496L1070.62 21.24C1069.96 21.08 1069.43 20.808 1069.02 20.424C1068.6 20.04 1068.39 19.544 1068.39 18.936C1068.39 18.4667 1068.53 18.056 1068.81 17.704C1069.1 17.3413 1069.47 17.064 1069.94 16.872C1070.41 16.68 1070.92 16.584 1071.46 16.584C1072.18 16.584 1072.81 16.7387 1073.37 17.048C1073.93 17.3573 1074.33 17.7893 1074.57 18.344L1073.38 18.888C1073.02 18.1627 1072.38 17.8 1071.45 17.8C1071 17.8 1070.6 17.9067 1070.26 18.12C1069.93 18.3227 1069.77 18.584 1069.77 18.904C1069.77 19.2027 1069.88 19.448 1070.12 19.64C1070.35 19.8213 1070.71 19.9707 1071.18 20.088L1072.36 20.392C1073.16 20.5947 1073.76 20.8987 1074.17 21.304C1074.57 21.6987 1074.78 22.184 1074.78 22.76C1074.78 23.2613 1074.63 23.704 1074.34 24.088C1074.06 24.4613 1073.67 24.7493 1073.18 24.952C1072.68 25.1547 1072.14 25.256 1071.54 25.256ZM1075.52 13.544H1077.03L1079.11 21.96L1079.3 22.744H1079.36L1079.6 21.96L1082.16 13.544H1083.57L1086.02 21.96L1086.26 22.744H1086.32L1088.58 13.544H1090.08L1086.99 25H1085.59L1083.15 16.712L1082.9 15.816H1082.83L1082.56 16.712L1080.03 25H1078.63L1075.52 13.544ZM1096.8 25.256C1095.7 25.256 1094.7 24.9893 1093.8 24.456C1092.91 23.9227 1092.2 23.2027 1091.69 22.296C1091.18 21.3787 1090.92 20.3707 1090.92 19.272C1090.92 18.184 1091.18 17.1813 1091.69 16.264C1092.2 15.3467 1092.91 14.6213 1093.8 14.088C1094.7 13.5547 1095.7 13.288 1096.8 13.288C1097.89 13.288 1098.89 13.5547 1099.79 14.088C1100.68 14.6213 1101.39 15.3467 1101.9 16.264C1102.42 17.1813 1102.68 18.184 1102.68 19.272C1102.68 20.3707 1102.43 21.3787 1101.92 22.296C1101.4 23.2027 1100.69 23.9227 1099.79 24.456C1098.89 24.9893 1097.89 25.256 1096.8 25.256ZM1096.8 23.96C1097.62 23.96 1098.37 23.7627 1099.05 23.368C1099.74 22.9627 1100.29 22.408 1100.68 21.704C1101.09 20.9893 1101.29 20.1787 1101.29 19.272C1101.29 18.3653 1101.09 17.56 1100.68 16.856C1100.29 16.1413 1099.74 15.5867 1099.05 15.192C1098.37 14.7867 1097.62 14.584 1096.8 14.584C1095.97 14.584 1095.22 14.7867 1094.54 15.192C1093.86 15.5867 1093.31 16.1413 1092.91 16.856C1092.5 17.5707 1092.3 18.376 1092.3 19.272C1092.3 20.168 1092.5 20.9733 1092.91 21.688C1093.31 22.4027 1093.86 22.9627 1094.54 23.368C1095.22 23.7627 1095.97 23.96 1096.8 23.96ZM1103.52 13.544H1105.03L1107.11 21.96L1107.3 22.744H1107.36L1107.6 21.96L1110.16 13.544H1111.57L1114.02 21.96L1114.26 22.744H1114.32L1116.58 13.544H1118.08L1114.99 25H1113.59L1111.15 16.712L1110.9 15.816H1110.83L1110.56 16.712L1108.03 25H1106.63L1103.52 13.544Z" fill="black"/>
<path d="M1309.66 25.256C1308.58 25.256 1307.59 24.9947 1306.68 24.472C1305.77 23.9493 1305.05 23.2293 1304.52 22.312C1303.99 21.3947 1303.72 20.3813 1303.72 19.272C1303.72 18.1627 1303.99 17.1493 1304.52 16.232C1305.05 15.3147 1305.77 14.5947 1306.68 14.072C1307.59 13.5493 1308.58 13.288 1309.66 13.288C1310.5 13.288 1311.29 13.4373 1312.02 13.736C1312.77 14.0347 1313.38 14.456 1313.86 15L1312.89 15.976C1312.53 15.528 1312.06 15.1867 1311.5 14.952C1310.93 14.7067 1310.32 14.584 1309.67 14.584C1308.86 14.584 1308.1 14.7813 1307.4 15.176C1306.71 15.56 1306.15 16.1093 1305.72 16.824C1305.3 17.528 1305.1 18.344 1305.1 19.272C1305.1 20.2 1305.3 21.0213 1305.72 21.736C1306.15 22.44 1306.71 22.9893 1307.42 23.384C1308.12 23.768 1308.87 23.96 1309.67 23.96C1310.44 23.96 1311.08 23.8427 1311.59 23.608C1312.11 23.3627 1312.56 23.0427 1312.94 22.648C1313.21 22.3493 1313.44 21.992 1313.61 21.576C1313.78 21.1493 1313.89 20.68 1313.93 20.168H1309.69V18.904H1315.19C1315.25 19.2027 1315.27 19.48 1315.27 19.736C1315.27 20.44 1315.16 21.128 1314.94 21.8C1314.71 22.4613 1314.35 23.0427 1313.86 23.544C1312.81 24.6853 1311.41 25.256 1309.66 25.256ZM1320.58 25.256C1319.8 25.256 1319.1 25.0693 1318.48 24.696C1317.86 24.3227 1317.38 23.8107 1317.03 23.16C1316.68 22.4987 1316.51 21.7573 1316.51 20.936C1316.51 20.1467 1316.67 19.4213 1316.99 18.76C1317.32 18.0987 1317.79 17.5707 1318.39 17.176C1318.98 16.7813 1319.68 16.584 1320.47 16.584C1321.27 16.584 1321.96 16.7653 1322.55 17.128C1323.13 17.48 1323.58 17.9707 1323.89 18.6C1324.21 19.2293 1324.37 19.9493 1324.37 20.76C1324.37 20.92 1324.35 21.0587 1324.32 21.176H1317.87C1317.91 21.7947 1318.05 22.3173 1318.32 22.744C1318.59 23.1707 1318.92 23.4907 1319.33 23.704C1319.75 23.9173 1320.18 24.024 1320.63 24.024C1321.67 24.024 1322.48 23.5333 1323.04 22.552L1324.19 23.112C1323.84 23.7733 1323.36 24.296 1322.75 24.68C1322.16 25.064 1321.43 25.256 1320.58 25.256ZM1322.93 20.056C1322.91 19.7147 1322.81 19.3733 1322.64 19.032C1322.47 18.6907 1322.2 18.4027 1321.83 18.168C1321.46 17.9333 1321 17.816 1320.45 17.816C1319.81 17.816 1319.27 18.024 1318.82 18.44C1318.38 18.8453 1318.09 19.384 1317.95 20.056H1322.93ZM1328.86 25.128C1328.53 25.128 1328.22 25.0747 1327.93 24.968C1327.66 24.8613 1327.42 24.7173 1327.23 24.536C1327.02 24.3333 1326.86 24.0987 1326.75 23.832C1326.64 23.5653 1326.59 23.24 1326.59 22.856V18.072H1325.17V16.84H1326.59V14.536H1327.95V16.84H1329.93V18.072H1327.95V22.52C1327.95 22.968 1328.04 23.2987 1328.21 23.512C1328.41 23.7467 1328.7 23.864 1329.09 23.864C1329.4 23.864 1329.69 23.7733 1329.98 23.592V24.92C1329.82 24.9947 1329.66 25.048 1329.49 25.08C1329.33 25.112 1329.12 25.128 1328.86 25.128ZM1338.29 25.256C1337.4 25.256 1336.58 24.984 1335.83 24.44C1335.08 23.896 1334.57 23.1333 1334.29 22.152L1335.59 21.624C1335.77 22.3067 1336.11 22.8667 1336.6 23.304C1337.09 23.7413 1337.66 23.96 1338.32 23.96C1338.99 23.96 1339.55 23.784 1340 23.432C1340.46 23.0693 1340.69 22.5787 1340.69 21.96C1340.69 21.4267 1340.5 20.9893 1340.1 20.648C1339.72 20.296 1339.08 19.9707 1338.2 19.672L1337.48 19.416C1336.67 19.128 1336 18.7493 1335.49 18.28C1334.98 17.8107 1334.72 17.16 1334.72 16.328C1334.72 15.784 1334.87 15.2827 1335.17 14.824C1335.47 14.3547 1335.89 13.9813 1336.42 13.704C1336.95 13.4267 1337.55 13.288 1338.21 13.288C1338.87 13.288 1339.45 13.4107 1339.94 13.656C1340.43 13.9013 1340.82 14.2 1341.11 14.552C1341.41 14.904 1341.62 15.2507 1341.73 15.592L1340.45 16.136C1340.35 15.7413 1340.1 15.384 1339.72 15.064C1339.34 14.744 1338.85 14.584 1338.23 14.584C1337.64 14.584 1337.14 14.7493 1336.72 15.08C1336.31 15.4107 1336.1 15.8267 1336.1 16.328C1336.1 16.776 1336.28 17.144 1336.63 17.432C1336.98 17.7093 1337.51 17.9707 1338.23 18.216L1338.98 18.472C1339.95 18.824 1340.71 19.2667 1341.25 19.8C1341.8 20.3227 1342.07 21.0373 1342.07 21.944C1342.07 22.68 1341.88 23.2987 1341.49 23.8C1341.12 24.3013 1340.64 24.6693 1340.07 24.904C1339.49 25.1387 1338.9 25.256 1338.29 25.256ZM1347.42 25.256C1346.64 25.256 1345.94 25.0693 1345.33 24.696C1344.71 24.3227 1344.22 23.8107 1343.87 23.16C1343.53 22.4987 1343.36 21.7573 1343.36 20.936C1343.36 20.1467 1343.52 19.4213 1343.84 18.76C1344.17 18.0987 1344.63 17.5707 1345.23 17.176C1345.83 16.7813 1346.52 16.584 1347.31 16.584C1348.11 16.584 1348.8 16.7653 1349.39 17.128C1349.98 17.48 1350.42 17.9707 1350.73 18.6C1351.05 19.2293 1351.21 19.9493 1351.21 20.76C1351.21 20.92 1351.2 21.0587 1351.17 21.176H1344.72C1344.75 21.7947 1344.9 22.3173 1345.17 22.744C1345.43 23.1707 1345.77 23.4907 1346.17 23.704C1346.59 23.9173 1347.02 24.024 1347.47 24.024C1348.51 24.024 1349.32 23.5333 1349.89 22.552L1351.04 23.112C1350.69 23.7733 1350.21 24.296 1349.6 24.68C1349 25.064 1348.27 25.256 1347.42 25.256ZM1349.77 20.056C1349.75 19.7147 1349.66 19.3733 1349.49 19.032C1349.31 18.6907 1349.04 18.4027 1348.67 18.168C1348.31 17.9333 1347.85 17.816 1347.29 17.816C1346.65 17.816 1346.11 18.024 1345.66 18.44C1345.22 18.8453 1344.94 19.384 1344.8 20.056H1349.77ZM1355.71 25.128C1355.38 25.128 1355.07 25.0747 1354.78 24.968C1354.5 24.8613 1354.27 24.7173 1354.07 24.536C1353.86 24.3333 1353.7 24.0987 1353.59 23.832C1353.49 23.5653 1353.43 23.24 1353.43 22.856V18.072H1352.01V16.84H1353.43V14.536H1354.79V16.84H1356.78V18.072H1354.79V22.52C1354.79 22.968 1354.88 23.2987 1355.05 23.512C1355.25 23.7467 1355.55 23.864 1355.93 23.864C1356.24 23.864 1356.54 23.7733 1356.83 23.592V24.92C1356.67 24.9947 1356.5 25.048 1356.33 25.08C1356.17 25.112 1355.96 25.128 1355.71 25.128ZM1360.77 13.544H1362.28L1364.36 21.96L1364.55 22.744H1364.61L1364.85 21.96L1367.41 13.544H1368.82L1371.27 21.96L1371.51 22.744H1371.57L1373.83 13.544H1375.33L1372.24 25H1370.84L1368.4 16.712L1368.15 15.816H1368.08L1367.81 16.712L1365.28 25H1363.88L1360.77 13.544ZM1379.47 25.256C1378.67 25.256 1377.95 25.064 1377.31 24.68C1376.67 24.296 1376.17 23.7733 1375.81 23.112C1375.46 22.4507 1375.28 21.72 1375.28 20.92C1375.28 20.12 1375.46 19.3893 1375.81 18.728C1376.17 18.0667 1376.67 17.544 1377.31 17.16C1377.95 16.776 1378.67 16.584 1379.47 16.584C1380.27 16.584 1380.99 16.776 1381.63 17.16C1382.27 17.544 1382.77 18.0667 1383.12 18.728C1383.48 19.3893 1383.66 20.12 1383.66 20.92C1383.66 21.72 1383.48 22.4507 1383.12 23.112C1382.77 23.7733 1382.27 24.296 1381.63 24.68C1380.99 25.064 1380.27 25.256 1379.47 25.256ZM1379.47 24.024C1379.97 24.024 1380.44 23.9013 1380.86 23.656C1381.3 23.4 1381.65 23.0373 1381.9 22.568C1382.17 22.0987 1382.3 21.5493 1382.3 20.92C1382.3 20.2907 1382.17 19.7413 1381.9 19.272C1381.65 18.8027 1381.3 18.4453 1380.86 18.2C1380.44 17.944 1379.97 17.816 1379.47 17.816C1378.97 17.816 1378.5 17.944 1378.06 18.2C1377.63 18.4453 1377.27 18.8027 1377.01 19.272C1376.75 19.7413 1376.62 20.2907 1376.62 20.92C1376.62 21.5493 1376.75 22.0987 1377.01 22.568C1377.27 23.0373 1377.63 23.4 1378.06 23.656C1378.5 23.9013 1378.97 24.024 1379.47 24.024ZM1384.51 13.544H1386.01L1388.09 21.96L1388.28 22.744H1388.35L1388.59 21.96L1391.15 13.544H1392.55L1395 21.96L1395.24 22.744H1395.31L1397.56 13.544H1399.07L1395.98 25H1394.57L1392.14 16.712L1391.88 15.816H1391.82L1391.55 16.712L1389.02 25H1387.61L1384.51 13.544ZM1404.29 17.432V13.544H1405.64V17.432L1405.48 21.624H1404.44L1404.29 17.432ZM1404.97 25.096C1404.68 25.096 1404.43 25 1404.23 24.808C1404.04 24.6053 1403.94 24.36 1403.94 24.072C1403.94 23.7947 1404.04 23.56 1404.23 23.368C1404.43 23.1653 1404.68 23.064 1404.97 23.064C1405.24 23.064 1405.48 23.1653 1405.67 23.368C1405.87 23.56 1405.97 23.7947 1405.97 24.072C1405.97 24.36 1405.87 24.6053 1405.67 24.808C1405.48 25 1405.24 25.096 1404.97 25.096Z" fill="black"/>
<defs>
<linearGradient id="paint0_linear_130_18" x1="5.08714e-06" y1="18.4569" x2="1442" y2="18.4571" gradientUnits="userSpaceOnUse">
<stop stop-color="#4285F4"/>
<stop offset="0.291667" stop-color="#DB4437"/>
<stop offset="0.541667" stop-color="#F89B00"/>
<stop offset="0.791667" stop-color="#0F9D58"/>
<stop offset="1" stop-color="#4285F4"/>
</linearGradient>
</defs>
</svg>
