<svg width="39" height="47" viewBox="0 0 39 47" fill="none" xmlns="http://www.w3.org/2000/svg">
<path d="M18.7666 13.3894C18.7666 13.3894 15.9166 18.9764 14.5444 26.0558C13.1722 33.1353 13.4889 42.9444 13.4889 42.9444M31.3834 23.1763C31.7486 23.4191 32.326 23.5891 32.8907 23.7073C33.8744 23.912 34.7822 23.2365 34.7569 22.2327C34.7094 20.3602 33.9789 17.2981 30.2624 14.8292C26.7527 12.4996 23.2684 12.4669 21.0708 12.8025C19.8179 12.9925 19.3186 14.3626 20.0385 15.4065C20.6802 16.3386 21.4276 17.2791 21.9332 17.4596C22.9887 17.8343 24.2585 16.8452 25.1842 17.4596C26.1089 18.0728 25.8334 19.4915 26.7591 20.1058C27.6837 20.7201 28.8839 19.9158 29.8096 20.5301C30.7332 21.1444 30.4587 22.562 31.3834 23.1763Z" stroke="#00A154" stroke-width="4.22214" stroke-linecap="round" stroke-linejoin="round"/>
<path d="M16.6555 16.556C17.5612 16.2542 18.1217 15.262 18.4351 14.4671C18.6948 13.8106 18.4626 13.0865 17.8546 12.7276C16.4877 11.9191 13.5691 10.8129 9.01555 12.1355C4.5137 13.4422 3.32622 16.4167 3.02328 18.1679C2.98801 18.359 2.99281 18.5554 3.03738 18.7445C3.08195 18.9337 3.16532 19.1116 3.28221 19.2669C3.39909 19.4222 3.54695 19.5515 3.71642 19.6467C3.88588 19.7418 4.07327 19.8008 4.2667 19.8198C4.8578 19.8863 5.50801 19.8567 5.89645 19.5274C6.74826 18.8043 6.97837 17.8575 7.93046 17.6021C8.8815 17.3477 9.7027 18.5077 10.6537 18.2523C11.6058 17.9979 11.7367 16.5824 12.6878 16.327C13.6398 16.0726 15.0722 17.0838 16.6555 16.556ZM24.0443 4.94516C21.4054 6.0007 18.7666 11.2784 18.7666 13.3894L32.4885 7.05623C31.0319 4.53245 26.6831 3.88963 24.0443 4.94516Z" stroke="#00A154" stroke-width="4.22214" stroke-linecap="round" stroke-linejoin="round"/>
<path d="M16.6555 3.88967C20.8776 5.39064 20.2232 10.8657 18.7665 13.3895L6.10013 4.86288C7.15566 2.83414 12.4333 2.38976 16.6555 3.88967Z" stroke="#00A154" stroke-width="4.22214" stroke-linecap="round" stroke-linejoin="round"/>
<path d="M22.9887 35.5557C31.7328 35.5557 36.7107 37.4451 36.7107 39.7778C36.7107 42.1105 29.6217 43.9999 20.8776 43.9999C12.1336 43.9999 5.04462 42.1105 5.04462 39.7778C5.04462 39.2078 5.46683 38.6663 6.23209 38.1702" stroke="#00A154" stroke-width="4.22214" stroke-linecap="round"/>
</svg>
