<svg xmlns="http://www.w3.org/2000/svg" width="114" height="127" fill="none" viewBox="0 0 114 127"><path fill="#FF2A3B" d="M57.737 75.1791H52.0697V126.902H57.737V75.1791Z"/><path fill="#FF2A3B" d="M54.9036 79.8073C47.2339 79.8073 41 73.5733 41 65.9037C41 58.234 47.2339 52 54.9036 52C62.5733 52 68.8073 58.234 68.8073 65.9037C68.8073 73.5733 62.5733 79.8073 54.9036 79.8073ZM54.9036 57.6672C50.3698 57.6672 46.6672 61.351 46.6672 65.9037C46.6672 70.4563 50.3698 74.1401 54.9036 74.1401C59.4374 74.1401 63.1401 70.4375 63.1401 65.9037C63.1401 61.3699 59.4374 57.6672 54.9036 57.6672Z"/><rect width="114" height="52" fill="#FFB1B7" rx="7.99"/><path fill="#FF2A3B" d="M23.184 15.9312H26.7793V24.1074H26.9924L33.9701 15.9312H38.3111V16.1443L31.4134 24.0275L39.0302 34.7869V35H34.6359L28.9366 26.8771L26.7793 29.4072V35H23.184V15.9312ZM46.8624 35.4261C45.4598 35.4261 44.2081 35.1154 43.1073 34.494C42.0065 33.8548 41.1453 32.9937 40.5239 31.9106C39.9203 30.8098 39.6184 29.5759 39.6184 28.2088C39.6184 26.8594 39.9203 25.6343 40.5239 24.5335C41.1453 23.4327 42.0065 22.5716 43.1073 21.9501C44.2081 21.311 45.4598 20.9914 46.8624 20.9914C48.2473 20.9914 49.4901 21.311 50.5909 21.9501C51.6918 22.5716 52.544 23.4327 53.1477 24.5335C53.7691 25.6343 54.0798 26.8594 54.0798 28.2088C54.0798 29.5759 53.7691 30.8098 53.1477 31.9106C52.544 32.9937 51.6918 33.8548 50.5909 34.494C49.4901 35.1154 48.2473 35.4261 46.8624 35.4261ZM46.8624 32.2036C47.5371 32.2036 48.1585 32.0438 48.7267 31.7242C49.2948 31.4046 49.7476 30.943 50.0849 30.3393C50.4223 29.7357 50.5909 29.0255 50.5909 28.2088C50.5909 27.4098 50.4223 26.7085 50.0849 26.1048C49.7476 25.5011 49.2948 25.0395 48.7267 24.7199C48.1585 24.4003 47.5371 24.2405 46.8624 24.2405C46.1877 24.2405 45.5663 24.4003 44.9982 24.7199C44.43 25.0395 43.9684 25.5011 43.6133 26.1048C43.2759 26.7085 43.1073 27.4098 43.1073 28.2088C43.1073 29.0077 43.2759 29.7179 43.6133 30.3393C43.9684 30.943 44.43 31.4046 44.9982 31.7242C45.5663 32.0438 46.1877 32.2036 46.8624 32.2036ZM63.141 35.4261C61.7739 35.4261 60.5488 35.1243 59.4658 34.5206C58.3827 33.8992 57.5305 33.0381 56.9091 31.9373C56.3054 30.8365 56.0036 29.5936 56.0036 28.2088C56.0036 26.8239 56.3054 25.5899 56.9091 24.5069C57.5305 23.4061 58.3827 22.5449 59.4658 21.9235C60.5488 21.3021 61.7739 20.9914 63.141 20.9914C64.6502 20.9914 65.9463 21.3199 67.0293 21.9768C68.1124 22.616 68.8936 23.5303 69.373 24.7199L66.1771 26.0515C65.609 24.8442 64.5969 24.2405 63.141 24.2405C62.0757 24.2405 61.1969 24.6045 60.5044 25.3325C59.8297 26.0604 59.4924 27.0192 59.4924 28.2088C59.4924 29.4161 59.8297 30.3837 60.5044 31.1117C61.1969 31.8396 62.0757 32.2036 63.141 32.2036C64.6147 32.2036 65.68 31.5644 66.3369 30.2861L69.5062 31.671C68.9202 32.8605 68.0858 33.7838 67.0027 34.4407C65.9197 35.0977 64.6324 35.4261 63.141 35.4261ZM72.016 15.9312H75.5049V20.7517L75.2918 23.122H75.5049C75.8955 22.4828 76.4636 21.9679 77.2094 21.5773C77.9551 21.1867 78.7629 20.9914 79.6329 20.9914C81.2841 20.9914 82.5447 21.4885 83.4147 22.4828C84.3024 23.4593 84.7463 24.8176 84.7463 26.5575V35H81.2575V26.9837C81.2575 26.1137 81.0178 25.439 80.5384 24.9596C80.0768 24.4802 79.4553 24.2405 78.6741 24.2405C77.7509 24.2405 76.9874 24.6134 76.3838 25.3591C75.7978 26.1048 75.5049 27.0192 75.5049 28.1022V35H72.016V15.9312ZM90.0079 19.9261C89.3864 19.9261 88.8538 19.7042 88.4099 19.2603C87.966 18.8164 87.7441 18.2838 87.7441 17.6623C87.7441 17.0409 87.966 16.5171 88.4099 16.091C88.8538 15.6472 89.3864 15.4252 90.0079 15.4252C90.6293 15.4252 91.1531 15.6472 91.5792 16.091C92.023 16.5171 92.245 17.0409 92.245 17.6623C92.245 18.2838 92.023 18.8164 91.5792 19.2603C91.1531 19.7042 90.6293 19.9261 90.0079 19.9261ZM88.2501 21.4175H91.739V35H88.2501V21.4175Z"/></svg>