<svg width="118" height="59" viewBox="0 0 118 59" fill="none" xmlns="http://www.w3.org/2000/svg">
<mask id="mask0_1_14" style="mask-type:alpha" maskUnits="userSpaceOnUse" x="0" y="4" width="41" height="31">
<path d="M37.6282 4.49633C39.4914 5.16508 40.4231 6.05674 40.4231 7.17135C40.4231 7.53349 40.2564 8.21634 39.9226 9.21931L31.9131 32.4165C31.8573 32.6117 31.7602 32.8486 31.621 33.1271C31.4821 33.4059 31.1065 33.7822 30.4946 34.2556C29.9107 34.7015 29.2015 34.9244 28.3672 34.9244C27.5606 34.9244 26.8514 34.7015 26.2397 34.2556C25.6556 33.7822 25.2662 33.3223 25.0715 32.8764L20.1907 18.4565C17.1037 27.5959 15.5324 32.2494 15.4768 32.4165C15.4212 32.5839 15.296 32.8206 15.1013 33.1271C14.9067 33.4336 14.6842 33.7124 14.4339 33.9631C13.7942 34.6039 13.0294 34.9244 12.1395 34.9244C11.2495 34.9244 10.5125 34.7155 9.9285 34.2976C9.37228 33.8795 8.99684 33.4616 8.80217 33.0436L8.51014 32.4165L0.458881 9.21931C0.15296 8.29984 0 7.61718 0 7.17135C0 6.05674 0.931666 5.17901 2.795 4.53814C3.60153 4.25947 4.3246 4.12016 4.96426 4.12016C5.63172 4.12016 6.13231 4.34307 6.46606 4.7889C6.82758 5.23474 7.14741 5.91742 7.42552 6.83696L12.0143 20.797L16.5614 7.04599C16.9507 5.87564 17.6599 5.06754 18.6889 4.62173C19.1339 4.42667 19.7041 4.32916 20.3993 4.32916C21.1224 4.32916 21.7899 4.56599 22.4018 5.03969C23.0136 5.48553 23.403 5.93136 23.5697 6.37721L28.3672 20.8806L32.9559 6.83696C33.1784 6.19613 33.3593 5.72238 33.4984 5.41587C33.6373 5.10935 33.8876 4.81678 34.2492 4.53814C34.6386 4.2316 35.1114 4.07837 35.6674 4.07837C36.2238 4.07837 36.8774 4.21769 37.6282 4.49633Z" fill="black"/>
</mask>
<g mask="url(#mask0_1_14)">
<path d="M31.8069 37.1302C31.0818 39.3201 28.7223 40.5071 26.5363 39.7811C24.3505 39.0553 23.1662 36.6916 23.8913 34.5017L34.0342 3.86462C34.7593 1.67474 37.1191 0.487907 39.3049 1.21376C41.4906 1.93961 42.6749 4.30327 41.9501 6.49315L31.8069 37.1302Z" fill="#0F9D58" fill-opacity="0.95"/>
<path d="M25.46 34.5445C26.0671 36.3856 28.0488 37.3855 29.8865 36.7778C31.7239 36.1702 32.7218 34.1851 32.1149 32.3442L23.2369 5.41287C22.63 3.57179 20.6482 2.5719 18.8105 3.17953C16.9729 3.78713 15.9752 5.77216 16.5821 7.61322L25.46 34.5445Z" fill="#F4B400" fill-opacity="0.95"/>
<path d="M14.9171 34.2723C14.3137 36.0948 12.3496 37.0828 10.5302 36.4787C8.71086 35.8744 7.72515 33.907 8.3286 32.0845L17.7002 3.77727C18.3037 1.95452 20.2678 0.966676 22.0872 1.57082C23.9065 2.17498 24.8923 4.14236 24.2887 5.96508L14.9171 34.2723Z" fill="#DB4437" fill-opacity="0.95"/>
<path d="M9.07631 38.4376C9.79796 40.6174 12.1467 41.7987 14.3224 41.0764C16.4981 40.3538 17.6769 38.0012 16.9552 35.8214L6.79999 5.14747C6.07836 2.96776 3.7296 1.78643 1.5539 2.50891C-0.621801 3.23138 -1.80055 5.58407 -1.07891 7.76378L9.07631 38.4376Z" fill="#4285F4" fill-opacity="0.95"/>
</g>
<mask id="mask1_1_14" style="mask-type:alpha" maskUnits="userSpaceOnUse" x="77" y="4" width="41" height="31">
<path d="M80.3702 4.49633C78.507 5.16508 77.5753 6.05674 77.5753 7.17135C77.5753 7.53349 77.7422 8.21634 78.0758 9.21931L86.0854 32.4165C86.1411 32.6117 86.2385 32.8486 86.3774 33.1271C86.5165 33.4059 86.8919 33.7822 87.5038 34.2556C88.0879 34.7015 88.7969 34.9244 89.6313 34.9244C90.4378 34.9244 91.1471 34.7015 91.7589 34.2556C92.3428 33.7822 92.7322 33.3223 92.9269 32.8764L97.8077 18.4565C100.895 27.5959 102.466 32.2494 102.522 32.4165C102.577 32.5839 102.702 32.8206 102.897 33.1271C103.092 33.4336 103.314 33.7124 103.565 33.9631C104.204 34.6039 104.969 34.9244 105.859 34.9244C106.749 34.9244 107.486 34.7155 108.07 34.2976C108.626 33.8795 109.002 33.4616 109.196 33.0436L109.488 32.4165L117.54 9.21931C117.846 8.29984 117.999 7.61718 117.999 7.17135C117.999 6.05674 117.067 5.17901 115.203 4.53814C114.397 4.25947 113.674 4.12016 113.034 4.12016C112.367 4.12016 111.866 4.34307 111.533 4.7889C111.171 5.23474 110.851 5.91742 110.573 6.83696L105.984 20.797L101.437 7.04599C101.048 5.87564 100.339 5.06754 99.3095 4.62173C98.8645 4.42667 98.2944 4.32916 97.5992 4.32916C96.876 4.32916 96.2085 4.56599 95.5967 5.03969C94.985 5.48553 94.5956 5.93136 94.4287 6.37721L89.6313 20.8806L85.0425 6.83696C84.82 6.19613 84.6393 5.72238 84.5002 5.41587C84.3611 5.10935 84.1108 4.81678 83.7492 4.53814C83.36 4.2316 82.8873 4.07837 82.331 4.07837C81.7747 4.07837 81.1212 4.21769 80.3702 4.49633Z" fill="black"/>
</mask>
<g mask="url(#mask1_1_14)">
<path d="M86.1938 37.1302C86.9189 39.3201 89.2785 40.5071 91.4645 39.7811C93.6502 39.0553 94.8345 36.6916 94.1094 34.5017L83.9665 3.86462C83.2414 1.67474 80.8816 0.487907 78.6959 1.21376C76.5101 1.93961 75.3258 4.30327 76.0507 6.49315L86.1938 37.1302Z" fill="#0F9D58" fill-opacity="0.95"/>
<path d="M92.5402 34.5445C91.9331 36.3856 89.9514 37.3855 88.1137 36.7778C86.276 36.1702 85.2784 34.1851 85.8853 32.3442L94.7633 5.41287C95.3702 3.57179 97.3521 2.5719 99.1895 3.17953C101.027 3.78713 102.025 5.77216 101.418 7.61322L92.5402 34.5445Z" fill="#F4B400" fill-opacity="0.95"/>
<path d="M103.084 34.2723C103.687 36.0948 105.651 37.0828 107.471 36.4787C109.29 35.8744 110.276 33.907 109.673 32.0845L100.301 3.77727C99.6974 1.95452 97.7332 0.966676 95.9139 1.57082C94.0945 2.17498 93.1087 4.14236 93.7123 5.96508L103.084 34.2723Z" fill="#DB4437" fill-opacity="0.95"/>
<path d="M108.924 38.4376C108.202 40.6174 105.854 41.7987 103.678 41.0764C101.502 40.3538 100.324 38.0012 101.045 35.8214L111.2 5.14747C111.922 2.96776 114.271 1.78643 116.447 2.50891C118.622 3.23138 119.801 5.58407 119.079 7.76378L108.924 38.4376Z" fill="#4285F4" fill-opacity="0.95"/>
</g>
<path fill-rule="evenodd" clip-rule="evenodd" d="M40.3005 18.1508C39.1507 18.8157 39.1507 20.4785 40.3005 21.1436L48.5485 25.9147C47.455 24.0822 46.8263 21.9389 46.8263 19.6485C46.8263 17.3564 47.4559 15.2115 48.5513 13.3779L40.3005 18.1508ZM58.8476 7.42188C58.9087 7.42103 58.9697 7.42051 59.0308 7.42051C63.6292 7.42051 67.6334 9.96849 69.7142 13.732V4.12867C69.7142 2.79852 68.2772 1.9672 67.1276 2.63227L58.8476 7.42188ZM69.7142 25.565C67.6334 29.3288 63.6292 31.8766 59.0308 31.8766C58.9716 31.8766 58.9121 31.8762 58.8527 31.8752L67.1276 36.6621C68.2772 37.3273 69.7142 36.4957 69.7142 35.1656V25.565Z" fill="#34A853" fill-opacity="0.9"/>
<path fill-rule="evenodd" clip-rule="evenodd" d="M71.2339 19.8745C71.2352 19.7992 71.2359 19.7241 71.2359 19.6488C71.2359 15.0527 68.7048 11.0487 64.9633 8.95972H74.5362C75.8639 8.95972 76.6935 10.3995 76.0297 11.5515L71.2339 19.8745ZM65.3256 30.1271C63.4879 31.2377 61.3341 31.8769 59.0312 31.8769C56.7495 31.8769 54.6137 31.2492 52.7868 30.1572L57.554 38.4303C58.218 39.5822 59.8775 39.5822 60.541 38.4303L65.3256 30.1271ZM46.8279 19.8161L42.0655 11.5515C41.4016 10.3995 42.2315 8.95972 43.5591 8.95972H53.0993C49.3578 11.0487 46.8267 15.0527 46.8267 19.6488C46.8267 19.7046 46.8272 19.7606 46.8279 19.8161Z" fill="#FBBC04" fill-opacity="0.9"/>
<path fill-rule="evenodd" clip-rule="evenodd" d="M77.7932 21.1436C78.943 20.4785 78.943 18.8157 77.7932 18.1508L69.4921 13.3488C70.5981 15.1888 71.2343 17.3442 71.2343 19.6485C71.2343 21.9511 70.5992 24.105 69.4948 25.9438L77.7932 21.1436ZM59.2417 31.875C59.1712 31.8762 59.1005 31.8766 59.0298 31.8766C54.4555 31.8766 50.4692 29.3554 48.3792 25.6242V35.1656C48.3792 36.4957 49.8165 37.3273 50.9661 36.6621L59.2417 31.875ZM59.2472 7.42259L50.9661 2.63227C49.8165 1.9672 48.3792 2.79852 48.3792 4.12867V13.673C50.4692 9.94192 54.4555 7.42066 59.0298 7.42066C59.1023 7.42066 59.1749 7.42119 59.2472 7.42259Z" fill="#EA4335" fill-opacity="0.9"/>
<path fill-rule="evenodd" clip-rule="evenodd" d="M60.5409 0.863936C59.8774 -0.287979 58.2179 -0.287979 57.5539 0.863936L52.784 9.14173C54.6116 8.04864 56.7482 7.42051 59.0311 7.42051C61.3351 7.42051 63.4899 8.0601 65.3285 9.17176L60.5409 0.863936ZM71.2338 19.4198C71.2351 19.4958 71.2358 19.5723 71.2358 19.6485C71.2358 24.2425 68.7073 28.2449 64.9687 30.3347H74.5363C75.8638 30.3347 76.6934 28.8946 76.0298 27.7427L71.2338 19.4198ZM53.0939 30.3347C49.3552 28.2449 46.8268 24.2425 46.8268 19.6485C46.8268 19.5916 46.8271 19.5346 46.8278 19.4781L42.0655 27.7427C41.4017 28.8946 42.2315 30.3347 43.559 30.3347H53.0939Z" fill="#4285F4" fill-opacity="0.9"/>
<path fill-rule="evenodd" clip-rule="evenodd" d="M66.0005 11.4185C61.4763 7.57292 54.7011 8.12295 50.8533 12.6429C51.6254 11.755 52.9688 11.6513 53.8677 12.4155C54.7739 13.1858 54.8855 14.5464 54.1165 15.4543L54.1168 15.4545C56.4173 12.7374 60.4762 12.3974 63.1951 14.6888C63.2019 14.6948 63.2088 14.7007 63.216 14.7067C64.1222 15.4772 65.48 15.3654 66.2489 14.4576C67.0179 13.5495 66.9065 12.1889 66.0003 11.4185H66.0005Z" fill="url(#paint0_linear_1_14)"/>
<path fill-rule="evenodd" clip-rule="evenodd" d="M50.8332 12.6644C46.9971 17.1944 47.5433 23.9776 52.0473 27.834L52.0772 27.8594C51.171 27.0889 51.0596 25.7283 51.8285 24.8203C52.5961 23.9138 53.9509 23.8011 54.8571 24.5675C52.1465 22.2591 51.8108 18.189 54.1048 15.4665C54.1084 15.4623 54.1119 15.4582 54.1153 15.4541C54.8845 14.546 54.7731 13.1854 53.8667 12.4151C52.9604 11.6447 51.6021 11.7564 50.8332 12.6644Z" fill="url(#paint1_linear_1_14)"/>
<path fill-rule="evenodd" clip-rule="evenodd" d="M52.0774 27.8594V27.8596C56.5991 31.703 63.3695 31.1557 67.2182 26.6425L67.2433 26.6131C66.4743 27.5212 65.1165 27.6327 64.2101 26.8624C63.3038 26.0921 63.1923 24.7315 63.9614 23.8235C61.6569 26.5447 57.5892 26.8817 54.8703 24.5784C54.8675 24.5761 54.8647 24.5736 54.8618 24.5713C53.9555 23.8008 52.5975 23.9126 51.8288 24.8204C51.0599 25.7285 51.1712 27.0891 52.0774 27.8594Z" fill="url(#paint2_linear_1_14)"/>
<path fill-rule="evenodd" clip-rule="evenodd" d="M66.0303 11.4434L66.0092 11.4255C66.9076 12.1973 67.0157 13.5519 66.2493 14.457C65.4829 15.3621 64.1315 15.4759 63.2253 14.7141C65.9343 17.0255 66.2661 21.0983 63.9657 23.8195C63.9646 23.8207 63.9634 23.822 63.9623 23.8234C63.1934 24.7315 63.305 26.0921 64.2112 26.8624C65.1174 27.6327 66.4755 27.5211 67.2442 26.613L67.2444 26.6133L67.2559 26.5995C71.0794 22.0693 70.5297 15.2959 66.0303 11.4434Z" fill="url(#paint3_linear_1_14)"/>
<path d="M19.479 54.3333H17.0207L14.3459 50.0312L13.431 50.6877V54.3333H11.266V44.1228H13.431V48.795C13.5753 48.5948 13.7173 48.3946 13.857 48.1944C13.9967 47.9942 14.1387 47.794 14.283 47.5938L17.0486 44.1228H19.4511L15.8893 48.6414L19.479 54.3333ZM35.2263 54.3333H29.3459V44.1228H35.2263V45.8967H31.5109V48.1385H34.9679V49.9124H31.5109V52.5454H35.2263V54.3333ZM48.9204 44.1228C49.8469 44.1228 50.6105 44.2345 51.2111 44.458C51.8164 44.6815 52.2657 45.0191 52.559 45.4707C52.8523 45.9223 52.999 46.4927 52.999 47.1817C52.999 47.6473 52.9105 48.0547 52.7336 48.4039C52.5566 48.7531 52.3239 49.0488 52.0352 49.2909C51.7465 49.533 51.4346 49.7309 51.0993 49.8845L54.1024 54.3333H51.7L49.2626 50.4153H48.1102V54.3333H45.9452V44.1228H48.9204ZM48.7667 45.8967H48.1102V48.6553H48.8086C49.5256 48.6553 50.0378 48.5366 50.3451 48.2992C50.657 48.0571 50.813 47.7032 50.813 47.2376C50.813 46.7534 50.6454 46.4089 50.3102 46.204C49.9796 45.9991 49.4651 45.8967 48.7667 45.8967ZM70.2199 54.3333L69.4796 51.9029H65.7572L65.0169 54.3333H62.6842L66.2879 44.0809H68.9348L72.5525 54.3333H70.2199ZM68.9628 50.087L68.2225 47.7125C68.1759 47.5542 68.1131 47.3517 68.0339 47.1049C67.9594 46.8535 67.8826 46.5997 67.8034 46.3437C67.7289 46.0829 67.6684 45.8571 67.6219 45.6662C67.5753 45.8571 67.5101 46.0946 67.4263 46.3786C67.3472 46.6579 67.2703 46.9233 67.1958 47.1748C67.1213 47.4262 67.0678 47.6054 67.0352 47.7125L66.3019 50.087H68.9628ZM82.4263 54.3333V44.1228H84.5913V52.5454H88.7328V54.3333H82.4263ZM105.346 54.3333L104.606 51.9029H100.883L100.143 54.3333H97.8105L101.414 44.0809H104.061L107.679 54.3333H105.346ZM104.089 50.087L103.349 47.7125C103.302 47.5542 103.239 47.3517 103.16 47.1049C103.086 46.8535 103.009 46.5997 102.93 46.3437C102.855 46.0829 102.795 45.8571 102.748 45.6662C102.702 45.8571 102.636 46.0946 102.553 46.3786C102.473 46.6579 102.397 46.9233 102.322 47.1748C102.248 47.4262 102.194 47.6054 102.161 47.7125L101.428 50.087H104.089Z" fill="url(#paint4_linear_1_14)"/>
<defs>
<linearGradient id="paint0_linear_1_14" x1="60.7232" y1="11.485" x2="52.6423" y2="13.7851" gradientUnits="userSpaceOnUse">
<stop stop-color="#4285F4"/>
<stop offset="1" stop-color="#4285F4" stop-opacity="0.7"/>
</linearGradient>
<linearGradient id="paint1_linear_1_14" x1="50.8996" y1="17.9516" x2="53.2121" y2="26.0433" gradientUnits="userSpaceOnUse">
<stop stop-color="#0F9D58"/>
<stop offset="1" stop-color="#0F9D58" stop-opacity="0.7"/>
</linearGradient>
<linearGradient id="paint2_linear_1_14" x1="57.3547" y1="27.793" x2="65.4354" y2="25.4929" gradientUnits="userSpaceOnUse">
<stop stop-color="#F4B400"/>
<stop offset="1" stop-color="#F4B400" stop-opacity="0.7"/>
</linearGradient>
<linearGradient id="paint3_linear_1_14" x1="67.1808" y1="21.3282" x2="64.8664" y2="13.2436" gradientUnits="userSpaceOnUse">
<stop stop-color="#DB4437"/>
<stop offset="1" stop-color="#DB4437" stop-opacity="0.7"/>
</linearGradient>
<linearGradient id="paint4_linear_1_14" x1="9.83331" y1="48.5454" x2="107.833" y2="48.5454" gradientUnits="userSpaceOnUse">
<stop stop-color="#4180EA"/>
<stop offset="0.407961" stop-color="#D24336"/>
<stop offset="0.762027" stop-color="#EAAD02"/>
<stop offset="1" stop-color="#109756"/>
</linearGradient>
</defs>
</svg>
