<svg width="444" height="142" viewBox="0 0 444 142" fill="none" xmlns="http://www.w3.org/2000/svg">
<path d="M341.083 0H0L101.069 151H444L341.083 0Z" fill="#FEE699"/>
<path d="M88.8669 32.816H90.8829V48.056H98.4189V50H88.8669V32.816ZM108.237 50.384C107.069 50.384 106.021 50.104 105.093 49.544C104.165 48.984 103.437 48.216 102.909 47.24C102.397 46.248 102.141 45.136 102.141 43.904C102.141 42.72 102.381 41.632 102.861 40.64C103.357 39.648 104.053 38.856 104.949 38.264C105.845 37.672 106.885 37.376 108.069 37.376C109.269 37.376 110.309 37.648 111.189 38.192C112.069 38.72 112.741 39.456 113.205 40.4C113.685 41.344 113.925 42.424 113.925 43.64C113.925 43.88 113.901 44.088 113.853 44.264H104.181C104.229 45.192 104.453 45.976 104.853 46.616C105.253 47.256 105.757 47.736 106.365 48.056C106.989 48.376 107.637 48.536 108.309 48.536C109.877 48.536 111.085 47.8 111.933 46.328L113.661 47.168C113.133 48.16 112.413 48.944 111.501 49.52C110.605 50.096 109.517 50.384 108.237 50.384ZM111.765 42.584C111.733 42.072 111.589 41.56 111.333 41.048C111.077 40.536 110.669 40.104 110.109 39.752C109.565 39.4 108.877 39.224 108.045 39.224C107.085 39.224 106.269 39.536 105.597 40.16C104.941 40.768 104.509 41.576 104.301 42.584H111.765ZM122.741 50.384C121.845 50.384 121.045 50.208 120.341 49.856C119.637 49.504 119.093 49.024 118.709 48.416C118.325 47.792 118.133 47.088 118.133 46.304C118.133 45.008 118.621 44 119.597 43.28C120.573 42.544 121.805 42.176 123.293 42.176C124.029 42.176 124.709 42.256 125.333 42.416C125.973 42.576 126.461 42.76 126.797 42.968V42.224C126.797 41.312 126.477 40.584 125.837 40.04C125.197 39.48 124.389 39.2 123.413 39.2C122.725 39.2 122.093 39.352 121.517 39.656C120.941 39.944 120.485 40.352 120.149 40.88L118.613 39.728C119.093 38.992 119.749 38.416 120.581 38C121.429 37.584 122.365 37.376 123.389 37.376C125.053 37.376 126.357 37.816 127.301 38.696C128.261 39.56 128.741 40.744 128.741 42.248V50H126.797V48.248H126.701C126.349 48.84 125.821 49.344 125.117 49.76C124.413 50.176 123.621 50.384 122.741 50.384ZM122.933 48.584C123.621 48.584 124.261 48.408 124.853 48.056C125.445 47.704 125.917 47.232 126.269 46.64C126.621 46.048 126.797 45.4 126.797 44.696C126.413 44.44 125.941 44.232 125.381 44.072C124.821 43.912 124.229 43.832 123.605 43.832C122.485 43.832 121.637 44.064 121.061 44.528C120.501 44.992 120.221 45.592 120.221 46.328C120.221 47 120.477 47.544 120.989 47.96C121.501 48.376 122.149 48.584 122.933 48.584ZM133.979 37.76H135.923V39.728H136.019C136.259 39.056 136.723 38.504 137.411 38.072C138.099 37.624 138.819 37.4 139.571 37.4C140.131 37.4 140.611 37.48 141.011 37.64V39.848C140.499 39.592 139.923 39.464 139.283 39.464C138.691 39.464 138.147 39.632 137.651 39.968C137.155 40.304 136.755 40.76 136.451 41.336C136.163 41.896 136.019 42.504 136.019 43.16V50H133.979V37.76ZM145.379 37.76H147.323V39.56H147.419C147.755 38.952 148.291 38.44 149.027 38.024C149.763 37.592 150.547 37.376 151.379 37.376C152.851 37.376 153.971 37.808 154.739 38.672C155.523 39.52 155.915 40.68 155.915 42.152V50H153.875V42.464C153.875 41.328 153.603 40.504 153.059 39.992C152.515 39.48 151.771 39.224 150.827 39.224C150.171 39.224 149.579 39.408 149.051 39.776C148.539 40.144 148.139 40.632 147.851 41.24C147.563 41.832 147.419 42.456 147.419 43.112V50H145.379V37.76ZM170.158 39.608H167.902V37.76H170.158V36.44C170.158 35.672 170.334 35 170.686 34.424C171.038 33.848 171.51 33.408 172.102 33.104C172.694 32.784 173.35 32.624 174.07 32.624C174.758 32.624 175.358 32.72 175.87 32.912V34.904C175.582 34.792 175.31 34.704 175.054 34.64C174.798 34.56 174.494 34.52 174.142 34.52C173.614 34.52 173.158 34.712 172.774 35.096C172.39 35.464 172.198 35.984 172.198 36.656V37.76H175.342V39.608H172.198V50H170.158V39.608ZM180.235 37.76H182.179V39.728H182.275C182.515 39.056 182.979 38.504 183.667 38.072C184.355 37.624 185.075 37.4 185.827 37.4C186.387 37.4 186.867 37.48 187.267 37.64V39.848C186.755 39.592 186.179 39.464 185.539 39.464C184.947 39.464 184.403 39.632 183.907 39.968C183.411 40.304 183.011 40.76 182.707 41.336C182.419 41.896 182.275 42.504 182.275 43.16V50H180.235V37.76ZM196.549 50.384C195.349 50.384 194.269 50.096 193.309 49.52C192.349 48.944 191.597 48.16 191.053 47.168C190.525 46.176 190.261 45.08 190.261 43.88C190.261 42.68 190.525 41.584 191.053 40.592C191.597 39.6 192.349 38.816 193.309 38.24C194.269 37.664 195.349 37.376 196.549 37.376C197.749 37.376 198.829 37.664 199.789 38.24C200.749 38.816 201.493 39.6 202.021 40.592C202.565 41.584 202.837 42.68 202.837 43.88C202.837 45.08 202.565 46.176 202.021 47.168C201.493 48.16 200.749 48.944 199.789 49.52C198.829 50.096 197.749 50.384 196.549 50.384ZM196.549 48.536C197.301 48.536 197.997 48.352 198.637 47.984C199.293 47.6 199.813 47.056 200.197 46.352C200.597 45.648 200.797 44.824 200.797 43.88C200.797 42.936 200.597 42.112 200.197 41.408C199.813 40.704 199.293 40.168 198.637 39.8C197.997 39.416 197.301 39.224 196.549 39.224C195.797 39.224 195.093 39.416 194.437 39.8C193.781 40.168 193.253 40.704 192.853 41.408C192.469 42.112 192.277 42.936 192.277 43.88C192.277 44.824 192.469 45.648 192.853 46.352C193.253 47.056 193.781 47.6 194.437 47.984C195.093 48.352 195.797 48.536 196.549 48.536ZM207.371 37.76H209.315V39.56H209.411C209.763 38.936 210.291 38.416 210.995 38C211.699 37.584 212.443 37.376 213.227 37.376C214.123 37.376 214.899 37.592 215.555 38.024C216.227 38.456 216.707 39.032 216.995 39.752C217.427 39.032 217.995 38.456 218.699 38.024C219.419 37.592 220.251 37.376 221.195 37.376C222.603 37.376 223.659 37.808 224.363 38.672C225.083 39.52 225.443 40.68 225.443 42.152V50H223.427V42.464C223.427 41.328 223.195 40.504 222.731 39.992C222.267 39.48 221.579 39.224 220.667 39.224C220.059 39.224 219.507 39.4 219.011 39.752C218.515 40.104 218.123 40.576 217.835 41.168C217.563 41.76 217.427 42.4 217.427 43.088V50H215.387V42.488C215.387 41.336 215.155 40.504 214.691 39.992C214.227 39.48 213.547 39.224 212.651 39.224C212.043 39.224 211.491 39.408 210.995 39.776C210.499 40.128 210.107 40.608 209.819 41.216C209.547 41.808 209.411 42.448 209.411 43.136V50H207.371V37.76ZM239.157 32.816H241.173V50H239.157V32.816ZM247.009 37.76H248.953V39.56H249.049C249.385 38.952 249.921 38.44 250.657 38.024C251.393 37.592 252.177 37.376 253.009 37.376C254.481 37.376 255.601 37.808 256.369 38.672C257.153 39.52 257.545 40.68 257.545 42.152V50H255.505V42.464C255.505 41.328 255.233 40.504 254.689 39.992C254.145 39.48 253.401 39.224 252.457 39.224C251.801 39.224 251.209 39.408 250.681 39.776C250.169 40.144 249.769 40.632 249.481 41.24C249.193 41.832 249.049 42.456 249.049 43.112V50H247.009V37.76ZM268.046 50.384C266.958 50.384 265.966 50.104 265.07 49.544C264.19 48.984 263.494 48.216 262.982 47.24C262.47 46.248 262.214 45.128 262.214 43.88C262.214 42.648 262.47 41.536 262.982 40.544C263.494 39.552 264.19 38.776 265.07 38.216C265.966 37.656 266.958 37.376 268.046 37.376C268.99 37.376 269.83 37.592 270.566 38.024C271.302 38.44 271.862 38.96 272.246 39.584H272.342L272.246 37.88V32.816H274.286V50H272.342V48.2H272.246C271.862 48.808 271.302 49.328 270.566 49.76C269.83 50.176 268.99 50.384 268.046 50.384ZM268.286 48.536C269.006 48.536 269.67 48.344 270.278 47.96C270.902 47.576 271.398 47.032 271.766 46.328C272.15 45.624 272.342 44.808 272.342 43.88C272.342 42.952 272.15 42.136 271.766 41.432C271.398 40.728 270.902 40.184 270.278 39.8C269.67 39.416 269.006 39.224 268.286 39.224C267.582 39.224 266.918 39.416 266.294 39.8C265.67 40.184 265.166 40.736 264.782 41.456C264.414 42.16 264.23 42.968 264.23 43.88C264.23 44.792 264.414 45.608 264.782 46.328C265.166 47.032 265.67 47.576 266.294 47.96C266.918 48.344 267.582 48.536 268.286 48.536ZM284.139 50.384C282.667 50.384 281.539 49.952 280.755 49.088C279.987 48.224 279.603 47.016 279.603 45.464V37.76H281.643V45.152C281.643 46.32 281.907 47.176 282.435 47.72C282.963 48.264 283.675 48.536 284.571 48.536C285.259 48.536 285.867 48.352 286.395 47.984C286.939 47.616 287.355 47.136 287.643 46.544C287.947 45.952 288.099 45.328 288.099 44.672V37.76H290.139V50H288.195V48.224H288.099C287.763 48.832 287.227 49.344 286.491 49.76C285.755 50.176 284.971 50.384 284.139 50.384ZM299.707 50.384C298.395 50.384 297.299 50.08 296.419 49.472C295.539 48.848 294.915 48.056 294.547 47.096L296.371 46.28C296.675 47.016 297.123 47.584 297.715 47.984C298.323 48.384 298.987 48.584 299.707 48.584C300.475 48.584 301.131 48.432 301.675 48.128C302.219 47.808 302.491 47.36 302.491 46.784C302.491 46.272 302.275 45.864 301.843 45.56C301.411 45.24 300.731 44.968 299.803 44.744L298.315 44.36C297.339 44.12 296.539 43.712 295.915 43.136C295.291 42.56 294.979 41.816 294.979 40.904C294.979 40.2 295.187 39.584 295.603 39.056C296.035 38.512 296.603 38.096 297.307 37.808C298.011 37.52 298.771 37.376 299.587 37.376C300.659 37.376 301.611 37.608 302.443 38.072C303.291 38.536 303.891 39.184 304.243 40.016L302.467 40.832C301.923 39.744 300.955 39.2 299.563 39.2C298.891 39.2 298.299 39.36 297.787 39.68C297.291 39.984 297.043 40.376 297.043 40.856C297.043 41.304 297.219 41.672 297.571 41.96C297.923 42.232 298.451 42.456 299.155 42.632L300.931 43.088C302.131 43.392 303.035 43.848 303.643 44.456C304.251 45.048 304.555 45.776 304.555 46.64C304.555 47.392 304.339 48.056 303.907 48.632C303.475 49.192 302.891 49.624 302.155 49.928C301.419 50.232 300.603 50.384 299.707 50.384ZM313.766 50.192C313.27 50.192 312.806 50.112 312.374 49.952C311.958 49.792 311.606 49.576 311.318 49.304C310.998 49 310.758 48.648 310.598 48.248C310.438 47.848 310.358 47.36 310.358 46.784V39.608H308.222V37.76H310.358V34.304H312.398V37.76H315.374V39.608H312.398V46.28C312.398 46.952 312.526 47.448 312.782 47.768C313.086 48.12 313.526 48.296 314.102 48.296C314.566 48.296 315.014 48.16 315.446 47.888V49.88C315.206 49.992 314.958 50.072 314.702 50.12C314.462 50.168 314.15 50.192 313.766 50.192ZM320.251 37.76H322.195V39.728H322.291C322.531 39.056 322.995 38.504 323.683 38.072C324.371 37.624 325.091 37.4 325.843 37.4C326.403 37.4 326.883 37.48 327.283 37.64V39.848C326.771 39.592 326.195 39.464 325.555 39.464C324.963 39.464 324.419 39.632 323.923 39.968C323.427 40.304 323.027 40.76 322.723 41.336C322.435 41.896 322.291 42.504 322.291 43.16V50H320.251V37.76ZM335.934 49.232L330.87 37.76H333.078L336.918 46.856H336.966L340.662 37.76H342.87L335.31 55.184H333.198L335.934 49.232ZM75.0763 63.816H77.0922V79.056H84.6282V81H75.0763V63.816ZM94.4459 81.384C93.2779 81.384 92.2299 81.104 91.3019 80.544C90.3739 79.984 89.6459 79.216 89.1179 78.24C88.6059 77.248 88.3499 76.136 88.3499 74.904C88.3499 73.72 88.5899 72.632 89.0699 71.64C89.5659 70.648 90.2619 69.856 91.1579 69.264C92.0539 68.672 93.0939 68.376 94.2779 68.376C95.4779 68.376 96.5179 68.648 97.3979 69.192C98.2779 69.72 98.9499 70.456 99.4139 71.4C99.8939 72.344 100.134 73.424 100.134 74.64C100.134 74.88 100.11 75.088 100.062 75.264H90.3899C90.4379 76.192 90.6619 76.976 91.0619 77.616C91.4619 78.256 91.9659 78.736 92.5739 79.056C93.1979 79.376 93.8459 79.536 94.5179 79.536C96.0859 79.536 97.2939 78.8 98.1419 77.328L99.8699 78.168C99.3419 79.16 98.6219 79.944 97.7099 80.52C96.8139 81.096 95.7259 81.384 94.4459 81.384ZM97.9739 73.584C97.9419 73.072 97.7979 72.56 97.5419 72.048C97.2859 71.536 96.8779 71.104 96.3179 70.752C95.7739 70.4 95.0859 70.224 94.2539 70.224C93.2939 70.224 92.4779 70.536 91.8059 71.16C91.1499 71.768 90.7179 72.576 90.5099 73.584H97.9739ZM108.951 81.384C108.055 81.384 107.255 81.208 106.551 80.856C105.847 80.504 105.303 80.024 104.919 79.416C104.535 78.792 104.343 78.088 104.343 77.304C104.343 76.008 104.831 75 105.807 74.28C106.783 73.544 108.015 73.176 109.503 73.176C110.239 73.176 110.919 73.256 111.543 73.416C112.183 73.576 112.671 73.76 113.007 73.968V73.224C113.007 72.312 112.687 71.584 112.047 71.04C111.407 70.48 110.599 70.2 109.623 70.2C108.935 70.2 108.303 70.352 107.727 70.656C107.151 70.944 106.695 71.352 106.359 71.88L104.823 70.728C105.303 69.992 105.959 69.416 106.791 69C107.639 68.584 108.575 68.376 109.599 68.376C111.263 68.376 112.567 68.816 113.511 69.696C114.471 70.56 114.951 71.744 114.951 73.248V81H113.007V79.248H112.911C112.559 79.84 112.031 80.344 111.327 80.76C110.623 81.176 109.831 81.384 108.951 81.384ZM109.143 79.584C109.831 79.584 110.471 79.408 111.063 79.056C111.655 78.704 112.127 78.232 112.479 77.64C112.831 77.048 113.007 76.4 113.007 75.696C112.623 75.44 112.151 75.232 111.591 75.072C111.031 74.912 110.439 74.832 109.815 74.832C108.695 74.832 107.847 75.064 107.271 75.528C106.711 75.992 106.431 76.592 106.431 77.328C106.431 78 106.687 78.544 107.199 78.96C107.711 79.376 108.359 79.584 109.143 79.584ZM125.255 81.384C124.167 81.384 123.175 81.104 122.279 80.544C121.399 79.984 120.703 79.216 120.191 78.24C119.679 77.248 119.423 76.128 119.423 74.88C119.423 73.648 119.679 72.536 120.191 71.544C120.703 70.552 121.399 69.776 122.279 69.216C123.175 68.656 124.167 68.376 125.255 68.376C126.199 68.376 127.039 68.592 127.775 69.024C128.511 69.44 129.071 69.96 129.455 70.584H129.551L129.455 68.88V63.816H131.495V81H129.551V79.2H129.455C129.071 79.808 128.511 80.328 127.775 80.76C127.039 81.176 126.199 81.384 125.255 81.384ZM125.495 79.536C126.215 79.536 126.879 79.344 127.487 78.96C128.111 78.576 128.607 78.032 128.975 77.328C129.359 76.624 129.551 75.808 129.551 74.88C129.551 73.952 129.359 73.136 128.975 72.432C128.607 71.728 128.111 71.184 127.487 70.8C126.879 70.416 126.215 70.224 125.495 70.224C124.791 70.224 124.127 70.416 123.503 70.8C122.879 71.184 122.375 71.736 121.991 72.456C121.623 73.16 121.439 73.968 121.439 74.88C121.439 75.792 121.623 76.608 121.991 77.328C122.375 78.032 122.879 78.576 123.503 78.96C124.127 79.344 124.791 79.536 125.495 79.536ZM141.064 81.384C139.752 81.384 138.656 81.08 137.776 80.472C136.896 79.848 136.272 79.056 135.904 78.096L137.728 77.28C138.032 78.016 138.48 78.584 139.072 78.984C139.68 79.384 140.344 79.584 141.064 79.584C141.832 79.584 142.488 79.432 143.032 79.128C143.576 78.808 143.848 78.36 143.848 77.784C143.848 77.272 143.632 76.864 143.2 76.56C142.768 76.24 142.088 75.968 141.16 75.744L139.672 75.36C138.696 75.12 137.896 74.712 137.272 74.136C136.648 73.56 136.336 72.816 136.336 71.904C136.336 71.2 136.544 70.584 136.96 70.056C137.392 69.512 137.96 69.096 138.664 68.808C139.368 68.52 140.128 68.376 140.944 68.376C142.016 68.376 142.968 68.608 143.8 69.072C144.648 69.536 145.248 70.184 145.6 71.016L143.824 71.832C143.28 70.744 142.312 70.2 140.92 70.2C140.248 70.2 139.656 70.36 139.144 70.68C138.648 70.984 138.4 71.376 138.4 71.856C138.4 72.304 138.576 72.672 138.928 72.96C139.28 73.232 139.808 73.456 140.512 73.632L142.288 74.088C143.488 74.392 144.392 74.848 145 75.456C145.608 76.048 145.912 76.776 145.912 77.64C145.912 78.392 145.696 79.056 145.264 79.632C144.832 80.192 144.248 80.624 143.512 80.928C142.776 81.232 141.96 81.384 141.064 81.384ZM164.058 81.384C162.874 81.384 161.81 81.104 160.866 80.544C159.922 79.968 159.186 79.192 158.658 78.216C158.13 77.224 157.866 76.112 157.866 74.88C157.866 73.648 158.13 72.536 158.658 71.544C159.186 70.552 159.922 69.776 160.866 69.216C161.81 68.656 162.874 68.376 164.058 68.376C165.386 68.376 166.498 68.688 167.394 69.312C168.306 69.92 168.954 70.736 169.338 71.76L167.49 72.528C167.186 71.776 166.73 71.208 166.122 70.824C165.53 70.424 164.81 70.224 163.962 70.224C163.242 70.224 162.57 70.424 161.946 70.824C161.322 71.208 160.818 71.752 160.434 72.456C160.066 73.16 159.882 73.968 159.882 74.88C159.882 75.792 160.066 76.6 160.434 77.304C160.818 78.008 161.322 78.56 161.946 78.96C162.57 79.344 163.242 79.536 163.962 79.536C164.826 79.536 165.57 79.336 166.194 78.936C166.818 78.536 167.282 77.968 167.586 77.232L169.41 78C168.994 79.008 168.322 79.824 167.394 80.448C166.482 81.072 165.37 81.384 164.058 81.384ZM173.898 68.76H175.842V70.728H175.938C176.178 70.056 176.642 69.504 177.33 69.072C178.018 68.624 178.738 68.4 179.49 68.4C180.05 68.4 180.53 68.48 180.93 68.64V70.848C180.418 70.592 179.842 70.464 179.202 70.464C178.61 70.464 178.066 70.632 177.57 70.968C177.074 71.304 176.674 71.76 176.37 72.336C176.082 72.896 175.938 73.504 175.938 74.16V81H173.898V68.76ZM190.211 81.384C189.011 81.384 187.931 81.096 186.971 80.52C186.011 79.944 185.259 79.16 184.715 78.168C184.187 77.176 183.923 76.08 183.923 74.88C183.923 73.68 184.187 72.584 184.715 71.592C185.259 70.6 186.011 69.816 186.971 69.24C187.931 68.664 189.011 68.376 190.211 68.376C191.411 68.376 192.491 68.664 193.451 69.24C194.411 69.816 195.155 70.6 195.683 71.592C196.227 72.584 196.499 73.68 196.499 74.88C196.499 76.08 196.227 77.176 195.683 78.168C195.155 79.16 194.411 79.944 193.451 80.52C192.491 81.096 191.411 81.384 190.211 81.384ZM190.211 79.536C190.963 79.536 191.659 79.352 192.299 78.984C192.955 78.6 193.475 78.056 193.859 77.352C194.259 76.648 194.459 75.824 194.459 74.88C194.459 73.936 194.259 73.112 193.859 72.408C193.475 71.704 192.955 71.168 192.299 70.8C191.659 70.416 190.963 70.224 190.211 70.224C189.459 70.224 188.755 70.416 188.099 70.8C187.443 71.168 186.915 71.704 186.515 72.408C186.131 73.112 185.939 73.936 185.939 74.88C185.939 75.824 186.131 76.648 186.515 77.352C186.915 78.056 187.443 78.6 188.099 78.984C188.755 79.352 189.459 79.536 190.211 79.536ZM205.423 81.384C204.111 81.384 203.015 81.08 202.135 80.472C201.255 79.848 200.631 79.056 200.263 78.096L202.087 77.28C202.391 78.016 202.839 78.584 203.431 78.984C204.039 79.384 204.703 79.584 205.423 79.584C206.191 79.584 206.847 79.432 207.391 79.128C207.935 78.808 208.207 78.36 208.207 77.784C208.207 77.272 207.991 76.864 207.559 76.56C207.127 76.24 206.447 75.968 205.519 75.744L204.031 75.36C203.055 75.12 202.255 74.712 201.631 74.136C201.007 73.56 200.695 72.816 200.695 71.904C200.695 71.2 200.903 70.584 201.319 70.056C201.751 69.512 202.319 69.096 203.023 68.808C203.727 68.52 204.487 68.376 205.303 68.376C206.375 68.376 207.327 68.608 208.159 69.072C209.007 69.536 209.607 70.184 209.959 71.016L208.183 71.832C207.639 70.744 206.671 70.2 205.279 70.2C204.607 70.2 204.015 70.36 203.503 70.68C203.007 70.984 202.759 71.376 202.759 71.856C202.759 72.304 202.935 72.672 203.287 72.96C203.639 73.232 204.167 73.456 204.871 73.632L206.647 74.088C207.847 74.392 208.751 74.848 209.359 75.456C209.967 76.048 210.271 76.776 210.271 77.64C210.271 78.392 210.055 79.056 209.623 79.632C209.191 80.192 208.607 80.624 207.871 80.928C207.135 81.232 206.319 81.384 205.423 81.384ZM219.167 81.384C217.855 81.384 216.759 81.08 215.879 80.472C214.999 79.848 214.375 79.056 214.007 78.096L215.831 77.28C216.135 78.016 216.583 78.584 217.175 78.984C217.783 79.384 218.447 79.584 219.167 79.584C219.935 79.584 220.591 79.432 221.135 79.128C221.679 78.808 221.951 78.36 221.951 77.784C221.951 77.272 221.735 76.864 221.303 76.56C220.871 76.24 220.191 75.968 219.263 75.744L217.775 75.36C216.799 75.12 215.999 74.712 215.375 74.136C214.751 73.56 214.439 72.816 214.439 71.904C214.439 71.2 214.647 70.584 215.063 70.056C215.495 69.512 216.063 69.096 216.767 68.808C217.471 68.52 218.231 68.376 219.047 68.376C220.119 68.376 221.071 68.608 221.903 69.072C222.751 69.536 223.351 70.184 223.703 71.016L221.927 71.832C221.383 70.744 220.415 70.2 219.023 70.2C218.351 70.2 217.759 70.36 217.247 70.68C216.751 70.984 216.503 71.376 216.503 71.856C216.503 72.304 216.679 72.672 217.031 72.96C217.383 73.232 217.911 73.456 218.615 73.632L220.391 74.088C221.591 74.392 222.495 74.848 223.103 75.456C223.711 76.048 224.015 76.776 224.015 77.64C224.015 78.392 223.799 79.056 223.367 79.632C222.935 80.192 222.351 80.624 221.615 80.928C220.879 81.232 220.063 81.384 219.167 81.384ZM241.321 81.192C240.825 81.192 240.361 81.112 239.929 80.952C239.513 80.792 239.161 80.576 238.873 80.304C238.553 80 238.313 79.648 238.153 79.248C237.993 78.848 237.913 78.36 237.913 77.784V70.608H235.777V68.76H237.913V65.304H239.953V68.76H242.929V70.608H239.953V77.28C239.953 77.952 240.081 78.448 240.337 78.768C240.641 79.12 241.081 79.296 241.657 79.296C242.121 79.296 242.569 79.16 243.001 78.888V80.88C242.761 80.992 242.513 81.072 242.257 81.12C242.017 81.168 241.705 81.192 241.321 81.192ZM247.923 63.816H249.963V68.88L249.867 70.56H249.963C250.299 69.936 250.827 69.416 251.547 69C252.283 68.584 253.083 68.376 253.947 68.376C255.435 68.376 256.571 68.816 257.355 69.696C258.139 70.56 258.531 71.712 258.531 73.152V81H256.491V73.464C256.491 72.36 256.211 71.544 255.651 71.016C255.091 70.488 254.363 70.224 253.467 70.224C252.827 70.224 252.235 70.416 251.691 70.8C251.163 71.184 250.739 71.68 250.419 72.288C250.115 72.896 249.963 73.528 249.963 74.184V81H247.923V63.816ZM269.318 81.384C268.15 81.384 267.102 81.104 266.174 80.544C265.246 79.984 264.518 79.216 263.99 78.24C263.478 77.248 263.222 76.136 263.222 74.904C263.222 73.72 263.462 72.632 263.942 71.64C264.438 70.648 265.134 69.856 266.03 69.264C266.926 68.672 267.966 68.376 269.15 68.376C270.35 68.376 271.39 68.648 272.27 69.192C273.15 69.72 273.822 70.456 274.286 71.4C274.766 72.344 275.006 73.424 275.006 74.64C275.006 74.88 274.982 75.088 274.934 75.264H265.262C265.31 76.192 265.534 76.976 265.934 77.616C266.334 78.256 266.838 78.736 267.446 79.056C268.07 79.376 268.718 79.536 269.39 79.536C270.958 79.536 272.166 78.8 273.014 77.328L274.742 78.168C274.214 79.16 273.494 79.944 272.582 80.52C271.686 81.096 270.598 81.384 269.318 81.384ZM272.846 73.584C272.814 73.072 272.67 72.56 272.414 72.048C272.158 71.536 271.75 71.104 271.19 70.752C270.646 70.4 269.958 70.224 269.126 70.224C268.166 70.224 267.35 70.536 266.678 71.16C266.022 71.768 265.59 72.576 265.382 73.584H272.846ZM286.427 68.76H288.515L291.443 78.432H291.467L294.539 68.76H296.651L299.747 78.408H299.771L302.675 68.76H304.739L300.779 81H298.715L295.547 71.232L292.403 81H290.363L286.427 68.76ZM314.233 81.384C313.033 81.384 311.953 81.096 310.993 80.52C310.033 79.944 309.281 79.16 308.737 78.168C308.209 77.176 307.945 76.08 307.945 74.88C307.945 73.68 308.209 72.584 308.737 71.592C309.281 70.6 310.033 69.816 310.993 69.24C311.953 68.664 313.033 68.376 314.233 68.376C315.433 68.376 316.513 68.664 317.473 69.24C318.433 69.816 319.177 70.6 319.705 71.592C320.249 72.584 320.521 73.68 320.521 74.88C320.521 76.08 320.249 77.176 319.705 78.168C319.177 79.16 318.433 79.944 317.473 80.52C316.513 81.096 315.433 81.384 314.233 81.384ZM314.233 79.536C314.985 79.536 315.681 79.352 316.321 78.984C316.977 78.6 317.497 78.056 317.881 77.352C318.281 76.648 318.481 75.824 318.481 74.88C318.481 73.936 318.281 73.112 317.881 72.408C317.497 71.704 316.977 71.168 316.321 70.8C315.681 70.416 314.985 70.224 314.233 70.224C313.481 70.224 312.777 70.416 312.121 70.8C311.465 71.168 310.937 71.704 310.537 72.408C310.153 73.112 309.961 73.936 309.961 74.88C309.961 75.824 310.153 76.648 310.537 77.352C310.937 78.056 311.465 78.6 312.121 78.984C312.777 79.352 313.481 79.536 314.233 79.536ZM325.056 68.76H327V70.728H327.096C327.336 70.056 327.8 69.504 328.488 69.072C329.176 68.624 329.896 68.4 330.648 68.4C331.208 68.4 331.688 68.48 332.088 68.64V70.848C331.576 70.592 331 70.464 330.36 70.464C329.768 70.464 329.224 70.632 328.728 70.968C328.232 71.304 327.832 71.76 327.528 72.336C327.24 72.896 327.096 73.504 327.096 74.16V81H325.056V68.76ZM336.573 63.816H338.613V81H336.573V63.816ZM349.102 81.384C348.014 81.384 347.022 81.104 346.126 80.544C345.246 79.984 344.55 79.216 344.038 78.24C343.526 77.248 343.27 76.128 343.27 74.88C343.27 73.648 343.526 72.536 344.038 71.544C344.55 70.552 345.246 69.776 346.126 69.216C347.022 68.656 348.014 68.376 349.102 68.376C350.046 68.376 350.886 68.592 351.622 69.024C352.358 69.44 352.918 69.96 353.302 70.584H353.398L353.302 68.88V63.816H355.342V81H353.398V79.2H353.302C352.918 79.808 352.358 80.328 351.622 80.76C350.886 81.176 350.046 81.384 349.102 81.384ZM349.342 79.536C350.062 79.536 350.726 79.344 351.334 78.96C351.958 78.576 352.454 78.032 352.822 77.328C353.206 76.624 353.398 75.808 353.398 74.88C353.398 73.952 353.206 73.136 352.822 72.432C352.454 71.728 351.958 71.184 351.334 70.8C350.726 70.416 350.062 70.224 349.342 70.224C348.638 70.224 347.974 70.416 347.35 70.8C346.726 71.184 346.222 71.736 345.838 72.456C345.47 73.16 345.286 73.968 345.286 74.88C345.286 75.792 345.47 76.608 345.838 77.328C346.222 78.032 346.726 78.576 347.35 78.96C347.974 79.344 348.638 79.536 349.342 79.536Z" fill="black"/>
<line x1="101" y1="104.5" x2="361" y2="104.5" stroke="black" stroke-opacity="0.6"/>
</svg>
