<svg width="1162" height="520" viewBox="0 0 1162 520" fill="none" xmlns="http://www.w3.org/2000/svg">
<path d="M651.281 520.39C726.988 474.41 790.599 435.4 844.331 401.85C896.895 369.018 941.203 340.625 978.376 315.84C1010.87 294.153 1038.43 274.866 1061.39 257.637C1100.44 228.319 1127.48 203.817 1143.18 183.661C1156.85 166.092 1162.58 150.904 1161.95 138.191C1160.76 114.861 1138.64 97.6699 1111.04 83.9174C1084.89 70.9016 1054.16 60.795 1026.6 51.6141C1002.52 43.5855 982.003 36.917 970.741 30.2485C962.343 25.2614 960.672 20.1041 970.741 15.9104C990.855 7.56064 1040.96 3.74469 1085.01 -0.127925C1062.75 -0.656868 1040.34 -1.18581 1017.79 -1.73364C992.812 0.13655 967.138 2.02563 941.322 4.65145C917.82 7.0317 895.368 9.86532 880.026 14.0213C866.187 17.7617 860.58 23.3345 863.753 28.2461C868.072 34.9334 882.125 41.583 898.47 49.6116C917.2 58.8304 938.268 68.9369 951.367 82.1605C965.086 96.0453 968.856 114.067 944.042 137.586C929.989 150.904 905.914 166.81 871.46 184.813C830.135 206.405 771.726 232.286 694.73 263.305C648.346 281.988 594.351 302.9 531.647 326.551C458.874 354 373.074 385.604 271.311 422.573C192.717 451.117 103.075 483.421 0 520.352H651.281V520.39Z" fill="#002142"/>
<path d="M71.6985 520.39C172.817 482.438 260.454 449.36 336.973 420.231C432.771 383.752 513.584 352.507 582.11 325.361C641.235 301.936 692.128 281.194 735.744 262.681C808.35 231.87 863.156 206.122 901.499 184.7C933.638 166.735 955.59 150.904 967.973 137.662C989.924 114.143 984.007 96.2152 968.76 82.3493C954.206 69.1446 932.064 59.0191 912.355 49.8193C895.176 41.7907 880.407 35.16 875.325 28.4537C871.579 23.5232 876.351 17.9882 889.808 14.2101C922.138 5.14245 975.083 2.23327 1025.02 -1.56379C1024.47 -1.56379 1023.92 -1.58267 1023.4 -1.60156C973.294 2.21439 920.253 5.08579 887.613 14.1723C874.06 17.9504 869.121 23.4855 872.724 28.416C877.639 35.1033 892.242 41.7529 909.23 49.7815C928.723 58.9813 950.603 69.1068 964.847 82.3115C979.76 96.1774 985.176 114.124 962.604 137.643C949.863 150.904 927.411 166.754 894.771 184.719C855.76 206.179 800.142 231.946 726.558 262.813C682.322 281.364 630.737 302.144 570.8 325.625C501.32 352.828 419.409 384.149 322.275 420.741C245.279 449.738 157.165 482.646 55.593 520.371H71.6985V520.39Z" fill="white"/>
<path d="M590.605 520.39C669.748 475.241 736.508 436.817 793.08 403.701C849.795 370.51 897.634 341.834 937.838 316.804C972.96 294.947 1002.78 275.508 1027.79 258.148C1070.21 228.678 1100.04 204.025 1117.98 183.755C1133.56 166.149 1140.93 150.885 1141.6 138.134C1142.82 114.766 1122.32 97.5188 1096.01 83.7474C1071.05 70.6938 1041.22 60.6061 1014.48 51.4252C991.117 43.3966 971.194 36.7281 960.601 30.0597C952.679 25.0725 951.653 19.8775 962.151 15.7215C983.53 7.27731 1033.97 3.57472 1078.64 -0.297904C1078.11 -0.297904 1077.56 -0.316803 1077.04 -0.335693C1032.2 3.53693 981.693 7.20175 960.004 15.6837C949.41 19.8208 950.293 25.0347 958.071 30.0219C968.522 36.6903 988.278 43.3588 1011.45 51.3874C1037.98 60.5683 1067.56 70.6749 1092.24 83.7096C1118.22 97.481 1138.31 114.728 1136.5 138.115C1135.49 150.885 1127.72 166.149 1111.66 183.793C1093.14 204.101 1062.6 228.772 1019.34 258.28C993.837 275.678 963.416 295.136 927.65 317.049C886.682 342.136 837.96 370.869 780.196 404.155C722.932 437.157 655.408 475.43 575.43 520.371H590.652L590.605 520.39Z" fill="white"/>
<path d="M1013.86 2.34686C1005.1 3.12138 996.391 3.95258 987.754 4.85934C987.134 4.85934 986.537 4.84046 985.917 4.82157C994.578 3.91481 1003.31 3.08361 1012.12 2.30908C1012.69 2.30908 1013.28 2.32797 1013.86 2.34686ZM963.417 7.74964C956.02 8.75085 949.006 9.84653 942.563 11.0933C941.871 11.0933 941.203 11.0555 940.511 11.0555C946.977 9.80874 954.04 8.71307 961.46 7.71186C962.105 7.71186 962.749 7.74964 963.393 7.74964H963.417ZM926.816 14.9848C922.569 16.3827 919.3 17.9696 917.487 19.5186C916.723 19.5186 915.936 19.4808 915.172 19.4808C917.057 17.9318 920.374 16.345 924.645 14.9471C925.36 14.9471 926.1 14.9848 926.816 14.9848ZM915.435 24.7892C916.055 26.8105 918.059 28.8129 921.018 30.8909C920.159 30.8909 919.276 30.8531 918.417 30.8342C915.506 28.7562 913.55 26.7349 912.977 24.7325C913.788 24.7325 914.623 24.7703 915.435 24.7892ZM933.95 37.9561C939.605 40.5819 946.095 43.2833 953.181 46.1169C952.179 46.1169 951.201 46.0791 950.199 46.0602C943.184 43.2266 936.742 40.5252 931.158 37.8994C932.089 37.8994 933.019 37.9372 933.95 37.9561ZM977.017 55.5623C985.654 59.0194 994.483 62.6653 1003.1 66.5568C1001.95 66.5568 1000.81 66.519 999.66 66.519C991.142 62.6086 982.409 58.9816 973.844 55.5245C974.917 55.5245 975.967 55.5623 977.041 55.5812L977.017 55.5623ZM1028.34 79.5159C1036.31 84.2575 1043.42 89.3769 1049.05 95.0253C1047.67 95.0253 1046.31 95.0064 1044.92 94.9875C1039.43 89.358 1032.44 84.2197 1024.59 79.4781C1025.83 79.4781 1027.1 79.5159 1028.34 79.5159ZM1060.65 114.011C1062.41 121.17 1061.62 129.161 1057.35 138.04C1055.61 138.04 1053.87 138.04 1052.1 138.04C1056.61 129.161 1057.62 121.151 1056.04 113.992C1057.57 113.992 1059.12 114.011 1060.65 114.029V114.011ZM1031.13 169.72C1016.65 182.641 996.105 197.376 969.406 213.886C966.948 213.905 964.467 213.924 962.009 213.943C989.21 197.414 1010.16 182.66 1025.02 169.72C1027.05 169.72 1029.1 169.72 1031.13 169.72ZM848.818 280.439C788.858 311.117 712.601 347.898 616.16 392.971C611.793 393.123 607.427 393.274 603.037 393.406C700.982 348.219 778.431 311.344 839.369 280.609C842.519 280.552 845.668 280.495 848.794 280.439H848.818Z" fill="white"/>
<path d="M1052.39 -0.883489C1048.31 -0.543454 1044.18 -0.222313 1040.01 0.117722L1038.36 0.079947C1042.56 -0.260088 1046.69 -0.600121 1050.77 -0.921265C1051.32 -0.921265 1051.84 -0.90238 1052.39 -0.883489Z" fill="white"/>
</svg>
