<svg width="80" height="650" viewBox="0 0 80 650" fill="none" xmlns="http://www.w3.org/2000/svg">
<rect x="0.5" y="0.5" width="79" height="720" stroke="black" stroke-opacity="0.2"/>
<path d="M46.75 328.75L40 318.25L33.25 328.75H46.75ZM55 325C55 327.075 54.606 329.025 53.818 330.85C53.03 332.675 51.9615 334.263 50.6125 335.613C49.2625 336.962 47.675 338.031 45.85 338.818C44.025 339.605 42.075 339.999 40 340C37.925 340 35.975 339.606 34.15 338.818C32.325 338.03 30.7375 336.961 29.3875 335.613C28.0375 334.263 26.969 332.675 26.182 330.85C25.395 329.025 25.001 327.075 25 325C25 322.925 25.394 320.975 26.182 319.15C26.97 317.325 28.0385 315.738 29.3875 314.388C30.7375 313.038 32.325 311.969 34.15 311.181C35.975 310.393 37.925 309.999 40 310C42.075 310 44.025 310.394 45.85 311.182C47.675 311.97 49.2625 313.039 50.6125 314.388C51.9625 315.738 53.0315 317.325 53.8195 319.15C54.6075 320.975 55.001 322.925 55 325ZM52 325C52 321.65 50.8375 318.813 48.5125 316.488C46.1875 314.163 43.35 313 40 313C36.65 313 33.8125 314.163 31.4875 316.488C29.1625 318.813 28 321.65 28 325C28 328.35 29.1625 331.188 31.4875 333.513C33.8125 335.838 36.65 337 40 337C43.35 337 46.1875 335.838 48.5125 333.513C50.8375 331.188 52 328.35 52 325Z" fill="black"/>
<path d="M32.68 293.66V291.78L43.2 289.18L44.18 288.94V288.86L43.2 288.56L32.68 285.36V283.6L43.2 280.54L44.18 280.24V280.16L32.68 277.34V275.46L47 279.32V281.08L36.64 284.12L35.52 284.44V284.52L36.64 284.86L47 288.02V289.78L32.68 293.66ZM47.32 271.394C47.32 272.141 47.1733 272.807 46.88 273.394C46.5867 273.981 46.1867 274.434 45.68 274.754C45.16 275.074 44.5733 275.234 43.92 275.234C42.84 275.234 42 274.827 41.4 274.014C40.7867 273.201 40.48 272.174 40.48 270.934C40.48 270.321 40.5467 269.754 40.68 269.234C40.8133 268.701 40.9667 268.294 41.14 268.014H40.52C39.76 268.014 39.1533 268.281 38.7 268.814C38.2333 269.347 38 270.021 38 270.834C38 271.407 38.1267 271.934 38.38 272.414C38.62 272.894 38.96 273.274 39.4 273.554L38.44 274.834C37.8267 274.434 37.3467 273.887 37 273.194C36.6533 272.487 36.48 271.707 36.48 270.854C36.48 269.467 36.8467 268.381 37.58 267.594C38.3 266.794 39.2867 266.394 40.54 266.394H47V268.014H45.54V268.094C46.0333 268.387 46.4533 268.827 46.8 269.414C47.1467 270.001 47.32 270.661 47.32 271.394ZM45.82 271.234C45.82 270.661 45.6733 270.127 45.38 269.634C45.0867 269.141 44.6933 268.747 44.2 268.454C43.7067 268.161 43.1667 268.014 42.58 268.014C42.3667 268.334 42.1933 268.727 42.06 269.194C41.9267 269.661 41.86 270.154 41.86 270.674C41.86 271.607 42.0533 272.314 42.44 272.794C42.8267 273.261 43.3267 273.494 43.94 273.494C44.5 273.494 44.9533 273.281 45.3 272.854C45.6467 272.427 45.82 271.887 45.82 271.234ZM47.16 260.304C47.16 260.718 47.0933 261.104 46.96 261.464C46.8267 261.811 46.6467 262.104 46.42 262.344C46.1667 262.611 45.8733 262.811 45.54 262.944C45.2067 263.078 44.8 263.144 44.32 263.144H38.34V264.924H36.8V263.144H33.92V261.444H36.8V258.964H38.34V261.444H43.9C44.46 261.444 44.8733 261.338 45.14 261.124C45.4333 260.871 45.58 260.504 45.58 260.024C45.58 259.638 45.4667 259.264 45.24 258.904H46.9C46.9933 259.104 47.06 259.311 47.1 259.524C47.14 259.724 47.16 259.984 47.16 260.304ZM47.32 252.729C47.32 253.716 47.0867 254.603 46.62 255.389C46.14 256.176 45.4933 256.789 44.68 257.229C43.8533 257.669 42.9267 257.889 41.9 257.889C40.8733 257.889 39.9467 257.669 39.12 257.229C38.2933 256.789 37.6467 256.176 37.18 255.389C36.7133 254.603 36.48 253.716 36.48 252.729C36.48 251.623 36.74 250.696 37.26 249.949C37.7667 249.189 38.4467 248.649 39.3 248.329L39.94 249.869C39.3133 250.123 38.84 250.503 38.52 251.009C38.1867 251.503 38.02 252.103 38.02 252.809C38.02 253.409 38.1867 253.969 38.52 254.489C38.84 255.009 39.2933 255.429 39.88 255.749C40.4667 256.056 41.14 256.209 41.9 256.209C42.66 256.209 43.3333 256.056 43.92 255.749C44.5067 255.429 44.9667 255.009 45.3 254.489C45.62 253.969 45.78 253.409 45.78 252.809C45.78 252.089 45.6133 251.469 45.28 250.949C44.9467 250.429 44.4733 250.043 43.86 249.789L44.5 248.269C45.34 248.616 46.02 249.176 46.54 249.949C47.06 250.709 47.32 251.636 47.32 252.729ZM32.68 246.431V244.731H36.9L38.3 244.811V244.731C37.78 244.451 37.3467 244.011 37 243.411C36.6533 242.798 36.48 242.131 36.48 241.411C36.48 240.171 36.8467 239.225 37.58 238.571C38.3 237.918 39.26 237.591 40.46 237.591H47V239.291H40.72C39.8 239.291 39.12 239.525 38.68 239.991C38.24 240.458 38.02 241.065 38.02 241.811C38.02 242.345 38.18 242.838 38.5 243.291C38.82 243.731 39.2333 244.085 39.74 244.351C40.2467 244.605 40.7733 244.731 41.32 244.731H47V246.431H32.68ZM32.68 232.275V230.395L43.06 226.855L44.48 226.375V226.295L43.06 225.795L32.68 222.095V220.215L47 225.455V227.215L32.68 232.275ZM34.92 218.088C34.92 218.421 34.8 218.708 34.56 218.948C34.32 219.188 34.0333 219.308 33.7 219.308C33.3667 219.308 33.0867 219.188 32.86 218.948C32.62 218.708 32.5 218.421 32.5 218.088C32.5 217.754 32.62 217.468 32.86 217.228C33.0867 216.988 33.3667 216.868 33.7 216.868C34.0333 216.868 34.32 216.988 34.56 217.228C34.8 217.454 34.92 217.741 34.92 218.088ZM36.8 218.928V217.248H47V218.928H36.8ZM47.32 210.354C47.32 211.26 47.0867 212.087 46.62 212.834C46.1533 213.567 45.5133 214.147 44.7 214.574C43.8733 215 42.94 215.214 41.9 215.214C40.8733 215.214 39.9467 215 39.12 214.574C38.2933 214.147 37.6467 213.567 37.18 212.834C36.7133 212.087 36.48 211.26 36.48 210.354C36.48 209.567 36.66 208.867 37.02 208.254C37.3667 207.64 37.8 207.174 38.32 206.854V206.774L36.9 206.854H32.68V205.154H47V206.774H45.5V206.854C46.0067 207.174 46.44 207.64 46.8 208.254C47.1467 208.867 47.32 209.567 47.32 210.354ZM45.78 210.154C45.78 209.554 45.62 209 45.3 208.494C44.98 207.974 44.5267 207.56 43.94 207.254C43.3533 206.934 42.6733 206.774 41.9 206.774C41.1267 206.774 40.4467 206.934 39.86 207.254C39.2733 207.56 38.82 207.974 38.5 208.494C38.18 209 38.02 209.554 38.02 210.154C38.02 210.74 38.18 211.294 38.5 211.814C38.82 212.334 39.28 212.754 39.88 213.074C40.4667 213.38 41.14 213.534 41.9 213.534C42.66 213.534 43.34 213.38 43.94 213.074C44.5267 212.754 44.98 212.334 45.3 211.814C45.62 211.294 45.78 210.74 45.78 210.154ZM47.32 198.2C47.32 199.173 47.0867 200.047 46.62 200.82C46.1533 201.593 45.5133 202.2 44.7 202.64C43.8733 203.067 42.9467 203.28 41.92 203.28C40.9333 203.28 40.0267 203.08 39.2 202.68C38.3733 202.267 37.7133 201.687 37.22 200.94C36.7267 200.193 36.48 199.327 36.48 198.34C36.48 197.34 36.7067 196.473 37.16 195.74C37.6 195.007 38.2133 194.447 39 194.06C39.7867 193.66 40.6867 193.46 41.7 193.46C41.9 193.46 42.0733 193.48 42.22 193.52V201.58C42.9933 201.54 43.6467 201.353 44.18 201.02C44.7133 200.687 45.1133 200.267 45.38 199.76C45.6467 199.24 45.78 198.7 45.78 198.14C45.78 196.833 45.1667 195.827 43.94 195.12L44.64 193.68C45.4667 194.12 46.12 194.72 46.6 195.48C47.08 196.227 47.32 197.133 47.32 198.2ZM40.82 195.26C40.3933 195.287 39.9667 195.407 39.54 195.62C39.1133 195.833 38.7533 196.173 38.46 196.64C38.1667 197.093 38.02 197.667 38.02 198.36C38.02 199.16 38.28 199.84 38.8 200.4C39.3067 200.947 39.98 201.307 40.82 201.48V195.26ZM47.32 186.673C47.32 187.673 47.08 188.573 46.6 189.373C46.12 190.173 45.4667 190.799 44.64 191.253C43.8133 191.693 42.9 191.913 41.9 191.913C40.9 191.913 39.9867 191.693 39.16 191.253C38.3333 190.799 37.68 190.173 37.2 189.373C36.72 188.573 36.48 187.673 36.48 186.673C36.48 185.673 36.72 184.773 37.2 183.973C37.68 183.173 38.3333 182.553 39.16 182.113C39.9867 181.659 40.9 181.433 41.9 181.433C42.9 181.433 43.8133 181.659 44.64 182.113C45.4667 182.553 46.12 183.173 46.6 183.973C47.08 184.773 47.32 185.673 47.32 186.673ZM45.78 186.673C45.78 186.046 45.6267 185.466 45.32 184.933C45 184.386 44.5467 183.953 43.96 183.633C43.3733 183.299 42.6867 183.133 41.9 183.133C41.1133 183.133 40.4267 183.299 39.84 183.633C39.2533 183.953 38.8067 184.386 38.5 184.933C38.18 185.466 38.02 186.046 38.02 186.673C38.02 187.299 38.18 187.886 38.5 188.433C38.8067 188.979 39.2533 189.419 39.84 189.753C40.4267 190.073 41.1133 190.233 41.9 190.233C42.6867 190.233 43.3733 190.073 43.96 189.753C44.5467 189.419 45 188.979 45.32 188.433C45.6267 187.886 45.78 187.299 45.78 186.673Z" fill="black"/>
<path d="M47.32 541.4C47.32 542.52 46.98 543.547 46.3 544.48C45.62 545.413 44.6667 546.053 43.44 546.4L42.78 544.78C43.6333 544.553 44.3333 544.133 44.88 543.52C45.4267 542.907 45.7 542.187 45.7 541.36C45.7 540.533 45.48 539.833 45.04 539.26C44.5867 538.687 43.9733 538.4 43.2 538.4C42.5333 538.4 41.9867 538.647 41.56 539.14C41.12 539.62 40.7133 540.413 40.34 541.52L40.02 542.42C39.66 543.433 39.1867 544.26 38.6 544.9C38.0133 545.54 37.2 545.86 36.16 545.86C35.48 545.86 34.8533 545.673 34.28 545.3C33.6933 544.927 33.2267 544.407 32.88 543.74C32.5333 543.073 32.36 542.327 32.36 541.5C32.36 540.673 32.5133 539.953 32.82 539.34C33.1267 538.727 33.5 538.24 33.94 537.88C34.38 537.507 34.8133 537.247 35.24 537.1L35.92 538.7C35.4267 538.833 34.98 539.14 34.58 539.62C34.18 540.087 33.98 540.707 33.98 541.48C33.98 542.213 34.1867 542.84 34.6 543.36C35.0133 543.88 35.5333 544.14 36.16 544.14C36.72 544.14 37.18 543.92 37.54 543.48C37.8867 543.04 38.2133 542.373 38.52 541.48L38.84 540.54C39.28 539.327 39.8333 538.38 40.5 537.7C41.1533 537.02 42.0467 536.68 43.18 536.68C44.1 536.68 44.8733 536.92 45.5 537.4C46.1267 537.867 46.5867 538.46 46.88 539.18C47.1733 539.9 47.32 540.64 47.32 541.4ZM47.32 529.909C47.32 530.896 47.0867 531.782 46.62 532.569C46.14 533.356 45.4933 533.969 44.68 534.409C43.8533 534.849 42.9267 535.069 41.9 535.069C40.8733 535.069 39.9467 534.849 39.12 534.409C38.2933 533.969 37.6467 533.356 37.18 532.569C36.7133 531.782 36.48 530.896 36.48 529.909C36.48 528.802 36.74 527.876 37.26 527.129C37.7667 526.369 38.4467 525.829 39.3 525.509L39.94 527.049C39.3133 527.302 38.84 527.682 38.52 528.189C38.1867 528.682 38.02 529.282 38.02 529.989C38.02 530.589 38.1867 531.149 38.52 531.669C38.84 532.189 39.2933 532.609 39.88 532.929C40.4667 533.236 41.14 533.389 41.9 533.389C42.66 533.389 43.3333 533.236 43.92 532.929C44.5067 532.609 44.9667 532.189 45.3 531.669C45.62 531.149 45.78 530.589 45.78 529.989C45.78 529.269 45.6133 528.649 45.28 528.129C44.9467 527.609 44.4733 527.222 43.86 526.969L44.5 525.449C45.34 525.796 46.02 526.356 46.54 527.129C47.06 527.889 47.32 528.816 47.32 529.909ZM36.8 523.709V522.089H38.44V522.009C37.88 521.809 37.42 521.422 37.06 520.849C36.6867 520.275 36.5 519.675 36.5 519.049C36.5 518.582 36.5667 518.182 36.7 517.849H38.54C38.3267 518.275 38.22 518.755 38.22 519.289C38.22 519.782 38.36 520.235 38.64 520.649C38.92 521.062 39.3 521.395 39.78 521.649C40.2467 521.889 40.7533 522.009 41.3 522.009H47V523.709H36.8ZM47.32 512.114C47.32 513.114 47.08 514.014 46.6 514.814C46.12 515.614 45.4667 516.241 44.64 516.694C43.8133 517.134 42.9 517.354 41.9 517.354C40.9 517.354 39.9867 517.134 39.16 516.694C38.3333 516.241 37.68 515.614 37.2 514.814C36.72 514.014 36.48 513.114 36.48 512.114C36.48 511.114 36.72 510.214 37.2 509.414C37.68 508.614 38.3333 507.994 39.16 507.554C39.9867 507.101 40.9 506.874 41.9 506.874C42.9 506.874 43.8133 507.101 44.64 507.554C45.4667 507.994 46.12 508.614 46.6 509.414C47.08 510.214 47.32 511.114 47.32 512.114ZM45.78 512.114C45.78 511.488 45.6267 510.908 45.32 510.374C45 509.828 44.5467 509.394 43.96 509.074C43.3733 508.741 42.6867 508.574 41.9 508.574C41.1133 508.574 40.4267 508.741 39.84 509.074C39.2533 509.394 38.8067 509.828 38.5 510.374C38.18 510.908 38.02 511.488 38.02 512.114C38.02 512.741 38.18 513.328 38.5 513.874C38.8067 514.421 39.2533 514.861 39.84 515.194C40.4267 515.514 41.1133 515.674 41.9 515.674C42.6867 515.674 43.3733 515.514 43.96 515.194C44.5467 514.861 45 514.421 45.32 513.874C45.6267 513.328 45.78 512.741 45.78 512.114ZM32.68 504.998V503.298H47V504.998H32.68ZM32.68 500.779V499.079H47V500.779H32.68ZM32.68 491.572V487.252C32.68 485.785 32.9867 484.505 33.6 483.412C34.2 482.319 35.04 481.479 36.12 480.892C37.2 480.305 38.44 480.012 39.84 480.012C41.24 480.012 42.48 480.305 43.56 480.892C44.64 481.479 45.4867 482.319 46.1 483.412C46.7 484.505 47 485.785 47 487.252V491.572H32.68ZM45.38 487.252C45.38 485.559 44.8933 484.219 43.92 483.232C42.9467 482.232 41.5867 481.732 39.84 481.732C38.0933 481.732 36.7333 482.232 35.76 483.232C34.7867 484.219 34.3 485.559 34.3 487.252V489.892H45.38V487.252ZM47.32 473.442C47.32 474.442 47.08 475.342 46.6 476.142C46.12 476.942 45.4667 477.569 44.64 478.022C43.8133 478.462 42.9 478.682 41.9 478.682C40.9 478.682 39.9867 478.462 39.16 478.022C38.3333 477.569 37.68 476.942 37.2 476.142C36.72 475.342 36.48 474.442 36.48 473.442C36.48 472.442 36.72 471.542 37.2 470.742C37.68 469.942 38.3333 469.322 39.16 468.882C39.9867 468.429 40.9 468.202 41.9 468.202C42.9 468.202 43.8133 468.429 44.64 468.882C45.4667 469.322 46.12 469.942 46.6 470.742C47.08 471.542 47.32 472.442 47.32 473.442ZM45.78 473.442C45.78 472.816 45.6267 472.236 45.32 471.702C45 471.156 44.5467 470.722 43.96 470.402C43.3733 470.069 42.6867 469.902 41.9 469.902C41.1133 469.902 40.4267 470.069 39.84 470.402C39.2533 470.722 38.8067 471.156 38.5 471.702C38.18 472.236 38.02 472.816 38.02 473.442C38.02 474.069 38.18 474.656 38.5 475.202C38.8067 475.749 39.2533 476.189 39.84 476.522C40.4267 476.842 41.1133 477.002 41.9 477.002C42.6867 477.002 43.3733 476.842 43.96 476.522C44.5467 476.189 45 475.749 45.32 475.202C45.6267 474.656 45.78 474.069 45.78 473.442ZM36.8 467.544V465.804L44.86 463.364V463.344L36.8 460.784V459.024L44.84 456.444V456.424L36.8 454.004V452.284L47 455.584V457.304L38.86 459.944L47 462.564V464.264L36.8 467.544ZM36.8 450.877V449.257H38.3V449.177C37.7933 448.897 37.3667 448.45 37.02 447.837C36.66 447.223 36.48 446.57 36.48 445.877C36.48 444.65 36.84 443.717 37.56 443.077C38.2667 442.423 39.2333 442.097 40.46 442.097H47V443.797H40.72C39.7733 443.797 39.0867 444.023 38.66 444.477C38.2333 444.93 38.02 445.55 38.02 446.337C38.02 446.883 38.1733 447.377 38.48 447.817C38.7867 448.243 39.1933 448.577 39.7 448.817C40.1933 449.057 40.7133 449.177 41.26 449.177H47V450.877H36.8Z" fill="black"/>
<path d="M36.2691 572.331C36.4484 572.022 36.6652 571.875 36.9193 571.887C37.1734 571.899 37.3901 572.06 37.5695 572.369L40.1031 576.722V559.541C40.1031 559.104 40.1892 558.738 40.3614 558.442C40.5336 558.146 40.7465 557.999 41 558C41.2541 558 41.4673 558.148 41.6395 558.444C41.8117 558.74 41.8975 559.105 41.8969 559.541V576.722L44.4529 572.331C44.6323 572.022 44.8454 571.868 45.0924 571.868C45.3393 571.868 45.5522 572.022 45.7309 572.331C45.9103 572.639 46 573.005 46 573.429C46 573.854 45.9103 574.219 45.7309 574.526L41.6278 581.576C41.5381 581.73 41.441 581.84 41.3363 581.904C41.2317 581.969 41.1196 582.001 41 582C40.8804 582 40.7683 581.968 40.6637 581.903C40.559 581.838 40.4619 581.729 40.3722 581.576L36.2466 574.488C36.0822 574.205 36 573.853 36 573.429C36 573.006 36.0897 572.64 36.2691 572.331Z" fill="black"/>
</svg>
