<svg xmlns="http://www.w3.org/2000/svg" width="46" height="46" fill="none" viewBox="0 0 46 46"><path fill="#FFB700" d="M13.67 0.0489814C13.67 0.0489814 13.6782 0.0489813 13.6782 0.0408176C13.6782 0.032654 13.6782 0.0326538 13.67 0.0326538C13.6619 0.0326538 13.6619 0.032654 13.6619 0.0408176C13.6619 0.0489813 13.6619 0.0489814 13.67 0.0489814Z"/><path fill="#FFB700" d="M15.9395 0.0571445C15.9395 0.0571445 15.9517 0.0530632 15.9517 0.0448995C15.9517 0.0367359 15.9477 0.0326538 15.9395 0.0326538C15.9313 0.0326538 15.9272 0.0367359 15.9272 0.0448995C15.9272 0.0530632 15.9313 0.0571445 15.9395 0.0571445Z"/><path fill="#FFB700" d="M18.2089 0.077577C18.227 0.077577 18.2416 0.0629572 18.2416 0.0449226C18.2416 0.026888 18.227 0.0122681 18.2089 0.0122681C18.1909 0.0122681 18.1763 0.026888 18.1763 0.0449226C18.1763 0.0629572 18.1909 0.077577 18.2089 0.077577Z"/><path fill="#FFB700" d="M20.4785 0.0816515C20.4989 0.0816515 20.5152 0.0653242 20.5152 0.0449151C20.5152 0.024506 20.4989 0.00817871 20.4785 0.00817871C20.4581 0.00817871 20.4418 0.024506 20.4418 0.0449151C20.4418 0.0653242 20.4581 0.0816515 20.4785 0.0816515Z"/><path fill="#FFB700" d="M22.7519 0.0897997C22.7764 0.0897997 22.7968 0.0693911 22.7968 0.0449002C22.7968 0.0204093 22.7764 0 22.7519 0C22.7274 0 22.707 0.0204093 22.707 0.0449002C22.707 0.0693911 22.7274 0.0897997 22.7519 0.0897997Z"/><path fill="#FFB700" d="M25.0215 0.0816515C25.0419 0.0816515 25.0582 0.0653242 25.0582 0.0449151C25.0582 0.024506 25.0419 0.00817871 25.0215 0.00817871C25.0011 0.00817871 24.9847 0.024506 24.9847 0.0449151C24.9847 0.0653242 25.0011 0.0816515 25.0215 0.0816515Z"/><path fill="#FFB700" d="M27.291 0.077577C27.291 0.077577 27.3236 0.0653316 27.3236 0.0449226C27.3236 0.0245135 27.3114 0.0122681 27.291 0.0122681C27.2706 0.0122681 27.2583 0.0245135 27.2583 0.0449226C27.2583 0.0653316 27.2706 0.077577 27.291 0.077577Z"/><path fill="#FFB700" d="M29.5606 0.0652934C29.5606 0.0652934 29.581 0.0571301 29.581 0.0448846C29.581 0.0326392 29.5728 0.0244751 29.5606 0.0244751C29.5483 0.0244751 29.5402 0.0326392 29.5402 0.0448846C29.5402 0.0571301 29.5483 0.0652934 29.5606 0.0652934Z"/><path fill="#FFB700" d="M31.8342 0.0530708C31.8387 0.0530708 31.8424 0.0494156 31.8424 0.044907C31.8424 0.0403983 31.8387 0.0367432 31.8342 0.0367432C31.8297 0.0367432 31.826 0.0403983 31.826 0.044907C31.826 0.0494156 31.8297 0.0530708 31.8342 0.0530708Z"/><path fill="#FFB700" d="M11.3963 2.3389C11.4098 2.3389 11.4208 2.32793 11.4208 2.31441C11.4208 2.30088 11.4098 2.28992 11.3963 2.28992C11.3828 2.28992 11.3718 2.30088 11.3718 2.31441C11.3718 2.32793 11.3828 2.3389 11.3963 2.3389Z"/><path fill="#FFB700" d="M13.6701 2.37155C13.7027 2.37155 13.7272 2.34706 13.7272 2.31441C13.7272 2.28175 13.7027 2.25726 13.6701 2.25726C13.6374 2.25726 13.6129 2.28175 13.6129 2.31441C13.6129 2.34706 13.6374 2.37155 13.6701 2.37155Z"/><path fill="#FFB700" d="M15.9396 2.396C15.9845 2.396 16.0212 2.35926 16.0212 2.31436C16.0212 2.26946 15.9845 2.23273 15.9396 2.23273C15.8947 2.23273 15.8579 2.26946 15.8579 2.31436C15.8579 2.35926 15.8947 2.396 15.9396 2.396Z"/><path fill="#FFB700" d="M18.209 2.41643C18.2653 2.41643 18.311 2.37074 18.311 2.31439C18.311 2.25803 18.2653 2.21234 18.209 2.21234C18.1526 2.21234 18.1069 2.25803 18.1069 2.31439C18.1069 2.37074 18.1526 2.41643 18.209 2.41643Z"/><path fill="#FFB700" d="M20.4785 2.42865C20.5398 2.42865 20.5928 2.37967 20.5928 2.31436C20.5928 2.24905 20.5439 2.20007 20.4785 2.20007C20.4132 2.20007 20.3643 2.24905 20.3643 2.31436C20.3643 2.37967 20.4132 2.42865 20.4785 2.42865Z"/><path fill="#FFB700" d="M22.7522 2.43279C22.8175 2.43279 22.8705 2.37973 22.8705 2.31442C22.8705 2.24911 22.8175 2.19604 22.7522 2.19604C22.6869 2.19604 22.6338 2.24911 22.6338 2.31442C22.6338 2.37973 22.6869 2.43279 22.7522 2.43279Z"/><path fill="#FFB700" d="M25.0215 2.42865C25.0827 2.42865 25.1358 2.37967 25.1358 2.31436C25.1358 2.24905 25.0868 2.20007 25.0215 2.20007C24.9562 2.20007 24.9072 2.24905 24.9072 2.31436C24.9072 2.37967 24.9562 2.42865 25.0215 2.42865Z"/><path fill="#FFB700" d="M27.291 2.41643C27.3474 2.41643 27.3931 2.37074 27.3931 2.31439C27.3931 2.25803 27.3474 2.21234 27.291 2.21234C27.2347 2.21234 27.189 2.25803 27.189 2.31439C27.189 2.37074 27.2347 2.41643 27.291 2.41643Z"/><path fill="#FFB700" d="M29.5606 2.396C29.6055 2.396 29.6423 2.35926 29.6423 2.31436C29.6423 2.26946 29.6055 2.23273 29.5606 2.23273C29.5157 2.23273 29.479 2.26946 29.479 2.31436C29.479 2.35926 29.5157 2.396 29.5606 2.396Z"/><path fill="#FFB700" d="M31.8341 2.37155C31.8668 2.37155 31.8913 2.34706 31.8913 2.31441C31.8913 2.28175 31.8668 2.25726 31.8341 2.25726C31.8015 2.25726 31.777 2.28175 31.777 2.31441C31.777 2.34706 31.8015 2.37155 31.8341 2.37155Z"/><path fill="#FFB700" d="M34.1037 2.3389C34.1172 2.3389 34.1282 2.32793 34.1282 2.31441C34.1282 2.30088 34.1172 2.28992 34.1037 2.28992C34.0902 2.28992 34.0792 2.30088 34.0792 2.31441C34.0792 2.32793 34.0902 2.3389 34.1037 2.3389Z"/><path fill="#FFB700" d="M36.373 2.32254C36.373 2.32254 36.3812 2.32254 36.3812 2.31438C36.3812 2.30621 36.3812 2.30621 36.373 2.30621C36.3649 2.30621 36.3649 2.30621 36.3649 2.31438C36.3649 2.32254 36.3649 2.32254 36.373 2.32254Z"/><path fill="#FFB700" d="M6.85741 4.59207C6.85741 4.59207 6.86557 4.59207 6.86557 4.58391C6.86557 4.57574 6.86558 4.57574 6.85741 4.57574C6.84925 4.57574 6.84924 4.57574 6.84924 4.58391C6.84924 4.59207 6.84925 4.59207 6.85741 4.59207Z"/><path fill="#FFB700" d="M9.12694 4.6288C9.15143 4.6288 9.17183 4.60839 9.17183 4.5839C9.17183 4.55941 9.15143 4.539 9.12694 4.539C9.10245 4.539 9.08203 4.55941 9.08203 4.5839C9.08203 4.60839 9.10245 4.6288 9.12694 4.6288Z"/><path fill="#FFB700" d="M11.3966 4.67368C11.4455 4.67368 11.4864 4.63286 11.4864 4.58388C11.4864 4.5349 11.4455 4.49408 11.3966 4.49408C11.3476 4.49408 11.3068 4.5349 11.3068 4.58388C11.3068 4.63286 11.3476 4.67368 11.3966 4.67368Z"/><path fill="#FFB700" d="M13.6701 4.71041C13.74 4.71041 13.7966 4.65376 13.7966 4.58387C13.7966 4.51399 13.74 4.45734 13.6701 4.45734C13.6002 4.45734 13.5436 4.51399 13.5436 4.58387C13.5436 4.65376 13.6002 4.71041 13.6701 4.71041Z"/><path fill="#FFB700" d="M15.9396 4.74306C16.0253 4.74306 16.0988 4.67367 16.0988 4.58387C16.0988 4.49407 16.0294 4.42468 15.9396 4.42468C15.8498 4.42468 15.7804 4.49407 15.7804 4.58387C15.7804 4.67367 15.8498 4.74306 15.9396 4.74306Z"/><path fill="#FFB700" d="M18.2091 4.75936C18.306 4.75936 18.3846 4.68078 18.3846 4.58384C18.3846 4.48691 18.306 4.40833 18.2091 4.40833C18.1121 4.40833 18.0336 4.48691 18.0336 4.58384C18.0336 4.68078 18.1121 4.75936 18.2091 4.75936Z"/><path fill="#FFB700" d="M20.4784 4.77979C20.5845 4.77979 20.6743 4.69408 20.6743 4.58387C20.6743 4.47366 20.5886 4.38794 20.4784 4.38794C20.3682 4.38794 20.2825 4.47366 20.2825 4.58387C20.2825 4.69408 20.3682 4.77979 20.4784 4.77979Z"/><path fill="#FFB700" d="M22.752 4.78387C22.8625 4.78387 22.952 4.69432 22.952 4.58386C22.952 4.4734 22.8625 4.38385 22.752 4.38385C22.6416 4.38385 22.552 4.4734 22.552 4.58386C22.552 4.69432 22.6416 4.78387 22.752 4.78387Z"/><path fill="#FFB700" d="M25.0215 4.77979C25.1276 4.77979 25.2174 4.69408 25.2174 4.58387C25.2174 4.47366 25.1317 4.38794 25.0215 4.38794C24.9113 4.38794 24.8256 4.47366 24.8256 4.58387C24.8256 4.69408 24.9113 4.77979 25.0215 4.77979Z"/><path fill="#FFB700" d="M27.2911 4.76757C27.3926 4.76757 27.4748 4.68533 27.4748 4.58389C27.4748 4.48244 27.3926 4.40021 27.2911 4.40021C27.1897 4.40021 27.1074 4.48244 27.1074 4.58389C27.1074 4.68533 27.1897 4.76757 27.2911 4.76757Z"/><path fill="#FFB700" d="M29.5604 4.74306C29.6462 4.74306 29.7196 4.67367 29.7196 4.58387C29.7196 4.49407 29.6502 4.42468 29.5604 4.42468C29.4706 4.42468 29.4012 4.49407 29.4012 4.58387C29.4012 4.67367 29.4706 4.74306 29.5604 4.74306Z"/><path fill="#FFB700" d="M31.8342 4.71041C31.9041 4.71041 31.9607 4.65376 31.9607 4.58387C31.9607 4.51399 31.9041 4.45734 31.8342 4.45734C31.7643 4.45734 31.7076 4.51399 31.7076 4.58387C31.7076 4.65376 31.7643 4.71041 31.8342 4.71041Z"/><path fill="#FFB700" d="M34.1036 4.67368C34.1526 4.67368 34.1934 4.63286 34.1934 4.58388C34.1934 4.5349 34.1526 4.49408 34.1036 4.49408C34.0546 4.49408 34.0138 4.5349 34.0138 4.58388C34.0138 4.63286 34.0546 4.67368 34.1036 4.67368Z"/><path fill="#FFB700" d="M36.373 4.6288C36.3975 4.6288 36.4179 4.60839 36.4179 4.5839C36.4179 4.55941 36.3975 4.539 36.373 4.539C36.3485 4.539 36.3281 4.55941 36.3281 4.5839C36.3281 4.60839 36.3485 4.6288 36.373 4.6288Z"/><path fill="#FFB700" d="M38.6426 4.59207C38.6426 4.59207 38.6507 4.59207 38.6507 4.58391C38.6507 4.57574 38.6507 4.57574 38.6426 4.57574C38.6344 4.57574 38.6344 4.57574 38.6344 4.58391C38.6344 4.59207 38.6344 4.59207 38.6426 4.59207Z"/><path fill="#FFB700" d="M4.58801 6.86563C4.59251 6.86563 4.59616 6.86198 4.59616 6.85747C4.59616 6.85296 4.59251 6.8493 4.58801 6.8493C4.5835 6.8493 4.57983 6.85296 4.57983 6.85747C4.57983 6.86198 4.5835 6.86563 4.58801 6.86563Z"/><path fill="#FFB700" d="M6.85757 6.90644C6.88463 6.90644 6.90655 6.88451 6.90655 6.85745C6.90655 6.8304 6.88463 6.80847 6.85757 6.80847C6.83052 6.80847 6.80859 6.8304 6.80859 6.85745C6.80859 6.88451 6.83052 6.90644 6.85757 6.90644Z"/><path fill="#FFB700" d="M9.12683 6.95946C9.18318 6.95946 9.22887 6.91377 9.22887 6.85742C9.22887 6.80106 9.18318 6.75537 9.12683 6.75537C9.07047 6.75537 9.02478 6.80106 9.02478 6.85742C9.02478 6.91377 9.07047 6.95946 9.12683 6.95946Z"/><path fill="#FFB700" d="M11.3964 7.00848C11.4798 7.00848 11.5474 6.94086 11.5474 6.85745C11.5474 6.77404 11.4798 6.70642 11.3964 6.70642C11.313 6.70642 11.2454 6.77404 11.2454 6.85745C11.2454 6.94086 11.313 7.00848 11.3964 7.00848Z"/><path fill="#FFB700" d="M13.6699 7.04932C13.7761 7.04932 13.8658 6.96361 13.8658 6.8534C13.8658 6.74319 13.7801 6.65747 13.6699 6.65747C13.5597 6.65747 13.474 6.74319 13.474 6.8534C13.474 6.96361 13.5597 7.04932 13.6699 7.04932Z"/><path fill="#FFB700" d="M15.9396 7.08601C16.0659 7.08601 16.1682 6.98367 16.1682 6.85743C16.1682 6.73119 16.0659 6.62885 15.9396 6.62885C15.8134 6.62885 15.7111 6.73119 15.7111 6.85743C15.7111 6.98367 15.8134 7.08601 15.9396 7.08601Z"/><path fill="#FFB700" d="M18.2091 7.11052C18.3489 7.11052 18.4622 6.99721 18.4622 6.85744C18.4622 6.71768 18.3489 6.60437 18.2091 6.60437C18.0694 6.60437 17.9561 6.71768 17.9561 6.85744C17.9561 6.99721 18.0694 7.11052 18.2091 7.11052Z"/><path fill="#FFB700" d="M20.4784 7.12687C20.6294 7.12687 20.7478 7.00442 20.7478 6.85747C20.7478 6.71053 20.6253 6.58807 20.4784 6.58807C20.3314 6.58807 20.209 6.71053 20.209 6.85747C20.209 7.00442 20.3314 7.12687 20.4784 7.12687Z"/><path fill="#FFB700" d="M22.7521 7.13502C22.9054 7.13502 23.0296 7.01075 23.0296 6.85746C23.0296 6.70416 22.9054 6.5799 22.7521 6.5799C22.5988 6.5799 22.4745 6.70416 22.4745 6.85746C22.4745 7.01075 22.5988 7.13502 22.7521 7.13502Z"/><path fill="#FFB700" d="M25.0216 7.12687C25.1704 7.12687 25.291 7.00626 25.291 6.85747C25.291 6.70869 25.1704 6.58807 25.0216 6.58807C24.8728 6.58807 24.7522 6.70869 24.7522 6.85747C24.7522 7.00626 24.8728 7.12687 25.0216 7.12687Z"/><path fill="#FFB700" d="M27.2912 7.11052C27.4309 7.11052 27.5442 6.99721 27.5442 6.85744C27.5442 6.71768 27.4309 6.60437 27.2912 6.60437C27.1514 6.60437 27.0381 6.71768 27.0381 6.85744C27.0381 6.99721 27.1514 7.11052 27.2912 7.11052Z"/><path fill="#FFB700" d="M29.5605 7.08601C29.6867 7.08601 29.7891 6.98367 29.7891 6.85743C29.7891 6.73119 29.6867 6.62885 29.5605 6.62885C29.4342 6.62885 29.3319 6.73119 29.3319 6.85743C29.3319 6.98367 29.4342 7.08601 29.5605 7.08601Z"/><path fill="#FFB700" d="M31.834 7.05335C31.9422 7.05335 32.0299 6.96563 32.0299 6.85743C32.0299 6.74922 31.9422 6.6615 31.834 6.6615C31.7258 6.6615 31.6381 6.74922 31.6381 6.85743C31.6381 6.96563 31.7258 7.05335 31.834 7.05335Z"/><path fill="#FFB700" d="M34.1037 7.00848C34.1871 7.00848 34.2547 6.94086 34.2547 6.85745C34.2547 6.77404 34.1871 6.70642 34.1037 6.70642C34.0203 6.70642 33.9526 6.77404 33.9526 6.85745C33.9526 6.94086 34.0203 7.00848 34.1037 7.00848Z"/><path fill="#FFB700" d="M36.3731 6.9636C36.4302 6.9636 36.4792 6.91462 36.4792 6.85747C36.4792 6.80033 36.4302 6.75134 36.3731 6.75134C36.316 6.75134 36.267 6.80033 36.267 6.85747C36.267 6.91462 36.316 6.9636 36.3731 6.9636Z"/><path fill="#FFB700" d="M38.6425 6.91458C38.674 6.91458 38.6996 6.889 38.6996 6.85744C38.6996 6.82588 38.674 6.80029 38.6425 6.80029C38.6109 6.80029 38.5853 6.82588 38.5853 6.85744C38.5853 6.889 38.6109 6.91458 38.6425 6.91458Z"/><path fill="#FFB700" d="M40.9163 6.86563C40.9208 6.86563 40.9244 6.86198 40.9244 6.85747C40.9244 6.85296 40.9208 6.8493 40.9163 6.8493C40.9117 6.8493 40.9081 6.85296 40.9081 6.85747C40.9081 6.86198 40.9117 6.86563 40.9163 6.86563Z"/><path fill="#FFB700" d="M4.58788 9.17183C4.61237 9.17183 4.63277 9.15142 4.63277 9.12693C4.63277 9.10244 4.61237 9.08203 4.58788 9.08203C4.56338 9.08203 4.54297 9.10244 4.54297 9.12693C4.54297 9.15142 4.56338 9.17183 4.58788 9.17183Z"/><path fill="#FFB700" d="M6.85742 9.22899C6.91377 9.22899 6.95946 9.18331 6.95946 9.12695C6.95946 9.07059 6.91377 9.0249 6.85742 9.0249C6.80106 9.0249 6.75537 9.07059 6.75537 9.12695C6.75537 9.18331 6.80106 9.22899 6.85742 9.22899Z"/><path fill="#FFB700" d="M9.12697 9.28207C9.21269 9.28207 9.28615 9.21267 9.28615 9.12287C9.28615 9.03307 9.21677 8.96368 9.12697 8.96368C9.03717 8.96368 8.96777 9.03307 8.96777 9.12287C8.96777 9.21267 9.03717 9.28207 9.12697 9.28207Z"/><path fill="#FFB700" d="M11.3963 9.33918C11.5147 9.33918 11.6086 9.2453 11.6086 9.12693C11.6086 9.00855 11.5147 8.91467 11.3963 8.91467C11.278 8.91467 11.1841 9.00855 11.1841 9.12693C11.1841 9.2453 11.278 9.33918 11.3963 9.33918Z"/><path fill="#FFB700" d="M13.67 9.38406C13.812 9.38406 13.9272 9.26893 13.9272 9.1269C13.9272 8.98488 13.812 8.86975 13.67 8.86975C13.528 8.86975 13.4128 8.98488 13.4128 9.1269C13.4128 9.26893 13.528 9.38406 13.67 9.38406Z"/><path fill="#FFB700" d="M15.9395 9.42084C16.1027 9.42084 16.2333 9.29023 16.2333 9.12287C16.2333 8.95552 16.1027 8.82898 15.9395 8.82898C15.7762 8.82898 15.6415 8.9596 15.6415 9.12287C15.6415 9.28614 15.7721 9.42084 15.9395 9.42084Z"/><path fill="#FFB700" d="M18.209 9.45351C18.3893 9.45351 18.5355 9.30731 18.5355 9.12696C18.5355 8.94661 18.3893 8.80042 18.209 8.80042C18.0287 8.80042 17.8824 8.94661 17.8824 9.12696C17.8824 9.30731 18.0287 9.45351 18.209 9.45351Z"/><path fill="#FFB700" d="M20.4784 9.47388C20.6703 9.47388 20.8254 9.31877 20.8254 9.12692C20.8254 8.93508 20.6703 8.77997 20.4784 8.77997C20.2866 8.77997 20.1315 8.93508 20.1315 9.12692C20.1315 9.31877 20.2866 9.47388 20.4784 9.47388Z"/><path fill="#FFB700" d="M22.752 9.47795C22.948 9.47795 23.1031 9.31876 23.1031 9.12691C23.1031 8.93507 22.9439 8.77588 22.752 8.77588C22.5602 8.77588 22.401 8.93507 22.401 9.12691C22.401 9.31876 22.5602 9.47795 22.752 9.47795Z"/><path fill="#FFB700" d="M25.0216 9.47388C25.2135 9.47388 25.3686 9.31877 25.3686 9.12692C25.3686 8.93508 25.2135 8.77997 25.0216 8.77997C24.8298 8.77997 24.6747 8.93508 24.6747 9.12692C24.6747 9.31877 24.8298 9.47388 25.0216 9.47388Z"/><path fill="#FFB700" d="M27.291 9.45351C27.4714 9.45351 27.6176 9.30731 27.6176 9.12696C27.6176 8.94661 27.4714 8.80042 27.291 8.80042C27.1107 8.80042 26.9645 8.94661 26.9645 9.12696C26.9645 9.30731 27.1107 9.45351 27.291 9.45351Z"/><path fill="#FFB700" d="M29.5604 9.42084C29.7237 9.42084 29.8543 9.29023 29.8543 9.12287C29.8543 8.95552 29.7237 8.82898 29.5604 8.82898C29.3972 8.82898 29.2625 8.9596 29.2625 9.12287C29.2625 9.28614 29.3931 9.42084 29.5604 9.42084Z"/><path fill="#FFB700" d="M31.8341 9.38406C31.9761 9.38406 32.0912 9.26893 32.0912 9.1269C32.0912 8.98488 31.9761 8.86975 31.8341 8.86975C31.692 8.86975 31.5769 8.98488 31.5769 9.1269C31.5769 9.26893 31.692 9.38406 31.8341 9.38406Z"/><path fill="#FFB700" d="M34.1035 9.33918C34.2219 9.33918 34.3157 9.2453 34.3157 9.12693C34.3157 9.00855 34.2219 8.91467 34.1035 8.91467C33.9851 8.91467 33.8912 9.00855 33.8912 9.12693C33.8912 9.2453 33.9851 9.33918 34.1035 9.33918Z"/><path fill="#FFB700" d="M36.373 9.29023C36.4628 9.29023 36.5363 9.21676 36.5363 9.12696C36.5363 9.03716 36.4628 8.96368 36.373 8.96368C36.2832 8.96368 36.2097 9.03716 36.2097 9.12696C36.2097 9.21676 36.2832 9.29023 36.373 9.29023Z"/><path fill="#FFB700" d="M38.6426 9.23307C38.6998 9.23307 38.7488 9.18408 38.7488 9.12694C38.7488 9.06979 38.6998 9.02081 38.6426 9.02081C38.5855 9.02081 38.5365 9.06979 38.5365 9.12694C38.5365 9.18408 38.5855 9.23307 38.6426 9.23307Z"/><path fill="#FFB700" d="M40.9161 9.17183C40.9406 9.17183 40.961 9.15142 40.961 9.12693C40.961 9.10244 40.9406 9.08203 40.9161 9.08203C40.8916 9.08203 40.8712 9.10244 40.8712 9.12693C40.8712 9.15142 40.8916 9.17183 40.9161 9.17183Z"/><path fill="#FFB700" d="M43.1855 9.13101C43.1855 9.13101 43.1937 9.13101 43.1937 9.12285C43.1937 9.11469 43.1937 9.11469 43.1855 9.11469C43.1774 9.11469 43.1774 9.11469 43.1774 9.12285C43.1774 9.13101 43.1774 9.13101 43.1855 9.13101Z"/><path fill="#FFB700" d="M2.31428 11.4209C2.32781 11.4209 2.33877 11.41 2.33877 11.3964C2.33877 11.3829 2.32781 11.3719 2.31428 11.3719C2.30076 11.3719 2.28979 11.3829 2.28979 11.3964C2.28979 11.41 2.30076 11.4209 2.31428 11.4209Z"/><path fill="#FFB700" d="M4.58797 11.4862C4.63695 11.4862 4.67777 11.4454 4.67777 11.3964C4.67777 11.3475 4.63695 11.3066 4.58797 11.3066C4.53899 11.3066 4.49817 11.3475 4.49817 11.3964C4.49817 11.4454 4.53899 11.4862 4.58797 11.4862Z"/><path fill="#FFB700" d="M6.85757 11.5475C6.94098 11.5475 7.00859 11.4799 7.00859 11.3964C7.00859 11.313 6.94098 11.2454 6.85757 11.2454C6.77416 11.2454 6.70654 11.313 6.70654 11.3964C6.70654 11.4799 6.77416 11.5475 6.85757 11.5475Z"/><path fill="#FFB700" d="M9.12694 11.6127C9.24531 11.6127 9.33919 11.5189 9.33919 11.4005C9.33919 11.2821 9.24531 11.1882 9.12694 11.1882C9.00856 11.1882 8.91467 11.2821 8.91467 11.4005C8.91467 11.5189 9.00856 11.6127 9.12694 11.6127Z"/><path fill="#FFB700" d="M11.3964 11.6658C11.5474 11.6658 11.6658 11.5434 11.6658 11.3964C11.6658 11.2495 11.5433 11.127 11.3964 11.127C11.2494 11.127 11.127 11.2495 11.127 11.3964C11.127 11.5434 11.2494 11.6658 11.3964 11.6658Z"/><path fill="#FFB700" d="M13.6701 11.7189C13.8456 11.7189 13.9926 11.576 13.9926 11.3964C13.9926 11.2168 13.8497 11.074 13.6701 11.074C13.4905 11.074 13.3477 11.2168 13.3477 11.3964C13.3477 11.576 13.4905 11.7189 13.6701 11.7189Z"/><path fill="#FFB700" d="M15.9396 11.7638C16.1396 11.7638 16.3029 11.6005 16.3029 11.4005C16.3029 11.2005 16.1396 11.0372 15.9396 11.0372C15.7396 11.0372 15.5763 11.2005 15.5763 11.4005C15.5763 11.6005 15.7396 11.7638 15.9396 11.7638Z"/><path fill="#FFB700" d="M18.209 11.7924C18.4295 11.7924 18.605 11.6168 18.605 11.3964C18.605 11.176 18.4254 11.0005 18.209 11.0005C17.9927 11.0005 17.8131 11.1801 17.8131 11.3964C17.8131 11.6128 17.9927 11.7924 18.209 11.7924Z"/><path fill="#FFB700" d="M20.4785 11.821C20.7112 11.821 20.899 11.6332 20.899 11.4005C20.899 11.1679 20.7112 10.9801 20.4785 10.9801C20.2459 10.9801 20.0581 11.1679 20.0581 11.4005C20.0581 11.6332 20.2459 11.821 20.4785 11.821Z"/><path fill="#FFB700" d="M22.7521 11.825C22.9888 11.825 23.1807 11.6332 23.1807 11.3964C23.1807 11.1597 22.9888 10.9678 22.7521 10.9678C22.5153 10.9678 22.3235 11.1597 22.3235 11.3964C22.3235 11.6332 22.5153 11.825 22.7521 11.825Z"/><path fill="#FFB700" d="M25.0215 11.821C25.2542 11.821 25.4419 11.6332 25.4419 11.4005C25.4419 11.1679 25.2542 10.9801 25.0215 10.9801C24.7888 10.9801 24.6011 11.1679 24.6011 11.4005C24.6011 11.6332 24.7888 11.821 25.0215 11.821Z"/><path fill="#FFB700" d="M27.2911 11.8005C27.5156 11.8005 27.6952 11.6209 27.6952 11.3964C27.6952 11.1719 27.5156 10.9923 27.2911 10.9923C27.0666 10.9923 26.887 11.1719 26.887 11.3964C26.887 11.6209 27.0666 11.8005 27.2911 11.8005Z"/><path fill="#FFB700" d="M29.5604 11.7638C29.7604 11.7638 29.9237 11.6005 29.9237 11.4005C29.9237 11.2005 29.7604 11.0372 29.5604 11.0372C29.3604 11.0372 29.1971 11.2005 29.1971 11.4005C29.1971 11.6005 29.3604 11.7638 29.5604 11.7638Z"/><path fill="#FFB700" d="M31.8342 11.7189C32.0097 11.7189 32.1566 11.576 32.1566 11.3964C32.1566 11.2168 32.0138 11.074 31.8342 11.074C31.6546 11.074 31.5117 11.2168 31.5117 11.3964C31.5117 11.576 31.6546 11.7189 31.8342 11.7189Z"/><path fill="#FFB700" d="M34.1036 11.6658C34.2547 11.6658 34.373 11.5434 34.373 11.3964C34.373 11.2495 34.2506 11.127 34.1036 11.127C33.9567 11.127 33.8342 11.2495 33.8342 11.3964C33.8342 11.5434 33.9567 11.6658 34.1036 11.6658Z"/><path fill="#FFB700" d="M36.373 11.6127C36.4914 11.6127 36.5853 11.5189 36.5853 11.4005C36.5853 11.2821 36.4914 11.1882 36.373 11.1882C36.2547 11.1882 36.1608 11.2821 36.1608 11.4005C36.1608 11.5189 36.2547 11.6127 36.373 11.6127Z"/><path fill="#FFB700" d="M38.6425 11.5475C38.7259 11.5475 38.7935 11.4799 38.7935 11.3964C38.7935 11.313 38.7259 11.2454 38.6425 11.2454C38.5591 11.2454 38.4915 11.313 38.4915 11.3964C38.4915 11.4799 38.5591 11.5475 38.6425 11.5475Z"/><path fill="#FFB700" d="M40.9161 11.4862C40.9651 11.4862 41.0059 11.4454 41.0059 11.3964C41.0059 11.3475 40.9651 11.3066 40.9161 11.3066C40.8671 11.3066 40.8263 11.3475 40.8263 11.3964C40.8263 11.4454 40.8671 11.4862 40.9161 11.4862Z"/><path fill="#FFB700" d="M43.1857 11.4209C43.1993 11.4209 43.2102 11.41 43.2102 11.3964C43.2102 11.3829 43.1993 11.3719 43.1857 11.3719C43.1722 11.3719 43.1613 11.3829 43.1613 11.3964C43.1613 11.41 43.1722 11.4209 43.1857 11.4209Z"/><path fill="#FFB700" d="M0.0447927 13.6741C0.0447927 13.6741 0.0529518 13.6741 0.0529518 13.6659C0.0529518 13.6578 0.0529563 13.6578 0.0447927 13.6578C0.0366291 13.6578 0.0366211 13.6578 0.0366211 13.6659C0.0366211 13.6741 0.0366291 13.6741 0.0447927 13.6741Z"/><path fill="#FFB700" d="M2.31435 13.7231C2.34591 13.7231 2.37149 13.6975 2.37149 13.6659C2.37149 13.6343 2.34591 13.6088 2.31435 13.6088C2.28279 13.6088 2.2572 13.6343 2.2572 13.6659C2.2572 13.6975 2.28279 13.7231 2.31435 13.7231Z"/><path fill="#FFB700" d="M4.58808 13.7924C4.65797 13.7924 4.71462 13.7358 4.71462 13.6659C4.71462 13.596 4.65797 13.5394 4.58808 13.5394C4.5182 13.5394 4.46155 13.596 4.46155 13.6659C4.46155 13.7358 4.5182 13.7924 4.58808 13.7924Z"/><path fill="#FFB700" d="M6.85743 13.8618C6.96356 13.8618 7.05335 13.7761 7.05335 13.6659C7.05335 13.5557 6.96764 13.47 6.85743 13.47C6.74722 13.47 6.6615 13.5557 6.6615 13.6659C6.6615 13.7761 6.74722 13.8618 6.85743 13.8618Z"/><path fill="#FFB700" d="M9.12691 13.9231C9.26893 13.9231 9.38406 13.8079 9.38406 13.6659C9.38406 13.5239 9.26893 13.4088 9.12691 13.4088C8.98488 13.4088 8.86975 13.5239 8.86975 13.6659C8.86975 13.8079 8.98488 13.9231 9.12691 13.9231Z"/><path fill="#FFB700" d="M11.3964 13.9884C11.5745 13.9884 11.7189 13.844 11.7189 13.6659C11.7189 13.4878 11.5745 13.3434 11.3964 13.3434C11.2183 13.3434 11.074 13.4878 11.074 13.6659C11.074 13.844 11.2183 13.9884 11.3964 13.9884Z"/><path fill="#FFB700" d="M13.67 14.0455C13.8782 14.0455 14.0496 13.8782 14.0496 13.6659C14.0496 13.4537 13.8823 13.2863 13.67 13.2863C13.4578 13.2863 13.2904 13.4537 13.2904 13.6659C13.2904 13.8782 13.4578 14.0455 13.67 14.0455Z"/><path fill="#FFB700" d="M15.9395 14.0945C16.1762 14.0945 16.368 13.9026 16.368 13.6659C16.368 13.4292 16.1762 13.2373 15.9395 13.2373C15.7027 13.2373 15.5109 13.4292 15.5109 13.6659C15.5109 13.9026 15.7027 14.0945 15.9395 14.0945Z"/><path fill="#FFB700" d="M18.2091 14.1313C18.4661 14.1313 18.6744 13.9229 18.6744 13.6659C18.6744 13.409 18.4661 13.2006 18.2091 13.2006C17.9521 13.2006 17.7438 13.409 17.7438 13.6659C17.7438 13.9229 17.9521 14.1313 18.2091 14.1313Z"/><path fill="#FFB700" d="M20.4786 14.1639C20.7521 14.1639 20.9766 13.9394 20.9766 13.666C20.9766 13.3925 20.7521 13.168 20.4786 13.168C20.2051 13.168 19.9806 13.3925 19.9806 13.666C19.9806 13.9394 20.2051 14.1639 20.4786 14.1639Z"/><path fill="#FFB700" d="M22.7519 14.1721C23.0295 14.1721 23.254 13.9476 23.254 13.67C23.254 13.3925 23.0295 13.168 22.7519 13.168C22.4744 13.168 22.2499 13.3925 22.2499 13.67C22.2499 13.9476 22.4744 14.1721 22.7519 14.1721Z"/><path fill="#FFB700" d="M25.0215 14.1639C25.295 14.1639 25.5195 13.9394 25.5195 13.666C25.5195 13.3925 25.295 13.168 25.0215 13.168C24.7481 13.168 24.5236 13.3925 24.5236 13.666C24.5236 13.9394 24.7481 14.1639 25.0215 14.1639Z"/><path fill="#FFB700" d="M27.2911 14.1394C27.5524 14.1394 27.7646 13.9272 27.7646 13.6659C27.7646 13.4047 27.5524 13.1924 27.2911 13.1924C27.0299 13.1924 26.8176 13.4047 26.8176 13.6659C26.8176 13.9272 27.0299 14.1394 27.2911 14.1394Z"/><path fill="#FFB700" d="M29.5605 14.0945C29.7973 14.0945 29.9891 13.9026 29.9891 13.6659C29.9891 13.4292 29.7973 13.2373 29.5605 13.2373C29.3238 13.2373 29.132 13.4292 29.132 13.6659C29.132 13.9026 29.3238 14.0945 29.5605 14.0945Z"/><path fill="#FFB700" d="M31.834 14.0496C32.0459 14.0496 32.2177 13.8778 32.2177 13.6659C32.2177 13.454 32.0459 13.2822 31.834 13.2822C31.6221 13.2822 31.4503 13.454 31.4503 13.6659C31.4503 13.8778 31.6221 14.0496 31.834 14.0496Z"/><path fill="#FFB700" d="M34.1035 13.9884C34.279 13.9884 34.4259 13.8455 34.4259 13.6659C34.4259 13.4863 34.2831 13.3434 34.1035 13.3434C33.9239 13.3434 33.781 13.4863 33.781 13.6659C33.781 13.8455 33.9239 13.9884 34.1035 13.9884Z"/><path fill="#FFB700" d="M36.373 13.9272C36.5159 13.9272 36.6302 13.8129 36.6302 13.67C36.6302 13.5271 36.5159 13.4128 36.373 13.4128C36.2301 13.4128 36.1158 13.5271 36.1158 13.67C36.1158 13.8129 36.2301 13.9272 36.373 13.9272Z"/><path fill="#FFB700" d="M38.6425 13.8618C38.7507 13.8618 38.8384 13.7741 38.8384 13.6659C38.8384 13.5577 38.7507 13.47 38.6425 13.47C38.5343 13.47 38.4465 13.5577 38.4465 13.6659C38.4465 13.7741 38.5343 13.8618 38.6425 13.8618Z"/><path fill="#FFB700" d="M40.9162 13.7924C40.9861 13.7924 41.0427 13.7358 41.0427 13.6659C41.0427 13.596 40.9861 13.5394 40.9162 13.5394C40.8463 13.5394 40.7897 13.596 40.7897 13.6659C40.7897 13.7358 40.8463 13.7924 40.9162 13.7924Z"/><path fill="#FFB700" d="M43.1857 13.7231C43.2183 13.7231 43.2428 13.6986 43.2428 13.6659C43.2428 13.6333 43.2183 13.6088 43.1857 13.6088C43.153 13.6088 43.1285 13.6333 43.1285 13.6659C43.1285 13.6986 43.153 13.7231 43.1857 13.7231Z"/><path fill="#FFB700" d="M45.4551 13.6741C45.4596 13.6741 45.4632 13.6704 45.4632 13.6659C45.4632 13.6614 45.4596 13.6578 45.4551 13.6578C45.4506 13.6578 45.4469 13.6614 45.4469 13.6659C45.4469 13.6704 45.4506 13.6741 45.4551 13.6741Z"/><path fill="#FFB700" d="M0.0449598 15.9517C0.0449598 15.9517 0.0572047 15.9477 0.0572047 15.9395C0.0572047 15.9313 0.0531234 15.9272 0.0449598 15.9272C0.0367962 15.9272 0.0327148 15.9313 0.0327148 15.9395C0.0327148 15.9477 0.0367962 15.9517 0.0449598 15.9517Z"/><path fill="#FFB700" d="M2.31443 16.0211C2.35933 16.0211 2.39607 15.9844 2.39607 15.9395C2.39607 15.8946 2.35933 15.8578 2.31443 15.8578C2.26953 15.8578 2.23279 15.8946 2.23279 15.9395C2.23279 15.9844 2.26953 16.0211 2.31443 16.0211Z"/><path fill="#FFB700" d="M4.58803 16.0987C4.67595 16.0987 4.74721 16.0274 4.74721 15.9395C4.74721 15.8516 4.67595 15.7803 4.58803 15.7803C4.50011 15.7803 4.42883 15.8516 4.42883 15.9395C4.42883 16.0274 4.50011 16.0987 4.58803 16.0987Z"/><path fill="#FFB700" d="M6.85749 16.168C6.98373 16.168 7.08607 16.0657 7.08607 15.9395C7.08607 15.8132 6.98373 15.7109 6.85749 15.7109C6.73124 15.7109 6.62891 15.8132 6.62891 15.9395C6.62891 16.0657 6.73124 16.168 6.85749 16.168Z"/><path fill="#FFB700" d="M9.12683 16.2333C9.29011 16.2333 9.42073 16.1027 9.42073 15.9354C9.42073 15.768 9.29011 15.6415 9.12683 15.6415C8.96356 15.6415 8.82886 15.7721 8.82886 15.9354C8.82886 16.0986 8.95948 16.2333 9.12683 16.2333Z"/><path fill="#FFB700" d="M11.3964 16.3028C11.5964 16.3028 11.7596 16.1395 11.7596 15.9395C11.7596 15.7395 11.5964 15.5762 11.3964 15.5762C11.1964 15.5762 11.0331 15.7395 11.0331 15.9395C11.0331 16.1395 11.1964 16.3028 11.3964 16.3028Z"/><path fill="#FFB700" d="M13.6699 16.3681C13.9067 16.3681 14.0985 16.1763 14.0985 15.9395C14.0985 15.7028 13.9067 15.5109 13.6699 15.5109C13.4332 15.5109 13.2413 15.7028 13.2413 15.9395C13.2413 16.1763 13.4332 16.3681 13.6699 16.3681Z"/><path fill="#FFB700" d="M15.9395 16.4252C16.2077 16.4252 16.4252 16.2077 16.4252 15.9395C16.4252 15.6712 16.2077 15.4537 15.9395 15.4537C15.6712 15.4537 15.4537 15.6712 15.4537 15.9395C15.4537 16.2077 15.6712 16.4252 15.9395 16.4252Z"/><path fill="#FFB700" d="M18.2089 16.4742C18.5042 16.4742 18.7436 16.2348 18.7436 15.9395C18.7436 15.6442 18.5042 15.4048 18.2089 15.4048C17.9136 15.4048 17.6742 15.6442 17.6742 15.9395C17.6742 16.2348 17.9136 16.4742 18.2089 16.4742Z"/><path fill="#FFB700" d="M20.4784 16.5028C20.7927 16.5028 21.0458 16.2497 21.0458 15.9354C21.0458 15.6211 20.7927 15.368 20.4784 15.368C20.1641 15.368 19.911 15.6211 19.911 15.9354C19.911 16.2497 20.1641 16.5028 20.4784 16.5028Z"/><path fill="#FFB700" d="M22.752 16.5232C23.0744 16.5232 23.3357 16.2618 23.3357 15.9395C23.3357 15.6171 23.0744 15.3558 22.752 15.3558C22.4297 15.3558 22.1683 15.6171 22.1683 15.9395C22.1683 16.2618 22.4297 16.5232 22.752 16.5232Z"/><path fill="#FFB700" d="M25.0215 16.511C25.3399 16.511 25.593 16.2538 25.593 15.9395C25.593 15.6252 25.3358 15.368 25.0215 15.368C24.7072 15.368 24.4501 15.6252 24.4501 15.9395C24.4501 16.2538 24.7072 16.511 25.0215 16.511Z"/><path fill="#FFB700" d="M27.2909 16.4783C27.5889 16.4783 27.8338 16.2375 27.8338 15.9354C27.8338 15.6333 27.593 15.3925 27.2909 15.3925C26.9889 15.3925 26.748 15.6333 26.748 15.9354C26.748 16.2375 26.9889 16.4783 27.2909 16.4783Z"/><path fill="#FFB700" d="M29.5606 16.4293C29.83 16.4293 30.0504 16.2089 30.0504 15.9395C30.0504 15.6701 29.83 15.4496 29.5606 15.4496C29.2912 15.4496 29.0708 15.6701 29.0708 15.9395C29.0708 16.2089 29.2912 16.4293 29.5606 16.4293Z"/><path fill="#FFB700" d="M31.8342 16.3722C32.0731 16.3722 32.2668 16.1785 32.2668 15.9395C32.2668 15.7005 32.0731 15.5068 31.8342 15.5068C31.5952 15.5068 31.4015 15.7005 31.4015 15.9395C31.4015 16.1785 31.5952 16.3722 31.8342 16.3722Z"/><path fill="#FFB700" d="M34.1036 16.3109C34.3077 16.3109 34.4751 16.1436 34.4751 15.9395C34.4751 15.7354 34.3077 15.5681 34.1036 15.5681C33.8995 15.5681 33.7322 15.7354 33.7322 15.9395C33.7322 16.1436 33.8995 16.3109 34.1036 16.3109Z"/><path fill="#FFB700" d="M36.3731 16.2416C36.5404 16.2416 36.6751 16.1069 36.6751 15.9395C36.6751 15.7722 36.5404 15.6375 36.3731 15.6375C36.2057 15.6375 36.071 15.7722 36.071 15.9395C36.071 16.1069 36.2057 16.2416 36.3731 16.2416Z"/><path fill="#FFB700" d="M38.6426 16.1721C38.7711 16.1721 38.8752 16.0679 38.8752 15.9395C38.8752 15.811 38.7711 15.7068 38.6426 15.7068C38.5141 15.7068 38.4099 15.811 38.4099 15.9395C38.4099 16.0679 38.5141 16.1721 38.6426 16.1721Z"/><path fill="#FFB700" d="M40.9162 16.0987C41.0041 16.0987 41.0753 16.0274 41.0753 15.9395C41.0753 15.8516 41.0041 15.7803 40.9162 15.7803C40.8282 15.7803 40.757 15.8516 40.757 15.9395C40.757 16.0274 40.8282 16.0987 40.9162 16.0987Z"/><path fill="#FFB700" d="M43.1856 16.0252C43.2346 16.0252 43.2754 15.9844 43.2754 15.9354C43.2754 15.8864 43.2346 15.8456 43.1856 15.8456C43.1366 15.8456 43.0958 15.8864 43.0958 15.9354C43.0958 15.9844 43.1366 16.0252 43.1856 16.0252Z"/><path fill="#FFB700" d="M45.4551 15.9558C45.4551 15.9558 45.4755 15.9476 45.4755 15.9354C45.4755 15.9231 45.4673 15.915 45.4551 15.915C45.4429 15.915 45.4347 15.9231 45.4347 15.9354C45.4347 15.9476 45.4429 15.9558 45.4551 15.9558Z"/><path fill="#FFB700" d="M0.0448685 18.2416C0.0448685 18.2416 0.0775176 18.2294 0.0775176 18.209C0.0775176 18.1886 0.0652776 18.1763 0.0448685 18.1763C0.0244595 18.1763 0.012207 18.1886 0.012207 18.209C0.012207 18.2294 0.0244595 18.2416 0.0448685 18.2416Z"/><path fill="#FFB700" d="M2.31433 18.311C2.37068 18.311 2.41637 18.2653 2.41637 18.209C2.41637 18.1526 2.37068 18.1069 2.31433 18.1069C2.25797 18.1069 2.21228 18.1526 2.21228 18.209C2.21228 18.2653 2.25797 18.311 2.31433 18.311Z"/><path fill="#FFB700" d="M4.588 18.3845C4.68494 18.3845 4.76352 18.306 4.76352 18.209C4.76352 18.1121 4.68494 18.0335 4.588 18.0335C4.49107 18.0335 4.41248 18.1121 4.41248 18.209C4.41248 18.306 4.49107 18.3845 4.588 18.3845Z"/><path fill="#FFB700" d="M6.85756 18.4621C6.99733 18.4621 7.11063 18.3488 7.11063 18.209C7.11063 18.0692 6.99733 17.9559 6.85756 17.9559C6.71779 17.9559 6.60449 18.0692 6.60449 18.209C6.60449 18.3488 6.71779 18.4621 6.85756 18.4621Z"/><path fill="#FFB700" d="M9.12697 18.5355C9.30657 18.5355 9.45351 18.3886 9.45351 18.209C9.45351 18.0294 9.30657 17.8824 9.12697 17.8824C8.94737 17.8824 8.80042 18.0294 8.80042 18.209C8.80042 18.3886 8.94737 18.5355 9.12697 18.5355Z"/><path fill="#FFB700" d="M11.3965 18.6049C11.617 18.6049 11.7925 18.4253 11.7925 18.209C11.7925 17.9926 11.6129 17.813 11.3965 17.813C11.1802 17.813 11.0006 17.9926 11.0006 18.209C11.0006 18.4253 11.1802 18.6049 11.3965 18.6049Z"/><path fill="#FFB700" d="M13.67 18.6743C13.9272 18.6743 14.1354 18.4661 14.1354 18.209C14.1354 17.9518 13.9272 17.7437 13.67 17.7437C13.4129 17.7437 13.2047 17.9518 13.2047 18.209C13.2047 18.4661 13.4129 18.6743 13.67 18.6743Z"/><path fill="#FFB700" d="M15.9396 18.7437C16.2349 18.7437 16.4743 18.5043 16.4743 18.209C16.4743 17.9137 16.2349 17.6743 15.9396 17.6743C15.6443 17.6743 15.4049 17.9137 15.4049 18.209C15.4049 18.5043 15.6443 18.7437 15.9396 18.7437Z"/><path fill="#FFB700" d="M18.209 18.8049C18.5397 18.8049 18.8091 18.5355 18.8091 18.2049C18.8091 17.8743 18.5397 17.6049 18.209 17.6049C17.8784 17.6049 17.609 17.8743 17.609 18.2049C17.609 18.5355 17.8784 18.8049 18.209 18.8049Z"/><path fill="#FFB700" d="M20.4785 18.8499C20.8336 18.8499 21.1193 18.5641 21.1193 18.209C21.1193 17.8539 20.8336 17.5682 20.4785 17.5682C20.1234 17.5682 19.8376 17.8539 19.8376 18.209C19.8376 18.5641 20.1234 18.8499 20.4785 18.8499Z"/><path fill="#FFB700" d="M22.7521 18.8702C23.1173 18.8702 23.4133 18.5742 23.4133 18.209C23.4133 17.8438 23.1173 17.5477 22.7521 17.5477C22.3869 17.5477 22.0908 17.8438 22.0908 18.209C22.0908 18.5742 22.3869 18.8702 22.7521 18.8702Z"/><path fill="#FFB700" d="M25.0215 18.8499C25.3766 18.8499 25.6623 18.5641 25.6623 18.209C25.6623 17.8539 25.3766 17.5682 25.0215 17.5682C24.6663 17.5682 24.3806 17.8539 24.3806 18.209C24.3806 18.5641 24.6663 18.8499 25.0215 18.8499Z"/><path fill="#FFB700" d="M27.2911 18.8049C27.6217 18.8049 27.8911 18.5355 27.8911 18.2049C27.8911 17.8743 27.6217 17.6049 27.2911 17.6049C26.9604 17.6049 26.691 17.8743 26.691 18.2049C26.691 18.5355 26.9604 18.8049 27.2911 18.8049Z"/><path fill="#FFB700" d="M29.5605 18.7519C29.8584 18.7519 30.1033 18.5111 30.1033 18.209C30.1033 17.907 29.8625 17.6661 29.5605 17.6661C29.2584 17.6661 29.0176 17.907 29.0176 18.209C29.0176 18.5111 29.2584 18.7519 29.5605 18.7519Z"/><path fill="#FFB700" d="M31.8341 18.6825C32.0953 18.6825 32.3076 18.4702 32.3076 18.209C32.3076 17.9477 32.0953 17.7355 31.8341 17.7355C31.5729 17.7355 31.3606 17.9477 31.3606 18.209C31.3606 18.4702 31.5729 18.6825 31.8341 18.6825Z"/><path fill="#FFB700" d="M34.1036 18.6131C34.3281 18.6131 34.5077 18.4335 34.5077 18.209C34.5077 17.9845 34.3281 17.8049 34.1036 17.8049C33.8791 17.8049 33.6995 17.9845 33.6995 18.209C33.6995 18.4335 33.8791 18.6131 34.1036 18.6131Z"/><path fill="#FFB700" d="M36.3731 18.5355C36.5527 18.5355 36.6996 18.3886 36.6996 18.209C36.6996 18.0294 36.5527 17.8824 36.3731 17.8824C36.1935 17.8824 36.0465 18.0294 36.0465 18.209C36.0465 18.3886 36.1935 18.5355 36.3731 18.5355Z"/><path fill="#FFB700" d="M38.6425 18.4662C38.7854 18.4662 38.8997 18.3519 38.8997 18.209C38.8997 18.0661 38.7854 17.9518 38.6425 17.9518C38.4997 17.9518 38.3854 18.0661 38.3854 18.209C38.3854 18.3519 38.4997 18.4662 38.6425 18.4662Z"/><path fill="#FFB700" d="M40.9161 18.3927C41.0182 18.3927 41.0998 18.3111 41.0998 18.209C41.0998 18.107 41.0182 18.0253 40.9161 18.0253C40.8141 18.0253 40.7324 18.107 40.7324 18.209C40.7324 18.3111 40.8141 18.3927 40.9161 18.3927Z"/><path fill="#FFB700" d="M43.1856 18.3151C43.2427 18.3151 43.2917 18.2661 43.2917 18.209C43.2917 18.1518 43.2427 18.1028 43.1856 18.1028C43.1285 18.1028 43.0795 18.1518 43.0795 18.209C43.0795 18.2661 43.1285 18.3151 43.1856 18.3151Z"/><path fill="#FFB700" d="M45.455 18.2416C45.455 18.2416 45.4877 18.2294 45.4877 18.209C45.4877 18.1886 45.4754 18.1763 45.455 18.1763C45.4346 18.1763 45.4224 18.1886 45.4224 18.209C45.4224 18.2294 45.4346 18.2416 45.455 18.2416Z"/><path fill="#FFB700" d="M0.0449136 20.5152C0.0653226 20.5152 0.0816484 20.4989 0.0816484 20.4784C0.0816484 20.458 0.0653226 20.4417 0.0449136 20.4417C0.0245045 20.4417 0.00817871 20.458 0.00817871 20.4784C0.00817871 20.4989 0.0245045 20.5152 0.0449136 20.5152Z"/><path fill="#FFB700" d="M2.31449 20.5928C2.37571 20.5928 2.42878 20.5438 2.42878 20.4785C2.42878 20.4132 2.37979 20.3642 2.31449 20.3642C2.24918 20.3642 2.2002 20.4132 2.2002 20.4785C2.2002 20.5438 2.24918 20.5928 2.31449 20.5928Z"/><path fill="#FFB700" d="M4.5879 20.6744C4.69611 20.6744 4.78382 20.5867 4.78382 20.4785C4.78382 20.3703 4.69611 20.2825 4.5879 20.2825C4.47969 20.2825 4.39197 20.3703 4.39197 20.4785C4.39197 20.5867 4.47969 20.6744 4.5879 20.6744Z"/><path fill="#FFB700" d="M6.85754 20.7519C7.00856 20.7519 7.12694 20.6295 7.12694 20.4825C7.12694 20.3356 7.00448 20.2131 6.85754 20.2131C6.71059 20.2131 6.58813 20.3356 6.58813 20.4825C6.58813 20.6295 6.71059 20.7519 6.85754 20.7519Z"/><path fill="#FFB700" d="M9.12686 20.8254C9.31871 20.8254 9.47382 20.6703 9.47382 20.4784C9.47382 20.2866 9.31871 20.1315 9.12686 20.1315C8.93502 20.1315 8.77991 20.2866 8.77991 20.4784C8.77991 20.6703 8.93502 20.8254 9.12686 20.8254Z"/><path fill="#FFB700" d="M11.3965 20.8989C11.6287 20.8989 11.8169 20.7107 11.8169 20.4785C11.8169 20.2463 11.6287 20.058 11.3965 20.058C11.1643 20.058 10.9761 20.2463 10.9761 20.4785C10.9761 20.7107 11.1643 20.8989 11.3965 20.8989Z"/><path fill="#FFB700" d="M13.67 20.9764C13.9435 20.9764 14.168 20.7519 14.168 20.4785C14.168 20.205 13.9435 19.9805 13.67 19.9805C13.3965 19.9805 13.172 20.205 13.172 20.4785C13.172 20.7519 13.3965 20.9764 13.67 20.9764Z"/><path fill="#FFB700" d="M15.9396 21.0459C16.2539 21.0459 16.5069 20.7928 16.5069 20.4785C16.5069 20.1642 16.2539 19.9111 15.9396 19.9111C15.6253 19.9111 15.3722 20.1642 15.3722 20.4785C15.3722 20.7928 15.6253 21.0459 15.9396 21.0459Z"/><path fill="#FFB700" d="M18.209 21.1193C18.5629 21.1193 18.8498 20.8324 18.8498 20.4784C18.8498 20.1245 18.5629 19.8376 18.209 19.8376C17.855 19.8376 17.5681 20.1245 17.5681 20.4784C17.5681 20.8324 17.855 21.1193 18.209 21.1193Z"/><path fill="#FFB700" d="M20.4785 21.1846C20.8663 21.1846 21.1847 20.8703 21.1847 20.4784C21.1847 20.0866 20.8704 19.7723 20.4785 19.7723C20.0866 19.7723 19.7723 20.0866 19.7723 20.4784C19.7723 20.8703 20.0866 21.1846 20.4785 21.1846Z"/><path fill="#FFB700" d="M22.7521 21.2132C23.1578 21.2132 23.4868 20.8842 23.4868 20.4784C23.4868 20.0727 23.1578 19.7437 22.7521 19.7437C22.3463 19.7437 22.0173 20.0727 22.0173 20.4784C22.0173 20.8842 22.3463 21.2132 22.7521 21.2132Z"/><path fill="#FFB700" d="M25.0215 21.1846C25.4115 21.1846 25.7276 20.8684 25.7276 20.4784C25.7276 20.0884 25.4115 19.7723 25.0215 19.7723C24.6315 19.7723 24.3153 20.0884 24.3153 20.4784C24.3153 20.8684 24.6315 21.1846 25.0215 21.1846Z"/><path fill="#FFB700" d="M27.291 21.1275C27.6502 21.1275 27.94 20.8377 27.94 20.4785C27.94 20.1193 27.6502 19.8295 27.291 19.8295C26.9318 19.8295 26.642 20.1193 26.642 20.4785C26.642 20.8377 26.9318 21.1275 27.291 21.1275Z"/><path fill="#FFB700" d="M29.5605 21.054C29.8788 21.054 30.1319 20.7969 30.1319 20.4826C30.1319 20.1683 29.8748 19.9111 29.5605 19.9111C29.2462 19.9111 28.989 20.1683 28.989 20.4826C28.989 20.7969 29.2462 21.054 29.5605 21.054Z"/><path fill="#FFB700" d="M31.834 20.9805C32.1113 20.9805 32.336 20.7557 32.336 20.4784C32.336 20.2012 32.1113 19.9764 31.834 19.9764C31.5567 19.9764 31.3319 20.2012 31.3319 20.4784C31.3319 20.7557 31.5567 20.9805 31.834 20.9805Z"/><path fill="#FFB700" d="M34.1035 20.907C34.3402 20.907 34.5321 20.7152 34.5321 20.4785C34.5321 20.2418 34.3402 20.0499 34.1035 20.0499C33.8668 20.0499 33.6749 20.2418 33.6749 20.4785C33.6749 20.7152 33.8668 20.907 34.1035 20.907Z"/><path fill="#FFB700" d="M36.373 20.8335C36.5689 20.8335 36.724 20.6744 36.724 20.4825C36.724 20.2907 36.5649 20.1315 36.373 20.1315C36.1812 20.1315 36.022 20.2907 36.022 20.4825C36.022 20.6744 36.1812 20.8335 36.373 20.8335Z"/><path fill="#FFB700" d="M38.6427 20.7561C38.796 20.7561 38.9202 20.6318 38.9202 20.4785C38.9202 20.3252 38.796 20.2009 38.6427 20.2009C38.4894 20.2009 38.3651 20.3252 38.3651 20.4785C38.3651 20.6318 38.4894 20.7561 38.6427 20.7561Z"/><path fill="#FFB700" d="M40.916 20.6744C41.0222 20.6744 41.1119 20.5887 41.1119 20.4785C41.1119 20.3683 41.0262 20.2825 40.916 20.2825C40.8058 20.2825 40.7201 20.3683 40.7201 20.4785C40.7201 20.5887 40.8058 20.6744 40.916 20.6744Z"/><path fill="#FFB700" d="M43.1855 20.5969C43.2508 20.5969 43.3039 20.5438 43.3039 20.4785C43.3039 20.4132 43.2508 20.3601 43.1855 20.3601C43.1202 20.3601 43.0671 20.4132 43.0671 20.4785C43.0671 20.5438 43.1202 20.5969 43.1855 20.5969Z"/><path fill="#FFB700" d="M45.4551 20.5234C45.4798 20.5234 45.4999 20.5033 45.4999 20.4785C45.4999 20.4537 45.4798 20.4336 45.4551 20.4336C45.4303 20.4336 45.4102 20.4537 45.4102 20.4785C45.4102 20.5033 45.4303 20.5234 45.4551 20.5234Z"/><path fill="#FFB700" d="M0.0449064 22.7929C0.0693973 22.7929 0.0898004 22.7725 0.0898004 22.748C0.0898004 22.7235 0.0693973 22.7031 0.0449064 22.7031C0.0204156 22.7031 0 22.7235 0 22.748C0 22.7725 0.0204156 22.7929 0.0449064 22.7929Z"/><path fill="#FFB700" d="M2.3143 22.8704C2.37961 22.8704 2.43268 22.8173 2.43268 22.752C2.43268 22.6867 2.37961 22.6337 2.3143 22.6337C2.24899 22.6337 2.19592 22.6867 2.19592 22.752C2.19592 22.8173 2.24899 22.8704 2.3143 22.8704Z"/><path fill="#FFB700" d="M4.58796 22.948C4.69842 22.948 4.78796 22.8584 4.78796 22.748C4.78796 22.6375 4.69842 22.548 4.58796 22.548C4.47749 22.548 4.38794 22.6375 4.38794 22.748C4.38794 22.8584 4.47749 22.948 4.58796 22.948Z"/><path fill="#FFB700" d="M6.85752 23.0255C7.00854 23.0255 7.13508 22.9031 7.13508 22.748C7.13508 22.5929 7.01263 22.4704 6.85752 22.4704C6.70241 22.4704 6.57996 22.5929 6.57996 22.748C6.57996 22.9031 6.70241 23.0255 6.85752 23.0255Z"/><path fill="#FFB700" d="M9.12692 23.099C9.32079 23.099 9.47795 22.9418 9.47795 22.7479C9.47795 22.5541 9.32079 22.3969 9.12692 22.3969C8.93305 22.3969 8.77588 22.5541 8.77588 22.7479C8.77588 22.9418 8.93305 23.099 9.12692 23.099Z"/><path fill="#FFB700" d="M11.3965 23.1766C11.6332 23.1766 11.8251 22.9847 11.8251 22.748C11.8251 22.5113 11.6332 22.3194 11.3965 22.3194C11.1598 22.3194 10.9679 22.5113 10.9679 22.748C10.9679 22.9847 11.1598 23.1766 11.3965 23.1766Z"/><path fill="#FFB700" d="M13.6699 23.2541C13.9475 23.2541 14.172 23.0296 14.172 22.7521C14.172 22.4745 13.9475 22.25 13.6699 22.25C13.3924 22.25 13.1678 22.4745 13.1678 22.7521C13.1678 23.0296 13.3924 23.2541 13.6699 23.2541Z"/><path fill="#FFB700" d="M15.9395 23.3317C16.2619 23.3317 16.5232 23.0704 16.5232 22.748C16.5232 22.4256 16.2619 22.1643 15.9395 22.1643C15.6172 22.1643 15.3558 22.4256 15.3558 22.748C15.3558 23.0704 15.6172 23.3317 15.9395 23.3317Z"/><path fill="#FFB700" d="M18.2091 23.4092C18.5743 23.4092 18.8704 23.1131 18.8704 22.7479C18.8704 22.3827 18.5743 22.0867 18.2091 22.0867C17.8439 22.0867 17.5479 22.3827 17.5479 22.7479C17.5479 23.1131 17.8439 23.4092 18.2091 23.4092Z"/><path fill="#FFB700" d="M20.4785 23.4827C20.8843 23.4827 21.2132 23.1538 21.2132 22.748C21.2132 22.3422 20.8843 22.0132 20.4785 22.0132C20.0727 22.0132 19.7438 22.3422 19.7438 22.748C19.7438 23.1538 20.0727 23.4827 20.4785 23.4827Z"/><path fill="#FFB700" d="M22.752 23.5358C23.1871 23.5358 23.5398 23.1831 23.5398 22.748C23.5398 22.3129 23.1871 21.9602 22.752 21.9602C22.3169 21.9602 21.9642 22.3129 21.9642 22.748C21.9642 23.1831 22.3169 23.5358 22.752 23.5358Z"/><path fill="#FFB700" d="M25.0216 23.4827C25.4274 23.4827 25.7563 23.1538 25.7563 22.748C25.7563 22.3422 25.4274 22.0132 25.0216 22.0132C24.6158 22.0132 24.2869 22.3422 24.2869 22.748C24.2869 23.1538 24.6158 23.4827 25.0216 23.4827Z"/><path fill="#FFB700" d="M27.2911 23.4133C27.6585 23.4133 27.9564 23.1154 27.9564 22.748C27.9564 22.3805 27.6585 22.0826 27.2911 22.0826C26.9236 22.0826 26.6257 22.3805 26.6257 22.748C26.6257 23.1154 26.9236 23.4133 27.2911 23.4133Z"/><path fill="#FFB700" d="M29.5606 23.3317C29.883 23.3317 30.1443 23.0704 30.1443 22.748C30.1443 22.4256 29.883 22.1643 29.5606 22.1643C29.2383 22.1643 28.9769 22.4256 28.9769 22.748C28.9769 23.0704 29.2383 23.3317 29.5606 23.3317Z"/><path fill="#FFB700" d="M31.8342 23.2582C32.116 23.2582 32.3444 23.0297 32.3444 22.748C32.3444 22.4662 32.116 22.2377 31.8342 22.2377C31.5524 22.2377 31.324 22.4662 31.324 22.748C31.324 23.0297 31.5524 23.2582 31.8342 23.2582Z"/><path fill="#FFB700" d="M34.1037 23.1807C34.3427 23.1807 34.5364 22.9869 34.5364 22.748C34.5364 22.509 34.3427 22.3153 34.1037 22.3153C33.8647 22.3153 33.671 22.509 33.671 22.748C33.671 22.9869 33.8647 23.1807 34.1037 23.1807Z"/><path fill="#FFB700" d="M36.373 23.1071C36.573 23.1071 36.7322 22.9479 36.7322 22.7479C36.7322 22.5479 36.573 22.3887 36.373 22.3887C36.173 22.3887 36.0138 22.5479 36.0138 22.7479C36.0138 22.9479 36.173 23.1071 36.373 23.1071Z"/><path fill="#FFB700" d="M38.6427 23.0255C38.796 23.0255 38.9202 22.9013 38.9202 22.748C38.9202 22.5947 38.796 22.4704 38.6427 22.4704C38.4894 22.4704 38.3651 22.5947 38.3651 22.748C38.3651 22.9013 38.4894 23.0255 38.6427 23.0255Z"/><path fill="#FFB700" d="M40.9161 22.948C41.0265 22.948 41.1161 22.8584 41.1161 22.748C41.1161 22.6375 41.0265 22.548 40.9161 22.548C40.8056 22.548 40.7161 22.6375 40.7161 22.748C40.7161 22.8584 40.8056 22.948 40.9161 22.948Z"/><path fill="#FFB700" d="M43.1857 22.8745C43.2551 22.8745 43.3123 22.8174 43.3123 22.748C43.3123 22.6786 43.2551 22.6215 43.1857 22.6215C43.1163 22.6215 43.0592 22.6786 43.0592 22.748C43.0592 22.8174 43.1163 22.8745 43.1857 22.8745Z"/><path fill="#FFB700" d="M45.4551 22.7929C45.4795 22.7929 45.4999 22.7725 45.4999 22.748C45.4999 22.7235 45.4795 22.7031 45.4551 22.7031C45.4306 22.7031 45.4102 22.7235 45.4102 22.748C45.4102 22.7725 45.4306 22.7929 45.4551 22.7929Z"/><path fill="#FFB700" d="M0.0449136 25.0583C0.0653226 25.0583 0.0816484 25.0419 0.0816484 25.0215C0.0816484 25.0011 0.0653226 24.9848 0.0449136 24.9848C0.0245045 24.9848 0.00817871 25.0011 0.00817871 25.0215C0.00817871 25.0419 0.0245045 25.0583 0.0449136 25.0583Z"/><path fill="#FFB700" d="M2.31449 25.1317C2.37571 25.1317 2.42878 25.0827 2.42878 25.0174C2.42878 24.9521 2.37979 24.9031 2.31449 24.9031C2.24918 24.9031 2.2002 24.9521 2.2002 25.0174C2.2002 25.0827 2.24918 25.1317 2.31449 25.1317Z"/><path fill="#FFB700" d="M4.5879 25.2134C4.69403 25.2134 4.78382 25.1277 4.78382 25.0175C4.78382 24.9072 4.69811 24.8215 4.5879 24.8215C4.47769 24.8215 4.39197 24.9072 4.39197 25.0175C4.39197 25.1277 4.47769 25.2134 4.5879 25.2134Z"/><path fill="#FFB700" d="M6.85754 25.2909C7.00856 25.2909 7.12694 25.1685 7.12694 25.0215C7.12694 24.8746 7.00448 24.7521 6.85754 24.7521C6.71059 24.7521 6.58813 24.8746 6.58813 25.0215C6.58813 25.1685 6.71059 25.2909 6.85754 25.2909Z"/><path fill="#FFB700" d="M9.12686 25.3685C9.31871 25.3685 9.47382 25.2134 9.47382 25.0215C9.47382 24.8297 9.31871 24.6746 9.12686 24.6746C8.93502 24.6746 8.77991 24.8297 8.77991 25.0215C8.77991 25.2134 8.93502 25.3685 9.12686 25.3685Z"/><path fill="#FFB700" d="M11.3965 25.442C11.6292 25.442 11.8169 25.2542 11.8169 25.0216C11.8169 24.7889 11.6292 24.6011 11.3965 24.6011C11.1638 24.6011 10.9761 24.7889 10.9761 25.0216C10.9761 25.2542 11.1638 25.442 11.3965 25.442Z"/><path fill="#FFB700" d="M13.67 25.5195C13.9435 25.5195 14.168 25.295 14.168 25.0215C14.168 24.7481 13.9435 24.5236 13.67 24.5236C13.3965 24.5236 13.172 24.7481 13.172 25.0215C13.172 25.295 13.3965 25.5195 13.67 25.5195Z"/><path fill="#FFB700" d="M15.9395 25.593C16.2579 25.593 16.5109 25.3358 16.5109 25.0215C16.5109 24.7072 16.2538 24.4501 15.9395 24.4501C15.6252 24.4501 15.368 24.7072 15.368 25.0215C15.368 25.3358 15.6252 25.593 15.9395 25.593Z"/><path fill="#FFB700" d="M18.209 25.6624C18.5641 25.6624 18.8498 25.3766 18.8498 25.0215C18.8498 24.6664 18.5641 24.3807 18.209 24.3807C17.8538 24.3807 17.5681 24.6664 17.5681 25.0215C17.5681 25.3766 17.8538 25.6624 18.209 25.6624Z"/><path fill="#FFB700" d="M20.4785 25.7236C20.8663 25.7236 21.1847 25.4093 21.1847 25.0175C21.1847 24.6256 20.8704 24.3113 20.4785 24.3113C20.0866 24.3113 19.7723 24.6256 19.7723 25.0175C19.7723 25.4093 20.0866 25.7236 20.4785 25.7236Z"/><path fill="#FFB700" d="M22.7521 25.7563C23.1578 25.7563 23.4868 25.4273 23.4868 25.0215C23.4868 24.6158 23.1578 24.2868 22.7521 24.2868C22.3463 24.2868 22.0173 24.6158 22.0173 25.0215C22.0173 25.4273 22.3463 25.7563 22.7521 25.7563Z"/><path fill="#FFB700" d="M25.0215 25.7318C25.4138 25.7318 25.7318 25.4138 25.7318 25.0216C25.7318 24.6293 25.4138 24.3113 25.0215 24.3113C24.6293 24.3113 24.3113 24.6293 24.3113 25.0216C24.3113 25.4138 24.6293 25.7318 25.0215 25.7318Z"/><path fill="#FFB700" d="M27.291 25.6705C27.6502 25.6705 27.94 25.3807 27.94 25.0215C27.94 24.6623 27.6502 24.3725 27.291 24.3725C26.9318 24.3725 26.642 24.6623 26.642 25.0215C26.642 25.3807 26.9318 25.6705 27.291 25.6705Z"/><path fill="#FFB700" d="M29.5605 25.593C29.8788 25.593 30.1319 25.3358 30.1319 25.0215C30.1319 24.7072 29.8748 24.4501 29.5605 24.4501C29.2462 24.4501 28.989 24.7072 28.989 25.0215C28.989 25.3358 29.2462 25.593 29.5605 25.593Z"/><path fill="#FFB700" d="M31.834 25.5236C32.1115 25.5236 32.336 25.2991 32.336 25.0215C32.336 24.744 32.1115 24.5195 31.834 24.5195C31.5564 24.5195 31.3319 24.744 31.3319 25.0215C31.3319 25.2991 31.5564 25.5236 31.834 25.5236Z"/><path fill="#FFB700" d="M34.1035 25.4501C34.3403 25.4501 34.5321 25.2583 34.5321 25.0215C34.5321 24.7848 34.3403 24.593 34.1035 24.593C33.8668 24.593 33.6749 24.7848 33.6749 25.0215C33.6749 25.2583 33.8668 25.4501 34.1035 25.4501Z"/><path fill="#FFB700" d="M36.373 25.3725C36.5689 25.3725 36.724 25.2134 36.724 25.0215C36.724 24.8297 36.5649 24.6705 36.373 24.6705C36.1812 24.6705 36.022 24.8297 36.022 25.0215C36.022 25.2134 36.1812 25.3725 36.373 25.3725Z"/><path fill="#FFB700" d="M38.6427 25.2991C38.7937 25.2991 38.9202 25.1766 38.9202 25.0215C38.9202 24.8664 38.7978 24.744 38.6427 24.744C38.4876 24.744 38.3651 24.8664 38.3651 25.0215C38.3651 25.1766 38.4876 25.2991 38.6427 25.2991Z"/><path fill="#FFB700" d="M40.9161 25.2215C41.0265 25.2215 41.1161 25.132 41.1161 25.0215C41.1161 24.9111 41.0265 24.8215 40.9161 24.8215C40.8056 24.8215 40.7161 24.9111 40.7161 25.0215C40.7161 25.132 40.8056 25.2215 40.9161 25.2215Z"/><path fill="#FFB700" d="M43.1855 25.1399C43.2508 25.1399 43.3039 25.0868 43.3039 25.0215C43.3039 24.9562 43.2508 24.9031 43.1855 24.9031C43.1202 24.9031 43.0671 24.9562 43.0671 25.0215C43.0671 25.0868 43.1202 25.1399 43.1855 25.1399Z"/><path fill="#FFB700" d="M45.4551 25.0624C45.4795 25.0624 45.4999 25.042 45.4999 25.0175C45.4999 24.993 45.4795 24.9726 45.4551 24.9726C45.4306 24.9726 45.4102 24.993 45.4102 25.0175C45.4102 25.042 45.4306 25.0624 45.4551 25.0624Z"/><path fill="#FFB700" d="M0.0448685 27.3237C0.0448685 27.3237 0.0775176 27.3114 0.0775176 27.291C0.0775176 27.2706 0.0652776 27.2584 0.0448685 27.2584C0.0244595 27.2584 0.012207 27.2706 0.012207 27.291C0.012207 27.3114 0.0244595 27.3237 0.0448685 27.3237Z"/><path fill="#FFB700" d="M2.31433 27.3931C2.37068 27.3931 2.41637 27.3474 2.41637 27.291C2.41637 27.2347 2.37068 27.189 2.31433 27.189C2.25797 27.189 2.21228 27.2347 2.21228 27.291C2.21228 27.3474 2.25797 27.3931 2.31433 27.3931Z"/><path fill="#FFB700" d="M4.58798 27.4747C4.68943 27.4747 4.77166 27.3925 4.77166 27.291C4.77166 27.1896 4.68943 27.1074 4.58798 27.1074C4.48654 27.1074 4.4043 27.1896 4.4043 27.291C4.4043 27.3925 4.48654 27.4747 4.58798 27.4747Z"/><path fill="#FFB700" d="M6.85756 27.5441C6.99733 27.5441 7.11063 27.4308 7.11063 27.291C7.11063 27.1513 6.99733 27.038 6.85756 27.038C6.71779 27.038 6.60449 27.1513 6.60449 27.291C6.60449 27.4308 6.71779 27.5441 6.85756 27.5441Z"/><path fill="#FFB700" d="M9.12697 27.6176C9.30731 27.6176 9.45351 27.4714 9.45351 27.291C9.45351 27.1107 9.30731 26.9645 9.12697 26.9645C8.94662 26.9645 8.80042 27.1107 8.80042 27.291C8.80042 27.4714 8.94662 27.6176 9.12697 27.6176Z"/><path fill="#FFB700" d="M11.3965 27.6951C11.6197 27.6951 11.8006 27.5142 11.8006 27.291C11.8006 27.0678 11.6197 26.8869 11.3965 26.8869C11.1733 26.8869 10.9924 27.0678 10.9924 27.291C10.9924 27.5142 11.1733 27.6951 11.3965 27.6951Z"/><path fill="#FFB700" d="M13.67 27.7645C13.9313 27.7645 14.1435 27.5522 14.1435 27.291C14.1435 27.0298 13.9313 26.8175 13.67 26.8175C13.4088 26.8175 13.1965 27.0298 13.1965 27.291C13.1965 27.5522 13.4088 27.7645 13.67 27.7645Z"/><path fill="#FFB700" d="M15.9396 27.8339C16.2376 27.8339 16.4825 27.5931 16.4825 27.2911C16.4825 26.989 16.2417 26.7482 15.9396 26.7482C15.6376 26.7482 15.3967 26.989 15.3967 27.2911C15.3967 27.5931 15.6376 27.8339 15.9396 27.8339Z"/><path fill="#FFB700" d="M18.209 27.8869C18.5397 27.8869 18.8091 27.6175 18.8091 27.2869C18.8091 26.9563 18.5397 26.6869 18.209 26.6869C17.8784 26.6869 17.609 26.9563 17.609 27.2869C17.609 27.6175 17.8784 27.8869 18.209 27.8869Z"/><path fill="#FFB700" d="M20.4785 27.94C20.8377 27.94 21.1275 27.6502 21.1275 27.291C21.1275 26.9318 20.8377 26.642 20.4785 26.642C20.1193 26.642 19.8295 26.9318 19.8295 27.291C19.8295 27.6502 20.1193 27.94 20.4785 27.94Z"/><path fill="#FFB700" d="M22.7521 27.9563C23.1194 27.9563 23.4215 27.6584 23.4215 27.2869C23.4215 26.9155 23.1235 26.6175 22.7521 26.6175C22.3806 26.6175 22.0826 26.9155 22.0826 27.2869C22.0826 27.6584 22.3806 27.9563 22.7521 27.9563Z"/><path fill="#FFB700" d="M25.0216 27.94C25.3808 27.94 25.6706 27.6502 25.6706 27.291C25.6706 26.9318 25.3808 26.642 25.0216 26.642C24.6624 26.642 24.3726 26.9318 24.3726 27.291C24.3726 27.6502 24.6624 27.94 25.0216 27.94Z"/><path fill="#FFB700" d="M27.291 27.8951C27.6257 27.8951 27.8951 27.6257 27.8951 27.291C27.8951 26.9563 27.6257 26.6869 27.291 26.6869C26.9563 26.6869 26.6869 26.9563 26.6869 27.291C26.6869 27.6257 26.9563 27.8951 27.291 27.8951Z"/><path fill="#FFB700" d="M29.5605 27.8339C29.8584 27.8339 30.1033 27.5931 30.1033 27.2911C30.1033 26.989 29.8625 26.7482 29.5605 26.7482C29.2584 26.7482 29.0176 26.989 29.0176 27.2911C29.0176 27.5931 29.2584 27.8339 29.5605 27.8339Z"/><path fill="#FFB700" d="M31.834 27.7686C32.0978 27.7686 32.3116 27.5547 32.3116 27.291C32.3116 27.0272 32.0978 26.8134 31.834 26.8134C31.5703 26.8134 31.3564 27.0272 31.3564 27.291C31.3564 27.5547 31.5703 27.7686 31.834 27.7686Z"/><path fill="#FFB700" d="M34.1036 27.6951C34.3267 27.6951 34.5077 27.5142 34.5077 27.291C34.5077 27.0678 34.3267 26.8869 34.1036 26.8869C33.8804 26.8869 33.6995 27.0678 33.6995 27.291C33.6995 27.5142 33.8804 27.6951 34.1036 27.6951Z"/><path fill="#FFB700" d="M36.373 27.6257C36.5567 27.6257 36.7078 27.4747 36.7078 27.291C36.7078 27.1073 36.5567 26.9563 36.373 26.9563C36.1894 26.9563 36.0383 27.1073 36.0383 27.291C36.0383 27.4747 36.1894 27.6257 36.373 27.6257Z"/><path fill="#FFB700" d="M38.6425 27.5482C38.7846 27.5482 38.8997 27.4331 38.8997 27.291C38.8997 27.149 38.7846 27.0339 38.6425 27.0339C38.5005 27.0339 38.3854 27.149 38.3854 27.291C38.3854 27.4331 38.5005 27.5482 38.6425 27.5482Z"/><path fill="#FFB700" d="M40.9161 27.4747C41.0176 27.4747 41.0998 27.3925 41.0998 27.291C41.0998 27.1896 41.0176 27.1074 40.9161 27.1074C40.8147 27.1074 40.7324 27.1896 40.7324 27.291C40.7324 27.3925 40.8147 27.4747 40.9161 27.4747Z"/><path fill="#FFB700" d="M43.1856 27.3971C43.2427 27.3971 43.2917 27.3481 43.2917 27.291C43.2917 27.2339 43.2427 27.1849 43.1856 27.1849C43.1285 27.1849 43.0795 27.2339 43.0795 27.291C43.0795 27.3481 43.1285 27.3971 43.1856 27.3971Z"/><path fill="#FFB700" d="M45.4551 27.3277C45.4755 27.3277 45.4918 27.3114 45.4918 27.291C45.4918 27.2706 45.4755 27.2543 45.4551 27.2543C45.4347 27.2543 45.4183 27.2706 45.4183 27.291C45.4183 27.3114 45.4347 27.3277 45.4551 27.3277Z"/><path fill="#FFB700" d="M0.0449527 29.5809C0.0449527 29.5809 0.0653568 29.5728 0.0653568 29.5605C0.0653568 29.5483 0.0571981 29.5401 0.0449527 29.5401C0.0327072 29.5401 0.0245361 29.5483 0.0245361 29.5605C0.0245361 29.5728 0.0327072 29.5809 0.0449527 29.5809Z"/><path fill="#FFB700" d="M2.31443 29.6422C2.35952 29.6422 2.39607 29.6056 2.39607 29.5605C2.39607 29.5154 2.35952 29.4789 2.31443 29.4789C2.26934 29.4789 2.23279 29.5154 2.23279 29.5605C2.23279 29.6056 2.26934 29.6422 2.31443 29.6422Z"/><path fill="#FFB700" d="M4.58803 29.7197C4.67595 29.7197 4.74721 29.6484 4.74721 29.5605C4.74721 29.4726 4.67595 29.4013 4.58803 29.4013C4.50011 29.4013 4.42883 29.4726 4.42883 29.5605C4.42883 29.6484 4.50011 29.7197 4.58803 29.7197Z"/><path fill="#FFB700" d="M6.85749 29.7891C6.98373 29.7891 7.08607 29.6867 7.08607 29.5605C7.08607 29.4343 6.98373 29.3319 6.85749 29.3319C6.73124 29.3319 6.62891 29.4343 6.62891 29.5605C6.62891 29.6867 6.73124 29.7891 6.85749 29.7891Z"/><path fill="#FFB700" d="M9.12683 29.8585C9.29011 29.8585 9.42073 29.7278 9.42073 29.5605C9.42073 29.3931 9.29011 29.2666 9.12683 29.2666C8.96356 29.2666 8.82886 29.3972 8.82886 29.5605C8.82886 29.7238 8.95948 29.8585 9.12683 29.8585Z"/><path fill="#FFB700" d="M11.3964 29.9279C11.5964 29.9279 11.7596 29.7646 11.7596 29.5646C11.7596 29.3646 11.5964 29.2013 11.3964 29.2013C11.1964 29.2013 11.0331 29.3646 11.0331 29.5646C11.0331 29.7646 11.1964 29.9279 11.3964 29.9279Z"/><path fill="#FFB700" d="M13.6699 29.9891C13.9067 29.9891 14.0985 29.7972 14.0985 29.5605C14.0985 29.3237 13.9067 29.1319 13.6699 29.1319C13.4332 29.1319 13.2413 29.3237 13.2413 29.5605C13.2413 29.7972 13.4332 29.9891 13.6699 29.9891Z"/><path fill="#FFB700" d="M15.9395 30.0544C16.2089 30.0544 16.4293 29.834 16.4293 29.5646C16.4293 29.2952 16.2089 29.0748 15.9395 29.0748C15.6701 29.0748 15.4497 29.2952 15.4497 29.5646C15.4497 29.834 15.6701 30.0544 15.9395 30.0544Z"/><path fill="#FFB700" d="M18.2089 30.1034C18.5069 30.1034 18.7518 29.8626 18.7518 29.5605C18.7518 29.2585 18.511 29.0176 18.2089 29.0176C17.9068 29.0176 17.666 29.2585 17.666 29.5605C17.666 29.8626 17.9068 30.1034 18.2089 30.1034Z"/><path fill="#FFB700" d="M20.4784 30.1361C20.7968 30.1361 21.0499 29.8789 21.0499 29.5646C21.0499 29.2503 20.7927 28.9932 20.4784 28.9932C20.1641 28.9932 19.907 29.2503 19.907 29.5646C19.907 29.8789 20.1641 30.1361 20.4784 30.1361Z"/><path fill="#FFB700" d="M22.752 30.1442C23.0744 30.1442 23.3357 29.8829 23.3357 29.5605C23.3357 29.2381 23.0744 28.9768 22.752 28.9768C22.4297 28.9768 22.1683 29.2381 22.1683 29.5605C22.1683 29.8829 22.4297 30.1442 22.752 30.1442Z"/><path fill="#FFB700" d="M25.0215 30.1361C25.3399 30.1361 25.593 29.8789 25.593 29.5646C25.593 29.2503 25.3358 28.9932 25.0215 28.9932C24.7072 28.9932 24.4501 29.2503 24.4501 29.5646C24.4501 29.8789 24.7072 30.1361 25.0215 30.1361Z"/><path fill="#FFB700" d="M27.2909 30.1034C27.5889 30.1034 27.8338 29.8626 27.8338 29.5605C27.8338 29.2585 27.593 29.0176 27.2909 29.0176C26.9889 29.0176 26.748 29.2585 26.748 29.5605C26.748 29.8626 26.9889 30.1034 27.2909 30.1034Z"/><path fill="#FFB700" d="M29.5606 30.0544C29.83 30.0544 30.0504 29.834 30.0504 29.5646C30.0504 29.2952 29.83 29.0748 29.5606 29.0748C29.2912 29.0748 29.0708 29.2952 29.0708 29.5646C29.0708 29.834 29.2912 30.0544 29.5606 30.0544Z"/><path fill="#FFB700" d="M31.8342 29.9932C32.0731 29.9932 32.2668 29.7994 32.2668 29.5605C32.2668 29.3215 32.0731 29.1278 31.8342 29.1278C31.5952 29.1278 31.4015 29.3215 31.4015 29.5605C31.4015 29.7994 31.5952 29.9932 31.8342 29.9932Z"/><path fill="#FFB700" d="M34.1036 29.932C34.3077 29.932 34.4751 29.7646 34.4751 29.5605C34.4751 29.3564 34.3077 29.1891 34.1036 29.1891C33.8995 29.1891 33.7322 29.3564 33.7322 29.5605C33.7322 29.7646 33.8995 29.932 34.1036 29.932Z"/><path fill="#FFB700" d="M36.3731 29.8626C36.5404 29.8626 36.6751 29.7279 36.6751 29.5605C36.6751 29.3932 36.5404 29.2585 36.3731 29.2585C36.2057 29.2585 36.071 29.3932 36.071 29.5605C36.071 29.7279 36.2057 29.8626 36.3731 29.8626Z"/><path fill="#FFB700" d="M38.6426 29.7931C38.7711 29.7931 38.8752 29.689 38.8752 29.5605C38.8752 29.432 38.7711 29.3278 38.6426 29.3278C38.5141 29.3278 38.4099 29.432 38.4099 29.5605C38.4099 29.689 38.5141 29.7931 38.6426 29.7931Z"/><path fill="#FFB700" d="M40.9162 29.7197C41.0041 29.7197 41.0753 29.6484 41.0753 29.5605C41.0753 29.4726 41.0041 29.4013 40.9162 29.4013C40.8282 29.4013 40.757 29.4726 40.757 29.5605C40.757 29.6484 40.8282 29.7197 40.9162 29.7197Z"/><path fill="#FFB700" d="M43.1856 29.6503C43.2346 29.6503 43.2754 29.6095 43.2754 29.5605C43.2754 29.5115 43.2346 29.4707 43.1856 29.4707C43.1366 29.4707 43.0958 29.5115 43.0958 29.5605C43.0958 29.6095 43.1366 29.6503 43.1856 29.6503Z"/><path fill="#FFB700" d="M45.4551 29.5809C45.4664 29.5809 45.4755 29.5718 45.4755 29.5605C45.4755 29.5492 45.4664 29.5401 45.4551 29.5401C45.4438 29.5401 45.4347 29.5492 45.4347 29.5605C45.4347 29.5718 45.4438 29.5809 45.4551 29.5809Z"/><path fill="#FFB700" d="M0.0447927 31.8382C0.0447927 31.8382 0.0529518 31.8382 0.0529518 31.83C0.0529518 31.8218 0.0529563 31.8218 0.0447927 31.8218C0.0366291 31.8218 0.0366211 31.8218 0.0366211 31.83C0.0366211 31.8382 0.0366291 31.8382 0.0447927 31.8382Z"/><path fill="#FFB700" d="M2.31435 31.8871C2.34701 31.8871 2.37149 31.8626 2.37149 31.83C2.37149 31.7973 2.34701 31.7728 2.31435 31.7728C2.2817 31.7728 2.2572 31.7973 2.2572 31.83C2.2572 31.8626 2.2817 31.8871 2.31435 31.8871Z"/><path fill="#FFB700" d="M4.58808 31.9566C4.65797 31.9566 4.71462 31.8999 4.71462 31.83C4.71462 31.7601 4.65797 31.7035 4.58808 31.7035C4.5182 31.7035 4.46155 31.7601 4.46155 31.83C4.46155 31.8999 4.5182 31.9566 4.58808 31.9566Z"/><path fill="#FFB700" d="M6.85743 32.0259C6.96356 32.0259 7.05335 31.9402 7.05335 31.83C7.05335 31.7198 6.96764 31.6341 6.85743 31.6341C6.74722 31.6341 6.6615 31.7198 6.6615 31.83C6.6615 31.9402 6.74722 32.0259 6.85743 32.0259Z"/><path fill="#FFB700" d="M9.12691 32.0912C9.26977 32.0912 9.38406 31.9769 9.38406 31.8341C9.38406 31.6912 9.26977 31.5769 9.12691 31.5769C8.98404 31.5769 8.86975 31.6912 8.86975 31.8341C8.86975 31.9769 8.98404 32.0912 9.12691 32.0912Z"/><path fill="#FFB700" d="M11.3964 32.1524C11.572 32.1524 11.7189 32.0096 11.7189 31.83C11.7189 31.6504 11.576 31.5075 11.3964 31.5075C11.2168 31.5075 11.074 31.6504 11.074 31.83C11.074 32.0096 11.2168 32.1524 11.3964 32.1524Z"/><path fill="#FFB700" d="M13.6699 32.2178C13.8822 32.2178 14.0536 32.0463 14.0536 31.8341C14.0536 31.6218 13.8822 31.4504 13.6699 31.4504C13.4577 31.4504 13.2863 31.6218 13.2863 31.8341C13.2863 32.0463 13.4577 32.2178 13.6699 32.2178Z"/><path fill="#FFB700" d="M15.9396 32.2627C16.1786 32.2627 16.3723 32.069 16.3723 31.83C16.3723 31.5911 16.1786 31.3973 15.9396 31.3973C15.7007 31.3973 15.507 31.5911 15.507 31.83C15.507 32.069 15.7007 32.2627 15.9396 32.2627Z"/><path fill="#FFB700" d="M18.2091 32.3035C18.4703 32.3035 18.6826 32.0912 18.6826 31.83C18.6826 31.5688 18.4703 31.3565 18.2091 31.3565C17.9479 31.3565 17.7356 31.5688 17.7356 31.83C17.7356 32.0912 17.9479 32.3035 18.2091 32.3035Z"/><path fill="#FFB700" d="M20.4784 32.3362C20.7559 32.3362 20.9805 32.1117 20.9805 31.8341C20.9805 31.5565 20.7559 31.332 20.4784 31.332C20.2008 31.332 19.9763 31.5565 19.9763 31.8341C19.9763 32.1117 20.2008 32.3362 20.4784 32.3362Z"/><path fill="#FFB700" d="M22.7522 32.3402C23.034 32.3402 23.2624 32.1118 23.2624 31.83C23.2624 31.5482 23.034 31.3198 22.7522 31.3198C22.4704 31.3198 22.2419 31.5482 22.2419 31.83C22.2419 32.1118 22.4704 32.3402 22.7522 32.3402Z"/><path fill="#FFB700" d="M25.0215 32.3362C25.299 32.3362 25.5235 32.1117 25.5235 31.8341C25.5235 31.5565 25.299 31.332 25.0215 31.332C24.7439 31.332 24.5194 31.5565 24.5194 31.8341C24.5194 32.1117 24.7439 32.3362 25.0215 32.3362Z"/><path fill="#FFB700" d="M27.2911 32.3117C27.5564 32.3117 27.7686 32.0994 27.7686 31.8341C27.7686 31.5688 27.5564 31.3565 27.2911 31.3565C27.0257 31.3565 26.8135 31.5688 26.8135 31.8341C26.8135 32.0994 27.0257 32.3117 27.2911 32.3117Z"/><path fill="#FFB700" d="M29.5605 32.2627C29.7994 32.2627 29.9932 32.069 29.9932 31.83C29.9932 31.5911 29.7994 31.3973 29.5605 31.3973C29.3215 31.3973 29.1278 31.5911 29.1278 31.83C29.1278 32.069 29.3215 32.2627 29.5605 32.2627Z"/><path fill="#FFB700" d="M31.834 32.2178C32.0463 32.2178 32.2177 32.0463 32.2177 31.8341C32.2177 31.6218 32.0463 31.4504 31.834 31.4504C31.6218 31.4504 31.4503 31.6218 31.4503 31.8341C31.4503 32.0463 31.6218 32.2178 31.834 32.2178Z"/><path fill="#FFB700" d="M34.1035 32.1606C34.2831 32.1606 34.4301 32.0137 34.4301 31.8341C34.4301 31.6545 34.2831 31.5075 34.1035 31.5075C33.9239 31.5075 33.777 31.6545 33.777 31.8341C33.777 32.0137 33.9239 32.1606 34.1035 32.1606Z"/><path fill="#FFB700" d="M36.373 32.0953C36.5199 32.0953 36.6383 31.9769 36.6383 31.83C36.6383 31.683 36.5199 31.5646 36.373 31.5646C36.226 31.5646 36.1077 31.683 36.1077 31.83C36.1077 31.9769 36.226 32.0953 36.373 32.0953Z"/><path fill="#FFB700" d="M38.6426 32.0341C38.7528 32.0341 38.8426 31.9443 38.8426 31.8341C38.8426 31.7239 38.7528 31.6341 38.6426 31.6341C38.5324 31.6341 38.4426 31.7239 38.4426 31.8341C38.4426 31.9443 38.5324 32.0341 38.6426 32.0341Z"/><path fill="#FFB700" d="M40.9161 31.9647C40.9896 31.9647 41.0468 31.9035 41.0468 31.8341C41.0468 31.7647 40.9855 31.7035 40.9161 31.7035C40.8468 31.7035 40.7855 31.7647 40.7855 31.8341C40.7855 31.9035 40.8468 31.9647 40.9161 31.9647Z"/><path fill="#FFB700" d="M43.1856 31.8953C43.2224 31.8953 43.2468 31.8667 43.2468 31.8341C43.2468 31.8014 43.2183 31.7728 43.1856 31.7728C43.153 31.7728 43.1244 31.8014 43.1244 31.8341C43.1244 31.8667 43.153 31.8953 43.1856 31.8953Z"/><path fill="#FFB700" d="M45.4551 31.8382C45.4551 31.8382 45.4632 31.8382 45.4632 31.83C45.4632 31.8218 45.4632 31.8218 45.4551 31.8218C45.4469 31.8218 45.4469 31.8218 45.4469 31.83C45.4469 31.8382 45.4469 31.8382 45.4551 31.8382Z"/><path fill="#FFB700" d="M2.31428 34.1281C2.32781 34.1281 2.33877 34.1171 2.33877 34.1036C2.33877 34.0901 2.32781 34.0791 2.31428 34.0791C2.30076 34.0791 2.28979 34.0901 2.28979 34.1036C2.28979 34.1171 2.30076 34.1281 2.31428 34.1281Z"/><path fill="#FFB700" d="M4.58797 34.1892C4.63695 34.1892 4.67777 34.1484 4.67777 34.0994C4.67777 34.0505 4.63695 34.0096 4.58797 34.0096C4.53899 34.0096 4.49817 34.0505 4.49817 34.0994C4.49817 34.1484 4.53899 34.1892 4.58797 34.1892Z"/><path fill="#FFB700" d="M6.85757 34.2546C6.94098 34.2546 7.00859 34.187 7.00859 34.1036C7.00859 34.0202 6.94098 33.9526 6.85757 33.9526C6.77416 33.9526 6.70654 34.0202 6.70654 34.1036C6.70654 34.187 6.77416 34.2546 6.85757 34.2546Z"/><path fill="#FFB700" d="M9.12694 34.3159C9.24531 34.3159 9.33919 34.222 9.33919 34.1036C9.33919 33.9852 9.24531 33.8914 9.12694 33.8914C9.00856 33.8914 8.91467 33.9852 8.91467 34.1036C8.91467 34.222 9.00856 34.3159 9.12694 34.3159Z"/><path fill="#FFB700" d="M11.3964 34.373C11.5451 34.373 11.6658 34.2524 11.6658 34.1036C11.6658 33.9548 11.5451 33.8342 11.3964 33.8342C11.2476 33.8342 11.127 33.9548 11.127 34.1036C11.127 34.2524 11.2476 34.373 11.3964 34.373Z"/><path fill="#FFB700" d="M13.6701 34.422C13.8456 34.422 13.9926 34.2791 13.9926 34.0995C13.9926 33.9199 13.8497 33.777 13.6701 33.777C13.4905 33.777 13.3477 33.9199 13.3477 34.0995C13.3477 34.2791 13.4905 34.422 13.6701 34.422Z"/><path fill="#FFB700" d="M15.9396 34.475C16.1437 34.475 16.311 34.3077 16.311 34.1036C16.311 33.8995 16.1437 33.7321 15.9396 33.7321C15.7355 33.7321 15.5681 33.8995 15.5681 34.1036C15.5681 34.3077 15.7355 34.475 15.9396 34.475Z"/><path fill="#FFB700" d="M18.209 34.5077C18.4322 34.5077 18.6131 34.3267 18.6131 34.1036C18.6131 33.8804 18.4322 33.6995 18.209 33.6995C17.9858 33.6995 17.8049 33.8804 17.8049 34.1036C17.8049 34.3267 17.9858 34.5077 18.209 34.5077Z"/><path fill="#FFB700" d="M20.4785 34.5322C20.7153 34.5322 20.9071 34.3403 20.9071 34.1036C20.9071 33.8668 20.7153 33.675 20.4785 33.675C20.2418 33.675 20.0499 33.8668 20.0499 34.1036C20.0499 34.3403 20.2418 34.5322 20.4785 34.5322Z"/><path fill="#FFB700" d="M22.7521 34.5362C22.9911 34.5362 23.1848 34.3425 23.1848 34.1036C23.1848 33.8646 22.9911 33.6709 22.7521 33.6709C22.5132 33.6709 22.3195 33.8646 22.3195 34.1036C22.3195 34.3425 22.5132 34.5362 22.7521 34.5362Z"/><path fill="#FFB700" d="M25.0215 34.5322C25.2582 34.5322 25.4501 34.3403 25.4501 34.1036C25.4501 33.8669 25.2582 33.675 25.0215 33.675C24.7848 33.675 24.5929 33.8669 24.5929 34.1036C24.5929 34.3403 24.7848 34.5322 25.0215 34.5322Z"/><path fill="#FFB700" d="M27.2911 34.5077C27.5142 34.5077 27.6952 34.3267 27.6952 34.1036C27.6952 33.8804 27.5142 33.6995 27.2911 33.6995C27.0679 33.6995 26.887 33.8804 26.887 34.1036C26.887 34.3267 27.0679 34.5077 27.2911 34.5077Z"/><path fill="#FFB700" d="M29.5604 34.475C29.7645 34.475 29.9319 34.3077 29.9319 34.1036C29.9319 33.8995 29.7645 33.7321 29.5604 33.7321C29.3563 33.7321 29.189 33.8995 29.189 34.1036C29.189 34.3077 29.3563 34.475 29.5604 34.475Z"/><path fill="#FFB700" d="M31.8341 34.4301C32.0145 34.4301 32.1607 34.2839 32.1607 34.1036C32.1607 33.9232 32.0145 33.777 31.8341 33.777C31.6538 33.777 31.5076 33.9232 31.5076 34.1036C31.5076 34.2839 31.6538 34.4301 31.8341 34.4301Z"/><path fill="#FFB700" d="M34.1036 34.3811C34.2569 34.3811 34.3812 34.2568 34.3812 34.1036C34.3812 33.9503 34.2569 33.826 34.1036 33.826C33.9503 33.826 33.826 33.9503 33.826 34.1036C33.826 34.2568 33.9503 34.3811 34.1036 34.3811Z"/><path fill="#FFB700" d="M36.373 34.324C36.4955 34.324 36.5934 34.2261 36.5934 34.1036C36.5934 33.9811 36.4955 33.8832 36.373 33.8832C36.2506 33.8832 36.1526 33.9811 36.1526 34.1036C36.1526 34.2261 36.2506 34.324 36.373 34.324Z"/><path fill="#FFB700" d="M38.6425 34.2628C38.7304 34.2628 38.8017 34.1915 38.8017 34.1036C38.8017 34.0157 38.7304 33.9444 38.6425 33.9444C38.5546 33.9444 38.4833 34.0157 38.4833 34.1036C38.4833 34.1915 38.5546 34.2628 38.6425 34.2628Z"/><path fill="#FFB700" d="M40.916 34.1974C40.9691 34.1974 41.0099 34.1566 41.0099 34.1035C41.0099 34.0505 40.9691 34.0096 40.916 34.0096C40.863 34.0096 40.8221 34.0505 40.8221 34.1035C40.8221 34.1566 40.863 34.1974 40.916 34.1974Z"/><path fill="#FFB700" d="M43.1857 34.1281C43.1993 34.1281 43.2102 34.1171 43.2102 34.1036C43.2102 34.0901 43.1993 34.0791 43.1857 34.0791C43.1722 34.0791 43.1613 34.0901 43.1613 34.1036C43.1613 34.1171 43.1722 34.1281 43.1857 34.1281Z"/><path fill="#FFB700" d="M2.31431 36.3771C2.31431 36.3771 2.32247 36.3771 2.32247 36.3689C2.32247 36.3608 2.32248 36.3608 2.31431 36.3608C2.30615 36.3608 2.30615 36.3608 2.30615 36.3689C2.30615 36.3771 2.30615 36.3771 2.31431 36.3771Z"/><path fill="#FFB700" d="M4.58788 36.4179C4.61267 36.4179 4.63277 36.3978 4.63277 36.373C4.63277 36.3482 4.61267 36.3281 4.58788 36.3281C4.56308 36.3281 4.54297 36.3482 4.54297 36.373C4.54297 36.3978 4.56308 36.4179 4.58788 36.4179Z"/><path fill="#FFB700" d="M6.85747 36.4792C6.91462 36.4792 6.96359 36.4302 6.96359 36.373C6.96359 36.3159 6.91462 36.2669 6.85747 36.2669C6.80033 36.2669 6.75134 36.3159 6.75134 36.373C6.75134 36.4302 6.80033 36.4792 6.85747 36.4792Z"/><path fill="#FFB700" d="M9.12689 36.5363C9.21669 36.5363 9.29016 36.4629 9.29016 36.3731C9.29016 36.2833 9.21669 36.2098 9.12689 36.2098C9.03709 36.2098 8.96362 36.2833 8.96362 36.3731C8.96362 36.4629 9.03709 36.5363 9.12689 36.5363Z"/><path fill="#FFB700" d="M11.3963 36.5853C11.5147 36.5853 11.6086 36.4914 11.6086 36.373C11.6086 36.2546 11.5147 36.1608 11.3963 36.1608C11.278 36.1608 11.1841 36.2546 11.1841 36.373C11.1841 36.4914 11.278 36.5853 11.3963 36.5853Z"/><path fill="#FFB700" d="M13.67 36.6302C13.812 36.6302 13.9272 36.5151 13.9272 36.3731C13.9272 36.231 13.812 36.1159 13.67 36.1159C13.528 36.1159 13.4128 36.231 13.4128 36.3731C13.4128 36.5151 13.528 36.6302 13.67 36.6302Z"/><path fill="#FFB700" d="M15.9395 36.6751C16.1063 36.6751 16.2416 36.5399 16.2416 36.373C16.2416 36.2062 16.1063 36.071 15.9395 36.071C15.7727 36.071 15.6375 36.2062 15.6375 36.373C15.6375 36.5399 15.7727 36.6751 15.9395 36.6751Z"/><path fill="#FFB700" d="M18.209 36.6996C18.3893 36.6996 18.5355 36.5534 18.5355 36.3731C18.5355 36.1927 18.3893 36.0465 18.209 36.0465C18.0287 36.0465 17.8824 36.1927 17.8824 36.3731C17.8824 36.5534 18.0287 36.6996 18.209 36.6996Z"/><path fill="#FFB700" d="M20.4785 36.7241C20.6724 36.7241 20.8295 36.5669 20.8295 36.3731C20.8295 36.1792 20.6724 36.022 20.4785 36.022C20.2846 36.022 20.1274 36.1792 20.1274 36.3731C20.1274 36.5669 20.2846 36.7241 20.4785 36.7241Z"/><path fill="#FFB700" d="M22.752 36.7323C22.9504 36.7323 23.1112 36.5714 23.1112 36.3731C23.1112 36.1747 22.9504 36.0139 22.752 36.0139C22.5536 36.0139 22.3928 36.1747 22.3928 36.3731C22.3928 36.5714 22.5536 36.7323 22.752 36.7323Z"/><path fill="#FFB700" d="M25.0215 36.7241C25.2153 36.7241 25.3725 36.5669 25.3725 36.3731C25.3725 36.1792 25.2153 36.022 25.0215 36.022C24.8276 36.022 24.6704 36.1792 24.6704 36.3731C24.6704 36.5669 24.8276 36.7241 25.0215 36.7241Z"/><path fill="#FFB700" d="M27.291 36.7078C27.4759 36.7078 27.6257 36.558 27.6257 36.3731C27.6257 36.1882 27.4759 36.0384 27.291 36.0384C27.1062 36.0384 26.9563 36.1882 26.9563 36.3731C26.9563 36.558 27.1062 36.7078 27.291 36.7078Z"/><path fill="#FFB700" d="M29.5606 36.6751C29.7279 36.6751 29.8626 36.5404 29.8626 36.373C29.8626 36.2057 29.7279 36.071 29.5606 36.071C29.3932 36.071 29.2585 36.2057 29.2585 36.373C29.2585 36.5404 29.3932 36.6751 29.5606 36.6751Z"/><path fill="#FFB700" d="M31.8341 36.6384C31.981 36.6384 32.0994 36.52 32.0994 36.373C32.0994 36.2261 31.981 36.1077 31.8341 36.1077C31.6871 36.1077 31.5687 36.2261 31.5687 36.373C31.5687 36.52 31.6871 36.6384 31.8341 36.6384Z"/><path fill="#FFB700" d="M34.1035 36.5934C34.2259 36.5934 34.3239 36.4955 34.3239 36.373C34.3239 36.2506 34.2259 36.1526 34.1035 36.1526C33.981 36.1526 33.8831 36.2506 33.8831 36.373C33.8831 36.4955 33.981 36.5934 34.1035 36.5934Z"/><path fill="#FFB700" d="M36.373 36.5363C36.4628 36.5363 36.5363 36.4629 36.5363 36.3731C36.5363 36.2833 36.4628 36.2098 36.373 36.2098C36.2832 36.2098 36.2097 36.2833 36.2097 36.3731C36.2097 36.4629 36.2832 36.5363 36.373 36.5363Z"/><path fill="#FFB700" d="M38.6426 36.4792C38.7012 36.4792 38.7488 36.4316 38.7488 36.373C38.7488 36.3144 38.7012 36.2669 38.6426 36.2669C38.584 36.2669 38.5365 36.3144 38.5365 36.373C38.5365 36.4316 38.584 36.4792 38.6426 36.4792Z"/><path fill="#FFB700" d="M40.9162 36.4221C40.9432 36.4221 40.9651 36.4001 40.9651 36.3731C40.9651 36.346 40.9432 36.3241 40.9162 36.3241C40.8891 36.3241 40.8672 36.346 40.8672 36.3731C40.8672 36.4001 40.8891 36.4221 40.9162 36.4221Z"/><path fill="#FFB700" d="M43.1855 36.3771C43.1855 36.3771 43.1937 36.3771 43.1937 36.3689C43.1937 36.3608 43.1937 36.3608 43.1855 36.3608C43.1774 36.3608 43.1774 36.3608 43.1774 36.3689C43.1774 36.3771 43.1774 36.3771 43.1855 36.3771Z"/><path fill="#FFB700" d="M4.58801 38.6507C4.58801 38.6507 4.59616 38.6507 4.59616 38.6426C4.59616 38.6344 4.59617 38.6344 4.58801 38.6344C4.57984 38.6344 4.57983 38.6344 4.57983 38.6426C4.57983 38.6507 4.57984 38.6507 4.58801 38.6507Z"/><path fill="#FFB700" d="M6.85757 38.6997C6.89022 38.6997 6.91471 38.6752 6.91471 38.6425C6.91471 38.6099 6.89022 38.5854 6.85757 38.5854C6.82491 38.5854 6.80042 38.6099 6.80042 38.6425C6.80042 38.6752 6.82491 38.6997 6.85757 38.6997Z"/><path fill="#FFB700" d="M9.12701 38.7487C9.18415 38.7487 9.23314 38.6997 9.23314 38.6426C9.23314 38.5854 9.18415 38.5364 9.12701 38.5364C9.06986 38.5364 9.02087 38.5854 9.02087 38.6426C9.02087 38.6997 9.06986 38.7487 9.12701 38.7487Z"/><path fill="#FFB700" d="M11.3964 38.7936C11.478 38.7936 11.5474 38.7242 11.5474 38.6425C11.5474 38.5609 11.478 38.4915 11.3964 38.4915C11.3148 38.4915 11.2454 38.5609 11.2454 38.6425C11.2454 38.7242 11.3148 38.7936 11.3964 38.7936Z"/><path fill="#FFB700" d="M13.6699 38.8384C13.7761 38.8384 13.8658 38.7527 13.8658 38.6425C13.8658 38.5323 13.7801 38.4466 13.6699 38.4466C13.5597 38.4466 13.474 38.5323 13.474 38.6425C13.474 38.7527 13.5597 38.8384 13.6699 38.8384Z"/><path fill="#FFB700" d="M15.9395 38.8752C16.0701 38.8752 16.1721 38.7691 16.1721 38.6425C16.1721 38.516 16.066 38.4099 15.9395 38.4099C15.8129 38.4099 15.7068 38.516 15.7068 38.6425C15.7068 38.7691 15.8129 38.8752 15.9395 38.8752Z"/><path fill="#FFB700" d="M18.2089 38.8997C18.3518 38.8997 18.4661 38.7854 18.4661 38.6425C18.4661 38.4997 18.3518 38.3854 18.2089 38.3854C18.0661 38.3854 17.9518 38.4997 17.9518 38.6425C17.9518 38.7854 18.0661 38.8997 18.2089 38.8997Z"/><path fill="#FFB700" d="M20.4784 38.9161C20.6294 38.9161 20.7478 38.7936 20.7478 38.6467C20.7478 38.4997 20.6253 38.3773 20.4784 38.3773C20.3314 38.3773 20.209 38.4997 20.209 38.6467C20.209 38.7936 20.3314 38.9161 20.4784 38.9161Z"/><path fill="#FFB700" d="M22.7521 38.9201C22.9031 38.9201 23.0296 38.7977 23.0296 38.6426C23.0296 38.4874 22.9072 38.365 22.7521 38.365C22.597 38.365 22.4745 38.4874 22.4745 38.6426C22.4745 38.7977 22.597 38.9201 22.7521 38.9201Z"/><path fill="#FFB700" d="M25.0216 38.9201C25.1726 38.9201 25.2991 38.7977 25.2991 38.6426C25.2991 38.4874 25.1767 38.365 25.0216 38.365C24.8665 38.365 24.744 38.4874 24.744 38.6426C24.744 38.7977 24.8665 38.9201 25.0216 38.9201Z"/><path fill="#FFB700" d="M27.291 38.8997C27.4338 38.8997 27.5481 38.7854 27.5481 38.6425C27.5481 38.4997 27.4338 38.3854 27.291 38.3854C27.1481 38.3854 27.0338 38.4997 27.0338 38.6425C27.0338 38.7854 27.1481 38.8997 27.291 38.8997Z"/><path fill="#FFB700" d="M29.5605 38.8752C29.6912 38.8752 29.7932 38.7691 29.7932 38.6425C29.7932 38.516 29.6871 38.4099 29.5605 38.4099C29.434 38.4099 29.3279 38.516 29.3279 38.6425C29.3279 38.7691 29.434 38.8752 29.5605 38.8752Z"/><path fill="#FFB700" d="M31.8341 38.8466C31.9443 38.8466 32.0341 38.7568 32.0341 38.6466C32.0341 38.5364 31.9443 38.4466 31.8341 38.4466C31.7238 38.4466 31.634 38.5364 31.634 38.6466C31.634 38.7568 31.7238 38.8466 31.8341 38.8466Z"/><path fill="#FFB700" d="M34.1037 38.8018C34.1894 38.8018 34.2628 38.7324 34.2628 38.6426C34.2628 38.5528 34.1935 38.4834 34.1037 38.4834C34.0139 38.4834 33.9445 38.5528 33.9445 38.6426C33.9445 38.7324 34.0139 38.8018 34.1037 38.8018Z"/><path fill="#FFB700" d="M36.3731 38.7487C36.4302 38.7487 36.4792 38.6997 36.4792 38.6426C36.4792 38.5854 36.4302 38.5364 36.3731 38.5364C36.316 38.5364 36.267 38.5854 36.267 38.6426C36.267 38.6997 36.316 38.7487 36.3731 38.7487Z"/><path fill="#FFB700" d="M38.6425 38.6997C38.6751 38.6997 38.6996 38.6752 38.6996 38.6425C38.6996 38.6099 38.6751 38.5854 38.6425 38.5854C38.6098 38.5854 38.5853 38.6099 38.5853 38.6425C38.5853 38.6752 38.6098 38.6997 38.6425 38.6997Z"/><path fill="#FFB700" d="M40.9161 38.6548C40.9161 38.6548 40.9283 38.6507 40.9283 38.6426C40.9283 38.6344 40.9242 38.6303 40.9161 38.6303C40.9079 38.6303 40.9038 38.6344 40.9038 38.6426C40.9038 38.6507 40.9079 38.6548 40.9161 38.6548Z"/><path fill="#FFB700" d="M6.85741 40.9202C6.85741 40.9202 6.86557 40.9202 6.86557 40.912C6.86557 40.9039 6.86558 40.9039 6.85741 40.9039C6.84925 40.9039 6.84924 40.9039 6.84924 40.912C6.84924 40.9202 6.84925 40.9202 6.85741 40.9202Z"/><path fill="#FFB700" d="M9.12694 40.9569C9.15143 40.9569 9.17183 40.9365 9.17183 40.912C9.17183 40.8875 9.15143 40.8671 9.12694 40.8671C9.10245 40.8671 9.08203 40.8875 9.08203 40.912C9.08203 40.9365 9.10245 40.9569 9.12694 40.9569Z"/><path fill="#FFB700" d="M11.3966 41.0019C11.4455 41.0019 11.4864 40.961 11.4864 40.9121C11.4864 40.8631 11.4455 40.8223 11.3966 40.8223C11.3476 40.8223 11.3068 40.8631 11.3068 40.9121C11.3068 40.961 11.3476 41.0019 11.3966 41.0019Z"/><path fill="#FFB700" d="M13.6701 41.0386C13.74 41.0386 13.7966 40.9819 13.7966 40.9121C13.7966 40.8422 13.74 40.7855 13.6701 40.7855C13.6002 40.7855 13.5436 40.8422 13.5436 40.9121C13.5436 40.9819 13.6002 41.0386 13.6701 41.0386Z"/><path fill="#FFB700" d="M15.9396 41.0712C16.0253 41.0712 16.0988 41.0018 16.0988 40.912C16.0988 40.8222 16.0294 40.7528 15.9396 40.7528C15.8498 40.7528 15.7804 40.8222 15.7804 40.912C15.7804 41.0018 15.8498 41.0712 15.9396 41.0712Z"/><path fill="#FFB700" d="M18.2091 41.0958C18.3105 41.0958 18.3928 41.0135 18.3928 40.9121C18.3928 40.8106 18.3105 40.7284 18.2091 40.7284C18.1076 40.7284 18.0254 40.8106 18.0254 40.9121C18.0254 41.0135 18.1076 41.0958 18.2091 41.0958Z"/><path fill="#FFB700" d="M20.4784 41.108C20.5845 41.108 20.6743 41.0223 20.6743 40.9121C20.6743 40.8018 20.5886 40.7161 20.4784 40.7161C20.3682 40.7161 20.2825 40.8018 20.2825 40.9121C20.2825 41.0223 20.3682 41.108 20.4784 41.108Z"/><path fill="#FFB700" d="M22.752 41.1121C22.8625 41.1121 22.952 41.0225 22.952 40.912C22.952 40.8016 22.8625 40.712 22.752 40.712C22.6416 40.712 22.552 40.8016 22.552 40.912C22.552 41.0225 22.6416 41.1121 22.752 41.1121Z"/><path fill="#FFB700" d="M25.0216 41.1121C25.132 41.1121 25.2216 41.0225 25.2216 40.912C25.2216 40.8016 25.132 40.712 25.0216 40.712C24.9111 40.712 24.8215 40.8016 24.8215 40.912C24.8215 41.0225 24.9111 41.1121 25.0216 41.1121Z"/><path fill="#FFB700" d="M27.2911 41.0958C27.3926 41.0958 27.4748 41.0135 27.4748 40.9121C27.4748 40.8106 27.3926 40.7284 27.2911 40.7284C27.1897 40.7284 27.1074 40.8106 27.1074 40.9121C27.1074 41.0135 27.1897 41.0958 27.2911 41.0958Z"/><path fill="#FFB700" d="M29.5604 41.0712C29.6462 41.0712 29.7196 41.0018 29.7196 40.912C29.7196 40.8222 29.6502 40.7528 29.5604 40.7528C29.4706 40.7528 29.4012 40.8222 29.4012 40.912C29.4012 41.0018 29.4706 41.0712 29.5604 41.0712Z"/><path fill="#FFB700" d="M31.834 41.0427C31.9061 41.0427 31.9646 40.9842 31.9646 40.9121C31.9646 40.8399 31.9061 40.7814 31.834 40.7814C31.7619 40.7814 31.7034 40.8399 31.7034 40.9121C31.7034 40.9842 31.7619 41.0427 31.834 41.0427Z"/><path fill="#FFB700" d="M34.1035 41.01C34.1566 41.01 34.1974 40.9692 34.1974 40.9161C34.1974 40.8631 34.1566 40.8223 34.1035 40.8223C34.0505 40.8223 34.0096 40.8631 34.0096 40.9161C34.0096 40.9692 34.0505 41.01 34.1035 41.01Z"/><path fill="#FFB700" d="M36.3732 40.961C36.4003 40.961 36.4222 40.9391 36.4222 40.912C36.4222 40.885 36.4003 40.863 36.3732 40.863C36.3461 40.863 36.3242 40.885 36.3242 40.912C36.3242 40.9391 36.3461 40.961 36.3732 40.961Z"/><path fill="#FFB700" d="M38.6426 40.9284C38.6426 40.9284 38.6549 40.9243 38.6549 40.9161C38.6549 40.908 38.6508 40.9039 38.6426 40.9039C38.6345 40.9039 38.6304 40.908 38.6304 40.9161C38.6304 40.9243 38.6345 40.9284 38.6426 40.9284Z"/><path fill="#FFB700" d="M9.12682 43.1897C9.12682 43.1897 9.13498 43.1897 9.13498 43.1815C9.13498 43.1733 9.13499 43.1733 9.12682 43.1733C9.11866 43.1733 9.11865 43.1733 9.11865 43.1815C9.11865 43.1897 9.11866 43.1897 9.12682 43.1897Z"/><path fill="#FFB700" d="M11.3963 43.2101C11.4098 43.2101 11.4208 43.1991 11.4208 43.1856C11.4208 43.1721 11.4098 43.1611 11.3963 43.1611C11.3828 43.1611 11.3718 43.1721 11.3718 43.1856C11.3718 43.1991 11.3828 43.2101 11.3963 43.2101Z"/><path fill="#FFB700" d="M13.6701 43.2428C13.7027 43.2428 13.7272 43.2183 13.7272 43.1856C13.7272 43.153 13.7027 43.1285 13.6701 43.1285C13.6374 43.1285 13.6129 43.153 13.6129 43.1856C13.6129 43.2183 13.6374 43.2428 13.6701 43.2428Z"/><path fill="#FFB700" d="M15.9395 43.2713C15.9885 43.2713 16.0293 43.2305 16.0293 43.1815C16.0293 43.1325 15.9885 43.0917 15.9395 43.0917C15.8906 43.0917 15.8497 43.1325 15.8497 43.1815C15.8497 43.2305 15.8906 43.2713 15.9395 43.2713Z"/><path fill="#FFB700" d="M18.209 43.2917C18.2676 43.2917 18.3152 43.2442 18.3152 43.1856C18.3152 43.127 18.2676 43.0795 18.209 43.0795C18.1504 43.0795 18.1029 43.127 18.1029 43.1856C18.1029 43.2442 18.1504 43.2917 18.209 43.2917Z"/><path fill="#FFB700" d="M20.4785 43.304C20.5438 43.304 20.5969 43.2509 20.5969 43.1856C20.5969 43.1203 20.5438 43.0673 20.4785 43.0673C20.4132 43.0673 20.3601 43.1203 20.3601 43.1856C20.3601 43.2509 20.4132 43.304 20.4785 43.304Z"/><path fill="#FFB700" d="M22.7521 43.3122C22.822 43.3122 22.8787 43.2555 22.8787 43.1856C22.8787 43.1157 22.822 43.0591 22.7521 43.0591C22.6823 43.0591 22.6256 43.1157 22.6256 43.1856C22.6256 43.2555 22.6823 43.3122 22.7521 43.3122Z"/><path fill="#FFB700" d="M25.0215 43.304C25.0868 43.304 25.1398 43.251 25.1398 43.1856C25.1398 43.1203 25.0868 43.0673 25.0215 43.0673C24.9561 43.0673 24.9031 43.1203 24.9031 43.1856C24.9031 43.251 24.9561 43.304 25.0215 43.304Z"/><path fill="#FFB700" d="M27.2911 43.2917C27.3497 43.2917 27.3972 43.2442 27.3972 43.1856C27.3972 43.127 27.3497 43.0795 27.2911 43.0795C27.2325 43.0795 27.1849 43.127 27.1849 43.1856C27.1849 43.2442 27.2325 43.2917 27.2911 43.2917Z"/><path fill="#FFB700" d="M29.5606 43.2713C29.6096 43.2713 29.6504 43.2305 29.6504 43.1815C29.6504 43.1325 29.6096 43.0917 29.5606 43.0917C29.5116 43.0917 29.4708 43.1325 29.4708 43.1815C29.4708 43.2305 29.5116 43.2713 29.5606 43.2713Z"/><path fill="#FFB700" d="M31.8341 43.2468C31.8708 43.2468 31.8953 43.2183 31.8953 43.1856C31.8953 43.153 31.8667 43.1244 31.8341 43.1244C31.8014 43.1244 31.7728 43.153 31.7728 43.1856C31.7728 43.2183 31.8014 43.2468 31.8341 43.2468Z"/><path fill="#FFB700" d="M34.1037 43.2101C34.1172 43.2101 34.1282 43.1991 34.1282 43.1856C34.1282 43.1721 34.1172 43.1611 34.1037 43.1611C34.0902 43.1611 34.0792 43.1721 34.0792 43.1856C34.0792 43.1991 34.0902 43.2101 34.1037 43.2101Z"/><path fill="#FFB700" d="M36.373 43.1897C36.373 43.1897 36.3812 43.1897 36.3812 43.1815C36.3812 43.1733 36.3812 43.1733 36.373 43.1733C36.3649 43.1733 36.3649 43.1733 36.3649 43.1815C36.3649 43.1897 36.3649 43.1897 36.373 43.1897Z"/><path fill="#FFB700" d="M13.67 45.4632C13.67 45.4632 13.6782 45.4632 13.6782 45.4551C13.6782 45.4469 13.6782 45.4469 13.67 45.4469C13.6619 45.4469 13.6619 45.4469 13.6619 45.4551C13.6619 45.4632 13.6619 45.4632 13.67 45.4632Z"/><path fill="#FFB700" d="M15.9395 45.4755C15.9395 45.4755 15.9599 45.4673 15.9599 45.4551C15.9599 45.4429 15.9517 45.4347 15.9395 45.4347C15.9272 45.4347 15.9191 45.4429 15.9191 45.4551C15.9191 45.4673 15.9272 45.4755 15.9395 45.4755Z"/><path fill="#FFB700" d="M18.2089 45.4878C18.2089 45.4878 18.2416 45.4755 18.2416 45.4551C18.2416 45.4347 18.2293 45.4225 18.2089 45.4225C18.1885 45.4225 18.1763 45.4347 18.1763 45.4551C18.1763 45.4755 18.1885 45.4878 18.2089 45.4878Z"/><path fill="#FFB700" d="M20.4785 45.5C20.503 45.5 20.5234 45.4796 20.5234 45.4551C20.5234 45.4306 20.503 45.4102 20.4785 45.4102C20.454 45.4102 20.4336 45.4306 20.4336 45.4551C20.4336 45.4796 20.454 45.5 20.4785 45.5Z"/><path fill="#FFB700" d="M22.7519 45.5C22.7764 45.5 22.7968 45.4796 22.7968 45.4551C22.7968 45.4306 22.7764 45.4102 22.7519 45.4102C22.7274 45.4102 22.707 45.4306 22.707 45.4551C22.707 45.4796 22.7274 45.5 22.7519 45.5Z"/><path fill="#FFB700" d="M25.0215 45.5C25.046 45.5 25.0664 45.4796 25.0664 45.4551C25.0664 45.4306 25.046 45.4102 25.0215 45.4102C24.997 45.4102 24.9766 45.4306 24.9766 45.4551C24.9766 45.4796 24.997 45.5 25.0215 45.5Z"/><path fill="#FFB700" d="M27.291 45.4919C27.3114 45.4919 27.3277 45.4755 27.3277 45.4551C27.3277 45.4347 27.3114 45.4184 27.291 45.4184C27.2706 45.4184 27.2543 45.4347 27.2543 45.4551C27.2543 45.4755 27.2706 45.4919 27.291 45.4919Z"/><path fill="#FFB700" d="M29.5606 45.4755C29.5606 45.4755 29.581 45.4673 29.581 45.4551C29.581 45.4429 29.5728 45.4347 29.5606 45.4347C29.5483 45.4347 29.5402 45.4429 29.5402 45.4551C29.5402 45.4673 29.5483 45.4755 29.5606 45.4755Z"/><path fill="#FFB700" d="M31.8342 45.4632C31.8342 45.4632 31.8424 45.4632 31.8424 45.4551C31.8424 45.4469 31.8424 45.4469 31.8342 45.4469C31.8261 45.4469 31.826 45.4469 31.826 45.4551C31.826 45.4632 31.8261 45.4632 31.8342 45.4632Z"/></svg>