<svg xmlns="http://www.w3.org/2000/svg" width="48" height="48" fill="none" viewBox="0 0 48 48"><rect width="48" height="48" fill="#000"/><path fill="#fff" d="M24.568 34.512C22.3707 34.512 20.344 34 18.488 32.976C16.6533 31.9307 15.192 30.5013 14.104 28.688C13.016 26.8533 12.472 24.8053 12.472 22.544C12.472 20.2827 13.016 18.2453 14.104 16.432C15.192 14.5973 16.6533 13.168 18.488 12.144C20.344 11.0987 22.3707 10.576 24.568 10.576C26.36 10.576 27.992 10.896 29.464 11.536C30.9573 12.1547 32.2373 13.04 33.304 14.192L30.328 17.104C29.56 16.2933 28.7067 15.6853 27.768 15.28C26.8507 14.8747 25.7733 14.672 24.536 14.672C23.128 14.672 21.8373 15.0027 20.664 15.664C19.4907 16.304 18.552 17.232 17.848 18.448C17.1653 19.6427 16.824 21.008 16.824 22.544C16.824 24.08 17.176 25.456 17.88 26.672C18.584 27.8667 19.5227 28.7947 20.696 29.456C21.8907 30.096 23.192 30.416 24.6 30.416C26.7333 30.416 28.4827 29.7867 29.848 28.528C30.2747 28.144 30.648 27.6533 30.968 27.056C31.288 26.4587 31.5227 25.808 31.672 25.104H24.472V21.424H35.704C35.8533 22.0213 35.928 22.6933 35.928 23.44C35.928 24.9547 35.6933 26.3627 35.224 27.664C34.776 28.9653 34.0827 30.1067 33.144 31.088C32.12 32.1973 30.8827 33.0507 29.432 33.648C27.9813 34.224 26.36 34.512 24.568 34.512Z"/></svg>