<svg width="231" height="167" viewBox="0 0 231 167" fill="none" xmlns="http://www.w3.org/2000/svg">
<path d="M122.737 92.1791H117.07V166.023H122.737V92.1791Z" fill="#009701"/>
<path d="M119.904 96.8073C112.234 96.8073 106 90.5733 106 82.9037C106 75.234 112.234 69 119.904 69C127.573 69 133.807 75.234 133.807 82.9037C133.807 90.5733 127.573 96.8073 119.904 96.8073ZM119.904 74.6672C115.37 74.6672 111.667 78.351 111.667 82.9037C111.667 87.4563 115.37 91.1401 119.904 91.1401C124.437 91.1401 128.14 87.4375 128.14 82.9037C128.14 78.3699 124.437 74.6672 119.904 74.6672Z" fill="#009701"/>
<rect width="231" height="68" rx="10.4865" fill="#ADFFAD"/>
<path d="M26.9348 25.4465H19.9438V20.9723H38.6447V25.4465H31.6537V46H26.9348V25.4465ZM39.7045 28.173H44.004V30.5499H44.2836C44.7264 29.711 45.4138 29.0235 46.346 28.4876C47.2781 27.9283 48.3034 27.6486 49.422 27.6486C50.2376 27.6486 50.9833 27.7768 51.6591 28.0332V32.6123C51.0299 32.3792 50.494 32.2161 50.0512 32.1229C49.6317 32.0064 49.1773 31.9481 48.688 31.9481C47.3364 31.9481 46.2644 32.4375 45.4721 33.4162C44.6798 34.395 44.2836 35.63 44.2836 37.1214V46H39.7045V28.173ZM57.2085 26.2155C56.3929 26.2155 55.6938 25.9242 55.1112 25.3416C54.5286 24.759 54.2373 24.0599 54.2373 23.2443C54.2373 22.4287 54.5286 21.7413 55.1112 21.182C55.6938 20.5994 56.3929 20.3081 57.2085 20.3081C58.0241 20.3081 58.7116 20.5994 59.2708 21.182C59.8534 21.7413 60.1447 22.4287 60.1447 23.2443C60.1447 24.0599 59.8534 24.759 59.2708 25.3416C58.7116 25.9242 58.0241 26.2155 57.2085 26.2155ZM54.9015 28.173H59.4806V46H54.9015V28.173ZM62.2898 28.173H67.4981L72.0073 39.778H72.2869L76.866 28.173H82.0044L74.3842 46H69.8401L62.2898 28.173ZM89.6022 46.5593C87.7146 46.5593 86.1649 46.0117 84.9532 44.9164C83.7414 43.7978 83.1355 42.3414 83.1355 40.547C83.1355 39.3586 83.4501 38.3099 84.0793 37.4011C84.7085 36.4923 85.5707 35.7932 86.666 35.3038C87.7612 34.8144 88.973 34.5697 90.3013 34.5697C92.1422 34.5697 93.7152 34.8377 95.0202 35.3737V34.6047C95.0202 33.6259 94.6474 32.8336 93.9016 32.2277C93.1792 31.6219 92.2005 31.3189 90.9654 31.3189C90.1265 31.3189 89.3109 31.517 88.5186 31.9132C87.7496 32.286 87.1087 32.787 86.5961 33.4162L83.6598 31.1092C84.5221 29.9906 85.6057 29.1284 86.9107 28.5225C88.2156 27.9166 89.6371 27.6137 91.1752 27.6137C93.9016 27.6137 95.9756 28.2429 97.3971 29.5013C98.8186 30.7596 99.5294 32.6006 99.5294 35.0241V46H95.0202V44.1823H94.7406C94.2046 44.8814 93.4938 45.4524 92.6083 45.8951C91.7461 46.3379 90.744 46.5593 89.6022 46.5593ZM90.6858 42.9939C92.0141 42.9939 93.0627 42.5744 93.8317 41.7355C94.624 40.8733 95.0202 39.8712 95.0202 38.7294C93.8317 38.1701 92.585 37.8904 91.28 37.8904C88.9031 37.8904 87.7146 38.776 87.7146 40.547C87.7146 41.2694 87.971 41.8637 88.4836 42.3297C88.9963 42.7725 89.7304 42.9939 90.6858 42.9939ZM103.743 28.173H108.043V30.4101H108.322C108.858 29.5479 109.616 28.8721 110.594 28.3827C111.573 27.87 112.633 27.6137 113.775 27.6137C115.919 27.6137 117.55 28.2662 118.669 29.5712C119.787 30.8762 120.347 32.6589 120.347 34.9193V46H115.768V35.4786C115.768 34.3367 115.476 33.4512 114.894 32.822C114.311 32.1928 113.496 31.8782 112.447 31.8782C111.212 31.8782 110.21 32.3559 109.441 33.3114C108.695 34.2668 108.322 35.4669 108.322 36.9117V46H103.743V28.173ZM132.323 46.5593C130.715 46.5593 129.247 46.1631 127.919 45.3708C126.614 44.5552 125.577 43.4366 124.808 42.0151C124.062 40.5703 123.69 38.9274 123.69 37.0865C123.69 35.2688 124.062 33.6376 124.808 32.1928C125.577 30.748 126.614 29.6294 127.919 28.8371C129.247 28.0215 130.715 27.6137 132.323 27.6137C133.535 27.6137 134.607 27.8817 135.539 28.4177C136.471 28.9303 137.182 29.5712 137.672 30.3402H137.951L137.672 27.8234V20.9723H142.216V46H137.951V43.8677H137.672C137.205 44.6368 136.495 45.2776 135.539 45.7903C134.607 46.3029 133.535 46.5593 132.323 46.5593ZM133.092 42.3297C133.955 42.3297 134.759 42.1083 135.504 41.6656C136.25 41.2228 136.844 40.6053 137.287 39.813C137.73 39.0207 137.951 38.1118 137.951 37.0865C137.951 36.0611 137.73 35.1523 137.287 34.36C136.844 33.5677 136.25 32.9618 135.504 32.5423C134.759 32.0996 133.955 31.8782 133.092 31.8782C132.254 31.8782 131.461 32.0996 130.715 32.5423C129.97 32.9618 129.376 33.5677 128.933 34.36C128.49 35.1523 128.269 36.0611 128.269 37.0865C128.269 38.1118 128.49 39.0207 128.933 39.813C129.376 40.6053 129.97 41.2228 130.715 41.6656C131.461 42.1083 132.254 42.3297 133.092 42.3297ZM146.72 28.173H151.019V30.5499H151.299C151.742 29.711 152.429 29.0235 153.361 28.4876C154.294 27.9283 155.319 27.6486 156.437 27.6486C157.253 27.6486 157.999 27.7768 158.675 28.0332V32.6123C158.045 32.3792 157.509 32.2161 157.067 32.1229C156.647 32.0064 156.193 31.9481 155.703 31.9481C154.352 31.9481 153.28 32.4375 152.488 33.4162C151.695 34.395 151.299 35.63 151.299 37.1214V46H146.72V28.173ZM168.069 46.5593C165.925 46.5593 164.294 45.8951 163.175 44.5668C162.057 43.2386 161.497 41.3859 161.497 39.009V28.173H166.077V38.4497C166.077 39.6615 166.368 40.6169 166.95 41.316C167.533 41.9918 168.302 42.3297 169.257 42.3297C170.562 42.3297 171.599 41.852 172.368 40.8966C173.137 39.9411 173.522 38.7294 173.522 37.2613V28.173H178.101V46H173.802V43.7629H173.522C172.986 44.6251 172.229 45.3126 171.25 45.8252C170.294 46.3146 169.234 46.5593 168.069 46.5593ZM182.562 28.173H186.862V30.4101H187.142C187.701 29.5479 188.447 28.8721 189.379 28.3827C190.334 27.87 191.394 27.6137 192.56 27.6137C193.818 27.6137 194.913 27.9166 195.845 28.5225C196.777 29.1051 197.442 29.8508 197.838 30.7596C198.42 29.8275 199.213 29.0701 200.215 28.4876C201.24 27.905 202.44 27.6137 203.815 27.6137C205.842 27.6137 207.38 28.2429 208.429 29.5013C209.501 30.7363 210.037 32.4142 210.037 34.5348V46H205.493V35.3737C205.493 34.2551 205.225 33.3929 204.689 32.787C204.176 32.1811 203.454 31.8782 202.522 31.8782C201.333 31.8782 200.378 32.3559 199.655 33.3114C198.956 34.2435 198.607 35.4786 198.607 37.0166V46H194.028V35.3737C194.028 34.2551 193.748 33.3929 193.189 32.787C192.653 32.1811 191.884 31.8782 190.882 31.8782C189.763 31.8782 188.854 32.3559 188.155 33.3114C187.479 34.2435 187.142 35.4786 187.142 37.0166V46H182.562V28.173Z" fill="#009701"/>
</svg>
